<?xml version="1.0" encoding="UTF-8"?>
<svg xmlns="http://www.w3.org/2000/svg" viewBox="0 0 216.09 155.07">
  <defs>
    <style>
      .cls-1 {
        fill: #f04927;
      }

      .cls-2 {
        fill: #f26e63;
      }

      .cls-3 {
        fill: #fff;
      }

      .cls-4 {
        fill: #c95228;
      }

      .cls-5 {
        fill: #451414;
      }

      .cls-6 {
        fill: #5a5825;
      }

      .cls-7 {
        fill: #f9b092;
      }

      .cls-8 {
        fill: #9b9835;
      }

      .cls-9 {
        fill: #b25126;
      }

      .cls-10 {
        fill: #f47920;
      }

      .cls-11 {
        fill: #f9a01b;
      }

      .cls-12, .cls-13 {
        fill: #f3e2ce;
      }

      .cls-14 {
        fill: #f99c2c;
      }

      .cls-15 {
        fill: #831e19;
      }

      .cls-16 {
        fill: none;
        isolation: isolate;
      }

      .cls-13 {
        mix-blend-mode: overlay;
        opacity: .43;
      }

      .cls-17 {
        fill: #fcb644;
      }

      .cls-18 {
        fill: #9f3021;
      }

      .cls-19 {
        fill: #f58a69;
      }

      .cls-20 {
        fill: #7d7e32;
      }

      .cls-21 {
        fill: #6d1410;
      }
    </style>
  </defs>
  <g class="cls-16">
    <g id="Layer_1" data-name="Layer 1">
      <g>
        <g>
          <path class="cls-21" d="m141.54,17.86c-4.38-7.09,3.47-22.03,14.64-16.75,11.17,5.28,15.54,13.88,15.99,27.76.45,13.88,11.77,17.2,11.77,17.2,0,0-19.01,2.26-26.26-11.92-7.24-14.18-16.15-16.3-16.15-16.3Z"/>
          <path class="cls-15" d="m140.45,11.26c1.9.98,4.05,1.76,6.38,2.27,8.69,1.92,16.72-.6,18.63-5.66-2.36-2.71-5.41-4.94-9.28-6.77-8.28-3.92-14.73,3.28-15.73,10.16Z"/>
          <path class="cls-18" d="m123.13,58.75c-19.47-8.3-12.52-28.67-7.85-35.16,4.68-6.49,18.86-13.43,28.67-9.05s14.64,11.47,16.9,17.5c2.26,6.04-4.98,26.26-12.22,25.5-7.24-.75-25.5,1.21-25.5,1.21Z"/>
          <path class="cls-15" d="m160.86,32.04c-.75-1.99-1.78-4.09-3.17-6.18,0,11.66-7.43,20.98-16.6,20.81-9.17-.17-19.62-7.19-19.62-18.86,0-3.52,3.7-9.4,4.9-12.29-.89.37-1.75.79-2.58,1.22.27,3.39-4.44,8.2-5.03,12.28-1.7,11.68-2.03,19.8-6.63,20.01,1.89,3.84,5.32,7.29,11.01,9.71,0,0,18.26-1.96,25.5-1.21,7.24.75,14.49-19.47,12.22-25.5Z"/>
          <path class="cls-7" d="m134.75,83.8c-11.77,7.09-28.97,15.99-28.97,15.99l-.6-2.87s25.05-19.16,26.86-19.62c1.81-.45,2.72,6.49,2.72,6.49Z"/>
          <path class="cls-19" d="m120.35,92.01c4.76-2.61,9.96-5.54,14.4-8.21,0,0-.91-6.94-2.72-6.49-.79.2-6.02,3.97-11.66,8.15.31,2.01.31,4.23-.02,6.54Z"/>
          <path class="cls-17" d="m133.79,98.54c-12.07-3.92-12.62-12.78-12.47-14.59.15-1.81,12.83-9.81,12.83-9.81l8.9,16.55-9.26,7.85Z"/>
          <path class="cls-11" d="m124.8,81.69c2.94,1.65,7.92.82,12.46-1.77l-3.11-5.78s-6.36,4.02-10.13,7c.23.2.49.39.78.55Z"/>
          <path class="cls-17" d="m179.42,103.87s.6-2.41.3-4.23c-.3-1.81-9.05-10.56-11.62-13.73-2.57-3.17-5.28-18.41-5.28-18.41,0,0-12.07-5.28-14.03-4.07-1.96,1.21-17.35,12.83-17.35,12.83,0,0,2.57,10.41,5.28,13.88,2.72,3.47,5.88,12.07,6.64,19.47l29.12,10.11s7.54-.15,8.75-2.41c1.21-2.26-1.81-13.43-1.81-13.43Z"/>
          <path class="cls-11" d="m179.42,103.87s.6-2.41.3-4.23c-.3-1.81-9.05-10.56-11.62-13.73-2.57-3.17-5.28-18.41-5.28-18.41,0,0-12.07-5.28-14.03-4.07-1.96,1.21-17.35,12.83-17.35,12.83,0,0-2.05,2.56-.91,5.96,3.77-.38,5.1-1.75,6.59-2.56,8-4.32,20.74-.26,28.77,10.36,7.78,10.3,7.94,22.2.91,27.72l5.68,1.97s7.54-.15,8.75-2.41c1.21-2.26-1.81-13.43-1.81-13.43Z"/>
          <path class="cls-8" d="m134.75,129.07c6.79,0,17.2-3.02,17.2-3.02l-8-18.11s-12.37-.75-13.58-.75-13.13-1.96-14.64-.45,19.01,22.33,19.01,22.33Z"/>
          <path class="cls-20" d="m143.96,107.94s-.71-.04-1.81-.11c.99,1.07,1.48,2.18,1.32,3.25-.55,3.67-8.38,5.54-17.48,4.17-1.83-.27-3.57-.66-5.18-1.13,5.65,6.52,13.94,14.93,13.94,14.93,6.79,0,17.2-3.02,17.2-3.02l-8-18.11Z"/>
          <g>
            <path class="cls-7" d="m204.52,87.96c.02.78,2.34,3.87,4.66,3.05.79-.28,3.01-4.42,2.32-4.96-.6-.47-2.07-.63-2.76-.94-.45-.2-1.44-.73-2.84.1-.71.42-1.4,1.84-1.38,2.75h0Z"/>
            <path class="cls-7" d="m209.07,89.9l-1.93.91c2.44.95,5.48,3.46,5.94,3.2,1.25-.7-1.67-2.94-4.01-4.11Z"/>
            <path class="cls-7" d="m210.17,87.87l-1.54,1.32c2.62.56,6.09,3.04,6.48,2.68,1.04-.96-2.37-3.2-4.93-4.01Z"/>
            <path class="cls-7" d="m211.02,85.81l-1.6,1.33c2.67.32,6.18,2.57,6.51,2.29.91-.77-2.27-3.11-4.92-3.62Z"/>
            <path class="cls-7" d="m212.03,81.04c-.49-.27-1.72,1.18-2.76,1.84-1.03.65-2,.67-3.9,2.77l3.15.31s.46-1.31,1.54-2.03c1.09-.73,2.46-2.62,1.97-2.89Z"/>
          </g>
          <g>
            <path class="cls-7" d="m107.82,97.99c.09.78-2.01,4.33-4.66,4.03-.91-.11-3.92-3.73-3.24-4.42.59-.6,2.18-1.07,2.89-1.52.46-.3,1.48-1.03,3.12-.52.83.26,1.79,1.52,1.9,2.43h0Z"/>
            <path class="cls-7" d="m103.12,100.9l2.24.48c-2.53,1.46-5.5,4.6-6.04,4.45-1.46-.42,1.41-3.27,3.8-4.93Z"/>
            <path class="cls-7" d="m101.62,99.12l1.87.98c-2.78,1.11-6.23,4.32-6.7,4.05-1.28-.73,2.14-3.68,4.83-5.03Z"/>
            <path class="cls-7" d="m100.41,97.27l1.93.97c-2.88.9-6.39,3.88-6.8,3.67-1.1-.56,2.04-3.56,4.86-4.64Z"/>
            <path class="cls-7" d="m98.63,92.77c.49-.37,2.05.8,3.28,1.23,1.22.42,2.28.23,4.66,1.9l-3.4.98s-.69-1.19-1.97-1.67c-1.29-.49-3.07-2.06-2.57-2.44Z"/>
          </g>
          <path class="cls-6" d="m122.6,109.96c8.24,2.69,15.66,13.92,15.31,16.98-.35,3.05-7.61,2.22-7.61,2.22,0,0-10.52-20.11-7.7-19.19Z"/>
          <path class="cls-7" d="m123.74,109.2c-4.8-4.17-13.55-2.98-12.53,1.77,2.28,10.62,22.38,25.23,34.87,39.08l2.77-.19c-1.76-3.22-20.31-36.48-25.11-40.65Z"/>
          <path class="cls-19" d="m123.74,109.2c-1.57-1.37-3.56-2.15-5.5-2.43,3.86,2.94,7.87,7.57,11.19,13.29,4.1,7.05,6.24,14.2,6.21,19.5,3.69,3.49,7.3,7.01,10.43,10.49l2.77-.19c-1.76-3.22-20.31-36.48-25.11-40.65Z"/>
          <path class="cls-12" d="m150.75,155.07h-18.86s0-2.41.6-3.42c.6-1.01,9-4.02,11.02-4.23,2.01-.2,4.23-.8,5.43.4,1.21,1.21,1.81,7.24,1.81,7.24Z"/>
          <path class="cls-8" d="m152.71,127.11c5.28,1.51,21.73-.6,22.94-2.26,1.21-1.66,1.66-6.04,1.36-7.54-.3-1.51-1.36-7.7-3.62-8.45s-12.07-3.17-12.98-2.87c-.91.3-.91,1.51-.91,1.51,0,0-15.69-3.62-17.05-2.87-1.36.75,10.26,22.48,10.26,22.48Z"/>
          <path class="cls-20" d="m177,117.3c-.14-.72-.46-2.49-.99-4.23-2.79,1.72-11.18,1.37-20.66-1.07-4.71-1.21-8.94-2.75-12.2-4.33,2.45,6.15,9.55,19.44,9.55,19.44,5.28,1.51,21.73-.6,22.94-2.26,1.21-1.66,1.66-6.04,1.36-7.54Z"/>
          <path class="cls-6" d="m144.78,106.94c8.08,2.81,14.48,14.81,13.82,18.09-.66,3.29-7.93,2.46-7.93,2.46,0,0-8.65-21.51-5.89-20.55Z"/>
          <path class="cls-7" d="m147.48,107.19c-3.82-4.43-10.17-3.62-10.26,1.41-.2,11.27,16.5,26.76,25.75,41.45l2.82-.2c-1.01-3.42-14.49-38.23-18.31-42.65Z"/>
          <path class="cls-19" d="m147.48,107.19c-.58-.67-1.22-1.22-1.89-1.66,2.33,3.52,4.61,7.94,6.54,12.9,3.44,8.83,4.91,17.16,4.27,22.32,2.37,3.1,4.64,6.21,6.57,9.29l2.82-.2c-1.01-3.42-14.49-38.23-18.31-42.65Z"/>
          <path class="cls-12" d="m170.01,155.07h-14.69s-.49-2.41-.09-3.42c.4-1.01,4.02-4.02,5.99-4.23s4.06-.8,5.51.4c1.45,1.21,3.27,7.24,3.27,7.24Z"/>
          <path class="cls-11" d="m160.5,66.5c6.09,1.76,11.86,2.43,12.42,3.37,2.33,3.86,4.62,21.49,2.92,21.73,0,0-7.05-1.7-10.66-4.93-13.28-11.87-4.68-20.17-4.68-20.17Z"/>
          <path class="cls-17" d="m172.93,69.87c-.44-.73-3.99-1.29-8.38-2.32-.63.49-1.12,1.09-1.44,1.8-1.7,3.8,2.29,9.29,8.91,12.25,1.34.6,2.68,1.04,3.99,1.35-.63-5.13-1.84-11.02-3.07-13.06Z"/>
          <path class="cls-13" d="m157.02,65.19c-3.39-1.24-7.21-2.39-8.23-1.76-1.14.7-6.81,4.91-11.36,8.32-.96,6.45,1.9,10.63,6.68,10.54,5.31-.1,10.17-10.13,12.91-17.1Z"/>
          <path class="cls-19" d="m141.09,69.31c-2.41,5.73-1.36,10.41,2.72,10.71,4.07.3,11.17-15.54,11.17-15.54l-4.07-1.51-3.17-5.13-5.88.75,2.72,6.19-3.47,4.53Z"/>
          <path class="cls-7" d="m143.7,77.91c-1.07,0-2.1.12-3.03.33.67,1.03,1.71,1.67,3.13,1.78.89.07,1.92-.63,2.98-1.77-.95-.22-1.99-.35-3.08-.35Z"/>
          <path class="cls-7" d="m116.94,53.32c5.96,14,17.2,16.6,24.45,12.83,7.24-3.77,12.07-10.11,11.02-14.94-3.47-7.54-29.73-11.32-31.54-18.11-4.53,6.04-6.94,13.13-3.92,20.22Z"/>
          <path class="cls-7" d="m151.35,50.45c-3.02-4.23-.45-13.88,2.72-10.86,3.17,3.02,2.41,6.19,1.06,8-1.36,1.81-3.77,2.87-3.77,2.87Z"/>
          <path class="cls-9" d="m176.92,80.04c-1.01-6.13-3.19-10.91-4.87-10.67-1.68.23-4.43,4.67-3.41,10.8,1.01,6.13,5.4,11.63,7.08,11.39,1.68-.23,2.22-5.39,1.21-11.52Z"/>
          <path class="cls-7" d="m168.85,78.06c15.84,7.77,38.03,10.84,38.03,10.84l.69-2.5-36.92-16.01c-1.15,1.56-2.13,5.16-1.8,7.67Z"/>
          <path class="cls-19" d="m177.32,73.29l-6.68-2.9c-1.15,1.56-2.13,5.16-1.8,7.67,5.16,2.53,10.98,4.56,16.5,6.15-4.33-3.81-7.21-7.69-8.03-10.93Z"/>
          <path class="cls-11" d="m132.19,97.95c.51.2,1.04.4,1.61.58l5.23-4.43c.71,1.51,1.4,3.25,2.01,5.09l-2.44-14.94s.08,10.03-6.41,13.7Z"/>
          <path class="cls-10" d="m172.16,90.45c.73.27,1.41.49,1.97.66-6.67-3.73-12.97-10.98-12.97-10.98,0,0,3.84,9,16.74,16.76-1.51-1.85-3.73-4.26-5.74-6.44Z"/>
          <path class="cls-20" d="m171.12,116.85l2.72-1.71c-1.43.19-9.68-4.21-13.24-9.18-.08,0-.15,0-.19.02-.91.3-.91,1.51-.91,1.51,0,0-.41-.09-1.09-.25,5.34,3.52,12.7,9.6,12.7,9.6Z"/>
          <path class="cls-2" d="m153.69,41.71c-1.29-1.22-2.4,1.1-2.39,3.47.19-.1.43-.16.69-.16.65,0,1.17.37,1.17.83s-.52.83-1.17.83c-.19,0-.38-.04-.54-.1.13.56.33,1.08.64,1.51,0,0,1.42-.62,2.22-1.69.8-1.06,1.24-2.93-.62-4.7Z"/>
        </g>
        <g>
          <path class="cls-14" d="m72.05,107.72c3.55,2.94,4.8,4.85,5.11,5.46s-1.01,1.51-2.01,1.31c-1.01-.2-6.74-2.62-7.14-3.22s4.05-3.55,4.05-3.55Z"/>
          <path class="cls-14" d="m63.58,100.4c-.1-4.23,1.71-8.25,2.41-7.85.7.4,1.51,7.34,1.51,7.34l-3.92.5Z"/>
          <path class="cls-10" d="m17.1,151.4c4.83-1.21,3.02-5.03,1.71-5.94-1.55-1.07,2.81-8.5,4.56-8.55,1.76-.05,8.26-.35,11.7-4.89,3.44-4.54,3.61-8.76,3.19-10.3-.42-1.54-5.55-6.53-10.62-4.15-5.07,2.38-3.38,13.61-4.25,14.71-.87,1.1-3.23,1.69-4.16,2.65-.92.97-1.53,6.91-4.04,9.93-3.15,3.17,1.91,6.54,1.91,6.54Z"/>
          <path class="cls-14" d="m18.8,135.76c-.74,1.98-1.5,6.57-3.61,9.1-3.15,3.17,1.91,6.54,1.91,6.54,4.83-1.21,3.02-5.03,1.71-5.94-1.55-1.07,2.81-8.5,4.56-8.55,1.5-.04,6.46-.28,10.02-3.17-3.86-2.45-9.7-1.64-14.59,2.01Z"/>
          <path class="cls-14" d="m62.62,119.56c4.23,5.28,6.79,8.6,8.75,10.56,1.96,1.96,6.79,4.98,8.15,5.43,1.36.45,7.24.91,8.3,1.36s1.06,3.17-1.66,3.47c-2.72.3-5.88-2.41-7.39-3.17-1.51-.75-15.39-6.34-16.9-7.54-1.51-1.21.75-10.11.75-10.11Z"/>
          <path class="cls-10" d="m72.68,131.27c-.5-.4-.95-.79-1.3-1.14-1.96-1.96-4.53-5.28-8.75-10.56,0,0-2.26,8.9-.75,10.11.94.75,6.66,3.19,11.22,5.12-.29-1.21-.43-2.4-.41-3.52Z"/>
          <path class="cls-17" d="m40.89,126.65c11.47,5.82,21.66,4.27,23.19.8,1.51-3.42.2-10.86,2.31-14.69.43-.77.15-5.89.15-5.89l-7.39-3.47s-.91,6.64-3.47,8.3c-2.57,1.66-21.88,3.92-27.76.3,0,0-1.51,11.77-.91,12.68.6.91,3.77-3.17,13.88,1.96Z"/>
          <path class="cls-14" d="m66.55,106.89l-7.39-3.47s-.13.94-.42,2.2c1.39,2.33,2.23,5.35,2.23,8.67,0,7.33-4.12,13.28-9.2,13.28s-9.2-5.95-9.2-13.28c0-.14,0-.27,0-.41-5.74.28-11.78-.09-14.64-1.85,0,0-1.51,11.77-.91,12.68.6.91,3.77-3.17,13.88,1.96,11.47,5.82,21.66,4.27,23.19.8,1.51-3.42.2-10.86,2.31-14.69.43-.77.15-5.89.15-5.89Z"/>
          <path class="cls-14" d="m0,138.42c4.38,1.81,6.64.3,7.39-1.51.75-1.81,5.73-8.15,7.39-7.54,1.66.6,7.85,2.72,12.68-.45,4.83-3.17,6.49-7.24,6.64-8.9.15-1.66-2.87-8.45-8.45-8s-8,12.07-9.2,12.83-3.62.45-4.83,1.06c-1.21.6-3.92,7.39-5.73,7.54-5.13-1.06-5.88,4.98-5.88,4.98Z"/>
          <path class="cls-17" d="m10.21,127.73c-1.33,2.21-3.05,5.6-4.33,5.71-5.13-1.06-5.88,4.98-5.88,4.98,4.38,1.81,6.64.3,7.39-1.51.32-.77,1.41-2.36,2.68-3.88.79-2.17.87-4.1.14-5.3Z"/>
          <path class="cls-17" d="m31.38,125.46c1.86-2.23,2.62-4.36,2.72-5.44.15-1.66-2.87-8.45-8.45-8-.29.02-.56.08-.83.16-.74.51-1.45,1.1-2.13,1.78-4.11,4.14-5.16,9.77-2.33,12.57,2.49,2.47,7.14,1.92,11.02-1.07Z"/>
          <path class="cls-17" d="m48.14,126.05c5.73,5.58,11.62,7.39,14.49,9.66,2.87,2.26,9.2,5.58,10.26,6.34,1.06.75,2.72,3.02,4.98,1.96,2.26-1.06,3.17-2.57,1.51-3.32-1.66-.75-3.47-.3-7.39-2.41-3.92-2.11-5.43-4.07-6.49-5.58-1.06-1.51-2.72-8.45-4.68-10.56-1.96-2.11-11.02-2.57-12.07-1.81-1.06.75-.6,5.73-.6,5.73Z"/>
          <path class="cls-14" d="m66.66,134.21c-.47-.54-.84-1.05-1.17-1.52-.62-.88-1.44-3.62-2.41-6.16-.02,1.27-.39,2.42-1.17,3.31-1.64,1.86-4.64,2.1-7.75.92,3.51,2.22,6.62,3.5,8.47,4.96,1.27,1,3.23,2.22,5.1,3.32-1.21-1.71-1.65-3.42-1.07-4.82Z"/>
          <path class="cls-10" d="m59.15,103.42s-.2,1.45-.67,3.17c.46,2.77,2.04,6.66,6.81,10.13.19-1.49.51-2.87,1.11-3.95.43-.77.15-5.89.15-5.89l-7.39-3.47Z"/>
          <path class="cls-17" d="m69.51,111.76c-4.23.7-10.16-1.51-10.86-5.43s4.23-6.54,6.04-6.94c1.81-.4,4.43-.6,5.63.1,1.21.7,2.41,3.12,3.52,3.22,1.11.1,5.43-1.31,6.04-.6.6.7,1.51,4.33.4,5.43s-7.34,2.41-8.45,2.51c-1.11.1-2.31,1.71-2.31,1.71Z"/>
          <path class="cls-14" d="m71.22,109.15c-5.76,0-9.81-4.04-11.02-7.58-.66.97-1.79,3.49-1.56,4.77.7,3.92,6.64,6.14,10.86,5.43,0,0,1.21-1.61,2.31-1.71,1.11-.1,7.34-1.41,8.45-2.51.33-.33.47-.87.51-1.49-2.21,1.88-5.66,3.1-9.56,3.1Z"/>
          <path class="cls-17" d="m58.95,105.23c-2.82-5.33-2.72-12.27-2.31-12.88.4-.6,5.53,7.95,5.83,8.55s-3.52,4.33-3.52,4.33Z"/>
          <path class="cls-14" d="m58.16,99.71c-.7-1.13-1.25-2.26-1.63-3.3.23,2.57.9,5.93,2.42,8.82,0,0,1.01-.99,1.95-2.03-.92-.89-1.88-2.09-2.75-3.49Z"/>
          <path class="cls-1" d="m59.26,104.58c-1.73-3.27-1.67-7.53-1.42-7.9.25-.37,3.39,4.87,3.58,5.24s-2.16,2.65-2.16,2.65Z"/>
          <path class="cls-17" d="m28.77,112.77c-4.83-2.92-5.23-6.54-3.62-9.56,1.61-3.02,6.34-5.53,8.95-4.73-3.72-4.02-11.88-.55-12.78,5.94-.8,5.83,3.22,8.05,5.33,8.55,2.11.5,2.11-.2,2.11-.2Z"/>
          <path class="cls-4" d="m75.88,102.96c.13,1.71,4.15,1.28,4.45,1.13s.15-2.19-.38-2.41c-.53-.23-4.07,1.28-4.07,1.28Z"/>
          <path class="cls-10" d="m64.23,129.27c-.99-2.31-3.42-7.17-3.42-7.17l2.85,1.69,1.36-1.37c.52,2.08.18,4.79-.79,6.84Z"/>
          <path class="cls-1" d="m69.44,109.88c3.82,2.62,6.56,3.82,7.04,3.36s-2.96-3.49-2.96-3.49c-1.08.2-2.54.3-4.07.13Z"/>
          <path class="cls-15" d="m66.99,103.21c.58-.06,1.12.12,1.56.45-.18-.44-.55-.99-1.29-1.26-1.15-.41-2.19.57-2.1,2.2.32-.75,1-1.31,1.83-1.39Z"/>
          <path class="cls-15" d="m71.27,101.55c.37-.05.77.13,1.13.46-.22-.43-.58-.97-1.13-1.23-.85-.41-1.31.51-.88,2.09.04-.72.36-1.25.89-1.32Z"/>
        </g>
        <g>
          <path class="cls-5" d="m135.33,63.53c3.51-3.22.38-6.7.38-6.7,0,0-6.59,2.79-6.87,3.38-.28.59,4.29,5.34,6.49,3.32Z"/>
          <path class="cls-3" d="m135.52,57.24s.68.76.96,1.85c-.77.7-1.77,1.35-2.93,1.87-.85.38-1.71.65-2.53.81-.82-.73-1.38-1.48-1.28-1.68.24-.5,5.78-2.85,5.78-2.85Z"/>
          <path class="cls-19" d="m136.67,64.69c1.33-.8.89-2.25-.17-.84-1.07,1.43-.28,1.11.17.84Z"/>
          <path class="cls-19" d="m129.07,54.8c.17-.22.44-.22.74-.09-1.03,1.44-1.32,2.44-.55,2.81.4.19.95.17,1.49.01-.74.54-1.85.81-2.52.49-.84-.4-.43-1.55.85-3.22Z"/>
          <path class="cls-5" d="m137.93,49.62c-.73.09-1.55.34-2.35.76-.6.31-1.11.68-1.55,1.08-.08-.11-.16-.22-.23-.34-.84-1.43-.65-3.07.42-3.65,1.06-.58,2.59.1,3.42,1.52.12.21.22.42.29.63Z"/>
          <path class="cls-5" d="m125.03,56.56c-.7.15-1.46.48-2.2,1-.55.38-1.02.83-1.41,1.29-.08-.11-.17-.23-.24-.35-.89-1.51-.82-3.32.17-4.04.98-.71,2.48-.07,3.36,1.43.13.22.23.45.32.68Z"/>
          <path class="cls-18" d="m117.62,55.8c1.39-1.62,4.77-4.51,4.91-5.31.15-.8-.7-2.66-2.03-2.59-1.34.06-4.25,4.3-4.51,5.28-.25.99.8,3.58,1.63,2.62Z"/>
          <path class="cls-18" d="m138.13,44.36c-2.38.42-7.45,2.12-8.28,1.79-.83-.33-1.79-2.33-.66-3.64,1.12-1.3,6.95-1.61,7.95-1.27,1,.34,2.38,2.87.99,3.11Z"/>
        </g>
      </g>
    </g>
  </g>
</svg>