<?xml version="1.0" encoding="UTF-8"?>
<svg xmlns="http://www.w3.org/2000/svg" viewBox="0 0 204.92 214.32">
  <defs>
    <style>
      .cls-1 {
        fill: #f26e63;
      }

      .cls-2, .cls-3 {
        fill: #fff;
      }

      .cls-4 {
        fill: #d1af94;
      }

      .cls-5 {
        fill: #911e32;
      }

      .cls-6 {
        fill: #f9b092;
      }

      .cls-7 {
        fill: #701824;
      }

      .cls-8 {
        fill: #d14d40;
      }

      .cls-9, .cls-3 {
        mix-blend-mode: overlay;
      }

      .cls-9, .cls-10 {
        fill: none;
      }

      .cls-11 {
        fill: #5e3a33;
      }

      .cls-12 {
        fill: #682c39;
      }

      .cls-13 {
        fill: #f3e2ce;
      }

      .cls-14 {
        fill: #442a20;
      }

      .cls-10 {
        isolation: isolate;
      }

      .cls-15 {
        fill: #d82f87;
      }

      .cls-16 {
        fill: #f99c2d;
      }

      .cls-17 {
        fill: #bc9a80;
      }

      .cls-18 {
        fill: #60a1c7;
      }

      .cls-19 {
        fill: #395a88;
      }

      .cls-20 {
        fill: #f2d1b2;
      }

      .cls-21 {
        fill: #854f42;
      }

      .cls-22 {
        fill: #f58a69;
      }

      .cls-23 {
        fill: #3a7ba8;
      }

      .cls-24 {
        fill: #4ea2d1;
      }

      .cls-25 {
        fill: #ee4292;
      }
    </style>
  </defs>
  <g class="cls-10">
    <g id="Layer_1" data-name="Layer 1">
      <g>
        <g>
          <path class="cls-6" d="m190.24,97.73c-.4.93.99,6.11,4.48,6.68,1.19.2,6.34-3.22,5.73-4.32-.53-.95-2.39-2.11-3.13-2.93-.48-.53-1.51-1.81-3.78-1.76-1.15.02-2.83,1.24-3.3,2.33h0Z"/>
          <path class="cls-6" d="m195.18,103.03l-3.03-.21c2.7,2.73,5.34,7.7,6.08,7.7,2.02,0-.61-4.56-3.05-7.49Z"/>
          <path class="cls-6" d="m197.73,101.37l-2.74.54c3.14,2.39,6.37,7.61,7.07,7.44,1.89-.44-1.39-5.34-4.33-7.98Z"/>
          <path class="cls-6" d="m199.95,99.5l-2.81.51c3.34,2.15,6.73,7.12,7.33,7,1.61-.3-1.3-5.16-4.51-7.51Z"/>
          <path class="cls-6" d="m203.2,98.35c-.2-.78-2.77-.9-4.39-1.49-1.6-.59-2.54-1.66-6.36-1.97l2.7,3.81s1.69-.62,3.4-.04c1.73.59,4.85.49,4.65-.3Z"/>
        </g>
        <ellipse class="cls-6" cx="112.77" cy="125.99" rx="2.34" ry="2.98"/>
        <path class="cls-12" d="m74.47,192.45c-8.51,0-17.02-4.42-23.85-12.91l.92-.74c10.55,13.12,25.22,16.16,37.38,7.73,10.82-7.5,17.53-49.28,17.11-52.09l1.17-.18c.43,2.87-6.12,45.28-17.6,53.24-4.79,3.32-9.96,4.95-15.12,4.95Z"/>
        <path class="cls-16" d="m107.36,136.31c-8.3-3.02-5.88-13.73-1.06-15.09,4.83-1.36,8.45,7.24,8.45,7.24l-7.39,7.85Z"/>
        <path class="cls-15" d="m110.43,128.51c0-3.06-2.43-5.53-5.43-5.53-.46,0-.91.06-1.33.17-2.08,2.73-2.65,7.54.09,10.74.4.1.81.15,1.24.15,3,0,5.43-2.48,5.43-5.53Z"/>
        <path class="cls-6" d="m114.98,118.81c-.3,2.72.15,6.31.08,6.84-.08.53-1.43.1-1.66.1s-.98,2.04-2.19,2.41c-1.21.38-4.45-3.92-4.9-5.21-.45-1.28,2.41-3.7,3.24-4.9.83-1.21,3.02-5.21,3.02-5.21l3.24,3.85-.83,2.11Z"/>
        <path class="cls-4" d="m52.51,161.74c.08-3.24,1.74-6.11,3.02-6.41,1.28-.3,1.43,1.89,1.43,1.89l.6.08s.45,1.74-.08,3.17c-.53,1.43-.68,3.55-.68,3.55l-4.3-2.26Z"/>
        <path class="cls-4" d="m18.49,171.63c-4.42-3.26-6.01-2.77-7.07-4.57-1.06-1.79,0-4.57.62-5.06.62-.49,1.77.16,1.86.98.09.82,1.41,2.37,3.98,1.47,0,0,.35-2.37-.44-3.51l.97.33s.71-2.45-2.47-4.24c-3.18-1.79-6.1-1.96-7.07.41s-.62,7.91.09,8.89l-.97-.08s1.06,4.16,2.47,5.06c1.41.9,8.04.33,8.04.33Z"/>
        <path class="cls-17" d="m.07,207.13c.91-3.07,5.13-6.49,5.96-9.77.56-2.21,1.91-4.63,3.09-5.41,1.18-.77,2.79-.98,2.79-.98,2.89-4.95,11.09-8.83,14.04-9.32,2.95-.49,7.63,6.49,3.6,11.04-4.03,4.55-5.17,6.31-9.76,7.54-3.07.83-7.35-.46-8.97-.48s-5.02,2.57-5.21,4.29c-.19,1.72.83,3.57.05,5.04-.79,1.48-1.86,2.72-4.17,2.32-.94-.16-1.74-3.17-1.41-4.27Z"/>
        <path class="cls-17" d="m43.12,213.92h-7.88c-.92-4.83,2.1-13.28,3.37-15.69,1.27-2.41,2.74-13.88,2.74-13.88l9.56.7s-1.58,9.05-3.72,11.47c-2.14,2.41-6.28,9.36-6.46,12.37,0,0,4,1.21,2.38,5.03Z"/>
        <path class="cls-4" d="m41.23,203.42c-2.88.26-5.24,4.95-5.81,10.5h7.71c1.62-3.82-2.38-5.03-2.38-5.03.08-1.26.85-3.21,1.87-5.23-.44-.2-.9-.29-1.39-.24Z"/>
        <path class="cls-16" d="m128.3,196.41l-5.74-.45s-2.45,4.83-3.48,7.47l2.24,1.79c.53-1.53,6.99-8.81,6.99-8.81Z"/>
        <path class="cls-16" d="m183.77,198.33l-4.12,4.02s2.01,5.03,3.32,7.54l2.82-.5c-.8-1.41-2.01-11.07-2.01-11.07Z"/>
        <path class="cls-13" d="m115.02,205.94s2.93,7.61,6.76,7.61h9.53c.4,0,.07-3.77-.5-4.34s-5.19-.92-6.12-1.85c-.92-.92-.68-2.89-1.03-3.37-.36-.49-3.64-2.19-4.68-2.04-1,.14-3.96,3.99-3.96,3.99Z"/>
        <path class="cls-13" d="m183.16,214.32h9.56c3.82,0,7.34-5.73,7.34-6.14s-2.62-2.72-3.42-2.72-4.33,3.02-5.63,3.02-3.52-1.01-4.12-1.01-3.82,1.61-4.63,2.21.91,4.63.91,4.63Z"/>
        <path class="cls-5" d="m111.44,72.18c20.07,7.24,40.59-12.83,41.19-21.43.6-8.6,13.28-9.51,12.37-22.63s-6.19-14.49-6.19-14.49c0,0,.15-11.02-11.62-13.28-11.77-2.26-17.35,7.09-17.35,7.09,0,0-9.05.75-12.68,9.81-3.7,9.25,2.26,15.39,4.83,19.01,2.57,3.62-4.68,12.07-1.96,27.01,1.07,5.87-8.6,8.9-8.6,8.9Z"/>
        <path class="cls-7" d="m165.01,28.12c-.02-.24-.04-.46-.06-.69-9.69,4.82-22.28-.09-28.45-11.25-2.21-4-3.3-8.27-3.37-12.37-2.2,1.83-3.28,3.63-3.28,3.63,0,0-.07,0-.18.02,4.67,3.94,6.44,10.53,3.92,16.31-2.53,5.79-8.59,8.97-14.67,8.2,1.09,1.7,2.26,3.13,3.09,4.29,2.57,3.62-4.68,12.07-1.96,27.01,1.07,5.87-8.6,8.9-8.6,8.9,20.07,7.24,40.59-12.83,41.19-21.43.6-8.6,13.28-9.51,12.37-22.63Z"/>
        <path class="cls-25" d="m154.08,38.88c8.51,8.7,19.14,33.51,22.46,37.41,3.32,3.9,15.82,16.37,16.6,17.54.78,1.17-.98,6.62-2.73,7.01-1.76.39-21.48-16.17-23.63-18.71-2.15-2.53-13.08-22.99-13.08-22.99l.39-20.26Z"/>
        <path class="cls-15" d="m170.33,75.32c-9.49-13.39-14.72-26.71-13.56-33.27-.91-1.2-1.81-2.27-2.69-3.17l-.39,20.26s10.94,20.46,13.08,22.99c2.15,2.53,21.87,19.09,23.63,18.71.91-.2,1.81-1.75,2.37-3.36-6.44-3.39-14.86-11.49-22.44-22.16Z"/>
        <path class="cls-23" d="m178.23,207.68c5.63-2.01,7.24-5.83,7.24-5.83,0,0-9.46-56.74-11.07-62.17-1.61-5.43-12.88-50.5-12.88-50.5l-21.73-1.41c-9.86,10.66-7.44,34.2,2.21,47.48,9.66,13.28,14.69,20.12,16.9,26.16,2.21,6.04,19.31,46.27,19.31,46.27Z"/>
        <path class="cls-19" d="m164.35,146.12c-.4-2.01-5.08-36.97-5.08-36.97l-2.44-20.27-17.02-1.1c-9.86,10.66-7.44,34.2,2.21,47.48,9.66,13.28,14.69,20.12,16.9,26.16,2.21,6.04,19.31,46.27,19.31,46.27,1.61-.58,2.89-1.3,3.9-2.04-5.38-18.43-17.47-57.97-17.78-59.52Z"/>
        <path class="cls-23" d="m163.35,107.49s-3.72,3.47-3.92,4.07-8.75,43.81-9.36,46.02c-.6,2.21-22.53,44.87-22.53,44.87,0,0-4.83-1.61-8.05-5.83,0,0,14.39-44.82,14.79-47.43s-2.31-42.5.1-50.55,5.43-10.86,5.43-10.86l21.73,1.41,1.81,18.31Z"/>
        <path class="cls-19" d="m143.43,153.51c1.21-3.47.79-45.5,1.21-48.44.98-6.94,2.72-12.98,2.87-16.75l-7.7-.55s-3.02,2.82-5.43,10.86.3,47.93-.1,50.55c-.4,2.62-14.79,47.43-14.79,47.43,1.39,1.82,3.08,3.16,4.55,4.09,7.02-12.19,18.8-45.48,19.39-47.19Z"/>
        <path class="cls-18" d="m143.47,89.39c-4.49,8.34-3.68,44.6-3.41,56.51.05,2.15.08,3.69.06,3.96-.13,1.5-13.15,36.04-18.38,49.13.16.14.32.27.47.4,5.01-12.54,18.35-47.76,18.49-49.48.02-.3,0-1.7-.06-4.03-.26-11.88-1.07-48.02,3.34-56.22l-.52-.28Z"/>
        <path class="cls-25" d="m138,89.78c11.92,5.03,24.14.4,24.14.4,0,0-2.51-18.81-1.06-24.34.73-2.75,2.67-6.99,2.87-8.6.2-1.61-8.45-18.56-10.46-19.16-2.01-.6-7.44-.4-9.46,1.81-2.01,2.21-5.23,4.23-5.23,7.65s4.41,15.54,5.43,19.72c1.76,7.19-3.52,14.44-6.24,22.53Z"/>
        <path class="cls-15" d="m153.49,38.08c-2.01-.6-7.44-.4-9.46,1.81-2.01,2.21-5.23,4.23-5.23,7.65,0,.84.27,2.2.68,3.83.65-.12,2.29-2.37,2.97-2.35,8,.23,11.6-2.48,14.94-5.63-1.67-2.87-3.19-5.09-3.9-5.31Z"/>
        <path class="cls-15" d="m149.92,61.92c-3.8-.27-7.24-1.66-10.83-16.1-.18.53-.29,1.1-.29,1.72,0,3.42,4.41,15.54,5.43,19.72,1.76,7.19-3.52,14.44-6.24,22.53,2.87,1.21,5.75,1.86,8.48,2.15.47-12.32,6.45-24.73,10.53-24.73,1.32,0,2.55,1,3.64,2.75.04-1.67.18-3.11.44-4.1.72-2.73,2.63-6.92,2.86-8.56-2.96,1.36-11.24,4.83-14.03,4.63Z"/>
        <path class="cls-25" d="m146.24,61.82c-1.21,6.04-13.48,24.14-14.69,27.16-1.21,3.02-12.07,27.97-14.28,28.97-2.21,1.01-6.64-3.02-6.84-3.62s10.26-28.97,11.67-33.8,15.29-33.8,17.5-35.21c2.21-1.41,6.99,14.72,6.64,16.5Z"/>
        <path class="cls-15" d="m129.49,74.19c4.19-9.55,8.72-18.17,13.09-25.18-1.09-2.48-2.19-4.19-2.97-3.69-2.21,1.41-16.1,30.38-17.5,35.21s-11.87,33.2-11.67,33.8c.19.56,3.95,4.01,6.28,3.76.42-9.76,5.02-26.19,12.78-43.9Z"/>
        <path class="cls-6" d="m158.52,48.34c.61-.24-2.51-6.57-4.06-9.4-.4-.48-.73-.79-.97-.86-1.71-.51-5.9-.44-8.35.96,5.79,5.76,12.65,9.59,13.38,9.3Z"/>
        <path class="cls-22" d="m154.46,38.93c-.4-.48-.73-.79-.97-.86-1.71-.51-5.9-.44-8.35.96,2.93,2.92,6.14,5.34,8.69,6.99,1.18-.59,2.22-1.37,3.06-2.29-.82-1.74-1.77-3.58-2.43-4.79Z"/>
        <path class="cls-22" d="m146.14,38.88c.6-1.81-.91-5.23-.91-5.23l5.63-.6,3.72,6.84-8.45-1.01Z"/>
        <path class="cls-6" d="m138.4,31.64c5.96,7.7,16.1,4.63,16.1,4.63,0,0,.56-10.11-4.47-14.54s-14.01-3.67-15.01-4.07c-1.25,4.58.97,10.86,3.39,13.98Z"/>
        <path class="cls-20" d="m19.99,192.09c2.41,3.52,5.23,3.12,5.23,3.12,0,0,3.72,3.52,6.14,3.22,2.41-.3,2.92-2.01,2.92-2.01,0,0,1.41,2.82,6.74,1.41,5.33-1.41,7.65-6.14,7.65-6.14,0,0,3.02.3,4.02-2.01,1.01-2.31,1.21-5.33,1.21-5.33l-12.37-13.58s-5.63-1.21-8.95,2.01c0,0-2.51-2.21-6.44-1.11,0,0-3.62-2.01-6.24-1.21,0,0-8.35-3.32-11.97,2.41-3.62,5.73-3.12,16.7-.3,19.11,2.82,2.41,12.37.1,12.37.1Z"/>
        <path class="cls-4" d="m41.52,170.77s-2.97-.63-5.86.25c3.95,12.07,3,17.25-6.23,18.11-7.47.69-21.91-5.58-21.91-12.52,0-1.54,1.21-4.23,2.56-5.9-.81.51-1.55,1.21-2.16,2.17-3.62,5.73-3.12,16.7-.3,19.11,2.82,2.41,12.37.1,12.37.1,2.41,3.52,5.23,3.12,5.23,3.12,0,0,3.72,3.52,6.14,3.22,2.41-.3,2.92-2.01,2.92-2.01,0,0,1.41,2.82,6.74,1.41,5.33-1.41,7.65-6.14,7.65-6.14,0,0,3.02.3,4.02-2.01,1.01-2.31,1.21-5.33,1.21-5.33l-12.37-13.58Z"/>
        <path class="cls-17" d="m15.77,180.75c4,1.28,8,5.21,9.51,14.79l-6.56.15-2.94-14.94Z"/>
        <path class="cls-20" d="m15.37,213.61c-2.21-1.81-4.02-8.35-5.63-9.96-1.61-1.61-3.12-3.92-3.22-5.33s.5-2.92.5-2.92c-2.92-4.93-2.31-13.98-1.31-16.8,1.01-2.82,13.38,1.31,15.39,7.04,2.01,5.73,2.11,11.57-.91,12.57s-5.23,1.01-6.04,2.41c-.8,1.41-.2,5.63,1.21,6.64s3.52,1.01,4.43,2.41c.91,1.41,1.21,3.32.3,3.62s-3.84,1.03-4.73.3Z"/>
        <path class="cls-4" d="m13.43,203.23c.12-.09.25-.17.38-.24-.05-.96.05-1.85.35-2.36.8-1.41,3.02-1.41,6.04-2.41s2.92-6.84.91-12.57c-.23-.65-.6-1.28-1.06-1.88,1.69,5.8.19,11.37-3.67,12.85-3.78,1.45-8.51-1.54-11.17-6.79.32,2.05.89,4.02,1.81,5.58,0,0-.6,1.51-.5,2.92s1.61,3.72,3.22,5.33c.87.87,1.8,3.18,2.82,5.4-.73-2.56-.49-4.77.88-5.82Z"/>
        <path class="cls-17" d="m48.67,192.75c-3.32-.15-5.28-2.04-5.28-2.04,0,0-.83-7.62-3.85-8.75l.45,11.92,5.73,2.87,2.94-4Z"/>
        <path class="cls-4" d="m33.42,183.44s-2.26,3.12-1.91,9.15l3.32,2.01c-2.46-6.19-1.41-11.17-1.41-11.17Z"/>
        <path class="cls-20" d="m33.88,197.02c-2.16-5.13-1.06-14.34-.6-14.79s5.61-2.12,7.39.3c2.11,2.87.91,9.81.91,9.81,0,0,5.43.6,8.3,3.02s4.98,8.15,3.62,9.51c-1.36,1.36-4.68,2.87-6.04,1.21-1.36-1.66-1.33-5.12-1.21-5.73.45-2.26-11.17-.45-12.37-3.32Z"/>
        <path class="cls-17" d="m49.12,185.58s1.79,1.83,4.43,1.21c.27-1.36.35-2.45.35-2.45l-6.02-6.61-6.38-.31c-.15,6.26,3.77,7.47,7.62,8.15Z"/>
        <path class="cls-12" d="m52.97,176.37c-1.46-4.42-6.12-8-10.41-8s-6.59,3.58-5.13,8c1.46,4.42,6.12,8,10.41,8s6.59-3.58,5.13-8Z"/>
        <path class="cls-20" d="m37.35,171.55c-.91,3.09.3,5.05,2.04,5.96,0,0-.83,1.58,1.96,2.19l.68-.68s-.75,2.57,2.79,3.85c3.55,1.28,5.28.53,5.28.53,0,0,.58.98,2.29,1.66,1.71.68,5.18-.53,6.99-2.49,0,0,1.13,1.51,3.02,1.06s3.92-6.26,3.55-7.47c-.38-1.21-1.43-1.74-1.43-1.74,0,0,.91-2.11-.45-3.4-1.36-1.28-2.72-1.66-2.72-1.66,0,0-.68-1.81-2.34-2.49,0,0,.38-2.41-1.06-3.02-1.43-.6-2.19-1.13-1.81-2.11,0,0-1.51-1.36-4.6-.6l.3-1.06s-2.49,0-3.4.83c0,0-2.57-1.06-4.75-.3s-3.09,2.64-3.09,2.64c0,0-1.66.91-1.66,3.55,0,0-1.51,2.41-3.62,1.43.15,2.26,2.04,3.32,2.04,3.32Z"/>
        <path class="cls-4" d="m45.19,162.99c-.24-1.28-1.34-1.1-3.25-1.4-.94.79-1.35,1.65-1.35,1.65,0,0-1.66.91-1.66,3.55,0,0-1.51,2.41-3.62,1.43,0,.13.02.25.04.36,1.24.41,2.84.52,4.54.2,3.46-.64,5.67-3.83,5.3-5.8Z"/>
        <path class="cls-20" d="m40.97,164.53c-1.51-1.75-1.74-3.85-1.74-3.85l.75.68s-1.13-3.24-.68-4.45c0,0,2.41-1.13,3.62-.23,1.21.91,1.51,2.79,1.51,2.79,0,0,1.06.91,1.13,2.87.08,1.96-3.62,3.32-4.6,2.19Z"/>
        <path class="cls-4" d="m45.21,163.43c-1.17-3.37-3.38-5.61-5.13-5.1-.29.08-.54.25-.77.46.22,1.27.67,2.58.67,2.58l-.75-.68s.22,2.1,1.74,3.85c.78.91,4.02.63,4.24-1.1Z"/>
        <path class="cls-21" d="m58.73,171.48c1.96,1.76,4.38.47,4.65.28.27-.19-.1-2.61-1-2.76-.9-.14-4.3,1.89-3.65,2.47Z"/>
        <path class="cls-19" d="m163.65,108.7c0,.45-4.23,5.28-4.23,5.28,0,0-7.54-4.23-7.09-4.38s6.79.91,6.79.91l4.53-1.81Z"/>
        <path class="cls-3" d="m171.94,86.9c1.48,1.28,3.16,2.7,4.88,4.12,2.12-2.85,3.86-6.53,4.94-9.1-1.82-1.9-3.46-3.63-4.57-4.88-.91,2.39-2.61,6.18-5.25,9.86Z"/>
        <polygon class="cls-18" points="152.78 94.36 153.09 97.53 160.03 96.63 158.97 93.15 152.78 94.36"/>
        <g class="cls-9">
          <path class="cls-2" d="m131.81,59.08c-.59,1.18-1.18,2.38-1.76,3.58,5.53,2.31,9.36,8.28,10.71,10.68.69-1.2,1.36-2.38,1.98-3.53-1.25-2.51-4.76-8.41-10.93-10.73Z"/>
          <path class="cls-2" d="m128.02,66.9c-.3.64-.6,1.27-.89,1.89,5.15,1.63,9.19,6.33,11.08,8.89.32-.53.64-1.07.96-1.61-1.59-2.47-5.37-7.38-11.15-9.17Z"/>
        </g>
        <path class="cls-6" d="m154.88,25.12c-3.89-2.69-3.92-5.67-1.82-5.42,2.1.25,1.82,5.42,1.82,5.42Z"/>
        <path class="cls-8" d="m44.62,164.03c-.08-1.77-2.41-5.38-3.65-5.29-1.36.1.1,3.82.1,3.82,0,0-.11,1.33.78,2.35.84.09,1.97-.27,2.77-.89Z"/>
        <path class="cls-11" d="m57.75,166.53c.27.06.53.16.76.27.43-.81.01-1.57-1.1-1.56-1,0-1.29.35-.88,1.2.38-.03.79-.01,1.21.09Z"/>
        <path class="cls-11" d="m48.15,168.31c.32-.19.69-.34,1.09-.44.27-.07.54-.1.8-.12.34-.84.15-1.31-.96-1.3-1.47.01-2.07,1.19-.93,1.86Z"/>
        <path class="cls-4" d="m61.84,174.84s-1.94,9.83-9.46,10.21c1.71.68,5.18-.53,6.99-2.49,0,0,.73.97,2,1.12-.35-2.45.47-8.84.47-8.84Z"/>
        <path class="cls-20" d="m15.92,157.03c-1.91-1.08-3.72-1.56-5.07-1.27-1.48,1.25-3.23,7.15.24,10.48-.44-1.72.42-3.82.95-4.24.62-.49,1.77.16,1.86.98.09.82,1.41,2.37,3.98,1.47,0,0,.35-2.37-.44-3.51l.97.33s.71-2.45-2.47-4.24Z"/>
        <path class="cls-4" d="m41.95,191.92s.83-6.51-1.28-9.38c-.38-.51-2.52-3.83-3.12-4.02,1.26,7.14-.18,15.82-2.84,15.82-.59,0-1.16-.09-1.68-.28.2,1.07.47,2.08.85,2.97.26.61.99,1.01,1.97,1.28,1.53-3.68,7.49-5.07,13.71-3.17-2.93-2.21-7.61-3.21-7.61-3.21Z"/>
        <path class="cls-24" d="m199.12,207.08c-1.24,3.36-6.34,5.88-12.46,5.88-1.46,0-2.85-.15-4.15-.41.31.95.65,1.77.65,1.77h9.56c3.82,0,7.34-5.73,7.34-6.14,0-.16-.41-.61-.95-1.11Z"/>
        <path class="cls-24" d="m127.73,211.61c-5.33,0-9.92-2.71-11.97-6.59-.44.53-.74.92-.74.92,0,0,2.93,7.61,6.76,7.61h9.53c.23,0,.22-1.22.06-2.38-1.16.28-2.38.44-3.64.44Z"/>
        <g>
          <path class="cls-14" d="m151.04,34.3c1.92-1.51-.54-4.43-.54-4.43l-3.4,3.47s2.74,1.91,3.94.96Z"/>
          <path class="cls-2" d="m150.39,30.22s.38.46.7,1.08c-.16.25-.33.51-.52.76-.54.74-1.11,1.4-1.67,1.95-.79-.32-1.47-.78-1.47-.78l2.96-3.01Z"/>
          <path class="cls-1" d="m144.71,30.13s.14.02.34.05c.18.6.5.92.87,1.08.35.15.88-.15,1.19-.65,0,0,0,0,0,0,.02.16-.98,1.74-1.47,1.53-.49-.21-.75-1.46-.94-2.01Z"/>
          <path class="cls-14" d="m145.67,26.14c-.87-.73-1.15-1.79-.65-2.36.51-.57,1.62-.44,2.49.29.87.73,1.15,1.79.65,2.36-.51.57-1.62.44-2.49-.29Z"/>
          <path class="cls-14" d="m142.02,29.88c-.57-.81-1.59-1.27-2.29-1.03-.7.24-.8,1.09-.24,1.9.57.81,1.59,1.27,2.29,1.03s.8-1.09.24-1.9Z"/>
          <path class="cls-14" d="m149.03,23.53c-4.15-.13-4.57,2.03-4.57,2.03,0,0-.58-1.83.9-2.59,1.48-.77,3.67.57,3.67.57Z"/>
          <path class="cls-14" d="m142.21,28.36c-3.6.59-3.37,2.8-3.37,2.8,0,0-.99-1.7.06-2.72,1.06-1.02,3.3-.08,3.3-.08Z"/>
          <path class="cls-5" d="m141.32,22s2.2-1.95,5.65-1.56l1.24.77c-4.22.33-5.82,2.39-5.82,2.39l-1.07-1.59Z"/>
          <path class="cls-5" d="m139.3,24.24s-2.59,1.56-3.14,4.77l.44,1.3c1.49-3.75,4.02-4.74,4.02-4.74l-1.32-1.32Z"/>
        </g>
      </g>
    </g>
  </g>
</svg>