<?xml version="1.0" encoding="UTF-8"?>
<svg id="Layer_1" data-name="Layer 1" xmlns="http://www.w3.org/2000/svg" viewBox="0 0 218.37 198.59">
  <defs>
    <style>
      .cls-1 {
        fill: #f26e63;
      }

      .cls-2 {
        fill: #a73f24;
      }

      .cls-3 {
        fill: #f9b092;
      }

      .cls-4 {
        fill: #e33a59;
      }

      .cls-5 {
        fill: #8b529d;
      }

      .cls-6 {
        fill: #fcf1dd;
      }

      .cls-7 {
        fill: #faa527;
      }

      .cls-8 {
        fill: #f47b20;
      }

      .cls-9 {
        fill: #902b1d;
      }

      .cls-10 {
        fill: #ee6c23;
      }

      .cls-11 {
        fill: #fcb644;
      }

      .cls-12 {
        fill: #e43c25;
      }

      .cls-13 {
        fill: #4f1711;
      }

      .cls-14 {
        fill: #5d3e35;
      }

      .cls-15 {
        fill: #f58a69;
      }

      .cls-16 {
        fill: #f2d6ac;
      }

      .cls-17 {
        fill: #ef5d23;
      }

      .cls-18 {
        fill: #6f4d41;
      }

      .cls-19 {
        fill: #703d83;
      }

      .cls-20 {
        fill: #4d322b;
      }
    </style>
  </defs>
  <g>
    <path class="cls-14" d="m30.96,188.75c-7.31,1.77-17.96,2.49-24.33-4.63-4.17-4.66-1.02-15.63,3.72-21.2.84-.99,0-2.43-1.05-1.88-8.87,4.73-13.64,24.35-3.93,31.35,8.89,6.41,26.23,5.61,26.23,5.61l-.64-9.26Z"/>
    <path class="cls-20" d="m59.73,96.77c-.4-10.42,1.61-15.36,2.64-15.45,1.01-.08,3.96,13.06,3.96,13.06l-6.6,2.39Z"/>
    <path class="cls-14" d="m55.18,99.85c-3.03-12.11-2.52-18.17-1.68-18.67.84-.5,7.4,13.63,7.4,13.63l-5.72,5.05Z"/>
    <path class="cls-4" d="m55.62,96.8c-1.83-7.34-1.53-11.01-1.02-11.31s4.48,8.26,4.48,8.26l-3.47,3.06Z"/>
    <path class="cls-18" d="m93.7,87.4l-2.02-2.52s-11.27,5.89-13.63,6.39c-2.35.5-5.21-2.86-6.56-3.2-1.35-.34-15.31,5.72-16.48,6.9-1.18,1.18.67,12.78.34,18l22.54,20.86c-6.9-14.63-4.54-23.89-3.2-26.75,1.35-2.86,14.13-5.72,15.64-7.91s1.35-5.89,1.35-5.89l2.02-5.89Z"/>
    <path class="cls-14" d="m82.99,101.4c-11.05,3.25-21.47.93-23.26-5.17-.35-1.2-.34-2.46-.02-3.74-2.39,1.1-4.29,2.07-4.7,2.48-1.18,1.18.67,12.78.34,18l22.54,20.86c-6.9-14.63-4.54-23.89-3.2-26.75,1.35-2.86,14.13-5.72,15.64-7.91.25-.36.45-.77.62-1.19-2.33,1.37-5.02,2.55-7.97,3.41Z"/>
    <path class="cls-20" d="m103.12,135.68c-1.18-2.86-8.75-4.71-11.27-3.36-2.52,1.35-7.91,14.8-7.91,14.8l-1.85.5s-2.69-14.97-10.43-27.42l1.68,27.76s6.73,11.61,8.92,10.77c2.19-.84,12.11-20.86,12.11-20.86,0,0,.5,2.86,1.35,2.86s5.72,2.35,7.57,1.01c1.85-1.35,1.01-3.2-.17-6.06Z"/>
    <path class="cls-18" d="m92.48,132.08c.47,1.76,1.25,3.57,2.35,5.31,1,1.59,2.16,2.96,3.4,4.08,1.76.55,3.95,1.07,5.06.26,1.85-1.35,1.01-3.2-.17-6.06-1.09-2.65-7.68-4.43-10.64-3.61Z"/>
    <path class="cls-20" d="m62.12,190.02c1.81,2.35,4.12,3.36,4.12,3.36,0,0,5.59-2.35,9.55-1.68,3.95.67,5.4,6.9,5.4,6.9h-37.34s-3.82-11.77-4.24-20.52c-.42-8.75,6.13-23.72,17.16-17.49,11.04,6.22,5.35,29.44,5.35,29.44Z"/>
    <path class="cls-14" d="m55.23,195.79c3.81-8.19.95-23.27,3.64-26.97,2.69-3.7,11.77-6.39,13.79-10.09s8.58-19.68,2.69-31.96-8.58-15.14-10.09-16.15c-1.51-1.01-9.42-1.85-9.42-1.85,0,0-7.57,31.96-9.42,34.99-1.85,3.03-15.64,17.66-14.13,34.65s22.93,17.38,22.93,17.38Z"/>
    <path class="cls-18" d="m54.88,112.81c-2.1,8.7-7.01,28.58-8.45,30.94-.69,1.12-3.02,3.85-5.61,7.7,2.85,2.42,6.31,3.85,10.04,3.85,9.72,0,17.61-9.64,17.61-21.53,0-10.2-5.8-18.74-13.59-20.96Z"/>
    <path class="cls-20" d="m66,130.19l-3.7,22.99,2.7,11.17c3.2-1.79,6.54-3.55,7.67-5.62.06-.11.12-.23.19-.36-1.11-9.2-3.01-25.59-5.85-32.78l-1.01,4.6Z"/>
    <path class="cls-20" d="m55.55,195.79c3.77-7.49,1.11-21.13,3.5-25.03-2.96-7.03-8.03-11.67-13.79-11.67-4.01,0-7.69,2.25-10.55,6-1.79,4.38-2.9,9.26-2.4,14.38,1.53,15.95,23.25,16.32,23.25,16.32Z"/>
    <path class="cls-20" d="m58.71,140.28s-2.58,14.35.79,29.49l6.39-4.26-7.18-25.23Z"/>
    <path class="cls-18" d="m49.46,190.02c1.51,2.35,3.7,3.36,3.7,3.36,0,0,5.89-2.35,9.76-1.68,3.87.67,4.54,6.9,4.54,6.9H30.11s-2.35-11.77-1.68-20.52c.67-8.75,9.08-23.72,19.34-17.49,10.26,6.22,1.68,29.44,1.68,29.44Z"/>
    <path class="cls-18" d="m83.27,193.55c-3.03-3.2-7.4,0-7.4,0-1.68-1.51-6.22-21.53-6.56-25.9-.34-4.37,0-40.71-2.86-42.89s-9.76,14.97-8.92,18.5c.84,3.53,4.21,27.08,4.21,29.61s5.21,17.49,9.92,25.74h14.97s-.34-1.85-3.36-5.05Z"/>
    <path class="cls-14" d="m69.24,166.09c-.05-1.75-.09-4.55-.14-7.89-1.05,1.31-2.2,2.04-3.41,2.04-2.85,0-5.38-4.03-7-10.27,1.29,8.3,3.04,21.06,3.04,22.88,0,2.52,5.21,17.49,9.92,25.74h.16c-.68-2.37-1.29-4.87-1.8-7.47-1.91-9.73-2.07-18.73-.79-25.03Z"/>
    <path class="cls-14" d="m57.71,192.02c-2.49.53-4.55,1.36-4.55,1.36,0,0-2.19-1.01-3.7-3.36,0,0,1.28-3.47,2.26-8.08-3.86,6.17-8.95,9.68-13.54,8.6-5.55-1.31-8.73-8.95-8.37-18.5-.76,2.12-1.24,4.22-1.38,6.04-.67,8.75,1.68,20.52,1.68,20.52h16.35c1.08-2.31,5.37-4.79,11.25-6.57Z"/>
    <path class="cls-20" d="m74.75,106.99c-9.96,2.52-16.49-.87-19.81-3.53.19,2.49.4,5.12.44,7.28-.01.06-.03.13-.05.19,5.41,2.53,17.79,10.61,22.34,29.7.16-2.39.09-4.84-.3-7.27l.51.47c-.25-.53-.48-1.05-.71-1.56-.38-1.88-.97-3.73-1.82-5.51-.23-.49-.46-.95-.68-1.41-2.74-9.75-1.05-16.01,0-18.27.01-.03.04-.06.06-.09Z"/>
    <path class="cls-18" d="m11.61,192.99c2.69,0,5.19-1.17,7.26-3.18-4.52-.43-8.96-2.01-12.24-5.69-4.17-4.66-1.02-15.63,3.72-21.2.84-.99,0-2.43-1.05-1.88-6.22,3.32-10.41,13.95-9.02,22.42,2.23,5.68,6.47,9.51,11.34,9.51Z"/>
    <path class="cls-20" d="m91.68,93.29l.05-.14c-5.11.44-10.84,7.28-13.84,7.66-3.14.39-4.77-1.23-4.77-1.23l-.84,1.07s3.48,2.52,6.06,1.01c2.21-1.3,8.24-7.03,13.34-7.59.01-.46,0-.76,0-.76Z"/>
    <path class="cls-20" d="m85.9,87.8c1.82.42,7.29,1.4,7.29,1.4,0,0,2.19-5.21,1.68-5.61-.5-.39-9.7,4.04-8.97,4.21Z"/>
    <path class="cls-20" d="m68.13,91.67c2.32,1.81,3.59,1.79,4.15,1.29.56-.5-.84-2.3-2.13-2.52-1.29-.22-3.03.45-2.02,1.23Z"/>
  </g>
  <g>
    <path class="cls-15" d="m116.89,94.32c-1.32,1.4-3.25,4.81-2.21,6.2.45.61,1.49,1.62,2.5,2.57,1.28,1.19,3.32,1.26,4.07.15l.93-1.37-3.78-2.98-1.51-4.56Z"/>
    <path class="cls-8" d="m150.88,89.34c0-2.1,5.95-6.46,5.95-6.46,0,0,5.78-25.83,7.65-27.86,1.87-2.04,12.74,11.72,13.08,13.08s.34,16.48-2.21,21.41c-2.55,4.93-7.82,13.59-8.84,14.27-1.02.68-8.33,3.91-10.87,2.55-2.55-1.36-4.76-14.95-4.76-16.99Z"/>
    <path class="cls-7" d="m168.21,71.42c0-6.29-1.2-12.06-3.21-16.59-.22,0-.4.05-.53.2-1.87,2.04-7.65,27.86-7.65,27.86,0,0-5.95,4.35-5.95,6.46,0,.98.51,4.65,1.33,8.34.51.1,1.03.15,1.56.15,7.98,0,14.44-11.83,14.44-26.42Z"/>
    <path class="cls-6" d="m186,179.34l-3.01,4.64c2.31,2.14,2.7,8.44,2.7,8.44l5.47-1.9s-2.17-4.88-5.16-11.18Z"/>
    <path class="cls-7" d="m170.14,198.42h23.28l.22-2.85-2.37-5.89s-3.88,1.49-4.76,1.66c-.87.18-2.91,3.09-2.91,3.09,0,0-4.25,1.66-6.8,1.66s-5.89-.38-6.34,0c-1.28,1.07-.32,2.32-.32,2.32Z"/>
    <path class="cls-6" d="m203.55,180.24l-2.38,4.42c2.61,2.04,3.85,8.04,3.85,8.04l5.21-1.81s-2.83-4.64-6.68-10.65Z"/>
    <path class="cls-5" d="m177.05,188.29c7.7-1.36,14.95-7.02,14.95-7.02,0,0-16.31-43.5-15.63-44.63.68-1.13,22.88-25.37,24.01-26.96,1.13-1.59,1.36-20.84,1.36-20.84,0,0-19.26-.68-19.26,0s-.23,12.91-.23,13.59-24.18,27.63-24.47,30.36c-.45,4.3,19.26,55.5,19.26,55.5Z"/>
    <path class="cls-19" d="m200.38,109.68c1.13-1.59,1.36-20.84,1.36-20.84,0,0-19.26-.68-19.26,0s-.23,12.91-.23,13.59c0,.08-.37.56-1,1.34l7.18,1.54s-23.96,27.53-23.96,29.73c0,1.85,15.94,37.84,21.44,50.03,3.6-1.88,6.08-3.82,6.08-3.82,0,0-16.31-43.5-15.63-44.63.68-1.13,22.88-25.37,24.01-26.96Z"/>
    <path class="cls-5" d="m194.95,189.87c7.48-1.81,11.55-7.02,11.55-7.02,0,0-14.05-41.91-13.59-43.04.45-1.13,23.79-30.13,24.69-32.4.91-2.27-4.3-20.84-4.3-20.84l-24.47,2.94v14.73c0,.68-21.75,28.32-21.97,31.04-.23,2.72,28.09,54.6,28.09,54.6Z"/>
    <path class="cls-19" d="m217.6,107.41c.91-2.27-4.3-20.84-4.3-20.84l-24.47,2.95v14.21l11.89,2.55-12.57,18.69-3.85,2.49-2.61,6.46-2.95,1.64,8.84,4.76-5.44-1.02,5.61,2.38s11.82,32.45,16.05,43.78c1.77-1.43,2.7-2.61,2.7-2.61,0,0-14.05-41.91-13.59-43.04.45-1.13,23.79-30.13,24.69-32.4Z"/>
    <path class="cls-11" d="m190.3,198.42h23.28l-.17-2.72-3.17-5.61s-3.68,1.42-4.53,1.59c-.85.17-2.49,2.95-2.49,2.95,0,0-4.02,1.59-6.57,1.59s-5.94-.36-6.34,0c-1.13,1.02,0,2.21,0,2.21Z"/>
    <path class="cls-7" d="m181.64,96.99c-1.19,1.87-.96,3.17-.28,3.51.68.34,15.74-6.23,22.88-7.08,7.14-.85,10.87,1.36,11.72,1.02.85-.34.68-3.57.68-3.57,0,0,1.02-2.04,1.7-3.57.68-1.53-9.51-22.6-12.23-25.15s-9.85-18.52-16.65-21.07c-6.8-2.55-15.46,1.19-17.16,2.04-1.7.85-8.16,10.19-8.67,12.4-.51,2.21,1.02,10.53,2.72,13.42,1.7,2.89,9.01,12.23,10.02,13.25,1.02,1.02,5.27,14.78,5.27,14.78Z"/>
    <path class="cls-8" d="m187.58,49.75l-4.59,7.48s7.24,18.4,7.9,24.89c.35,3.46-1.44,13.85-1.44,13.85,0,0-3.03,2.27-8.39,4.27.08.11.18.2.29.26.67.34,15.53-6.14,22.73-7.06l-16.5-43.69Z"/>
    <path class="cls-10" d="m198.62,50.58c-.56.03-1.09.15-1.58.37-5.49,2.43-4.9,15.81,1.33,29.88,2.12,4.79,4.61,9.04,7.2,12.47,6.27-.45,9.59,1.46,10.39,1.15.85-.34.68-3.57.68-3.57,0,0,1.02-2.04,1.7-3.57.68-1.53-9.51-22.6-12.23-25.15-1.46-1.37-4.2-6.62-7.48-11.58Z"/>
    <path class="cls-7" d="m191.51,89.26c-.06.73.32,1.43.98,1.76,6.39,3.18,17.15,5.62,18.11,4.18,1.02-1.53,1.95-9.94,1.61-12.49-.34-2.55-2.38-16.82-5.27-21.75-2.89-4.93-6.8-14.78-9.17-15.97-2.38-1.19-7.99-2.04-11.55-.85-3.57,1.19-3.91,8.33-2.72,12.23,1.19,3.91,7.31,21.92,7.99,24.3.51,1.79.21,6.4.02,8.59Z"/>
    <path class="cls-8" d="m212.22,82.72c-.34-2.55-2.38-16.82-5.27-21.75-2.89-4.93-6.8-14.78-9.17-15.97-2.38-1.19-7.99-2.04-11.55-.85-1.01.34-1.75,1.16-2.28,2.23,3.58-.16,8.07,1.29,10.01,2.64,2.18,1.52,4.63,11.83,6.78,17.12,2.15,5.29,2.11,19.71,2.08,22.28-.01,1.19-.48,3.59-1.1,5.96,4.42,1.18,8.32,1.66,8.89.82,1.02-1.53,1.95-9.94,1.61-12.49Z"/>
    <path class="cls-3" d="m209.33,94.5c-2,6.4-11.89,25.49-13.71,27.41-1.81,1.93-12.04-3.53-11.61-4.45,1.76-3.79,8.33-25.68,8.89-27.04.57-1.36,7.7-1.25,10.76.11,3.06,1.36,6.23,2.15,5.66,3.96Z"/>
    <path class="cls-15" d="m203.67,90.53c-3.06-1.36-10.19-1.47-10.76-.11-.21.51-1.28,3.94-2.62,8.22,2.15-1.8,4.28-2.6,6.13-2.06,4.15,1.21,5.5,8.78,3.59,17.92,3.55-6.66,8.05-15.92,9.33-20.01.57-1.81-2.61-2.61-5.66-3.96Z"/>
    <path class="cls-12" d="m160.74,97.16c-.59-3.4-3.31-6.8-5.86-8.33s-4.08-.42-3.48,1.95l6.8,14.36c2.97.68,3.14-4.59,2.55-7.99Z"/>
    <path class="cls-3" d="m158.62,105.39c-6.58,1.32-28.97,2.18-31.53,1.51s-2.99-11.14-2.42-11.98c.58-.83,27.28-5.36,28.74-5.52,1.46-.16,6,4.98,6.27,8.32.27,3.34.8,7.29-1.07,7.66Z"/>
    <path class="cls-15" d="m159.68,97.73c-.27-3.34-4.81-8.47-6.27-8.32-.4.04-2.66.41-5.76.93,1.76,1.44,2.84,3.18,2.96,5.1.35,5.53-7.25,10.57-17.28,11.68,7.85-.09,20.59-.79,25.28-1.73,1.86-.37,1.34-4.33,1.07-7.66Z"/>
    <path class="cls-8" d="m197.78,45c-1.03-.51-2.67-.97-4.48-1.22-1.27-1.25-2.57-2.21-3.85-2.69-6.8-2.55-15.46,1.19-17.16,2.04-1.7.85-8.16,10.19-8.67,12.4,1.61,6.97,13.24,8.69,20.94,4.41-1.74-12.56,8.79-13.92,14.43-13.79-.44-.56-.85-.96-1.22-1.15Z"/>
    <path class="cls-16" d="m168.44,52.25c1.81,6.91,3.85,9.29,3.85,8.95s.91-10.08.91-10.08l-4.76,1.13Z"/>
    <path class="cls-16" d="m178.24,38.88c.51,0,5.04,1.36,5.04,1.36,0,0-8.78,8.16-7.25,19.03l-5.27-5.44-3.57,4.25s-1.87-8.84,2.55-15.29c3.74-2.55,8.5-3.91,8.5-3.91Z"/>
    <path class="cls-15" d="m171.27,58.25c-2.04-7.14-10.7-21.92-10.7-21.92,0,0,9.21-9.24,9.85-8.67,1.53,1.36,9.34,13.25,9.34,13.25-5.07,3.67-8.05,9.31-8.5,17.33Z"/>
    <path class="cls-2" d="m175.52,34.63c-.85-5.1,1.27-7.9,1.1-9.43-.17-1.53-1.44-2.21-1.44-2.21,0,0,1.87-3.99,1.19-6.37-.68-2.38-2.72-2.04-2.72-2.04,0,0,1.87-10.09-1.27-13-4.5-4.16-8.84,1.19-8.84,1.19,0,0-2.21-2.72-7.14-2.21-3.9.4-6.29,2.72-6.29,2.72,0,0-2.72-.17-5.95,1.7s-.68,8.5-.68,8.5c0,0-4.16-.76-3.48,4.33.68,5.1,13.25,10.19,13.25,10.19l13.76,4.25c3-.09,5.9.36,8.5,2.38Z"/>
    <path class="cls-9" d="m149.52,10.51s-3.82,8.41,1.61,13.93l1.44-5.61c-2.8-1.61-3.06-8.33-3.06-8.33Z"/>
    <path class="cls-9" d="m176.62,25.2c-.17-1.53-1.44-2.21-1.44-2.21,0,0,1.87-3.99,1.19-6.37-.68-2.38-2.72-2.04-2.72-2.04,0,0,.55-2.99.55-6.19-.45.81-1.09,1.41-1.9,1.72-2.55.95-5.8-1.45-7.26-5.36-.36-.96-.57-1.92-.66-2.83-.53.48-.84.86-.84.86,0,0-1.05-1.29-3.3-1.92,2.57,2.45,4.15,5.81,4.15,9.53,0,7.48-6.43,13.55-14.36,13.55-2.46,0-4.77-.58-6.79-1.61,3.93,3.22,10.02,5.69,10.02,5.69l13.76,4.25c3-.09,5.9.36,8.5,2.38-.85-5.1,1.27-7.9,1.1-9.43Z"/>
    <path class="cls-3" d="m161.03,49.49c3.02-1.07,11.38-5.54,11.33-7.02-.05-1.48-1.95-10.49-2.12-11.11-.17-.62-2.86-.97-3.14-1.68-.29-.71-6.11-10.34-4.5-13.66.5-1.02-11.38,4.08-11.72,1.61-2.04,1.7.82,14.55,1.96,16.4,5.75,9.35,3.09,17.26,8.19,15.45Z"/>
    <path class="cls-3" d="m169.66,32.76c-1.26-2.35-.51-10.45,1.95-8.58,2.46,1.87,2.8,4.76,1.95,6.12-.85,1.36-3.31,3.57-3.91,2.46Z"/>
    <path class="cls-2" d="m149.26,41.42c4.07,2.11,6.22.23,6.55.05.33-.18,1.78-.22,2.29-.38.52-.16,2.22-1.36,3.53-1.53,1.89-.25,3.8-3.64,4.04-4.21.23-.57-1.95,1.23-4.04.08-1.21-.67-2.81.22-2.81.22,0,0-2.05-1.48-2.73.45-1.24-.15-1.91-1.54-2.31-.8-.39.73-1.91,3.77-1.91,3.77,0,0-1.44.55-1.93.98-.48.43-.68,1.37-.68,1.37Z"/>
    <path class="cls-2" d="m149.18,29.81c4.19-1.33,4.94-2.92,4.82-3.5-.12-.58-1.02-2.61-1.43-2.63-.41-.02-4.94,2.07-5.05,2.91-.1.85,1.17,3.37,1.65,3.21Z"/>
    <path class="cls-2" d="m154.96,26.4c5.53.07,7.04-1.18,7.11-1.77.07-.59-.24-2.77-.72-2.92-.48-.15-6.71.38-7.16,1.15-.45.76.13,3.54.77,3.55Z"/>
    <path class="cls-13" d="m152.47,31.58c.12-.42.32-.73.59-.84.31-.13.65,0,.99.33-.03-.13-.07-.27-.11-.41-.46-1.51-1.17-2.55-1.58-2.33-.42.22-.39,1.62.07,3.12.01.04.03.08.04.13Z"/>
    <path class="cls-15" d="m153.86,26.7c-.43,2.84-1.83,10.64-1.29,10.7.54.06,5.14-1.16,5.34-1.79.2-.62-.24-2.13-.24-2.13l-1.38-.32-2.43-6.47Z"/>
    <g>
      <path class="cls-3" d="m192.15,125.15c-1.97,3.03-2.25,4.51-2.49,5.16-.24.66-.94,6.56-2.04,7.07-1.1.52-2.36.43-2.58-.42-.22-.85.53-6.64.63-7.69.1-1.04,2.71-5.71,2.71-5.71l3.78,1.58Z"/>
      <path class="cls-3" d="m188.15,124.24c-2.56,2.96-3.1,4.51-3.47,5.18-.36.67-2.09,6.92-3.32,7.31-1.23.39-2.53.11-2.61-.83-.08-.95,1.67-7.07,1.95-8.18.28-1.11,3.78-5.74,3.78-5.74l3.67,2.26Z"/>
      <path class="cls-3" d="m185.1,121.91c-3.02,2.49-3.83,3.94-4.31,4.54s-3.27,6.51-4.54,6.68c-1.27.17-2.49-.34-2.4-1.29.09-.96,2.9-6.74,3.37-7.79.47-1.05,4.71-5.04,4.71-5.04l3.17,2.9Z"/>
      <path class="cls-3" d="m197.44,117.84c-2.92,6.82-6.89,10.26-8.72,10.88-1.83.62-8.46-3.49-8.93-5.24-.48-1.75,1.79-4.27,3.18-5.69,1.39-1.41,4.55-3.76,5.93-5.77,1.38-2.02,9.61,3.32,8.54,5.82Z"/>
      <path class="cls-3" d="m177.95,125.36c-.23-1.53.23-6.63,1.13-7.31.91-.68,7.08-3.74,7.08-3.74l.85,4.08-9.06,6.97Z"/>
    </g>
    <path class="cls-17" d="m193.3,43.78c-.64-.63-1.29-1.19-1.94-1.65-6.65,2.6-9.04,8.05-9.04,8.05,0,0,5.15-4.9,12.55-6.12-.5-.11-1.02-.2-1.57-.28Z"/>
    <path class="cls-1" d="m171.51,26.27c-.79-.6-1.27.6-1.41,2,.75.06,1.33.51,1.33,1.07s-.55.99-1.27,1.07c.06.29.13.54.23.73.34.63,1.74-.63,2.22-1.4s.29-2.41-1.11-3.47Z"/>
    <path class="cls-3" d="m127.77,106.66c-6.47.36-6.4-.41-7.98-4.23-1.58-3.83-3.87-7.2-3.57-9.43.3-2.23,1.34-5.92,3.4-5.69,2.05.22,5.78,5.44,8.75,6.54,2.32.86,3.14,12.6-.59,12.81Z"/>
    <path class="cls-15" d="m117.54,88.7c-.72,1.23-1.15,3-1.32,4.29-.3,2.23,2,5.61,3.57,9.43,1.03,2.49,1.36,3.69,3.25,4.12-3.03-5.31.25-5.71-.54-9.44-1.07-5.08-4.16-4.79-4.96-8.4Z"/>
    <path class="cls-3" d="m119.28,91.55c-2.08-1.85-3.65-6.88-3.91-8.07-.25-1.19-2.04-5.78-1.36-6.37.42-.36,1.5-.25,2.28-.11.53.1.96.46,1.16.96,1,2.55,4.22,10.65,5.22,11.72,1.19,1.27-2.63,2.55-3.4,1.87Z"/>
    <path class="cls-3" d="m117.5,88.41c-1.36,1.53-3.57,5.18-2.89,6.54.68,1.36,3.65,4.67,3.65,4.67l2.63-3.82-2.8-2.8-.59-4.59Z"/>
    <path class="cls-3" d="m127.35,94.78c-2.29-.87-6.37-1.27-7.9-.42-1.53.85-2.46,5.95-1.87,7.05.59,1.1,3.06,1.95,3.48.93.42-1.02.85-3.57.85-3.57,0,0,2.38,2.89,5.27,3.31,2.89.42,3.28-6.12.17-7.31Z"/>
    <path class="cls-1" d="m158.34,41.75c2.6-1.87,3.44-.89,1.5.65-1.77,1.4-3.08.49-1.5-.65Z"/>
    <path class="cls-13" d="m157.35,29.82c.29-.44.69-.75,1.18-.87.55-.13,1.11,0,1.61.34-.03-.14-.06-.28-.1-.42-.47-1.56-1.46-2.64-2.21-2.41-.76.23-.99,1.67-.52,3.23.01.05.03.09.05.13Z"/>
  </g>
</svg>