<?xml version="1.0" encoding="UTF-8"?>
<svg xmlns="http://www.w3.org/2000/svg" viewBox="0 0 208.09 225.31">
  <defs>
    <style>
      .cls-1 {
        fill: #f26e63;
      }

      .cls-2 {
        fill: #fff;
      }

      .cls-3 {
        fill: #c93463;
      }

      .cls-4 {
        fill: #a1214f;
      }

      .cls-5 {
        fill: #7e4299;
      }

      .cls-6 {
        fill: #f9b092;
      }

      .cls-7 {
        fill: #4f3236;
      }

      .cls-8 {
        mix-blend-mode: overlay;
      }

      .cls-8, .cls-9 {
        fill: none;
      }

      .cls-10 {
        fill: #382026;
      }

      .cls-11 {
        fill: #432a30;
      }

      .cls-12 {
        fill: #974322;
      }

      .cls-13 {
        fill: #271519;
      }

      .cls-14 {
        fill: #9355a2;
      }

      .cls-15 {
        fill: #f3e2ce;
      }

      .cls-16 {
        fill: #442a20;
      }

      .cls-9 {
        isolation: isolate;
      }

      .cls-17 {
        fill: #f0a42b;
      }

      .cls-18 {
        fill: #7d3019;
      }

      .cls-19 {
        fill: #722a16;
      }

      .cls-20 {
        fill: #f58a69;
      }

      .cls-21 {
        fill: #503038;
      }
    </style>
  </defs>
  <g class="cls-9">
    <g id="Layer_1" data-name="Layer 1">
      <g>
        <path class="cls-20" d="m105.45,85.43c1.83.92,3.22,2.31,3.42,2.67s-.65,1.71-.65,1.71l-2.72,1.16-3.47-1.36,1.11-3.52s1.61-1.01,2.31-.65Z"/>
        <path class="cls-6" d="m92.72,85.68s4.23.91,4.83,1.41c.6.5,1.21,3.02,3.42,3.02s5.03-3.62,4.83-4.33c-.2-.7-5.63-2.72-7.04-3.02s-6.94-.5-6.94-.5l.91,3.42Z"/>
        <path class="cls-14" d="m50.57,49.36c3.42,7.04,14.69,29.17,16.5,30.18,1.81,1.01,26.76,2.41,26.76,2.41l-.6,4.63s-25.35,5.03-29.98,2.01c-4.63-3.02-15.09-18.31-15.09-18.31l2.41-20.92Z"/>
        <path class="cls-5" d="m64.45,83.67c-3.3-1.15-12.78-19.11-15.19-31.49l-1.11,18.11s10.46,15.29,15.09,18.31c4.63,3.02,29.98-2.01,29.98-2.01l.31-2.4c-9.46.26-26.03.55-29.08-.51Z"/>
        <path class="cls-20" d="m24.6,221.09c-.6-3.13-.08-5.51-.08-5.51l-3.17-.71s.86,4.14.09,6.05c-.77,1.91,3.16.17,3.16.17Z"/>
        <path class="cls-20" d="m72.55,220.48c-1.66-2.72-2.01-5.13-2.01-5.13l-3.22.45s2.26,3.57,2.21,5.63c-.05,2.06,3.02-.96,3.02-.96Z"/>
        <path class="cls-18" d="m49.57,9.02c.15-5.86-7.24-11.77-13.78-7.65-6.54,4.12-7.65,10.36-4.53,11.57,0,0-1.91,8.55,5.63,6.44,7.54-2.11,12.57-6.54,12.68-10.36Z"/>
        <path class="cls-19" d="m47.76,3.83c-1.54,2.03-4.21,3.66-7.45,4.27-3.73.7-7.25-.13-9.41-1.94-1.89,3.08-1.67,6.01.36,6.79,0,0-1.91,8.55,5.63,6.44,7.54-2.11,12.57-6.54,12.68-10.36.05-1.83-.64-3.66-1.81-5.2Z"/>
        <path class="cls-17" d="m48.3,6.2c-1.43-2.08-4.31-1.71-7.2.29-2.67,1.84-4.21,4.18-2.63,5.77,1.48,1.48,4.54,1.55,7.07.14,2.72-1.51,4.08-4.28,2.76-6.2Z"/>
        <path class="cls-12" d="m56.43,4.27c-5.86-1.85-12.54,4.11-12.54,4.11,0,0-8.02,1.03-9.76,9.76s1.54,15.73,9.35,17.06l16.55-1.75c15.21-15.93,2.26-27.34-3.6-29.19Z"/>
        <path class="cls-18" d="m62.34,12.59c0-1.49.11-2.91.3-4.23-.4-.41-.82-.8-1.24-1.16.09.73.13,1.47.13,2.22,0,8.22-5.29,14.89-11.82,14.89-6.05,0-11.03-5.72-11.73-13.09-1.66,1.46-3.2,3.65-3.85,6.93-1.75,8.74,1.54,15.73,9.35,17.06l16.55-1.75c3-3.14,4.89-6.1,5.97-8.85-2.11-1.51-3.66-6.32-3.66-12.02Z"/>
        <path class="cls-7" d="m38.83,93.32c0,.6.48,2.92-.13,7.34-.08.6,17.71,45.87,19.31,50.9,1.61,5.03,13.23,65.44,13.23,65.44l-3.22,1.21s-30.13-58.8-32.14-61.41c-2.01-2.62-17.91-33.8-17.91-33.8l-.4-24.34,6.64-19.92,14.61,14.59Z"/>
        <path class="cls-11" d="m45.54,148.85c-.6-.91-20.22-40.44-20.22-40.44l6.05-22.54-7.15-7.14-6.64,19.92.4,24.34s15.89,31.19,17.91,33.8c2.01,2.62,32.14,61.41,32.14,61.41l3.03-1.14c-7.58-20.46-25.04-67.52-25.51-68.23Z"/>
        <path class="cls-7" d="m37.09,89.6l-12.88-10.86s-12.88,6.54-22.13,24.85c-9.25,18.31,15.09,96.47,18.91,114.18l3.72.2c-.8-4.23,3.42-51.51,3.02-57.94s-1.11-47.28-1.11-47.28l7.24-7.44,3.22-15.69Z"/>
        <polygon class="cls-11" points="34.58 110.02 27.13 115.25 22 111.73 28.34 112.03 34.58 110.02"/>
        <path class="cls-11" d="m13.55,121.99c.2-9.46,6.84-20.72,6.84-20.72l18.31-2.41c.66-4.91.27-8.21-1.61-9.26l-12.88-10.86s-12.88,6.54-22.13,24.85c-9.25,18.31,15.09,96.47,18.91,114.18l2.42.13c-2.92-19.41-10.03-87.83-9.86-95.9Z"/>
        <g class="cls-8">
          <path class="cls-15" d="m57.45,62.96c-2.29,1.01-5.66,2.42-8.85,3.52l-.44,3.81s.24.35.65.94c3.6-.85,7.81-2.63,10.86-4.05-.73-1.38-1.48-2.8-2.22-4.21Z"/>
          <path class="cls-15" d="m62.13,71.72c-.27-.49-.55-1-.83-1.52-3.47,1.5-7.75,2.94-10.51,3.81.69.96,1.49,2.05,2.35,3.19,2.92-1.34,6.28-3.55,8.99-5.49Z"/>
        </g>
        <path class="cls-14" d="m39.2,95.44s-1.28-13.35,3.32-17.3c2.6-2.23,8.05-5.63,8.85-6.84s.4-19.72-.2-21.13-7.04-7.44-8.65-7.65c-1.61-.2-13.48,4.02-14.49,5.43-1.01,1.41-1.01,17.3-1.41,20.12-.4,2.82-10.06,17.3-10.06,17.3,0,0,5.67,6.55,10.66,8.65,7.65,3.22,11.97,1.41,11.97,1.41Z"/>
        <path class="cls-5" d="m34.2,65.56c.68-4.41,1.41-13.14-1.84-19.88-2.19.9-3.96,1.77-4.33,2.28-1.01,1.41-1.01,17.3-1.41,20.12-.4,2.82-10.06,17.3-10.06,17.3,0,0,1.91,2.2,4.48,4.46,3.2-6.52,8.67-11.59,14.56-12.76,2.67-.53,5.11-.2,7.18.84,2.69-2.23,7.81-5.45,8.59-6.62.08-.11.14-.38.2-.78l-14.96-1.79c-1.56-.19-2.66-1.62-2.42-3.17Z"/>
        <g>
          <path class="cls-6" d="m12.95,121.77c-.8.65-2.49,5.9-.11,7.97.81.71,6.57-.04,6.68-1.3.1-1.09-.71-2.95-.84-4.02-.08-.69-.19-2.29-1.96-3.27-.9-.49-2.83-.16-3.77.61h0Z"/>
          <path class="cls-6" d="m13.93,128.71l-2.21-1.54c.62,3.64,0,9.26.57,9.59,1.54.91,1.96-4.35,1.64-8.06Z"/>
          <path class="cls-6" d="m16.76,128.36l-2.39-.74c1.14,3.54.84,9.64,1.46,9.8,1.69.45,1.77-5.39.92-9.06Z"/>
          <path class="cls-6" d="m19.46,127.68l-2.43-.81c1.42,3.41,1.38,9.36,1.89,9.53,1.39.45,1.74-5.19.53-8.72Z"/>
          <path class="cls-6" d="m23.11,129.67c.37-.7-1.49-2.11-2.32-3.41-.82-1.28-.81-2.58-3.49-4.79l-.51,4.3s1.69.4,2.6,1.73c.91,1.34,3.34,2.88,3.71,2.17Z"/>
        </g>
        <path class="cls-14" d="m35.48,58.62c-3.02,8.05-9.86,27.36-10.06,28.77-.2,1.41-6.84,34.81-7.85,35.41s-4.63-.8-5.23-2.01c-.6-1.21,2.62-36.62,2.82-39.84.2-3.22,10.26-31.39,11.07-32.19.8-.8,5.43-3.42,7.85,1.21,2.41,4.63,1.41,8.65,1.41,8.65Z"/>
        <path class="cls-5" d="m17.58,88.41c.19-3.31,10.25-35.44,11.09-36.59.51-.69,2.5-2.58,4.58-3.08-2.52-2.88-6.3-.71-7.02.01-.8.8-10.86,28.97-11.07,32.19-.2,3.22-3.42,38.63-2.82,39.84.33.65,1.53,1.36,2.73,1.78.59-10.43,2.36-31.65,2.51-34.16Z"/>
        <path class="cls-5" d="m53.45,55.15c-.8-1.59-1.53-3.04-2.12-4.25-.05-.36-.1-.61-.15-.74-.6-1.41-7.04-7.44-8.65-7.65-1.47-.18-11.55,3.34-14.01,5.02-1.1.33-1.98.91-2.29,1.22-.02.02-.06.07-.1.14,2.48,1.95,5.64,3.73,9.24,5.08,7.12,2.68,14.03,2.99,18.08,1.17Z"/>
        <path class="cls-7" d="m51.14,50.09c-.78-1.53-7.03-7.37-8.61-7.57-.79-.1-4.03.86-7.26,2.04,6.06,10.28,6.76,17.98,6.76,17.98l3.32.5s4.01-6.34,5.8-12.95Z"/>
        <path class="cls-20" d="m44.13,60.23s3.54-6,5.19-12.31c-2.05-3.03-5.6-6.21-6.73-6.35-.61-.08-2.72.91-5.12,2.22,4.44,5.35,6.66,16.44,6.66,16.44Z"/>
        <path class="cls-6" d="m43.05,55.92c.72,2.5,1.08,4.31,1.08,4.31,0,0,.98-1.66,2.14-4.14-.79-.12-1.61-.18-2.47-.18-.26,0-.51,0-.76.02Z"/>
        <path class="cls-20" d="m39.61,43.57c3.62-5.14,4.2-11.73,4.2-11.73l6.26,4.23-2.94,12.3-7.52-4.79Z"/>
        <path class="cls-6" d="m53.09,47.22c-7.54-1.66-10.64-11.17-9.28-16.3,3.92-3.92,12.75-1.06,17.96-12.37,0,0,1.91,8.15-.45,15.39-2.41,7.39-8.22,13.28-8.22,13.28Z"/>
        <path class="cls-6" d="m44.26,33.04c-5.37-1.47-5.96-6.79-4.3-8.45,1.66-1.66,4-.38,5.05,2.11s.91,6.79-.75,6.34Z"/>
        <path class="cls-15" d="m28.84,224.96h-9.11l-.2-1.56s.5-1.41.5-1.91,4.83-2.36,5.33-1.41c1.06,2.01,4.17,2.62,3.47,4.88Z"/>
        <path class="cls-15" d="m84.07,224.96h-15.7l-.2-1.56s.5-1.41.5-1.91,4.53-2.11,5.33-1.41c.8.7,6.14,2.24,6.84,2.21,2.82-.1,3.12,1.41,3.22,2.67Z"/>
        <g>
          <path class="cls-13" d="m101.75,167.09s0,4.38,8.95,11.27l.8.5,2.06-3.12-11.82-8.65Z"/>
          <path class="cls-10" d="m100.34,225.31h26.6c1.21,0,2.41-.78,3.07-1.99h0c.4-.74.56-1.57.45-2.34-.64-4.38-2.89-19.39-3.94-21.09-1.23-1.99-9.73-12.85-11.33-9.18-1.6,3.66.47,18.49,1.97,21.84,1.25,2.77,4.14,5.98,5.09,7,.19.2.23.53.1.85h0c-.15.37-.48.61-.81.57-2.04-.21-9.08-.99-9.97-1.62-1.04-.73-5.62-2.72-9.69-.21-3.71,2.29-1.56,6.17-1.56,6.17Z"/>
          <path class="cls-11" d="m127.45,177.68c4.16-3.75,6.37-10.35,6.25-10.79s-8.77,4.32-8.77,4.32l2.51,6.47Z"/>
          <path class="cls-11" d="m208.06,209.41c-.6-2.82-2.11-.7-2.11-.7,0,0,2.62-7.54,1.41-10.46-1.21-2.92-2.41-1.01-2.41-1.01,0,0,0-13.78-3.12-15.69-3.12-1.91-3.12,1.51-3.12,1.51,0,0-1.31-7.34-3.12-7.95-1.81-.6-2.41,2.72-2.41,2.72,0,0-3.52-11.47-5.83-10.06-2.31,1.41-1.31,9.26-1.31,9.26,0,0-1.51-.4-1.41,1.51.1,1.91,7.34,12.78,10.46,14.89,3.12,2.11,7.75,12.27,4.23,18.51-3.52,6.24-11.27,1.01-15.89-9.66l2.11,6.74c4.73,13.68,14.79,11.47,17,9.05,2.31-2.52-.91-4.02-.91-4.02,0,0,7.04-1.81,6.44-4.63Z"/>
          <path class="cls-21" d="m195.08,193.42c2.03,1.37,4.69,6.15,5.34,11.04,3.7-2.41,4.6-11.5,2.21-22.06-.24-.38-.51-.67-.81-.86-3.12-1.91-3.12,1.51-3.12,1.51,0,0-1.31-7.34-3.12-7.95-1.81-.6-2.41,2.72-2.41,2.72,0,0-3.52-11.47-5.83-10.06-2.31,1.41-1.31,9.26-1.31,9.26,0,0-1.51-.4-1.41,1.51.1,1.91,7.34,12.78,10.46,14.89Z"/>
          <path class="cls-11" d="m166.81,197.64s-13.33,3.87-23.44.1c-10.11-3.77-14.99-11.52-15.29-16.35l-14.94,3.62s1.51,30.38,15.24,38.08l6.19,2.21h35.16l-2.92-27.66Z"/>
          <path class="cls-10" d="m159.05,225.31c-.82-3.63-4.35-6.54-8.03-6.54s-6.15,2.9-5.62,6.54h13.65Z"/>
          <path class="cls-10" d="m165.78,225.31h4.25l-1.37-10.93-8.26-13.31s-5.05,9.19,5.39,24.24Z"/>
          <path class="cls-21" d="m128.08,181.4l-14.94,3.62s.08,1.52.35,3.96c1.14,6.35,4.14,10.88,7.65,10.88,4.12,0,7.53-6.24,8.07-14.33-.68-1.49-1.05-2.9-1.13-4.13Z"/>
          <path class="cls-10" d="m143.47,225.31c-2.33-6.6-6.99-18.6-12.07-24.75l1.33,24.41.87.34h9.87Z"/>
          <path class="cls-21" d="m104.64,225.31h29.72c1.35,0,2.63-.76,3.27-1.95h0c.39-.72.5-1.54.31-2.28-1.08-4.28-4.86-18.92-6.17-20.57-1.54-1.94-9.78-5.31-11.26-1.74-1.48,3.57-.09,10.82,1.87,14.08,1.63,2.71,5.12,5.83,6.27,6.82.23.2.3.52.19.83h0c-.13.36-.49.59-.85.56-2.3-.21-10.23-.97-11.27-1.58-1.22-.71-6.51-2.65-10.85-.2-3.95,2.23-1.22,6.02-1.22,6.02Z"/>
          <path class="cls-21" d="m149.11,225.31h35.91s1.11-3.22.7-3.82c-.4-.6-1.71-2.72-1.71-3.02s3.99-6.79,1.66-12.17c-2.46-5.68-7.29-10.46-13.73-9.76-6.44.7-14.69,1.21-11.77,10.56,2.92,9.36,10.15,12.64,7.75,13.88-2.92,1.51-11.67-3.72-16.9-2.21-5.74,1.66-1.91,6.54-1.91,6.54Z"/>
          <path class="cls-21" d="m114.3,193.12c-1.51-7.14-5.43-12.07-9.05-13.98-3.62-1.91-6.24-1.81-5.94-5.53s8.75,3.22,12.78,2.92c4.02-.3,7.14-.4,7.14-.4l5.43,8.35-10.36,8.65Z"/>
          <path class="cls-21" d="m129.09,185.37c-.1-4.93,1.11-10.56.6-11.57s-8.55-7.04-9.66-6.74c-1.11.3-3.72,1.61-4.93,1.41s-6.04-4.12-7.04-5.53c-1.01-1.41-1.31-2.62-2.31-2.51-1.01.1-5.03,2.21-5.03,5.03s7.29,9.13,11.97,11.37c1.91,4.28,10.49,9,16.4,8.55Z"/>
          <path class="cls-21" d="m128.46,180.77c5.88-3.02,10.41-9.88,10.41-10.41s-11.32,2.26-11.32,2.26l.91,8.15Z"/>
          <path class="cls-4" d="m128.66,179.24c4.14-2.12,7.33-6.96,7.33-7.33s-7.97,1.59-7.97,1.59l.64,5.74Z"/>
          <path class="cls-11" d="m115.46,176.77s-9.67-2.3-14.68-11.88c-.04.19-.05.37-.06.57-.18,3.24,6.7,8.61,11.37,11.07,0,0,0,0,0,0-3.23.24-9.31-4.18-11.74-4.01,3.43,3.08,14.56,5.82,14.56,5.82l.55-1.56Z"/>
          <path class="cls-3" d="m109.97,176.09c-3.62,1.81-4.07,7.32-5.43,7.09-1.36-.23-1.51-8-.08-9.2,1.43-1.21,5.51,2.11,5.51,2.11Z"/>
          <path class="cls-4" d="m105.9,159.49c-.65-.05-1.66.58-2.87,2.39l6.04,2.06s-2.51-4.4-3.17-4.45Z"/>
          <path class="cls-13" d="m120.97,171.37c.72-.52.84-1.33.25-1.82-.58-.49-1.65-.47-2.37.04-.72.52-.84,1.33-.25,1.82.58.49,1.65.47,2.37-.04Z"/>
          <path class="cls-11" d="m184.01,218.47c0-.3,3.99-6.79,1.66-12.17-1.1-2.55-2.68-4.9-4.67-6.68,2.24,7.39.21,14.66-5.06,16.98-4.34,1.91-9.67-.09-13.61-4.57,3.24,5.61,7.42,7.92,5.63,8.93.29.42.42.84.35,1.23-.39,2.3-7.1,3.09-14.99,1.76-1.94-.33-3.77-.75-5.42-1.24.25,1.41,1.19,2.61,1.19,2.61h35.91s1.11-3.22.7-3.82c-.4-.6-1.71-2.72-1.71-3.02Z"/>
        </g>
        <g class="cls-8">
          <path class="cls-15" d="m17.15,202.63c.58,2.18,1.12,4.23,1.61,6.1,2.12.16,4.2.33,6.09.48.1-2,.23-4.25.38-6.66l-8.08.08Z"/>
          <path class="cls-15" d="m15.46,196.29l10.05,1.83c.11-1.71.23-3.47.35-5.25l-11.46-.57c.36,1.36.71,2.69,1.05,3.99Z"/>
        </g>
        <g class="cls-8">
          <path class="cls-15" d="m69.63,208.64c-.44-2.27-.95-4.91-1.51-7.78l-8.16,1.65c1.45,2.81,2.78,5.41,3.93,7.64l5.74-1.51Z"/>
          <path class="cls-15" d="m66.32,191.71l-10.28,3.21c.72,1.39,1.42,2.76,2.11,4.09l9.08-2.7c-.29-1.5-.6-3.04-.9-4.6Z"/>
        </g>
        <g class="cls-8">
          <path class="cls-15" d="m29.04,76.51c-2.96-2.24-7-6.57-9.63-9.52-.44,1.29-.88,2.57-1.29,3.8,3.39,2.68,7.89,5.28,10.55,6.74.12-.34.24-.68.36-1.02Z"/>
          <path class="cls-15" d="m22.41,58.48c-.58,1.59-1.18,3.29-1.78,5,2.8,3.63,7.18,7.51,9.63,9.56.56-1.59,1.14-3.2,1.7-4.78-2.45-2.23-6.82-6.37-9.55-9.78Z"/>
        </g>
        <path class="cls-6" d="m96.95,86.51c.98,2.78,3.77,5.58,4.53,5.73.75.15,3.73-.53,4.9-.68.9-.12.12-1.58-.23-1.74-.72-.33-2.79.08-3.17-.15-.38-.23-1.28-2.79-2.26-3.24-.98-.45-4.23-1.21-3.77.08Z"/>
        <path class="cls-6" d="m102.88,87.94c1.58.91,4.11,2.3,4.11,2.3,0,0,2.72,3.77,3.4,4.07s1.51-.38,1.28-.75c-.23-.38-2.75-4.11-3.24-4.6-.49-.49-3.36-2.98-3.36-2.98l-2.19,1.96Z"/>
        <path class="cls-1" d="m43.21,30.78c-.54-.79-.5-1.76.1-2.18.28-.19.63-.23.97-.13-.07-.38-.17-.75-.3-1.07-.64-1.51-2.05-2.28-3.06-1.28-1,1-.65,4.23,2.6,5.11.04.01.08.01.12.01-.16-.13-.31-.28-.44-.47Z"/>
        <g>
          <path class="cls-16" d="m52.28,43.18c-2.59-.31-1.4-4.88-1.4-4.88l4.93,1.36s-1.91,3.71-3.52,3.52Z"/>
          <path class="cls-2" d="m51.14,38.6s-.18.72-.22,1.56c.27.16.56.31.85.45.86.42,1.72.72,2.52.92.65-.83,1.12-1.74,1.12-1.74l-4.28-1.18Z"/>
          <path class="cls-1" d="m55.37,34.32s-.11.13-.27.33c.17.65.38,1.49.14,1.94-.22.42-1.16.3-1.71.14,0,0,0,.01,0,.01.07.16,1.81.62,2.12.04.31-.59-.14-1.85-.27-2.46Z"/>
          <path class="cls-16" d="m53.24,31.12c.46-1.07.23-2.1-.51-2.3-.74-.2-1.71.51-2.17,1.58-.46,1.07-.23,2.1.51,2.3.74.2,1.71-.51,2.17-1.58Z"/>
          <path class="cls-16" d="m60.26,33c.4-1.09.17-2.07-.52-2.2-.69-.12-1.57.66-1.97,1.75-.4,1.09-.17,2.07.52,2.2.69.12,1.57-.66,1.97-1.75Z"/>
          <path class="cls-16" d="m49.27,30.46c3.87-2.19,5.2-.57,5.2-.57,0,0-.25-1.84-1.98-1.75-1.73.09-3.22,2.32-3.22,2.32Z"/>
          <path class="cls-16" d="m57.45,31.53c3.31-.87,3.48,1.33,3.48,1.33,0,0,.6-2.02-.52-2.57-1.12-.55-2.96,1.24-2.96,1.24Z"/>
          <path class="cls-12" d="m55.78,25.46s-2.83-.82-6.08.96l-.96,1.2c4.26-1.46,6.53-.3,6.53-.3l.51-1.87Z"/>
          <path class="cls-12" d="m59.47,26.45s2.58.46,3.61,3.3l-.17,1.41c-1.97-2.98-4.4-2.92-4.4-2.92l.96-1.79Z"/>
        </g>
      </g>
    </g>
  </g>
</svg>