<?xml version="1.0" encoding="UTF-8"?>
<svg id="Layer_2" data-name="Layer 2" xmlns="http://www.w3.org/2000/svg" viewBox="0 0 77.93 84.84">
  <defs>
    <style>
      .cls-1 {
        fill: #ea8b44;
      }

      .cls-2 {
        fill: #fff;
      }

      .cls-3 {
        fill: #b7ddf9;
      }

      .cls-4 {
        fill: #a0a8ba;
      }

      .cls-5 {
        fill: #606d7c;
      }

      .cls-6 {
        fill: #ffaf73;
      }

      .cls-7 {
        fill: #61a2c9;
      }

      .cls-8 {
        fill: #622c2a;
      }

      .cls-9 {
        fill: #95c1e9;
      }

      .cls-10 {
        fill: #d87736;
      }

      .cls-11 {
        fill: #fca051;
      }

      .cls-12 {
        fill: #848ea0;
      }

      .cls-13 {
        fill: #515b68;
      }

      .cls-14 {
        fill: #7cb0d8;
      }

      .cls-15 {
        fill: #773636;
      }
    </style>
  </defs>
  <g id="Layer_1-2" data-name="Layer 1">
    <g>
      <g>
        <path class="cls-9" d="m17.06,34.69C16.58,27.82,12.5,0,12.5,0l-3.61,1.68S-.11,30.98,0,43.47s3.01,12.31,6.52,10.34c1.51-.85,3.75-2.17,4.99-2.9,1.6-.93,5.31-2.81,5.98-4.93.68-2.12.04-4.42-.44-11.29Z"/>
        <polygon class="cls-9" points="24.8 67.51 2.46 54.47 8.89 1.68 31.47 14.9 24.8 67.51"/>
        <path class="cls-14" d="m39.63,47.92c-.48-6.87-4.55-34.69-4.55-34.69l-3.61,1.68s-9.01,29.31-8.89,41.8c.11,12.49,3.01,12.31,6.52,10.34,1.51-.85,3.75-2.17,4.99-2.9,1.6-.93,5.31-2.81,5.98-4.93.68-2.12.04-4.42-.44-11.29Z"/>
        <polygon class="cls-3" points="12.5 0 8.89 1.68 31.47 14.9 35.08 13.23 12.5 0"/>
        <path class="cls-7" d="m33.26,18.31s-6.35,23.72-6.67,30.92c-.46,10.12.76,16.31.76,16.31l5.61-5.69,5.1-.88s-.92-13.26-1.85-21.79c-.92-8.44-2.95-18.88-2.95-18.88Z"/>
        <path class="cls-2" d="m4.08,30.92c-1.14,6.75,1.89,14.67,6.77,17.68,4.88,3.01,9.76-.02,10.9-6.77,1.14-6.75-1.89-14.67-6.77-17.68-4.88-3.01-9.76.02-10.9,6.77Z"/>
        <path class="cls-5" d="m7.95,14.29c-.63,2.16.18,4.54,1.8,5.32,1.62.78,3.44-.33,4.07-2.49.63-2.16-.18-4.54-1.8-5.32-1.62-.78-3.44.33-4.07,2.49Z"/>
        <path class="cls-9" d="m9.01,14.8c-.4,1.38.11,2.9,1.15,3.4,1.03.5,2.2-.21,2.6-1.59.4-1.38-.11-2.9-1.15-3.4-1.03-.5-2.2.21-2.6,1.59Z"/>
        <path class="cls-4" d="m6.04,41.93s-1.67,1.31-1.7,5.69.85,5.6.85,5.6l14.82,8.66s.65-4.83,0-8.66c-.65-3.83-2.73-6.75-2.73-6.75l-11.14-4.18-.1-.36Z"/>
        <polygon class="cls-2" points="21.08 63.28 2.89 52.78 2.54 50.97 20.72 61.47 21.08 63.28"/>
        <polygon class="cls-2" points="28.5 18.49 10.11 7.87 10.57 6.51 28.96 17.12 28.5 18.49"/>
        <polygon class="cls-2" points="25.83 27.16 14.91 20.9 17.24 14.28 27.88 20.38 25.83 27.16"/>
        <polygon class="cls-2" points="25.4 28.77 14.38 22.49 14.66 21.76 25.64 28.02 25.4 28.77"/>
        <polygon class="cls-4" points="21.56 22.78 16.06 19.63 17.57 15.28 23.14 18.47 21.56 22.78"/>
        <path class="cls-5" d="m9.68,29.91c-1.96.65-3.54,1.51-5.01,3.94-.61,1.01-1.75,4.33.69,4.81,1.25.25,1.55-.4,2.37-1.18.6-.57.83-1.66.95-2.45.2-1.3.61-2.58.79-3.88.1-.22.19-.44.23-.7.02-.12-.03-.24-.12-.31.05-.03.1-.06.15-.09.07-.05.03-.17-.06-.14Z"/>
        <path class="cls-12" d="m18.99,46.62c-.56-1.62-1.59-3-1.84-4.72-.08-.52.12-1.7-.3-2.17-.52-.58-2.12-.52-2.76-.6-1.76-.23-3.52-.46-5.28-.69.07-.12-.04-.32-.2-.26-1.78.64-4.97,2.68-4.83,5,.09,1.39.96,1.2,1.83.74-.53,1.19-.98,3.28,0,3.87.46.28,1.33-.39,1.71-.7-.47,1.4-.71,3.23.53,3.66.57.2,1.39-.85,1.82-1.41-.17,1.24-.03,2.56,1.12,2.87,1.1.29,1.74-.8,2.11-1.93.22.93.8,2.11,2.06,1.61,1.09-.44,1.25-2.24,1.26-3.54.4.45.94.72,1.67.6,1.3-.22,1.47-1.27,1.11-2.34Z"/>
        <path class="cls-4" d="m9.87,30.1c-.12.07-.16.18-.15.29-2.3,1.46-3.96,4.03-3,6.85.95,2.8,5.48,5.26,8.35,4.55,6.78-1.7,1.65-15.54-5.2-11.69Z"/>
        <path class="cls-5" d="m17.11,32.58c-.35-.4-.99.11-.73.56,0,0,0,0,0,.01-.4.83-.4,2.44-.62,4-.54,3.79-.52,8.26,2.79,7.68,1.76-.31,2.26-3.08,2.23-4.66-.06-2.76-1.93-5.61-3.68-7.59Z"/>
        <path class="cls-12" d="m14.39,28.08c-1.69-1.57-5.91-.63-7.21.82-.05.06-.09.15-.06.23.25.67.9.8,1.55.72-.37.39-1.51.97-1.27,1.57.23.56,2.51.19,3.43-.19-.34,1.03-1.43,1.95-.7,2.81.45.53,2.39-.17,2.8-1.03.4,1.05,1.05,2.31,2.08,2.14.78-.12.94-.86.96-1.59,1.02,1.4,2.45,2.92,3.02.57.62-2.53-1.2-5.14-4.6-6.05Z"/>
        <path class="cls-13" d="m7.88,36.18c-.37.39.08,1.13.33,1.49.35.51.85.9,1.42,1.13.84.33,2.4.14,2.26-1.09-.11-.97-3.43-2.15-4.01-1.53Z"/>
        <path class="cls-12" d="m13.54,34.77c-.51-.21-2.2.27-2.2.82,0,.96,2.04.67,2.47.07.26-.36.12-.74-.27-.89Z"/>
        <path class="cls-12" d="m8.47,33.14c-.8.17-.2,1.35.12,1.69.41.43,1.45.78,1.4-.16-.02-.45-1.15-1.61-1.52-1.53Z"/>
        <path class="cls-2" d="m16.55,55.67c-.03,1,.58,2.11,1.36,2.49s1.42-.13,1.45-1.13c.03-1-.58-2.11-1.36-2.49-.77-.38-1.42.13-1.45,1.13Z"/>
        <g>
          <path class="cls-5" d="m25.45,23.98c-.21.84-.52.17-1.04-.13-.52-.3-1.04-.11-.84-.95s.79-1.28,1.31-.99.77,1.22.56,2.07Z"/>
          <path class="cls-5" d="m24.06,20.81c.07.37.04.73-.19.86-.23.13-.37-.18-.44-.55s-.1-.83.13-.97c.23-.13.42.29.5.65Z"/>
          <path class="cls-5" d="m25.98,21.92c-.21.2-.34.51-.23.84.12.33.35.23.57.03.21-.2.43-.53.32-.86-.12-.33-.44-.21-.66-.01Z"/>
          <path class="cls-5" d="m25.31,20.85c-.14.33-.17.69.03.9s.39-.06.52-.39c.14-.33.24-.77.04-.98s-.46.14-.6.47Z"/>
          <path class="cls-5" d="m25.06,20.7c-.04.39-.17.69-.41.65-.24-.05-.27-.43-.23-.82s.15-.83.39-.78c.24.05.29.57.25.96Z"/>
        </g>
      </g>
      <g>
        <path class="cls-11" d="m54.62,51.5c-.48-6.87-4.55-34.69-4.55-34.69l-3.61,1.68s-9.01,29.31-8.89,41.8c.11,12.49,3.01,12.31,6.52,10.34,1.51-.85,3.75-2.17,4.99-2.9,1.6-.93,5.31-2.81,5.98-4.93.68-2.12.04-4.42-.44-11.29Z"/>
        <polygon class="cls-11" points="62.36 84.32 40.03 71.27 46.46 18.48 69.04 31.71 62.36 84.32"/>
        <path class="cls-1" d="m77.2,64.72c-.48-6.87-4.55-34.69-4.55-34.69l-3.61,1.68s-9.01,29.31-8.89,41.8c.11,12.49,3.01,12.31,6.52,10.34,1.51-.85,3.75-2.17,4.99-2.9,1.6-.93,5.31-2.81,5.98-4.93.68-2.12.04-4.42-.44-11.29Z"/>
        <polygon class="cls-6" points="50.07 16.81 46.46 18.48 69.04 31.71 72.64 30.03 50.07 16.81"/>
        <path class="cls-10" d="m70.83,35.12s-6.35,23.72-6.67,30.92c-.46,10.12.76,16.31.76,16.31l5.61-5.69,5.1-.88s-.92-13.26-1.85-21.79c-.92-8.44-2.95-18.88-2.95-18.88Z"/>
        <ellipse class="cls-2" cx="50.48" cy="52.07" rx="8.78" ry="13.58" transform="translate(-10.2 12.35) rotate(-12.68)"/>
        <g>
          <path class="cls-15" d="m56.18,70.73c-.45-4.23-1.65-8.78-4.14-12.24-.12-.17-.37-.19-.52-.08-.9-.81-2.39-1.29-3.39-1.46-1.56-.26-3.14.03-4.25,1.25,0,0,0,.02-.01.03,0,0-.02.01-.03.02.07-.32.13-.63.2-.95.06-.25-.28-.41-.4-.18-1.89,3.49-2.01,9.02-.92,12.81.34,1.21,7.83,4.98,9.93,6.26.99.6,1.59,1.86,2.76,1.18,1.77-1.03.92-5.28.78-6.63Z"/>
          <path class="cls-8" d="m53.47,53.45c-.01-.21-.15-.47-.37-.51-2.18-.38-4.15-1.12-6.12-2.17-.3-.16-.6-.01-.72.31-.16.42-.2.79-.13,1.13-2.23,1.61-3.91,4.23-4.23,7.07-.13,1.19.56,2.68,1.57,2.58,0,.68.17,1.33.84,1.61.33.14.66.11.93-.02.18.91.16,1.91,1.16,2.23.74.24,1.32-.14,1.76-.68.35,1.06.98,2.24,1.95,2.27.74.02,1.25-.8,1.62-1.63.31.6.73,1.12,1.41,1.27,1.13.26,2.06-.67,2.43-1.7,1.31-3.68-1.87-8.1-2.1-11.76Z"/>
          <path class="cls-15" d="m56.71,41.72c-1.16,1.28-2.32,1.6-3.49,2.9-.33-.68-.81-1.24-1.49-1.54-.5-.22-1-.24-1.49-.12-.25-.93-.7-1.74-1.12-2.59-.35-.72-.77-2.06-1.34-2.57-.95-.85-2.56.17-3.48.7-.18.1-.24.42-.13.62.49.93,1.19,1.4,2.02,1.42-.32,1.76-.57,4.18.44,5.54-1.31,1.66-2.66,3.94-2.48,6.08.21,2.49,3.2,4.27,4.89,4.96,1.66.67,4.43,1.16,5.29-1.28.63-1.81.39-4.44-.19-6.66,1.15-.68,2.01-1.88,2.38-3.37.48.31,1.23.56,1.83.36.7-.24-.03-1.95-.38-2.88-.32-.86-1.02-1.85-1.27-1.58Z"/>
          <path class="cls-11" d="m49.56,47.26c-.19-.26-.5-.39-.79-.26-.23.11-.36.34-.36.61,0,.85.55,1.06.88,1.12.16.03.37-.04.4-.25.06-.41.12-.86-.14-1.21Z"/>
          <path class="cls-11" d="m52.55,48.15c-.33-.47-1.23-.12-1.52.87-.07.25.12.49.34.5.24,0,.62-.14.91-.36,0,0,.01,0,.02-.01.32-.25.52-.61.25-.99Z"/>
          <path class="cls-8" d="m48.72,50.25c-.59-.12-1.02.28-1.31.97-.5,1.18.74,2.47,1.7,2.66.88.17,2.47-.42,2.42-1.65-.05-1.15-1.78-1.78-2.8-1.98Z"/>
        </g>
        <polygon class="cls-2" points="58.64 80.09 40.46 69.59 40.1 67.78 58.29 78.28 58.64 80.09"/>
        <polygon class="cls-15" points="66.05 35.28 47.86 24.78 48.14 23.31 66.32 33.81 66.05 35.28"/>
        <path class="cls-2" d="m55.1,73.82c-.03,1,.58,2.11,1.36,2.49.77.38,1.42-.13,1.45-1.13.03-1-.58-2.11-1.36-2.49-.77-.38-1.42.13-1.45,1.13Z"/>
        <path class="cls-15" d="m45.24,29.95c-.63,2.16.18,4.54,1.8,5.32,1.62.78,3.44-.33,4.07-2.49.63-2.16-.18-4.54-1.8-5.32-1.62-.78-3.44.33-4.07,2.49Z"/>
        <path class="cls-11" d="m46.3,30.46c-.4,1.38.11,2.9,1.15,3.4,1.03.5,2.2-.21,2.6-1.59.4-1.38-.11-2.9-1.15-3.4-1.03-.5-2.2.21-2.6,1.59Z"/>
        <polygon class="cls-2" points="63.12 42.82 52.2 36.57 54.53 29.95 65.18 36.05 63.12 42.82"/>
        <polygon class="cls-2" points="62.69 44.43 51.67 38.15 51.95 37.42 62.93 43.68 62.69 44.43"/>
        <polygon class="cls-15" points="58.86 38.44 53.35 35.29 54.86 30.95 60.43 34.13 58.86 38.44"/>
        <g>
          <path class="cls-15" d="m62.74,39.64c-.21.84-.52.17-1.04-.13s-1.04-.11-.84-.95.79-1.28,1.31-.99.77,1.22.56,2.07Z"/>
          <path class="cls-15" d="m61.35,36.47c.07.37.04.73-.19.86-.23.13-.37-.18-.44-.55-.07-.37-.1-.83.13-.97.23-.13.42.29.5.65Z"/>
          <path class="cls-15" d="m63.27,37.58c-.21.2-.34.51-.23.84.12.33.35.23.57.03.21-.2.43-.53.32-.86-.12-.33-.44-.21-.66-.01Z"/>
          <path class="cls-15" d="m62.6,36.51c-.14.33-.17.69.03.9.2.21.39-.06.52-.39.14-.33.24-.77.04-.98s-.46.14-.6.47Z"/>
          <path class="cls-15" d="m62.35,36.37c-.04.39-.17.69-.41.65-.24-.05-.27-.43-.23-.82.04-.39.15-.83.39-.78.24.05.29.57.25.96Z"/>
        </g>
      </g>
    </g>
  </g>
</svg>