<?xml version="1.0" encoding="UTF-8"?>
<svg id="Layer_2" data-name="Layer 2" xmlns="http://www.w3.org/2000/svg" viewBox="0 0 80.94 63.83">
  <defs>
    <style>
      .cls-1 {
        fill: #ff7b94;
      }

      .cls-2 {
        fill: #ffaf73;
      }

      .cls-3 {
        fill: #ffbe92;
      }

      .cls-4 {
        fill: #dd4b67;
      }

      .cls-5 {
        fill: #fca051;
      }

      .cls-6 {
        fill: #f16479;
      }
    </style>
  </defs>
  <g id="Layer_1-2" data-name="Layer 1">
    <g>
      <g>
        <path class="cls-4" d="m26.08,15.43s-.79,7.67,3.74,11.51c4.53,3.84,9.81.29,9.81.29l-13.55-11.8Z"/>
        <path class="cls-4" d="m80.88,15.43s.79,7.67-3.74,11.51c-4.53,3.84-9.81.29-9.81.29l13.55-11.8Z"/>
        <ellipse class="cls-4" cx="53.5" cy="20.85" rx="26.04" ry="14.66"/>
        <ellipse class="cls-6" cx="53.5" cy="15.43" rx="27.42" ry="15.43"/>
        <ellipse class="cls-1" cx="53.5" cy="13.34" rx="23.4" ry="13.17"/>
        <path class="cls-6" d="m61.47,13.11c0,2.48-3.57,4.49-7.97,4.49s-7.97-2.01-7.97-4.49,3.57-4.49,7.97-4.49,7.97,2.01,7.97,4.49Z"/>
        <path class="cls-4" d="m56.87,13.34c0,1.05-1.51,1.9-3.37,1.9s-3.37-.85-3.37-1.9,1.51-1.9,3.37-1.9,3.37.85,3.37,1.9Z"/>
        <path class="cls-6" d="m57.82,10.55s2.41-3.29,6.01-4.2c3.61-.91,7.68.45,7.68.45,0,0-5.57.68-8.88,2.66-3.31,1.99-4.21,3.02-4.21,3.02l-.6-1.94Z"/>
        <path class="cls-6" d="m58.57,14.17s3.31-.57,7.07.77c3.76,1.34,5.26,4.78,5.26,4.78,0,0-3.15-2.36-6.23-3.12-3.09-.77-6.85-1.54-6.85-1.54l.75-.88Z"/>
        <path class="cls-6" d="m48.35,10.55s-2.41-3.29-6.01-4.2c-3.61-.91-7.68.45-7.68.45,0,0,5.57.68,8.88,2.66,3.31,1.99,4.21,3.02,4.21,3.02l.6-1.94Z"/>
        <path class="cls-6" d="m47.6,14.17s-3.31-.57-7.07.77c-3.76,1.34-5.26,4.78-5.26,4.78,0,0,3.15-2.36,6.23-3.12,3.09-.77,6.85-1.54,6.85-1.54l-.75-.88Z"/>
        <path class="cls-6" d="m51.5,16.44s-.45,1.34-.45,4.34c0,2.21,1.5,3.95,1.5,3.95,0,0,1.95-1.62,1.95-4.82v-3.32l-3.01-.15Z"/>
        <path class="cls-6" d="m52.33,9.55s-.56-2.26-.02-4.67c.31-1.39,1.44-2.59,1.44-2.59,0,0,1.38.52,1.33,3.63-.02,1.22-.58,3.55-.58,3.55l-2.18.08Z"/>
      </g>
      <g>
        <path class="cls-5" d="m.05,43.76s-.79,7.67,3.74,11.51c4.53,3.84,9.81.29,9.81.29L.05,43.76Z"/>
        <path class="cls-5" d="m54.86,43.76s.79,7.67-3.74,11.51c-4.53,3.84-9.81.29-9.81.29l13.55-11.8Z"/>
        <ellipse class="cls-5" cx="27.47" cy="49.17" rx="26.04" ry="14.66"/>
        <ellipse class="cls-2" cx="27.47" cy="43.76" rx="27.42" ry="15.43"/>
        <ellipse class="cls-3" cx="27.47" cy="41.66" rx="23.4" ry="13.17"/>
        <path class="cls-2" d="m35.45,41.44c0,2.48-3.57,4.49-7.97,4.49s-7.97-2.01-7.97-4.49,3.57-4.49,7.97-4.49,7.97,2.01,7.97,4.49Z"/>
        <path class="cls-5" d="m30.84,41.66c0,1.05-1.51,1.9-3.37,1.9s-3.37-.85-3.37-1.9,1.51-1.9,3.37-1.9,3.37.85,3.37,1.9Z"/>
        <path class="cls-2" d="m31.79,38.88s2.41-3.29,6.01-4.2c3.61-.91,7.68.45,7.68.45,0,0-5.57.68-8.88,2.66-3.31,1.99-4.21,3.02-4.21,3.02l-.6-1.94Z"/>
        <path class="cls-2" d="m32.54,42.49s3.31-.57,7.07.77c3.76,1.34,5.26,4.78,5.26,4.78,0,0-3.15-2.36-6.23-3.12-3.09-.77-6.85-1.54-6.85-1.54l.75-.88Z"/>
        <path class="cls-2" d="m22.33,38.88s-2.41-3.29-6.01-4.2c-3.61-.91-7.68.45-7.68.45,0,0,5.57.68,8.88,2.66,3.31,1.99,4.21,3.02,4.21,3.02l.6-1.94Z"/>
        <path class="cls-2" d="m21.58,42.49s-3.31-.57-7.07.77c-3.76,1.34-5.26,4.78-5.26,4.78,0,0,3.15-2.36,6.23-3.12,3.09-.77,6.85-1.54,6.85-1.54l-.75-.88Z"/>
        <path class="cls-2" d="m25.48,44.76s-.45,1.34-.45,4.34c0,2.21,1.5,3.95,1.5,3.95,0,0,1.95-1.62,1.95-4.82v-3.32l-3.01-.15Z"/>
        <path class="cls-2" d="m26.31,37.87s-.56-2.26-.02-4.67c.31-1.39,1.44-2.59,1.44-2.59,0,0,1.38.52,1.33,3.63-.02,1.22-.58,3.55-.58,3.55l-2.18.08Z"/>
      </g>
    </g>
  </g>
</svg>