<?xml version="1.0" encoding="UTF-8"?>
<svg id="Layer_2" data-name="Layer 2" xmlns="http://www.w3.org/2000/svg" viewBox="0 0 71.13 71.79">
  <defs>
    <style>
      .cls-1 {
        fill: #fff;
      }

      .cls-2 {
        fill: #846457;
      }

      .cls-3 {
        fill: #efc3ac;
      }

      .cls-4 {
        fill: #ffc5b3;
      }

      .cls-5 {
        fill: #725348;
      }

      .cls-6 {
        fill: #ffe0ce;
      }

      .cls-7 {
        fill: #33211f;
      }

      .cls-8 {
        fill: #f23b3b;
      }

      .cls-9 {
        fill: #ff9f8c;
      }

      .cls-10 {
        fill: #ffc4b2;
      }

      .cls-11 {
        fill: #ff5252;
      }

      .cls-12 {
        opacity: .5;
      }

      .cls-12, .cls-13 {
        fill: #d8a58f;
      }

      .cls-14 {
        fill: #492e2e;
      }
    </style>
  </defs>
  <g id="Layer_1-2" data-name="Layer 1">
    <g>
      <g>
        <path class="cls-8" d="m44.46,13.78c-1.37,1.5-3.11,4.09-3.11,4.09,0,0,1.16.7,2.43,2.09,1.27,1.4,1.65,1.86,1.65,1.86,0,0,3.5-1.16,4.81-2.51s1.89-5.07,1.89-5.07l-4.24-2.64c-.23.15-1.43,0-3.43,2.18Z"/>
        <g>
          <path class="cls-11" d="m66.94,39.65c-1.71.3-2.58,1.56-2.58,1.56v4.31s2.81,1.15,2.31,1.66c-2.31,2.36-1.75,2.87-1.18,3.28.45.33,1.3.72,2.67.37,1.98-.51,1.95-1.32,2.16-2.24.61-2.7.18-4.58-.39-6.2-.57-1.62-1.45-2.99-3-2.72Z"/>
          <path class="cls-1" d="m67.94,43.62l-1.45,4.34s.38.1,1,.3c.62.2.89-.68,1.24-2.29.35-1.61-.73-2.2-.79-2.35Z"/>
          <path class="cls-8" d="m66.52,39.73s.37,1,1.23,1.11c.85.12,1.28.7,1.66,1.4.37.7,1.02,2.37.91,4.09-.11,1.72,0,3-.91,3.64-.91.64-2.14.64-2.89,0-.75-.64-1.68-.35-1.68-.35,0,0-.56,1.11.94,1.8,1.5.7,3.76-.29,4.55-2.09.79-1.8,1.15-3.28.36-5.71-.8-2.43-1.44-4.89-4.16-3.89Z"/>
        </g>
        <path class="cls-7" d="m50.86,41.11l-9.7,3.91s-3.35,4.56-.66,5.99c1.54.82,3.29.29,6.75-.92,2.66-.93,5.88-3.09,5.88-3.09,0,0,.92-1.1-.18-3.8-.8-1.98-2.1-2.1-2.1-2.1Z"/>
        <path class="cls-7" d="m39.86,42.8c-.46,1.55-2.02,5.83-1.3,6.79.94,1.24,2.66,1.95,3.83,1.55,2.38-.81,5.92-4.53,8.58-8.68,2.66-4.15,4.11-9.17,4.11-9.17l-10.12-.29s-4.55,7.99-5.1,9.81Z"/>
        <path class="cls-7" d="m66.84,40.83c-1.73-1.26-3.9-.3-3.9-.3l-8.5,10.19,2.2,7.59s4.18-.9,6.86-4.87c1.58-2.33,4.66-7.86,4.66-7.86,0,0,1.03-3.04-1.32-4.75Z"/>
        <path class="cls-7" d="m48.17,37.63s-.76,5.55,1.41,6.56c.51,3.44,1.85,8.82,2.17,9.91.47,1.55,1.58,3.27,2.69,3.72,1.94.79,2.97.78,4.27-1.04,1.45-2.05,2.71-6.18,2.65-11.11-.05-4.93-3.02-11.33-3.02-11.33l-10.17,3.3Z"/>
        <path class="cls-11" d="m61.01,18.01c-.32-1.95-4.95-3.54-4.95-3.54,0,0-3.86-2.13-7.09-.75,0,0-2.71.99-3.94,5.95-.37,1.51-1.82,5.72-1.49,9.9.2,2.46-.15,2.7-.72,3.93-.79,1.69,0,1.83.28,3.04,0,0,5.42,6.55,10.65,5.01,3.02-.89,5.89-1.6,6.61-4.02-.28-2.32-1.73-5.08-1.65-9.03.1-4.87,2.48-9.43,2.3-10.51Z"/>
        <g>
          <path class="cls-9" d="m54.94,9.73l-4.3,1.91-.4,5s-.06.93.62,1.26c.47.22,1.52.08,2.25-.58,1.78-1.62,2.22-2.93,2.22-2.93,0,0-.25-1.25-.38-1.83-.16-.69-.01-2.82-.01-2.82Z"/>
          <path class="cls-8" d="m50.8,17.68c.05-.96.21-1.45-.18-2.07-.4-.62-1.45.67-1.45.67,0,0,.44.79.58,1.19.14.4.72,1.64.72,1.64,0,0,.85-.33,1.57-.77.95-.57,1.72-1.47,1.72-1.47l-1.72-.9s-.5,1.12-1.23,1.7Z"/>
          <path class="cls-8" d="m54.95,12.55c-.57,1.33-2.92,3.43-2.92,3.43,0,0,.61.44.76,1.15.25,1.15.77,1.79.77,1.79,0,0,.93-1.2,2.08-2.47.55-.61,1.57-1.52,1.57-1.52,0,0-.22-1.12-1.14-1.99-.39-.37-1.12-.39-1.12-.39Z"/>
          <path class="cls-8" d="m49.26,14.41s-.1.17-.27.89c-.17.72-.44,2.18-.44,2.18,0,0,.75.02,1.09-.61.48-.88.98-1.25.98-1.25l-.16-1.2h-1.19Z"/>
          <path class="cls-4" d="m48.02,4.43c-2.81,3.86-.51,10.4,1.84,10.11,1.32-.17,4.31-1.25,5.67-3.32,1.54-2.32,1.33-5.71.32-7.09-1.3-1.78-5.15-3.38-7.83.3Z"/>
          <path class="cls-14" d="m54.96,1.48c-3.39-3.45-6.57.08-7.42,1.09-1.18,1.41-1.07,2.57-1.07,3.87,1.36.68,2.3-.05,3.3-.59-.05.31-.19.74-.76,1.26,1.07.64,3.79.26,4.87-.49.27.65.35,1.57.79,2.22,1.06.44.47.31.76.6.47.47.11,1.77.11,1.77,0,0,1.75-.02,2.63-2.63,1.06-3.14.89-7.36-3.2-7.11Z"/>
        </g>
        <path class="cls-10" d="m54.13,9.38s.81,1.44.9,1.68c.09.24,1.92-1.11,1.23-2.27-.69-1.16-2.13.6-2.13.6Z"/>
        <path class="cls-8" d="m44.58,35.07s.46,1.44,1.96,2.53c1.5,1.09,3.71,1.32,3.71,1.32,0,0-2.21-1.32-3.33-2.14-1.13-.82-2.33-1.71-2.33-1.71Z"/>
        <path class="cls-8" d="m45.44,33.07s1.32,1.25,3.41,1.66c2.09.41,4.87-.44,4.87-.44,0,0-2.41-.65-3.96-.79-1.55-.13-4.32-.44-4.32-.44Z"/>
      </g>
      <g>
        <path class="cls-13" d="m2.23,33.29c0-1.55,1.13-3.34,1.85-4.21.76-.91-.09-2.02-1.59-.69-1.63,1.44-2.86,3.92-2.38,6.33.61,3.09,3.79,4.58,6.32,5.29,3.42.95,6.09,2.74,7.67,4.33,1.31,1.32,1.62-3.14,1.62-3.14,0,0-5.07-2.62-8.08-3.36-3.41-.83-5.41-2.4-5.41-4.55Z"/>
        <path class="cls-5" d="m60.7,58.19c-1.19.16-1.67,1.67-2.23,1.67s-2.31.16-2.54.24c0,0-.8,4.85.46,4.69,1.26-.16,3.2-.24,3.43-1.27.24-1.03.48-2.31,1.35-3.42.87-1.11.72-2.07-.48-1.91Z"/>
        <g>
          <path class="cls-3" d="m57.86,32.71c-.81.41-1.39,1.39-1.1,2.75.29,1.37.39,3.12-.24,3.62-.3.24-.57.51-.77.73-.1.16-.23.31-.38.44-.5.46-1.23.81-2.08,1.26-1.55.81-6.57,2.05-7.67,2.62-2.22,1.14-3.24,3-3.24,3l4.64,6.57s1.96-4.23,3.93-5.64c1.98-1.41,6.57-4.34,8.23-6.32,1.31-1.56,1.53-3.3,1.32-5.63-.27-2.93-.78-4.15-2.62-3.41Z"/>
          <path class="cls-5" d="m56.07,38.77c-.03.42-.15.75-.34,1.04.21-.23.48-.5.77-.73.63-.5.54-2.25.24-3.62-.29-1.36.3-2.34,1.1-2.75-.14.05-.28.12-.43.19-3.12,1.56-1.23,3.91-1.36,5.87Z"/>
        </g>
        <g>
          <path class="cls-3" d="m37.84,21.23c-.83-.18-1.1-1-1.74-.59-.64.41-3.39,1.96-4.34,2.5-.85.48-2.38,1.89-3.68,1.7-.29,1.2-.14,2.94-.01,4.54.2,2.4-1.71,4.68-1.71,4.68,0,0-3.2,1.07-4.99,1.07-4.68,0-5.53,2.05-5.53,2.05l8.2,6.92s5.09-.27,8.2-2.24c2.98-1.89,2.98-4.91,2.23-8.01-.8-3.34-2.44-7.63-2.44-7.63,0,0,4.07-1.44,6.18-3.8.48-.54.88-1,1.05-1.58-.47.27-1.02.49-1.41.41Z"/>
          <path class="cls-5" d="m35.49,19.84c-2.74,1.84-4.51,2.78-6.5,3.65-.49.21-.76.71-.92,1.34,1.3.19,2.83-1.22,3.68-1.7.95-.54,3.7-2.09,4.34-2.5.64-.41.91.41,1.74.59.39.08.94-.14,1.41-.41.13-.41.15-.87,0-1.46-.21-.85-1.86-.8-3.76.48Z"/>
        </g>
        <path class="cls-13" d="m40.45,47.04l1.19.77s.87-2.62,2.14-3.52c1.26-.89,2.18-1.58,3.33-2.37,0,0-3,.93-4.74,2.67-1.74,1.73-1.92,2.45-1.92,2.45Z"/>
        <path class="cls-13" d="m26.96,33.18c-.54.87-2.5,1.21-4.05,1.33-1.55.12-3.7.7-3.7.7l2.33.97s2.51-.26,3.4-.54c.89-.28,1.85-.66,2.6-1.97.75-1.31.54-3.5.54-3.5,0,0-.57,2.13-1.11,3Z"/>
        <path class="cls-6" d="m39.6,45.28c-1.2-.25-6.7-1.27-10.48-2.23s-3.85-4.95-6.33-6.6c-3.34-2.23-8.57-1.82-10.62,3.7-.53,1.41-.19,5.13.17,7.04.47,2.5,5.89,9.23,13.89,12.72,8,3.5,13.8,1.46,16.27,3.66s4,4.47,8.52,2.63,4.27-6.49.7-9.95c-4.16-4.04-3.49-9.2-12.14-10.97Z"/>
        <path class="cls-3" d="m19,53.96c-1.64-1.97-4.18-6.35-5.88-8.04-.85-.84.52,5.12.52,5.12,0,0,3.58,3.14,5.62,4.64,2.04,1.5,5.1,3.31,5.1,3.31v-2.23s-3.72-.83-5.36-2.8Z"/>
        <path class="cls-3" d="m38.59,60.57c-2.7-.24-3.26.8-6.52-.44-3.26-1.23-4.47,0-4.47,0,0,0,3.01,1.5,5.9,1.8,2.89.29,6.53.39,8.2,1.9,1.24,1.12,1.87,1.83,3.06,2.68,1.19.85,2.34-1.25,2.34-1.25l-3.34-2.52s-2.47-1.93-5.17-2.17Z"/>
        <g>
          <path class="cls-3" d="m13.57,35.19c.02-.09.02-.17.03-.26-1.42,1.22-3.9,1.85-4.92,2.58-1.43,1.01-1.55,2.09-3.52,3.28-1.23.74-2.3.35-2.93-.05.04.06.08.11.13.17,1.59,1.94,6.21-.87,6.21-.87,0,0-1.12,4.69,1.03,8.75,2.15,4.06,4.78,4.76,6.13,3.61-1.17-1.36-2.05-3.22-2.71-7.11-.66-3.89.32-8.97.56-10.09Z"/>
          <path class="cls-2" d="m10.86,33.27c-2.53,1.46-3.62,2.54-6.04,3.5-2.36.93-4.16,1.88-2.59,3.97.63.4,1.7.79,2.93.05,1.97-1.19,2.09-2.27,3.52-3.28,1.02-.72,3.5-1.36,4.92-2.58.3-2.03-1.04-2.64-2.73-1.66Z"/>
        </g>
        <path class="cls-3" d="m55.83,57.05c.16-.88.41-2,.44-2.62.08-1.61.64-4.22-.56-4.54-1.19-.32-2.62-.72-3.74,0-1.11.72-2.19,3.21-3.34,4.85-2.63,1.2-4.85,2.54-5.46,5.68-.88,4.57.97,6.21,4.66,7.92,4.14,1.91,8.07-.16,9.4-4.22.61-1.87.35-4.23-1.56-5.96,0-.23.06-.64.14-1.11Z"/>
        <g>
          <path class="cls-3" d="m34.6,47.67c-1.3-1.13-5.05-4.25-6.63-1.2,0,.9.52,1.53,1.64,2.19,2.14,1.25,1.29,1.95,1.29,1.95,0,0-5.6,1.16-7.09,2.21-1.49,1.05-1.67,2.81-.58,5.49.81,1.97,2.5,2.72,3.98,3.55,1.42.8,5.57,1.46,6.28.07.58-1.14-4.09-5.92-4.09-5.92,0,0,5.35-2.24,6.1-3.82.75-1.57,1.07-2.8-.91-4.53Z"/>
          <path class="cls-2" d="m29.61,48.66c-1.12-.66-1.64-1.29-1.64-2.19-.09.17-.17.35-.25.56-.41,1.18.28,1.75,1.27,2.46s1.91,1.12,1.91,1.12c0,0,.85-.69-1.29-1.95Z"/>
        </g>
        <path class="cls-5" d="m55.76,49.5c-.69-.15-1.42,0-2.46,0,0,0-.6,1.06,0,1.7.36.39,1.04,1.17,1.81.89.62-.23,1.28-1.29,1.28-1.29,0,0,0-1.16-.63-1.3Z"/>
        <path class="cls-5" d="m52.02,63.91c-2.41-.62-1.86,2.8-1.86,2.8,0,0-1.9-.16-3.2.83-1.3.98-1.3,1.86-1.3,2.65s1.59.4,2.47.56c.87.16,4.4,1.59,4.76.8.36-.8.32-1.67.36-4.01.04-2.33-.32-3.4-1.23-3.63Z"/>
        <path class="cls-13" d="m12.95,39.16s-1.11,3.41-1,4.75c.11,1.34,2.15,3.13,2.15,3.13,0,0-1.12-2.27-1.25-3.94-.13-1.67.11-3.94.11-3.94Z"/>
        <path class="cls-13" d="m55.83,57.05s-.26,1.11-.14,1.57c.06.24.58.63.96.75-.03-.33-.19-.58-.32-.87-.13-.28-.49-1.03-.49-1.44Z"/>
        <g>
          <path class="cls-13" d="m49.84,59.52c-.87,1.33.69,2.48.69,2.48,0,0,1.41.29,1.94-.65.83-1.49-.5-2.87-.5-2.87,0,0-1.26-.29-2.13,1.03Z"/>
          <path class="cls-7" d="m50.55,59.72c-.57.88.34,1.63.34,1.63,0,0,.85.05,1.14-.69.38-.96-.29-1.65-.29-1.65,0,0-.67-.09-1.19.71Z"/>
          <path class="cls-12" d="m50.73,59.96c-.32.57.16.93.16.93,0,0-.23-.75.76-1.13,0,0-.57-.41-.91.2Z"/>
          <path class="cls-3" d="m51.47,60.07c-.11.08-.12.25-.02.38.1.13.26.16.37.08.11-.08.12-.25.02-.38-.1-.13-.26-.16-.37-.08Z"/>
        </g>
        <path class="cls-13" d="m54.14,60.29s.15.42,0,.92c-.15.51-.39,1.1-.39,1.1,0,0,.85-.3.95-1.01.1-.72-.56-1.01-.56-1.01Z"/>
      </g>
      <path class="cls-4" d="m49.41,33.48c-2.69,2.35-5.46,6.18-7.43,8.33-1.97,2.14-3.61,3.48-4.16,5.72-.66,2.67,1.02,3.39,3.34,2.17,2.32-1.21,2.61-3.97,3.82-5.54,1.21-1.57,6.65-5.5,8.43-8.32,1.78-2.82,5.61-8.88,5.61-8.88l-3.75-3.32s-3.81,6.8-5.86,9.85Z"/>
      <path class="cls-8" d="m57.52,16.99c-1.9,1.46-4.11,8.05-4.11,8.05,0,0,2.18.26,3.36,1.22,1.19.95,1.77,2.14,2.14,2.5,0,0,1.91-2.21,2.49-3.46,1.05-2.27,1.64-4.09,1.09-6.18-.55-2.09-3.07-3.59-4.97-2.13Z"/>
      <path class="cls-9" d="m41.82,18.1s-3.36,5.08-4.33,6.55c-.97,1.47-3.62,9.07-4.34,12.3-2.09,3.23-2.9,4.67-2.98,6.47-.08,1.79,2.6,2.85,4.37-.31.81-1.45,1.3-4.28,1.54-5.25.24-.97,4.37-8.12,5.17-9.69s2.59-3.62,2.59-3.62c0,0,.44-2.51.87-3.71-.79-1.71-2.9-2.72-2.9-2.72Z"/>
    </g>
  </g>
</svg>