<?xml version="1.0" encoding="UTF-8"?>
<svg id="Layer_2" data-name="Layer 2" xmlns="http://www.w3.org/2000/svg" viewBox="0 0 79.33 92.1">
  <defs>
    <style>
      .cls-1 {
        fill: #ea8b44;
      }

      .cls-2 {
        fill: #c16629;
      }

      .cls-3 {
        fill: #622c2a;
      }

      .cls-4 {
        fill: #d87736;
      }

      .cls-5 {
        fill: #fca051;
      }

      .cls-6 {
        fill: #5761a0;
      }

      .cls-7 {
        fill: #5974bb;
      }

      .cls-8 {
        fill: #773636;
      }
    </style>
  </defs>
  <g id="Layer_1-2" data-name="Layer 1">
    <g>
      <g>
        <polygon class="cls-3" points="40.92 86.9 40.92 92.1 71.89 74.21 71.89 68.98 40.92 86.9"/>
        <polygon class="cls-8" points="40.92 92.1 38.24 90.54 38.24 85.34 40.92 86.9 40.92 92.1"/>
      </g>
      <g>
        <polygon class="cls-3" points="9.75 68.92 9.75 74.12 40.72 56.23 40.72 51 9.75 68.92"/>
        <polygon class="cls-8" points="9.75 74.12 7.07 72.56 7.07 67.36 9.75 68.92 9.75 74.12"/>
      </g>
      <polygon class="cls-1" points="43.15 53.91 43.15 88.71 74.12 70.82 74.12 35.99 43.15 53.91"/>
      <polygon class="cls-4" points="43.15 81.7 43.15 83.05 74.12 65.16 74.12 63.78 43.15 81.7"/>
      <polygon class="cls-4" points="43.15 75.18 43.15 76.53 74.12 58.64 74.12 57.26 43.15 75.18"/>
      <polygon class="cls-4" points="43.15 68.76 43.15 70.11 74.12 52.22 74.12 50.84 43.15 68.76"/>
      <polygon class="cls-4" points="43.15 62.24 43.15 63.59 74.12 45.7 74.12 44.32 43.15 62.24"/>
      <polygon class="cls-4" points="43.15 55.87 43.15 57.22 74.12 39.33 74.12 37.94 43.15 55.87"/>
      <polygon class="cls-5" points="4.64 32.84 4.64 66.52 43.15 88.71 43.15 50.57 19.8 22.34 4.64 32.84"/>
      <polygon class="cls-1" points="43.15 55.87 43.15 57.22 4.64 34.88 4.64 33.49 43.15 55.87"/>
      <polygon class="cls-1" points="43.15 49.61 43.15 50.96 7.25 30.09 8.19 29.25 43.15 49.61"/>
      <polygon class="cls-1" points="43.58 43.56 43.58 44.91 11.87 26.71 12.81 25.87 43.58 43.56"/>
      <polygon class="cls-1" points="43.15 62.24 43.15 63.59 4.64 41.26 4.64 39.87 43.15 62.24"/>
      <polygon class="cls-1" points="43.15 68.76 43.15 70.11 4.64 47.78 4.64 46.39 43.15 68.76"/>
      <polygon class="cls-1" points="43.15 75.18 43.15 76.53 4.64 54.2 4.64 52.81 43.15 75.18"/>
      <polygon class="cls-1" points="43.15 81.7 43.15 83.05 4.64 60.72 4.64 59.33 43.15 81.7"/>
      <g>
        <path class="cls-8" d="m17.57,56.04c0-1.72.42-3.06,1.13-3.94-1.8.31-3.02,2.17-3.02,5.1v15.69l11.76,6.79v-2.25l-9.87-5.7v-15.69Z"/>
        <path class="cls-3" d="m21.56,52.74c-1.04-.6-2.01-.79-2.86-.65-.71.89-1.13,2.23-1.13,3.94v15.69l9.87,5.7v-13.44c0-4.31-2.65-9.37-5.88-11.24Z"/>
      </g>
      <g>
        <polygon class="cls-2" points=".67 36.71 4.64 34.48 21.93 22.14 20.65 20.85 .67 36.71"/>
        <polygon class="cls-7" points="43.3 59.34 18.89 20.57 54.98 0 79.33 38.71 43.3 59.34"/>
        <polygon class="cls-6" points="21.74 25.03 20.63 23.22 56.72 2.64 57.76 4.39 21.74 25.03"/>
        <polygon class="cls-6" points="25.69 31.3 24.58 29.49 60.67 8.92 61.71 10.67 25.69 31.3"/>
        <polygon class="cls-6" points="29.72 37.76 28.6 35.95 64.69 15.37 65.74 17.12 29.72 37.76"/>
        <polygon class="cls-6" points="33.67 44.03 32.55 42.22 68.64 21.65 69.69 23.4 33.67 44.03"/>
        <polygon class="cls-6" points="37.62 50.5 36.5 48.69 72.59 28.11 73.64 29.87 37.62 50.5"/>
        <polygon class="cls-6" points="41.57 56.78 40.45 54.96 76.54 34.39 77.59 36.14 41.57 56.78"/>
        <polygon class="cls-4" points="43.3 59.34 42.25 60.09 18.54 22.99 .67 36.71 0 35.37 18.89 20.57 43.3 59.34"/>
      </g>
    </g>
  </g>
</svg>