<?xml version="1.0" encoding="UTF-8"?>
<svg id="Layer_2" data-name="Layer 2" xmlns="http://www.w3.org/2000/svg" viewBox="0 0 81.47 95.79">
  <defs>
    <style>
      .cls-1 {
        fill: #915d61;
      }

      .cls-2 {
        fill: #d57857;
      }

      .cls-3 {
        fill: #fff;
      }

      .cls-4 {
        fill: #ffc5b3;
      }

      .cls-5 {
        fill: #512e30;
      }

      .cls-6 {
        fill: #49afb7;
      }

      .cls-7 {
        fill: #33211f;
      }

      .cls-8 {
        fill: #239699;
      }

      .cls-9 {
        fill: #6e4243;
      }

      .cls-10 {
        fill: #c16246;
      }

      .cls-11 {
        fill: #492e2e;
      }

      .cls-12 {
        fill: #ff9784;
      }
    </style>
  </defs>
  <g id="Layer_1-2" data-name="Layer 1">
    <g>
      <g>
        <path class="cls-12" d="m50.53,20.84c-.29.78-2.23,4.9-2.23,4.9,0,0-4.37-.42-6.96-.59-.48,1.06-1.33,4.32-1.48,4.82,0,.03-.01.05-.02.08,1.58.15,3.28.31,4.34.5,2.5.44,5.38.67,5.92.41,1.14-.54,2.04-1.23,3.74-3.58.99-1.37,2.72-3.5,2.72-3.5l-1.8-3.04s-3.77-1.27-4.24,0Z"/>
        <path class="cls-6" d="m77.28,49.96c-1.71.3-2.58,1.56-2.58,1.56v4.31s2.81,1.15,2.31,1.66c-2.31,2.36-1.75,2.87-1.18,3.28.45.33,1.3.71,2.67.37,1.98-.51,1.95-1.32,2.16-2.24.61-2.7.18-4.58-.39-6.2-.57-1.62-1.45-2.99-3-2.72Z"/>
        <path class="cls-3" d="m78.28,53.93l-1.45,4.34s.38.1,1,.3c.62.2.89-.68,1.24-2.29.35-1.61-.73-2.2-.79-2.35Z"/>
        <g>
          <g>
            <path class="cls-6" d="m55.56,53.94c-.73-.07-.24,2.25-1.38,2.14-1.35-.13-3.05-1.35-3.99-1.06,0,0-.27.29-.69.73-.68.71-1.75,1.8-2.78,2.76-1.15,1.07-1.79,2.1-3,2.97-1.04.75.46,1.69,2.16,2.22.85.26,2.11.11,2.98-.13,1.23-.34,1.44-1.03,3.01-2.5.03-.03.06-.05.09-.09.79-.73,2.21-1.29,3.14-1.84,1.02-.61,1.67-1.84,1.67-1.84,0,0-.11-3.26-1.2-3.37Z"/>
            <path class="cls-3" d="m50.7,54.99c-1.04.86-1.74,1.99-2.49,2.88-.75.89.1,1.44,1,.56,1.01-1,2.65-3.1,2.65-3.1,0,0-.87-.42-1.16-.33Z"/>
            <path class="cls-8" d="m55.52,58.81c-.61.44-2.07.89-3.62,1.98-1.55,1.09-2.44,2.54-3.88,2.67-1.45.13-2.22-.15-2.91-.9s-1.72-.6-1.72-.6c0,0-.35.46.63,1.38.98.93,2.91,1.16,4.63.82,1.72-.34,2.73-2.14,3.24-2.55.51-.41,1.71-1.05,2.26-1.22,1.07-.33,1.48-.72,1.92-1.1.33-.28.88-.9.96-1.62.05-.4-.36-1.44-.36-1.44,0,0-.35,1.98-1.15,2.56Z"/>
          </g>
          <path class="cls-12" d="m50.54,55.97c-.52-.33-.85-.41-.85-.41l-.47.49s.69.22,1.03.54c.33.32,1.04,1.14,1.04,1.14l.58-.45s-.8-.98-1.32-1.31Z"/>
          <path class="cls-8" d="m49.5,57.05c-.52-.33-.85-.41-.85-.41l-.47.49s.69.23,1.03.54c.33.32,1.04,1.14,1.04,1.14l.58-.45s-.8-.98-1.32-1.31Z"/>
        </g>
        <path class="cls-7" d="m60.34,41.57s-4.47,12.36-5.79,19.62c-1.32,7.26,6.73,5.73,6.73,5.73,0,0,5.98-6.71,6.6-7.57.62-.86,4.73-9.84,5.47-13.33.73-3.5-1.2-6.85-1.2-6.85l-11.8,2.4Z"/>
        <path class="cls-7" d="m55.93,36.43s-11.44,2.92-13.78,3.97c-2.33,1.05-1.11,5.25,1.18,8.38,2.3,3.13,1.85,1.96,3.24,3.66.76.94.64,1.03,1.35,3.12.97-.06,3.08,3.62,6.94,2.51,1.58-.45,2.36-2.42,1.83-4.17-.23-.78-1.14-2.47-2.3-4.19,1.48.11,4.94,1.37,6.72,1.25-.41-1.23-.78-2.17-.78-2.17,0,0,2.03.09,4.24-1.53,2.21-1.62-8.65-10.82-8.65-10.82Z"/>
        <path class="cls-12" d="m59.87,9.74l-3.88,3.9s-1.25,4.59-1.03,6.12c.22,1.54,3.19,4.39,3.19,4.39,0,0,3.29,1.32,5.79-.88,2.49-2.19,1.67-9.63,1.67-9.63l-5.73-3.9Z"/>
        <path class="cls-8" d="m55.63,10.08c-.49.55-3.84-1.74-5.23,2.35-1.39,4.09-2.79,9.41-2.79,9.41,0,0,5.23,2.9,7.1,2.47l1.87-.43-2.17-8.77,2.3-3.03-1.07-2.01Z"/>
        <path class="cls-6" d="m71.8,20.42c-.79-3.25-3.08-5.85-4.37-6.78-3.33-2.41-7.78-3.9-7.78-3.9l.62,1.68,3.54,1.97s-3.31,10.42-6.29,8.11c-2.98-2.31-1.79-5.24-1.79-5.24l-2.08-2.77s-1.03,3.38-.76,6.66c.27,3.28,3.92,10.26,2.69,12.76-1.18,2.4-.72,3.79-.72,3.79,0,0,4.65,5.2,9.09,5.36,5.32.19,9.29.06,9.29.06,0,0,.55-2.96-.94-5.14.49-4.94.52-12.42-.5-16.56Z"/>
        <path class="cls-8" d="m57.52,33.43s1.64,2.77,4.53,4.07c2.89,1.3,6.02.81,6.02.81,0,0-3.37-.9-5.35-2.08-1.98-1.18-5.2-2.8-5.2-2.8Z"/>
        <path class="cls-8" d="m58.77,29.24s2.63,3.95,6.18,5.51c3.55,1.56,5.33,1.91,5.33,1.91,0,0-2-1.84-4.54-3.7-2.55-1.86-6.97-3.72-6.97-3.72Z"/>
        <path class="cls-8" d="m55.93,15.56c-.22-.04-1.53-.44-1.53-.44,0,0-.36,1.14-.51,2.58-.16,1.43.26,4.42.26,4.42,0,0,.71-.5,1.41-.46.7.04,1.97-.14,1.97-.14,0,0-1.43-1.52-1.43-3.31s.05-2.6-.17-2.63Z"/>
        <path class="cls-4" d="m58.96,2.37c-2.04-1.56-6.88-2.06-8.65,2.94-1.85,5.24,2.89,11.79,5.42,10.68,1.42-.62,4.39-2.84,5.23-5.6.94-3.11-.42-6.82-2-8.03Z"/>
        <path class="cls-11" d="m55.58.03c-4.42.5-6.19,4.6-5.69,6.96.56-1.71,2.18-2.19,4.35-1.65,3.67.92,4.19,4.5,4.19,4.5,0,0,.94-1.95,1.82-1.38.65.42.71,1.94.71,1.94,0,0,1.61-2.31.91-5.44-.43-1.95-2.87-5.32-6.29-4.93Z"/>
        <path class="cls-4" d="m75.94,23.93c-2.11-6.16-6.04-6.79-6.04-6.79l-2.85,7.8s2.51,3.17,3.02,4.4c1.01,2.45,3.78,4.47,3.78,4.47.03-.02-2.31-.51-4.75,1.95-.84.84-3.07,2.61-4.15,3.04-1.28.52-3.71.59-4.95.61-1.55.03-1.64.81-.6.93,1.33.15,2.31.65,2.31.65,0,0-2.33,2.78-3.63,3.53-1.3.75-1.95,3.2-.7,3.1,1.81-.15,5.21-1.43,6.49-2.58,1.41-1.27,1.97-3.19,2.87-3.58.62-.27,2.1-1.02,5.78-1.9,2.3-.55,4.13-1.84,6.14-2.46,1.13-.35.81-2.15.59-4.69-.19-2.29-2.13-5.07-3.3-8.47Z"/>
        <path class="cls-8" d="m68.91,15.03c-1.71-.63-3.67,1.09-3.94,4.58-.22,2.79,1.35,6.1,1.98,7.42.63,1.32,2.63,4.16,2.63,4.16,0,0,4.48-.91,5.59-1.84,1.86-1.55,2.62-3.41,2.62-3.41,0,0-3.37-8.89-8.87-10.92Z"/>
        <path class="cls-7" d="m75.1,49.96s-2.22.83-3.49,1.89c-2.64,2.21-8.38,6.13-8.38,6.13l-5.18,8.94s2.29.88,6.75-.59c4.46-1.46,13.2-8.6,13.2-8.6,0,0,.88-2.17.55-3.8-.64-3.18-3.46-3.97-3.46-3.97Z"/>
        <path class="cls-8" d="m60.96,10.4l-.48,1.14s2.28.96,1.56,2.36c-.72,1.4-1.88,3.61-2.81,5.12-.93,1.51-1.71,2.49-1.71,2.49,0,0,.32.41,1.95,1.07.86.35,2,1.4,2,1.4,0,0,3.28-8.28,2.78-10.14-.5-1.86-3.28-3.44-3.28-3.44Z"/>
        <path class="cls-8" d="m76.87,50.04s.37,1,1.23,1.11c.85.12,1.28.7,1.66,1.4.37.7,1.02,2.37.91,4.09-.11,1.72,0,3-.91,3.64-.91.64-2.14.64-2.89,0-.75-.64-1.68-.35-1.68-.35,0,0-.56,1.11.94,1.8,1.5.7,3.76-.29,4.55-2.09.79-1.8,1.15-3.28.36-5.71-.8-2.43-1.44-4.89-4.16-3.89Z"/>
      </g>
      <g>
        <g>
          <path class="cls-2" d="m44.42,63.86c-1.87-.61-2.69,1.48-2.69-.54v-12.54c0-3.91-.29-7.02-1.15-10.76-.86-3.74,0-9.55,0-9.55,0,0-5.34-.36-9.89,2.61,1.83,1.04,3.33,2.54,3.92,3.89,1.24,2.87,2.28,6.64,1.93,8.87-1.11-.09-2.49-1.19-2.49-1.19,0,0,3,6.03,1.85,7.51-.48-1.12-1.88-1.43-1.88-1.43,0,0,.89,3.55-.14,5.05-.34-1.5-1.29-2.16-1.29-2.16,0,0,.43,3.77-1.03,6.51-1.59,2.98-3.27,4.58-3.27,4.58,0,0,1.21,3.34.84,6.09-.25,1.86-2.98,5.23-6.06,7.29s-2.92,6.12-2.92,6.12c3.48.55,6.26-1.13,7.92-2.27,0,0,1.55-.89,2.33-1.79.77-.9,1.48-2.12,1.48-2.12,0,0-.32,1.41-.64,1.93.75,0,1.92-.52,3.79-1.94,1.86-1.41,2.58-1.54,4.12-1.76,1.11-.16,1.75-.37,2.24-.86-.09-.53-.37-1.09-.81-1.69-1.44-2.01-7.19,1.73-7.19,1.73,0,0,2-1.87,2.87-6.34.69-3.59-1.05-4.69-1.76-4.98-.1-.03-.2-.05-.29-.1-.98-.51-3.02.45-3.02.45,0,0,.79-1.01,1.71-1.18.97-.18,1.76-1.46,1.76-1.46,0,0-.51.21-1.09.11-.32-.06-.96-.56-.96-.56,0,0,.6.24,1.44-.17.77-.38,1.96-2.55,1.96-2.55,0,0-.78.34-1.29.3-.69-.06-1.2-.66-1.2-.66,0,0,.73.3,1.89-.39,1.16-.69,1.39-1.99,1.23-2.51-.36.19-.8.17-.8.17,0,0,.8-.69,1.86-2.53.46-.81.46-2.97.46-2.97,0,0,.64,1.53.19,3.88-.45,2.34-1.03,2.91-1.03,2.91,0,0,.66,6.65.79,9.08.01.27.01.64.05,1.03.22.18.47.35.71.45.62.26,1.16.49,2.27.35.7-.09,1.86-.91,2.26-1.22.5-.4,1.08-1.12,1.64-1.17.54-.04.75.5.76.53.16-.82-.16-1.65-1.33-2.03Z"/>
          <path class="cls-10" d="m45,65.36c-.56.04-1.14.77-1.64,1.17-.4.32-1.56,1.14-2.26,1.22-1.11.14-1.65-.1-2.27-.35-.24-.1-.5-.28-.71-.45.08.9.37,1.92,1.64,2.12,1.19.19,2.84-.57,4.35-1.14.78-.3,1.48-1.16,1.65-2.03-.01-.03-.21-.57-.76-.53Z"/>
          <path class="cls-10" d="m38.99,75.41c-1.38.72-2.1,1.17-3.97,2.58-1.86,1.41-3.04,1.95-3.79,1.94.32-.51.64-1.93.64-1.93,0,0-.71,1.22-1.48,2.12-.77.9-2.33,1.79-2.33,1.79,1.71,1.42,6.16-1.83,9.98-3.27,2.67-1.01,3.54-2.05,3.33-3.28-.52-.13-1.08-.64-2.39.04Z"/>
          <path class="cls-10" d="m37.66,53.02c-1.06,1.84-1.86,2.53-1.86,2.53,0,0,.44.02.8-.17.17.51-.07,1.82-1.23,2.51-1.16.69-1.89.39-1.89.39,0,0,.51.61,1.2.66.51.04,1.29-.3,1.29-.3,0,0-1.18,2.17-1.96,2.55-.84.41-1.44.17-1.44.17,0,0,.65.5.96.56.58.11,1.09-.11,1.09-.11,0,0-.79,1.28-1.76,1.46-.92.17-1.71,1.18-1.71,1.18,0,0,2.04-.96,3.02-.45,0,0,1.16-.77,1.86-2.64.83-2.19,1.22-4.52,1.22-4.52,0,0,.58-.56,1.03-2.91.45-2.34-.19-3.88-.19-3.88,0,0,0,2.16-.46,2.97Z"/>
          <path class="cls-9" d="m30.69,33.07c-.6.39-1.19.84-1.75,1.35-4.8,4.43-4.75,8.77-6.77,14.59-2.01,5.81-7.73,11.12-9.49,22.94-1.13,7.59,2.78,10.27,4.03,10.99,1.21.69,2.37,1.08,3.45,1.25,0,0-.17-4.06,2.92-6.12s5.81-5.43,6.06-7.29c.37-2.74-.84-6.09-.84-6.09,0,0,1.68-1.6,3.27-4.58,1.46-2.74,1.03-6.51,1.03-6.51,0,0,.94.66,1.29,2.16,1.03-1.5.14-5.05.14-5.05,0,0,1.4.31,1.88,1.43,1.15-1.48-1.85-7.51-1.85-7.51,0,0,1.37,1.11,2.49,1.19.36-2.23-.69-6-1.93-8.87-.58-1.35-2.09-2.84-3.92-3.89Z"/>
        </g>
        <g>
          <path class="cls-2" d="m45.6,23.1c-1.46.19-4.13.83-5.13,1.08-1.01.25-2.51-1.93-5.78-.59-.49.2-.92.47-1.32.76,1.35-.38,2.69-.34,2.69-.34,0,0,1.17,1.58,1.97,3.9.47,1.37.72,2.65.44,3.69-1.59-.17-2.54-2.11-2.54-2.11,0,0-.39,2.92-.39,3.58s-.04,4.04.9,5.77c-.09-.77.69-1.89.69-1.89,0,0,1.03.69,1.84,1.63.77-.35,1.46-1.74,1.76-2.7.49.29.64,1.19.77,1.54.92-.73.45-3.02.86-3.77.99-1.82,3.62-3.65,4.62-5.87,1-2.23,1.17-5.02-1.38-4.69Z"/>
          <path class="cls-9" d="m36.06,24.02s-1.34-.04-2.69.34c-2.3,1.69-3.28,4.72-3.71,6.51-.5,2.11-3.29,4.93-3.29,4.93,0,0,.85.44,1.92-.26-.23.81.22,1.8.65,2.1.19-.47.73-1.2,1.29-1.4.17,1.06.26,1.7-.04,2.24.4.08,1.37-.5,2.06-1.65.17.94.93,2.03,1.33,2.01.17-.56.4-1.42,1.03-1.89.33.81.92,1.77,1.84,1.89-.94-1.73-.9-5.12-.9-5.77s.39-3.58.39-3.58c0,0,.95,1.94,2.54,2.11.28-1.03.03-2.32-.44-3.69-.8-2.33-1.97-3.9-1.97-3.9Z"/>
        </g>
        <path class="cls-10" d="m27.12,78.82c-1.22.66-1.99.79-1.99.79,0,0,1.41.51,2.57-.32,1.16-.84,1.74-2.51,1.74-2.51,0,0-1.09,1.37-2.31,2.04Z"/>
        <path class="cls-10" d="m26.99,77.42s.62,1.21,2.44,0c1.05-.7,1.16-1.8,1.16-1.8,0,0-.84.76-1.93,1.25-1.09.49-1.67.55-1.67.55Z"/>
        <path class="cls-10" d="m39.49,73.63c-.38.15-.66.44-.66.44l2.04.06-.29-.45s-.67-.21-1.09-.05Z"/>
        <path class="cls-10" d="m45.12,64.21s-.45-.03-.83.12c-.39.15-.51.41-.51.41,0,0,.84-.15,1.2-.13.36.02.63.13.63.13,0,0,0-.27-.48-.53Z"/>
        <g>
          <path class="cls-2" d="m17.93,91.85s.66-.71,2.23-.63c.38.02.77.07,1.17.17-2.73-1.3-6.35-1.42-7.42-1.42-.09,0-.17,0-.26,0-.03,0-.06,0-.06,0,0,0,0,0,0,0-1.99.02-3.38-1.19-3.38-1.19,0,0,3.1.28,4.44.04,1.58-.29,4.12.47,4.12.47-1.59-1.65-5.08-1.33-6.78-1.93,0,0,0,0,0,0-.87-.22-1.71-.6-2.16-1.34-.45-.74-1.09-1.72-.5-2.94.41-.84,2.89-2.24,4.58-3.3,1.13-.71,1.91-1.49,2.42-2.12-.07-.64-.53-1.14-1.15-1.38-.6-.23-1.19.68-2.83,1.46-1.94.91-4.98,1.63-7.47,2.87-4.6,2.3-5.67,7.48-4.36,10.57.65,1.52,2.62,2.49,2.62,2.49,0,0-.7-2.1.59-3.4.39,2.25,1.53,3.47,2.63,4.5,1.06,1,2.44,1.24,4.12.9-2.31-.84-2.76-2.44-2.76-2.44,0,0-.26-.52-.29-1.35-.03-.83.03-1.4.03-1.4,0,0,.29,1.61,2.76,2.54,2.48.93,6.27.61,8.13,0,1.86-.61,3.15-.26,3.15-.26,0,0-1.03-.61-2.12-.72-.78-.08-1.45-.16-1.45-.16Z"/>
          <path class="cls-10" d="m13.91,79.77c-1.69,1.06-4.17,2.46-4.58,3.3-.6,1.22.05,2.2.5,2.94.45.74,1.29,1.12,2.16,1.34,0,0,0,0,0,0-.16-.06-.3-.12-.42-.19-1.12-.67-2.84-3.93,1.47-6,2.59-1.24,3.39-2.54,3.29-3.5-.52.63-1.3,1.41-2.42,2.12Z"/>
          <path class="cls-10" d="m14.65,88.81c-1.34.25-4.44-.04-4.44-.04,0,0,1.38,1.22,3.38,1.19.01,0,2.42-.94,5.18-.69,0,0-2.54-.76-4.12-.47Z"/>
          <path class="cls-10" d="m21.32,91.38c-.4-.09-.79-.15-1.17-.17-1.57-.08-2.23.63-2.23.63,0,0,.67.08,1.45.16,1.09.11,2.12.72,2.12.72,0,0-1.29-.35-3.15.26-1.86.61-5.66.93-8.13,0-2.48-.93-2.76-2.54-2.76-2.54,0,0-.06.58-.03,1.4.03.83.29,1.35.29,1.35l.35.23c.86.53,3.3,1.81,6.68,1.72,3.71-.1,5.77-1.81,9.24-1.49-.58-1-1.54-1.73-2.66-2.27Z"/>
        </g>
        <g>
          <path class="cls-1" d="m22.9,62.51s.27.91.54,1.46.48,1.37.48,1.37c0,0,.64-1.03.26-1.71-.39-.69-1.28-1.11-1.28-1.11Z"/>
          <path class="cls-1" d="m30.8,44.98s.29.86.59,1.24c.3.39.73.82.73.82,0,0,.13-.64-.39-1.2s-.93-.86-.93-.86Z"/>
          <path class="cls-1" d="m18.48,67.25s-.92,0-1.7.89c-.86.99-1.38,2.71-1.38,2.71,0,0,.95-.37,1.27-1.11-.35,1.43.86,2.67.86,2.67,0,0-.49-.66-.06-2.23.34-1.26,1.01-2.93,1.01-2.93Z"/>
          <path class="cls-1" d="m19.21,70.18s-.47.94-.3,1.67c.17.73.3,2,.3,2,0,0,.94-.84.73-1.78-.21-.94-.73-1.89-.73-1.89Z"/>
          <path class="cls-1" d="m24.5,52.98c0,.75-.17,2.01-.17,2.01,0,0,1.11-.6,1.12-1.57,0-.97-.28-2-.28-2,0,0-.68.81-.68,1.56Z"/>
          <path class="cls-1" d="m17.45,73.85c-.21.79-.09,1.76-.09,1.76,0,0,.81-.87.94-1.8.13-.93-.26-1.8-.26-1.8,0,0-.39,1.04-.6,1.83Z"/>
          <path class="cls-1" d="m30.03,39.5s-.08,1.11-.07,1.93c.01.82.41,1.72.41,1.72,0,0,.54-1.06.41-1.99-.14-.93-.75-1.66-.75-1.66Z"/>
          <path class="cls-1" d="m15.87,65.9c-.35.6-.47,1.35-.47,1.35,0,0,.86-.2,1.37-.97.51-.77.56-2.08.56-2.08,0,0-1.11,1.09-1.46,1.69Z"/>
          <path class="cls-1" d="m28.92,42.29c-.35.6-.47,1.35-.47,1.35,0,0,.86-.2,1.37-.97.51-.77.56-2.08.56-2.08,0,0-1.11,1.09-1.46,1.69Z"/>
          <path class="cls-1" d="m20.04,56.84c-.35.6-.47,1.35-.47,1.35,0,0,.86-.2,1.37-.97.51-.77.56-2.08.56-2.08,0,0-1.11,1.09-1.46,1.69Z"/>
          <path class="cls-1" d="m21.27,66.41s-.26,1.03,0,1.8.23,1.62.23,1.62c0,0,.46-.29.55-.76.09-.47,0-.95,0-.95,0,0,.77.82,1.11.95.34.13,1.11.03,1.11.03,0,0-.73-1.18-1.29-1.85-.56-.67-1.71-.84-1.71-.84Z"/>
          <path class="cls-1" d="m25.07,53.25s-.26,1.03,0,1.8c.26.77.23,1.62.23,1.62,0,0,.46-.29.55-.76.09-.47,0-.95,0-.95,0,0,.77.82,1.11.95.34.13,1.11.03,1.11.03,0,0-.73-1.18-1.29-1.85-.56-.67-1.71-.84-1.71-.84Z"/>
          <path class="cls-1" d="m20.54,65.94c-.39.73-.39,1.5-.39,1.5,0,0,1.2-.39,1.63-1.03.43-.64-.29-2.49-.29-2.49,0,0-.57,1.29-.95,2.01Z"/>
          <path class="cls-1" d="m26.8,41.12c-.39.73-.39,1.5-.39,1.5,0,0,1.2-.39,1.63-1.03.43-.64-.29-2.49-.29-2.49,0,0-.57,1.29-.95,2.01Z"/>
          <path class="cls-1" d="m18.19,65.68s-.34,1.58,0,2.44c.34.86.39,1.25.39,1.25,0,0,.51-.81.29-1.54s-.69-2.14-.69-2.14Z"/>
          <path class="cls-1" d="m14.45,74.13c.09.85.1,1.49.1,1.49,0,0,.76-.94.68-1.6-.09-.66-.56-1.6-.56-1.6-.13.26-.3.86-.21,1.72Z"/>
          <path class="cls-1" d="m20.53,59.6s-1.14.94-1.31,1.67-.3,1.8-.3,1.8c0,0,.62-.39.81-.73s.31-.81.31-.81c0,0,.21.81.17,1.54s-.3,1.16-.3,1.16c0,0,.84-.34,1.08-1.46s-.61-2.6-.46-3.17Z"/>
          <path class="cls-1" d="m22.26,57.84v1.54s.77-.64.69-1.54c-.09-.9-.69-1.59-.69-1.59v1.59Z"/>
          <path class="cls-1" d="m23.6,56.25s.29.94.67,1.56c.39.62.86,1.56.86,1.56,0,0,.43-1.44-.17-2.01-.6-.56-1.36-1.12-1.36-1.12Z"/>
          <path class="cls-1" d="m25.98,59.38c0,.69.09,1.48.09,1.48,0,0,.42-.92.45-1.48.03-.56,0-1.56,0-1.56,0,0-.53.88-.53,1.56Z"/>
          <path class="cls-1" d="m22.71,51.24c-.33.64-.46,1.97-.46,1.97,0,0,.8-.75,1.11-1.36.31-.61.65-1.98.65-1.98,0,0-.97.73-1.3,1.37Z"/>
          <path class="cls-1" d="m23.79,50.05c-.07.85,0,2.1,0,2.1,0,0,.6-.72.65-1.48.05-.76-.42-2.13-.42-2.13,0,0-.16.66-.23,1.51Z"/>
          <path class="cls-1" d="m26.99,49.44s.28,1.51.49,2.41c.21.89.21,1.36.21,1.36,0,0,.37-.96.37-1.79,0-1.08-1.08-1.98-1.08-1.98Z"/>
          <path class="cls-1" d="m26.26,49.86c-.27.81-.44,1.98-.44,1.98,0,0,1-.8,1.29-1.8s.16-2.01.16-2.01c0,0-.74,1.02-1.01,1.83Z"/>
          <path class="cls-1" d="m29.41,47.81s.17.94.56,1.63c.39.69.47,1.23.47,1.23,0,0,.39-1.18.09-1.75-.3-.56-1.11-1.12-1.11-1.12Z"/>
          <path class="cls-1" d="m28.6,48.54c-.13.47.09,1.4.09,1.4,0,0,.59-.89.85-1.62.26-.73.09-1.72.09-1.72,0,0-.9,1.46-1.03,1.93Z"/>
          <path class="cls-1" d="m25.28,45.92c-.24.51-.84,1.11-.84,1.11,0,0,1.07.09,1.54-.69.47-.77.57-1.71.57-1.71,0,0-1.04.76-1.28,1.28Z"/>
          <path class="cls-1" d="m27.53,44.38s.27.91.54,1.46.48,1.37.48,1.37c0,0,.64-1.03.26-1.71-.39-.69-1.28-1.11-1.28-1.11Z"/>
        </g>
        <path class="cls-9" d="m14.13,76.48c-1.04.87-3.46,2.02-5.39,2.58-3.03.89-5.03,2.23-5.95,2.97s-1.48,1.48-1.8,3.32c-.32,1.84.34,3.15.34,3.15,0,0-.06-.75.34-1.69.27-.64,1.24-1.61,1.24-1.61,0,0-.36.94-.09,1.74.22.62.94,1.41,1.7,2.41s1.3,2.5,1.3,2.5c0,0,.19-1.18.19-2.14s-.45-2.25-1.09-3.21-.32-2.31-.32-2.31c0,0,.23.95.42,1.19.5.64,1.58.55,1.58.55,0,0-1.36-.91-1.04-2s1.35-2.44,2.44-2.96c1.09-.51,3.73-1.53,5.13-2.3,1.34-.73,2.1-1.37,2.72-1.95-.43-.62-1.08-.78-1.74-.23Z"/>
        <path class="cls-9" d="m37.12,23.17c-1.96-.38-3.44.95-3.44.95l1.54,3.21s1.58,1.35,2.08,1.35.75-.3,1.97-1.41c1.22-1.11.74-3.26.74-3.26,0,0-.93-.47-2.89-.85Z"/>
        <path class="cls-10" d="m33.61,18.76c.13-1.73-.63-2.09-1.1-1.53-.66.79-1.3,2.93-1.33,4.28-.03,1.38-.25,3.84.54,4.52.66-.91,2.54-1.88,2.54-1.88,0,0,.16-.66-.24-2.15-.29-1.06-.47-2.56-.42-3.24Z"/>
        <path class="cls-10" d="m40.32,20.53c-.97-.26-.83.77-1.73,2.52-.9,1.75-1.28,3.11-1.28,3.11.73,1.76,1.28,4.29,1.28,4.29,0,0,1.33.11,2.08-1.16,1.02-1.74.32-2.14.5-3.82.18-1.67.13-4.68-.84-4.94Z"/>
        <path class="cls-5" d="m47.6,23.07c-1.36-.45-2,.03-2,.03,0,0,.71.89,1.38,1.31s.63,1.28.63,1.28c0,0,1.35-2.17-.01-2.62Z"/>
        <path class="cls-10" d="m41.4,25.18c-.61-.28-.55.13-.55.13,0,0,.96,1.05.93,1.5.32-.24.87-1.05-.39-1.63Z"/>
        <path class="cls-10" d="m40.85,36.05s0,0,0,0c0-.01,0-.02,0,0Z"/>
        <path class="cls-10" d="m41.24,34.03s-.89.72-1.05,1.82c-.13.86-1.22,2.75-1.22,2.75,0,0,.78-.35,1.26-1.17.42-.7.6-1.28.61-1.37,0,0,0,0,0,0,0-.01,0,0,0,0,.01.01.36.45.39.86.03.42,0,.9,0,.9,0,0,.57-.43.67-1,0-.68-.02-.97-.14-1.37-.19-.6-.36-1.05-.53-1.43Z"/>
        <path class="cls-10" d="m39.16,34.38s-.42.69-.37,1.14c.05.45.11,1.35.11,1.4s.56-.58.47-1.08c-.1-.5-.21-1.46-.21-1.46Z"/>
        <path class="cls-10" d="m37.68,36.24s.47-.68.8-1.4c.34-.72.49-1.85.49-1.85,0,0-.79,1.01-1.08,1.59-.29.58-.21,1.66-.21,1.66Z"/>
        <g>
          <path class="cls-5" d="m19.77,76.23c-.13.64.2,1.42.2,1.42,0,0,.46-.94.56-1.38s0-1.38,0-1.38c0,0-.63.7-.76,1.34Z"/>
          <path class="cls-5" d="m22.26,71s-.58,1.58-.34,1.9c.25.32.34,1.23.34,1.23,0,0,.48-.73.35-1.29-.13-.56-.35-1.84-.35-1.84Z"/>
          <path class="cls-5" d="m32.5,33.6s-.11.82.19,1.27c.3.46,1.28,1.03,1.28,1.03,0,0-.4-.91-.72-1.38-.32-.47-.75-.92-.75-.92Z"/>
          <path class="cls-5" d="m31.51,33.88c-.2.58-.52,1-.52,1,0,0,1.9-.1,1.7-.69-.19-.59,0-2.04,0-2.04,0,0-.99,1.15-1.18,1.73Z"/>
          <path class="cls-5" d="m32.99,38.85s.28.78.6,1.75c.32.97.55,1.52.55,1.52,0,0,.88-.8.25-1.75-.63-.96-1.4-1.51-1.4-1.51Z"/>
          <path class="cls-5" d="m29.12,52.15s.32,1.01.56,1.81l.25.8s.29-.95.1-1.55c-.19-.59-.91-1.05-.91-1.05Z"/>
          <path class="cls-5" d="m30.8,50.67c-.06.14-.21.95-.16,1.64.06.69.16,1.29.16,1.29,0,0,.59-.52.37-1.29-.21-.77-.37-1.64-.37-1.64Z"/>
          <path class="cls-5" d="m28.56,58.01c-.52-.17-1.26-.19-1.26-.19,0,0,.14.36.94.81s1.18.49,1.18.49c0,0-.34-.94-.86-1.11Z"/>
          <path class="cls-5" d="m32.05,43.92c-.52-.17-1.26-.19-1.26-.19,0,0,.14.36.94.81.79.45,1.18.49,1.18.49,0,0-.34-.94-.86-1.11Z"/>
          <path class="cls-5" d="m27.3,59.38c.01.21.07.51.23,1.16.17.64.3,1.38.3,1.38,0,0,.67-.65.36-1.38-.31-.73-.88-1.16-.88-1.16Z"/>
          <path class="cls-5" d="m31.99,48.17c.01.21.07.51.23,1.16.17.64.3,1.38.3,1.38,0,0,.67-.65.36-1.38s-.88-1.16-.88-1.16Z"/>
          <path class="cls-5" d="m25.5,63.21s-.5.98-.37,1.75c.13.77.37,1.46.37,1.46,0,0,.74-.77.49-1.33-.26-.56-.49-1.88-.49-1.88Z"/>
          <path class="cls-5" d="m24.96,61.92s.09,1.58.68,2.01c.6.43.91.81.91.81,0,0-.08-.68-.52-1.41-.44-.73-1.08-1.41-1.08-1.41Z"/>
          <path class="cls-5" d="m23.41,72.02c-.13.61,0,1.3,0,1.3,0,0,1.48-1.11.6-3.13-.07.33-.52,1.43-.6,1.83Z"/>
          <path class="cls-5" d="m21.49,72.07s-.21.82.43,1.72c.64.9.79,1.28.79,1.28,0,0,.41-.72-.11-1.56s-1.11-1.44-1.11-1.44Z"/>
        </g>
      </g>
      <path class="cls-12" d="m34.31,23.69c-.52,1.83-.18,2.97.94,2.61,1.11-.36,2.29-.53,2.59-1.22.3-.68.75-1.7.95-2.45-1.12-1.81-3.96-.77-4.48,1.06Z"/>
    </g>
  </g>
</svg>