<?xml version="1.0" encoding="UTF-8"?>
<svg id="Layer_2" data-name="Layer 2" xmlns="http://www.w3.org/2000/svg" viewBox="0 0 55.35 80.61">
  <defs>
    <style>
      .cls-1 {
        fill: #d57857;
      }

      .cls-2 {
        fill: #ffa08d;
      }

      .cls-3 {
        fill: #ffc5b3;
      }

      .cls-4 {
        fill: #512e30;
      }

      .cls-5 {
        fill: #d32424;
      }

      .cls-6 {
        fill: #33211f;
      }

      .cls-7 {
        fill: #f23b3b;
      }

      .cls-8 {
        fill: #6e4243;
      }

      .cls-9 {
        fill: #c16246;
      }

      .cls-10 {
        fill: #ff5252;
      }

      .cls-11 {
        fill: #492e2e;
      }
    </style>
  </defs>
  <g id="Layer_1-2" data-name="Layer 1">
    <g>
      <g>
        <path class="cls-3" d="m15.14,27.27s-1.76,6.54-2.15,8.34c-.11.49-.68,2.85-.85,5.11-.11,1.56-1.06,2.96-1.63,4-.97,1.77-.43,4.2.37,5.18,1.08,1.32,2.28,1.31,3.13.16.85-1.15,1.39-3.98,1.13-5.01-.26-1.03-.67-1.9-.67-2.49s2.52-4.73,3.17-6.17c.64-1.45,2.17-3.48,2.73-6.24.45-2.19-5.23-2.88-5.23-2.88Z"/>
        <polygon class="cls-5" points="14.95 27.99 20.37 30.15 20.85 28.99 15.14 26.84 14.95 27.99"/>
        <path class="cls-7" d="m17.2,19.62c-.92,1.38-1.76,4.76-2.06,7.22l5.39,2.14s2.78-1.86,3.7-2.38c.92-.52-1.09-10.3-1.09-10.3,0,0-3.47-.41-5.94,3.31Z"/>
        <path class="cls-2" d="m27.25,14.55c-1.47.07-4.6,4.08-4.6,4.08,0,0-1.22,4.48-1,5.98.21,1.5,3.11,4.28,3.11,4.28,0,0,3.21,1.29,5.65-.86,2.43-2.14,1.63-9.4,1.63-9.4,0,0-2.59-1.19-4.79-4.08Z"/>
        <g>
          <path class="cls-3" d="m53.28,53.58c-.61-.12-1.69-.17-2.45.78-.37.47-.99.82-1.86,1.27-1.21.63-5.8,2.93-9.94,5.01-4.58,2.31-7.67,3.86-7.67,3.86,0,0,3.24,9.26,4.28,9.47,1.04.21,2.9-2.13,5.98-5.25,2.42-2.45,7.24-6.34,9.36-8.41-.03.67-.25,1.83-.39,2.23-.38,1.12-.65,3.09,1.96,2.27,1.54-.48,2.4-1.61,2.15-2.81-.25-1.2.17-3.63.25-5.17.08-1.54-.76-3.07-1.69-3.25Z"/>
          <path class="cls-6" d="m55.04,55.62c0-2-1.21-2.43-2.06-2.43-1.48,0-2.16,1.18-2.16,1.18.12-.1,2.38-.19,2.92.81.63,1.19-.13,2.92.08,4.36.11.74-.17,2.66-.8,3.34-.63.67-1.33.78-1.9.76-.72-.02-.53-1.09-.53-1.09,0,0-1.03,1.35-1.49,2.27-.46.92.3,1.52,1.81,1.7,1.55.19,2.64-.57,3.31-1.34.73-.85,1.2-1.73,1.12-3.55-.08-1.82-.31-4.28-.3-6Z"/>
        </g>
        <path class="cls-6" d="m39.75,39.73l-13.52,4.49s-3.65,6.03-7.05,11.92c-3.4,5.89-3.15,10.49-1.87,12.02,1.28,1.53,10.04,5.6,11.42,6.24,4.96,2.3,7.42.44,10.25-4.22,1.33-2.19,6.41-13.29,5.45-21.19-1.02-8.43-4.69-9.25-4.69-9.25Z"/>
        <path class="cls-10" d="m36.95,29.2c-.73-2.12,2.24-6.5-2.23-9.17-1.56-.93-2.38-1.39-3.12-1.74-1.29,1.38-1.78,3.47-3.88,5.42-3.33,3.1-6.1.43-5.75-.85l1.76-6.4s-3.4,6.15-4.01,8.69c-.4,1.7-.26,4.21,2.93,7.61,1.38,1.47,2.53,4.75,3.65,7.18.59,1.29-.32,4.09-.9,5.55,3.35,1.95,14.86,1.01,16.22-4.39-.88-2-2.23-3.28-2.84-4.18-.99-1.46-1.42-6.51-1.83-7.72Z"/>
        <g>
          <path class="cls-3" d="m19.85,8.99c-2.08,2.89.18,11.53,3.85,11.59,2.38.04,5.35-2.5,5.94-6.74.5-3.55-5.87-10.32-9.79-4.85Z"/>
          <path class="cls-6" d="m35.23,4.94c-.5-2.14-2.84-1.66-2.84-1.66,0,0,1-2.05-.4-2.74-.82-.41-1.95.28-1.95.28,0,0-1.22-1.07-2.27-.76-1.05.3-1.44,2.56-1.44,2.56,0,0-1.16-.65-2.57.37-1.4,1.02-.93,3.98-.93,3.98,0,0,7.19,4.23,7.31,4.53.12.3,2.46-.67,2.99-2.31.95.47.6,1.95.6,1.95,0,0,.93-.6,1.12-1.37.2-.76-.74-1.94-.74-1.94,0,0,1.55.11,2.04-.66-.67-.42-.6-.82-.93-2.22Z"/>
          <path class="cls-11" d="m29.81,7.88c-.34-1.56-1.42-1.72-2.39-1.58-.71-1.1-1.91-.89-3.03-.76-1.17.13-3.18.97-4.55,1.86-1.87,1.21-.8,3.85-.8,3.85,0,0,3.42,1.1,6.99.02.6.44.87,1.2,1.27,1.94,1.81-1.56,2.35.62,1.41,1.99-.24.6.32,1.38.32,1.38,0,0,2.77-2.95,1.76-6.48-.06-.76-.2-1.73-.97-2.21Z"/>
        </g>
        <path class="cls-6" d="m42.22,60.92c-.73-.43-10.17,13.3-10.17,13.3,0,0-.24,1.18.82,1.16,1.06-.02,4.3-1.08,5.64-2.47,1.35-1.39,3.88-4.2,4.65-4.77.78-.57,2.11-1.61,2.11-1.61,0,0,.18-1.4-.45-2.79-.63-1.39-1.66-2.28-2.6-2.83Z"/>
        <g>
          <path class="cls-3" d="m41.23,32.22c-.73-2.49-5.19,2.84-5.19,2.84l1.03,1.69s-8.53,4.99-10.18,5.35c-1.65.36-3.53.52-4.59,1.01-1.06.49-1.2.82-.68.98s1.33.16,1.74,0c.41-.16.82.24.16.57-.65.33-2.09,1.69-2.91,2.43-.82.73-.67,2.08.5,2.08,1.07,0,3.82-.59,4.8-2.14.98-1.55,1.38-2.12,2.14-2.45.76-.33,4.46-.88,7.3-1.85,2.81-.96,5.88-2.79,6.53-3.64.26-.33.39-1.09.31-2.03-.13-1.46-.3-2.55-.97-4.84Z"/>
          <path class="cls-7" d="m34.73,20.03c-2.08-.18-3.66,3.68-3.45,7.6.17,3.24,4.4,6.89,4.4,6.89l5.39-3.75s-.64-4.69-2.08-7.53c-1.44-2.84-4.26-3.21-4.26-3.21Z"/>
          <polygon class="cls-5" points="35.1 33.95 36.04 35.07 41.23 32.22 41.06 30.76 35.1 33.95"/>
        </g>
      </g>
      <g>
        <g>
          <path class="cls-4" d="m5.23,65.31c.19,1.2.13,2.1-.05,2.82.24,0,.52,0,.76.02.57.04,1.02-.29,1.02-.29,0,0-.02.55-.16.78-.22.34-.63.41-.63.41,0,0,.65.04.98.37.27.27.31.68.41,1.26.11-.13.22-.25.31-.36.71-.87,3.24-3.29,3.18-5.73-.06-2.44-2.36-4.86-2.36-4.86,0,0-4.07,1.68-3.45,5.61Z"/>
          <path class="cls-9" d="m6.23,74.34c-.33-1.73.6-2.85,1.32-3.68-.1-.58-.13-.98-.41-1.26-.33-.33-.98-.37-.98-.37,0,0,.41-.06.63-.41.14-.22.16-.78.16-.78,0,0-.45.33-1.02.29-.24-.02-.52-.02-.76-.02-.4,1.64-1.41,2.34-1.43,3.47-.03,1.63,1.14,5.44,1.14,5.44,0,0,.91,1.11,2.92.69,2.01-.42.49-1.99.49-1.99,0,0-1.69.6-2.07-1.4Z"/>
        </g>
        <path class="cls-9" d="m18.09,58.26c-.73-1.33-1.66-4.36-1.47-5.54.19-1.18.65-2.17-.64-3.94-.97-1.33-2.99,0-2.99,0l.92,5.14s2.32,4.81,2.89,5.85c.57,1.04,1.01,1.85,2.27,1.67.86-.12,1.92-.97,1.42-2.12s-1.66.26-2.4-1.07Z"/>
        <path class="cls-8" d="m18.28,46.69c-1.51-1.35-3.75-3.56-3.75-3.56,0,0-.39,1.7-1.37,3.8-.98,2.1-1.76,3.47-2.55,5.43-.78,1.96-1.16,3.28-2.98,5.49-1.75,2.12-3.28,3.69-2.61,6.83.4,1.9,3.3,3.39,4.74,3.46,1.44.08,4.66-1,5.11-2.32.44-1.32.52-3.47.92-3.92,1.51-1.76,1.55-2.52,3.16-5.35.71-1.25,1.88-3.65,1.52-5.3-.32-1.44-1.94-2.81-2.18-4.56Z"/>
        <path class="cls-8" d="m14.38,37.47c-1.4.91-2.17,3.11-1.4,4.79.77,1.68.13,4.8.13,4.8l5.48,1.69s-.47-2.26-.31-3.26c.17-1,1.63-1.55,2.41-3.22.44-.94.9-2.74-.31-4.57-1.21-1.83-3.93-1.57-6-.22Z"/>
        <path class="cls-8" d="m20.96,36.06c-.47.42-2.68,2.25-2.68,2.25l2.41,3.47s1.49-2.96,1.6-4.31c.13-1.56-.75-1.92-1.33-1.41Z"/>
        <path class="cls-4" d="m14.49,33.44c.08-1.03-.49-1.63-.85-1.19-.51.61-.85,2.29-1.03,3.33-.24,1.34-.04,2.67.42,3.52.51-.71,2.11-1.98,2.11-1.98,0,0,.06-.95-.22-1.54-.46-.98-.47-1.61-.43-2.14Z"/>
        <path class="cls-4" d="m19.7,34.82c-.75-.2-.64.6-1.35,1.96-.7,1.36-.99,2.42-.99,2.42,1.08,1.33,1.4,2.92,1.4,2.92,0,0,.9-.25,1.23-1.35.24-.79-.12-1.21.31-2.31.51-1.33.17-3.43-.59-3.63Z"/>
        <g>
          <path class="cls-8" d="m20.83,54.43c.19-1.18.65-2.17-.64-3.95-.96-1.33-2.99,0-2.99,0l.92,5.14s.7,1.45,1.42,2.93c.28-.61.56-1.27.75-1.6.32.5.44,1.16.44,1.16l.39-1.39c-.23-.92-.36-1.78-.28-2.29Z"/>
          <path class="cls-1" d="m22.3,59.97c-.42-.75-.89-2.05-1.19-3.24l-.39,1.39s-.11-.66-.44-1.16c-.19.33-.47.99-.75,1.6.6,1.22,1.21,2.46,1.47,2.93.57,1.04,1.01,1.85,2.27,1.67.86-.12,1.92-.97,1.42-2.12-.5-1.15-1.66.26-2.4-1.07Z"/>
        </g>
        <g>
          <path class="cls-8" d="m7.94,65.73c.64,1.04,1.1,2.12,1.48,3.03.41.97.57,1.76.61,2.44,0,0,0,0,0,0,0,0,.76-.61,1.45-.89.69-.29.95-.9.95-.9,0,0,0,.44-.18.99-.13.39-.41.8-.41.8,0,0,.64-.35,1.13-.57.62-.27,1.27-.23,1.69-.15.55-1.01,1.03-2.17,1.04-3.34.01-2.64-.66-8.57-.66-8.57,0,0-8.09,5.58-7.11,7.17Z"/>
          <path class="cls-1" d="m14.89,78.16s-1.5.98-2.34-.87c-.84-1.85.13-3.3.62-4.31.25-.52.92-1.42,1.51-2.5-.42-.08-1.06-.12-1.69.15-.49.22-1.13.57-1.13.57,0,0,.28-.41.41-.8.18-.55.18-.99.18-.99,0,0-.26.61-.95.9-.69.29-1.45.89-1.45.89,0,0,0,0,0,0,.11,1.89-.81,2.85-.55,4.02.36,1.59,2.41,5.01,2.41,5.01,0,0,1.15.87,3-.02,1.85-.89,0-2.05,0-2.05Z"/>
        </g>
        <path class="cls-4" d="m5.29,61.15s-2,3.28-2.33,4.22c-.33.93-1.39,2.08-2.37,2.77-.98.69-.57,1.51,0,1.26.57-.24,2.64-1.61,3.16-2.77s2.31-3.45,2.31-3.45c0,0,1.06-1.05-.77-2.03Z"/>
        <path class="cls-4" d="m16.91,58.38c-.57.78-1.92,2.55-2.32,3.09-.41.55-.86,1.48-.37,2.26.49.78,1.47,2.28,1.47,2.28,0,0,.21-1.95.02-2.83-.19-.88.83-1.72,1.68-3.23s1.35-3.03,1.35-3.03c0,0-.3-.98-.69-1.66-.27,1.09-.58,2.33-1.14,3.11Z"/>
      </g>
      <path class="cls-3" d="m13.35,44.31s-2.8,2.67-3.07,4.44c0,0,.49,1.65,1.33,1.97,1.38.53,2.39-1.17,1.92-2.53-.45-1.31-.33-1.92-.18-3.88Z"/>
    </g>
  </g>
</svg>