<?xml version="1.0" encoding="UTF-8"?>
<svg id="Layer_2" data-name="Layer 2" xmlns="http://www.w3.org/2000/svg" viewBox="0 0 51.6 56.9">
  <defs>
    <style>
      .cls-1 {
        fill: #fff;
      }

      .cls-2 {
        fill: #505b9b;
      }

      .cls-3 {
        fill: #6382c6;
      }

      .cls-4 {
        fill: #b23257;
      }

      .cls-5 {
        fill: #464d8e;
      }

      .cls-6 {
        fill: #c63c5d;
      }

      .cls-7 {
        fill: #f16479;
      }
    </style>
  </defs>
  <g id="Layer_1-2" data-name="Layer 1">
    <g>
      <g>
        <path class="cls-6" d="m21.76,31.44L3.07,20.65c-4.54-2.62-3.97-7.25,1.28-10.28l.81-.47c5.25-3.03,13.26-3.36,17.8-.74l18.69,10.79c4.54,2.62,3.97,7.25-1.28,10.28l-.81.47c-5.25,3.03-13.26,3.36-17.8.74Z"/>
        <path class="cls-6" d="m42.61,14.86c.04.33,2.06,8.98,2.06,8.98l-5.89,3.93-3.89-8.94,7.72-3.97Z"/>
        <polygon class="cls-6" points="2.39 7.4 .13 15.21 3.49 16.02 7.27 9.19 2.39 7.4"/>
        <path class="cls-7" d="m21.98,21.65L5.15,11.93C1.06,9.57,1.57,5.41,6.3,2.68l.73-.42C11.75-.47,18.97-.77,23.06,1.59l16.83,9.72c4.09,2.36,3.57,6.53-1.15,9.25l-.73.42c-4.72,2.73-11.94,3.03-16.03.66Z"/>
        <g>
          <path class="cls-4" d="m37.82,19.54c1.54-.94,2.49-2.2,2.49-3.58,0-2.92-4.2-5.28-9.39-5.28s-9.39,2.37-9.39,5.28c0,1.38.95,2.64,2.49,3.58,1.72-1.05,4.17-1.71,6.9-1.71s5.18.66,6.9,1.71Z"/>
          <path class="cls-6" d="m37.82,19.54c-1.72-1.05-4.17-1.71-6.9-1.71s-5.18.66-6.9,1.71c1.72,1.05,4.17,1.71,6.9,1.71s5.18-.66,6.9-1.71Z"/>
        </g>
        <g>
          <path class="cls-4" d="m22.37,10.72c1.54-.94,2.49-2.2,2.49-3.58,0-2.92-4.2-5.28-9.39-5.28S6.09,4.23,6.09,7.15c0,1.38.95,2.63,2.49,3.58,1.72-1.05,4.17-1.71,6.9-1.71s5.18.66,6.9,1.71Z"/>
          <path class="cls-6" d="m22.37,10.72c-1.72-1.05-4.17-1.71-6.9-1.71s-5.18.66-6.9,1.71c1.72,1.05,4.17,1.71,6.9,1.71s5.18-.66,6.9-1.71Z"/>
        </g>
        <polygon class="cls-1" points="17.08 26.39 6.8 20.45 7.27 18.61 17.55 24.55 17.08 26.39"/>
      </g>
      <g>
        <path class="cls-5" d="m28.64,55.13l-18.69-10.79c-4.54-2.62-3.97-7.25,1.28-10.28l.81-.47c5.25-3.03,13.26-3.36,17.8-.74l18.69,10.79c4.54,2.62,3.97,7.25-1.28,10.28l-.81.47c-5.25,3.03-13.26,3.36-17.8.74Z"/>
        <path class="cls-5" d="m49.49,38.55c.04.33,2.06,8.98,2.06,8.98l-5.89,3.93-3.89-8.94,7.72-3.97Z"/>
        <polygon class="cls-5" points="9.27 31.09 7.01 38.9 10.37 39.71 14.15 32.88 9.27 31.09"/>
        <path class="cls-3" d="m28.86,45.34l-16.83-9.72c-4.09-2.36-3.57-6.53,1.15-9.25l.73-.42c4.72-2.73,11.94-3.03,16.03-.66l16.83,9.72c4.09,2.36,3.57,6.53-1.15,9.25l-.73.42c-4.72,2.73-11.94,3.03-16.03.66Z"/>
        <g>
          <path class="cls-5" d="m44.7,43.23c1.54-.94,2.49-2.2,2.49-3.58,0-2.92-4.2-5.28-9.39-5.28s-9.39,2.37-9.39,5.28c0,1.38.95,2.63,2.49,3.58,1.72-1.05,4.17-1.71,6.9-1.71s5.18.66,6.9,1.71Z"/>
          <path class="cls-2" d="m44.7,43.23c-1.72-1.05-4.17-1.71-6.9-1.71s-5.18.66-6.9,1.71c1.72,1.05,4.17,1.71,6.9,1.71s5.18-.66,6.9-1.71Z"/>
        </g>
        <g>
          <path class="cls-5" d="m29.26,34.41c1.54-.94,2.49-2.2,2.49-3.58,0-2.92-4.2-5.28-9.39-5.28s-9.39,2.37-9.39,5.28c0,1.38.95,2.63,2.49,3.58,1.72-1.05,4.17-1.71,6.9-1.71s5.18.66,6.9,1.71Z"/>
          <path class="cls-2" d="m29.26,34.41c-1.72-1.05-4.17-1.71-6.9-1.71s-5.18.66-6.9,1.71c1.72,1.05,4.17,1.71,6.9,1.71s5.18-.66,6.9-1.71Z"/>
        </g>
        <polygon class="cls-1" points="23.96 50.08 13.68 44.14 14.15 42.3 24.43 48.24 23.96 50.08"/>
      </g>
    </g>
  </g>
</svg>