<?xml version="1.0" encoding="UTF-8"?>
<svg id="Layer_2" data-name="Layer 2" xmlns="http://www.w3.org/2000/svg" viewBox="0 0 56.03 63.76">
  <defs>
    <style>
      .cls-1 {
        fill: #ea8b44;
      }

      .cls-2 {
        fill: #fff;
      }

      .cls-3 {
        fill: #7191d8;
      }

      .cls-4 {
        fill: #b7bdce;
      }

      .cls-5 {
        fill: #d3d6e2;
      }

      .cls-6 {
        fill: #85a8e5;
      }

      .cls-7 {
        fill: #464d8e;
      }

      .cls-8 {
        fill: #622c2a;
      }

      .cls-9 {
        fill: #fca051;
      }

      .cls-10 {
        fill: #a4abbc;
      }

      .cls-11 {
        fill: #c63c5d;
      }

      .cls-12 {
        fill: #f16479;
      }

      .cls-13 {
        fill: #5974bb;
      }
    </style>
  </defs>
  <g id="Layer_1-2" data-name="Layer 1">
    <g>
      <g>
        <g>
          <rect class="cls-4" x="0" y="10.58" width="26.05" height="24.98"/>
          <ellipse class="cls-4" cx="13.02" cy="35.57" rx="13.02" ry="7.33"/>
          <g>
            <path class="cls-13" d="m13.02,18.82C5.83,18.82,0,15.54,0,11.49v22.78C0,38.32,5.83,41.6,13.02,41.6s13.02-3.28,13.02-7.33V11.49c0,4.05-5.83,7.33-13.02,7.33Z"/>
            <path class="cls-7" d="m12.92,22.62c-7.14-.03-12.92-3.3-12.92-7.33v1.88c0,4.03,5.77,7.29,12.92,7.33v-1.88Z"/>
            <path class="cls-7" d="m12.92,26.59c-7.14-.03-12.92-3.3-12.92-7.33v1.88c0,4.03,5.77,7.29,12.92,7.33v-1.88Z"/>
            <path class="cls-4" d="m13.02,5.6C7.29,5.6,2.43,7.69.69,10.58h24.66c-1.74-2.9-6.6-4.98-12.33-4.98Z"/>
          </g>
          <ellipse class="cls-5" cx="13.02" cy="10.58" rx="13.02" ry="7.33"/>
          <g>
            <path class="cls-10" d="m13.02,5.48c5.85,0,10.67,2.49,11.29,5.69.04-.23.07-.46.07-.7,0-3.53-5.08-6.39-11.36-6.39S1.67,6.94,1.67,10.47c0,.24.03.47.07.7.62-3.2,5.43-5.69,11.29-5.69Z"/>
            <path class="cls-4" d="m13.02,16.86c5.85,0,10.67-2.49,11.29-5.69-.62-3.2-5.43-5.69-11.29-5.69S2.36,7.97,1.74,11.17c.62,3.2,5.43,5.69,11.29,5.69Z"/>
          </g>
          <path class="cls-10" d="m22.06,11.17c0,2.6-4.05,4.72-9.04,4.72S3.98,13.78,3.98,11.17s4.05-4.72,9.04-4.72,9.04,2.11,9.04,4.72Z"/>
          <path class="cls-4" d="m21.23,11.1c0,2.27-3.63,4.1-8.1,4.1s-8.1-1.84-8.1-4.1,3.63-4.1,8.1-4.1,8.1,1.84,8.1,4.1Z"/>
          <path class="cls-5" d="m12.77,9.55c-1.85-1.07-3.64-.83-4.39-.4-1.92,1.11-2.49,1.93-3.95,3.08-1.15.9-.24,1.69.2,1.98h0s.02.01.03.02c0,0,.02.01.02.02h0c.51.25,1.87.77,3.44.11,1.99-.84,3.42-1.17,5.34-2.28.75-.43,1.31-1.38-.69-2.53Zm-2.99,2.45l-1.25-.72c-.72-.41-.62-1.14.2-1.62.83-.48,2.09-.53,2.8-.12l1.25.72c.72.41.62,1.14-.2,1.62-.83.48-2.09.53-2.8.12Z"/>
          <path class="cls-10" d="m6.95,13.35c0,.37-.53.67-1.19.67s-1.19-.3-1.19-.67.53-.67,1.19-.67,1.19.3,1.19.67Z"/>
        </g>
        <path class="cls-6" d="m26.05,29.15c0,.22-.73,4.7-3.89,7.31-4.92,4.06-7.09,3.5-8.57,5.13-3.77,0-5.47-.55-5.47-.55,0,0,4.53-2.93,8-5.48,3.48-2.55,9.93-9.36,9.93-9.36v2.94Z"/>
        <path class="cls-3" d="m26.05,16.86s-2.2,8.51-9.81,13.04c-6.22,3.71-10.15,2.31-13.32,8.98,1.67,1.81,7.37,2.55,7.37,2.55,0,0,.87-.89,2.74-1.82,2.51-1.25,5.28-1.94,8.57-5.09,3.55-3.41,4.46-7.33,4.46-7.33v-10.32Z"/>
        <path class="cls-6" d="m26.05,15.89s-3.14,7.04-7.02,10.43c-3.88,3.39-9.98,5.32-12.63,6.92-2.65,1.6-4.17,5.13-4.17,5.13,0,0,.76.78,1.51,1.16s1.33.64,1.33.64c0,0,.1-2.76,4.28-5.56,4.18-2.8,6.63-2.52,11.2-6.96,4.81-4.69,5.53-9.26,5.53-9.26l-.02-2.49Z"/>
        <path class="cls-9" d="m23.13,22.6c-.07-.71-1.65-2.09-1.82-2.16-.79-.32-1.5.16-1.24,1.22.14.54.52,1.08.8,1.56.22.39.49.84.96.97.94.27,1.37-.85,1.3-1.59Z"/>
        <path class="cls-9" d="m20.18,23.75c-.05-.14-.19-.52-.85-.52-.79,0-1.38.79-.67,1.53.71.74,1.9-.09,1.53-1.01Z"/>
        <path class="cls-9" d="m21.9,25.44c-.63-.27-1.27.46-1.65.88-.62.67-1.59,2.12-1.09,2.95.72,1.18,2.58.51,3.25-.33.74-.93.75-2.94-.52-3.49Z"/>
        <path class="cls-9" d="m17.82,27.6c-.11-.49-.45-1.91-1.51-1.83-.39.03-.82.38-.89.72-.22,1.07,1.07,1.7,1.94,1.72.33,0,.53-.31.46-.61Z"/>
        <path class="cls-9" d="m17.61,30.42c-.32-.33-.67-.4-1-.33-.79.05-2.09.55-2.04,1.52.06,1.08,1.55,1.1,2.31.85.8-.26,1.41-1.33.73-2.04Z"/>
        <path class="cls-9" d="m22.08,31.29c-.64-.13-1.28.22-1.65.73-.34.46-.67,2.87-.25,3.35.85.97,2.6-.72,2.97-1.5.46-.96.05-2.35-1.08-2.58Z"/>
        <path class="cls-9" d="m14.85,34.44c-.49-.19-2.34-1.05-2.79-.96-.44.09-.74.37-.77.83-.04.9,1.23,1.86,1.99,2.12.81.28,2.09.02,2.25-.98.08-.49-.25-.85-.68-1.01Z"/>
        <path class="cls-9" d="m17.48,35.22c-.2-.12-.52-.1-.68.09-.32.38-1.14,1.76-1.23,2.09-.2.71.2,1.55,1.02,1.49.79-.06,1.43-.91,1.63-1.62.23-.78-.04-1.61-.74-2.04Z"/>
        <path class="cls-9" d="m9.68,36.37c-.54-.56-1.18-.82-1.85-1.22-.59-.35-1.85,0-.72,1.87.48.79,2.2,2.2,3.02.96.39-.59-.04-1.18-.45-1.61Z"/>
        <path class="cls-9" d="m9.95,32.06c-.33-.98-1.14-.65-1.72.15-.16.22-.19.95.14,1.01.74.15,1.93-.14,1.58-1.16Z"/>
        <path class="cls-9" d="m6.34,37.02c-.2-.59-.77-.87-1.3-.87-.79,0-1.25.34-1.3.61-.12.79.79,1.65,1.55,1.6.74-.05,1.27-.67,1.04-1.35Z"/>
        <path class="cls-1" d="m21.58,26.32c-1.17-.62-1.97,1.54-1.92,1.92.13,1.02,1.54.35,2-.38.47-.73.26-1.36-.08-1.54Z"/>
        <path class="cls-1" d="m20.85,20.92c-.34-.14.03.95.61,1.61.58.65,1.17.49,1.15,0-.02-.49-1.2-1.37-1.75-1.61Z"/>
        <path class="cls-1" d="m16.46,30.42c-.63-.13-1.48.33-1.38.91s1.34.09,1.83-.16c.49-.25.25-.61-.45-.75Z"/>
        <path class="cls-1" d="m11.9,33.89c-.33,0,.06,1.05,1.35,1.28s2.21.17,1.65-.27c-.56-.44-2.49-1.01-2.99-1.01Z"/>
        <path class="cls-1" d="m21.23,31.9c-.58.08-.7,1.18-.7,2.12s.91.61,1.4-.13c.49-.74.1-2.1-.7-1.99Z"/>
        <path class="cls-1" d="m7.39,35.45c-.51.08.03.96,1.08,1.57,1.05.62,1.59.63,1.25,0s-1.45-1.71-2.33-1.57Z"/>
      </g>
      <g>
        <rect class="cls-4" x="29.98" y="7.33" width="26.05" height="34.34"/>
        <ellipse class="cls-4" cx="43" cy="41.67" rx="13.02" ry="7.33"/>
        <g>
          <path class="cls-12" d="m46.31,36.41c-.54-2.09-1.98-1.51-4.83-.69s-5.6-1.18-5.73-1.95c-.13-.77,3.91-2.47,5.17-3.92,1.26-1.45,4.33-5.23,7.19-4.9,3.62.41,6.55,4.79,7.92,7.21V9.23c0,4.05-5.83,7.33-13.02,7.33s-13.02-3.28-13.02-7.33v30.29c0,4.05,5.83,7.33,13.02,7.33,1.19,0,2.33-.1,3.43-.26.12-3.4.24-8.78-.12-10.18Z"/>
          <path class="cls-11" d="m43,21.41c-7.19,0-13.02-3.28-13.02-7.33v1.46c0,4.05,5.83,7.33,13.02,7.33s13.02-3.28,13.02-7.33v-1.46c0,4.05-5.83,7.33-13.02,7.33Z"/>
          <path class="cls-8" d="m43,16.55c-7.19,0-13.02-3.28-13.02-7.33v4.86c0,4.05,5.83,7.33,13.02,7.33s13.02-3.28,13.02-7.33v-4.86c0,4.05-5.83,7.33-13.02,7.33Z"/>
          <path class="cls-12" d="m48.11,24.95c-2.86-.32-5.93,3.45-7.19,4.9-1.26,1.45-5.3,3.15-5.17,3.92.13.75,2.73,2.66,5.51,2,1.41-1.64,4.22-4.8,6.85-4.51,3.62.41,6.55,4.79,7.92,7.21v-6.31c-1.36-2.43-4.29-6.8-7.92-7.21Z"/>
          <circle class="cls-2" cx="42.47" cy="32.92" r="8.45" transform="translate(-11.26 32.19) rotate(-37)"/>
          <path class="cls-11" d="m56.03,39.52v-7.35c-1.36-2.43-4.29-6.8-7.92-7.21-2.86-.32-5.93,3.45-7.19,4.9-1.26,1.45-5.3,3.15-5.17,3.92.13.77,2.87,2.77,5.73,1.95s4.29-1.4,4.83.69c.36,1.4.24,6.78.12,10.18,5.53-.85,9.6-3.69,9.6-7.06Z"/>
          <path class="cls-4" d="m43,2.35c-5.73,0-10.59,2.09-12.33,4.98h24.66c-1.74-2.9-6.6-4.98-12.33-4.98Z"/>
        </g>
        <ellipse class="cls-5" cx="43" cy="7.33" rx="13.02" ry="7.33"/>
        <g>
          <path class="cls-10" d="m43,2.23c5.85,0,10.67,2.49,11.29,5.69.04-.23.07-.46.07-.7,0-3.53-5.08-6.39-11.36-6.39s-11.36,2.86-11.36,6.39c0,.24.03.47.07.7.62-3.2,5.43-5.69,11.29-5.69Z"/>
          <path class="cls-4" d="m43,13.61c5.85,0,10.67-2.49,11.29-5.69-.62-3.2-5.43-5.69-11.29-5.69s-10.67,2.49-11.29,5.69c.62,3.2,5.43,5.69,11.29,5.69Z"/>
        </g>
        <path class="cls-10" d="m52.04,7.92c0,2.6-4.05,4.72-9.04,4.72s-9.04-2.11-9.04-4.72,4.05-4.72,9.04-4.72,9.04,2.11,9.04,4.72Z"/>
        <ellipse class="cls-4" cx="43.11" cy="7.85" rx="8.1" ry="4.1"/>
        <path class="cls-5" d="m42.75,6.29c-1.85-1.07-3.64-.83-4.39-.4-1.92,1.11-2.49,1.93-3.95,3.08-1.15.9-.24,1.69.2,1.98h0s.02.01.03.02c0,0,.02.01.02.02h0c.51.25,1.87.78,3.44.11,1.99-.84,3.42-1.17,5.34-2.28.75-.43,1.31-1.38-.69-2.53Zm-3,2.45l-1.25-.72c-.72-.41-.62-1.14.2-1.62.83-.48,2.09-.53,2.8-.12l1.25.72c.72.41.62,1.14-.2,1.62s-2.09.53-2.8.12Z"/>
        <ellipse class="cls-10" cx="35.75" cy="10.09" rx="1.19" ry=".67"/>
      </g>
      <g>
        <g>
          <rect class="cls-4" x="9.16" y="43.71" width="26.05" height="12.72"/>
          <ellipse class="cls-4" cx="22.18" cy="56.43" rx="13.02" ry="7.33"/>
          <path class="cls-4" d="m22.18,38.73c-5.73,0-10.59,2.09-12.33,4.98h24.66c-1.74-2.9-6.6-4.98-12.33-4.98Z"/>
          <g>
            <path class="cls-9" d="m22.18,52c-3.51,0-6.7-.79-9.04-2.06v10.86c2.34,1.27,5.52,2.06,9.04,2.06,7.19,0,13.02-3.28,13.02-7.33v-10.86c0,4.05-5.83,7.33-13.02,7.33Z"/>
            <path class="cls-8" d="m24.14,55.47c-.64.05-1.29.09-1.96.09-2.97,0-5.7-.57-7.89-1.51v1.13c2.19.94,4.92,1.51,7.89,1.51.67,0,1.32-.04,1.96-.09v-1.13Z"/>
            <path class="cls-8" d="m24.14,53.6c-.64.05-1.29.09-1.96.09-2.97,0-5.7-.57-7.89-1.51v1.13c2.19.94,4.92,1.51,7.89,1.51.67,0,1.32-.04,1.96-.09v-1.13Z"/>
            <path class="cls-8" d="m24.14,58.35c-.64.05-1.29.09-1.96.09-2.97,0-5.7-.57-7.89-1.51v3.36c2.19.94,4.92,1.51,7.89,1.51.67,0,1.32-.04,1.96-.09v-3.36Z"/>
            <path class="cls-8" d="m9.16,44.67v10.86c0,2.07,1.53,3.94,3.98,5.27v-10.86c-2.45-1.33-3.98-3.2-3.98-5.27Z"/>
          </g>
          <ellipse class="cls-5" cx="22.18" cy="43.71" rx="13.02" ry="7.33"/>
          <g>
            <path class="cls-10" d="m22.18,38.61c5.85,0,10.67,2.49,11.29,5.69.04-.23.07-.46.07-.7,0-3.53-5.08-6.39-11.36-6.39s-11.36,2.86-11.36,6.39c0,.24.03.47.07.7.62-3.2,5.43-5.69,11.29-5.69Z"/>
            <path class="cls-4" d="m22.18,49.99c5.85,0,10.67-2.49,11.29-5.69-.62-3.2-5.43-5.69-11.29-5.69s-10.67,2.49-11.29,5.69c.62,3.2,5.43,5.69,11.29,5.69Z"/>
          </g>
          <path class="cls-10" d="m31.22,44.3c0,2.6-4.05,4.72-9.04,4.72s-9.04-2.11-9.04-4.72,4.05-4.72,9.04-4.72,9.04,2.11,9.04,4.72Z"/>
          <ellipse class="cls-4" cx="22.29" cy="44.23" rx="8.1" ry="4.1"/>
          <path class="cls-5" d="m21.93,42.68c-1.85-1.07-3.64-.83-4.39-.4-1.92,1.11-2.49,1.93-3.95,3.08-1.15.9-.24,1.69.2,1.98h0s.02.01.03.02c0,0,.02.01.02.02h0c.51.25,1.87.78,3.44.11,1.99-.84,3.42-1.17,5.34-2.28.75-.43,1.31-1.38-.69-2.53Zm-3,2.45l-1.25-.72c-.72-.41-.62-1.14.2-1.62.83-.48,2.09-.53,2.8-.12l1.25.72c.72.41.62,1.14-.2,1.62-.83.48-2.09.53-2.8.12Z"/>
          <path class="cls-10" d="m16.12,46.48c0,.37-.53.67-1.19.67s-1.19-.3-1.19-.67.53-.67,1.19-.67,1.19.3,1.19.67Z"/>
        </g>
        <g>
          <path class="cls-8" d="m26.95,53.28c.27-.11.4-.16.66-.28.77-.33,1.23-.01,1.23,1.09s-.46,1.93-1.2,2.25c-.28.12-.41.18-.69.29,0-1.34,0-2.01,0-3.35Zm.63,2.61c.51-.22.8-.74.8-1.57s-.29-1.03-.8-.82c-.08.03-.11.05-.19.08v2.39c.08-.03.11-.05.19-.08Z"/>
          <path class="cls-8" d="m29.36,54.09c0-1.08.46-1.95,1.11-2.32.66-.37,1.11-.03,1.11,1.05s-.46,2.04-1.11,2.42c-.66.37-1.11-.06-1.11-1.15Zm1.77-.99c0-.75-.26-1.04-.65-.82-.4.23-.66.82-.66,1.57s.26,1.1.66.87c.39-.23.65-.87.65-1.62Z"/>
          <path class="cls-8" d="m33.01,49.86c.35-.25.59-.22.75-.12-.1.22-.15.33-.24.55-.13-.07-.26-.08-.5.09-.44.32-.75.98-.75,1.73,0,.76.27,1.05.77.69.14-.1.28-.25.36-.41,0-.29,0-.43,0-.72-.19.14-.28.21-.47.34v-.49c.35-.25.52-.38.87-.64v1.47c-.17.35-.47.75-.81.99-.67.48-1.18.19-1.18-.92s.52-2.08,1.2-2.56Z"/>
          <path class="cls-8" d="m25.92,57.5c.6-.21.9-.32,1.5-.58v.5c-.43.18-.64.26-1.06.42v.95c.36-.13.54-.2.9-.35v.5c-.36.15-.54.22-.9.35v1.4c-.18.06-.26.1-.44.16,0-1.34,0-2.01,0-3.35Z"/>
          <path class="cls-8" d="m27.9,58.63c0-1.08.45-1.91,1.11-2.23.65-.32,1.11.06,1.11,1.14,0,1.09-.46,2.01-1.11,2.33-.66.32-1.11-.15-1.11-1.24Zm1.76-.84c0-.75-.26-1.07-.65-.87-.4.2-.65.77-.65,1.51s.26,1.12.65.92c.39-.19.65-.81.65-1.57Z"/>
          <path class="cls-8" d="m30.47,57.4c0-1.08.46-1.97,1.12-2.39.66-.41,1.11-.09,1.11.99,0,1.09-.45,2.07-1.11,2.48-.66.41-1.12,0-1.12-1.09Zm1.77-1.08c0-.75-.26-1.03-.65-.78-.4.25-.66.86-.66,1.6,0,.75.26,1.08.66.84.39-.25.65-.9.65-1.65Z"/>
          <path class="cls-8" d="m32.99,53.78c.27-.19.4-.29.67-.49.76-.57,1.21-.4,1.21.7,0,1.11-.45,2.07-1.19,2.63-.27.21-.41.31-.69.51v-3.35Zm.63,2.4c.5-.38.79-1,.79-1.82s-.29-.94-.79-.56c-.08.06-.11.09-.19.14v2.39c.08-.06.11-.08.19-.14Z"/>
        </g>
        <rect class="cls-9" x="14.93" y="56.29" width=".38" height="5.08"/>
        <rect class="cls-9" x="22.62" y="57.43" width=".47" height="5.08"/>
        <rect class="cls-9" x="17.16" y="57.08" width=".38" height="5.08"/>
        <rect class="cls-9" x="15.54" y="56.62" width=".19" height="5.08"/>
        <rect class="cls-9" x="18.69" y="57.25" width=".44" height="5.08"/>
        <rect class="cls-9" x="19.91" y="57.57" width=".44" height="5.08"/>
        <rect class="cls-9" x="15.96" y="56.82" width=".19" height="5.08"/>
        <rect class="cls-9" x="18.2" y="57.43" width=".19" height="5.08"/>
        <rect class="cls-9" x="20.58" y="57.77" width=".19" height="5.08"/>
        <rect class="cls-9" x="21.21" y="57.77" width=".19" height="5.08"/>
        <rect class="cls-9" x="22.09" y="57.77" width=".19" height="5.08"/>
        <rect class="cls-9" x="23.35" y="57.66" width=".19" height="5.08"/>
      </g>
    </g>
  </g>
</svg>