<?xml version="1.0" encoding="UTF-8"?>
<svg id="Layer_2" data-name="Layer 2" xmlns="http://www.w3.org/2000/svg" viewBox="0 0 111.57 136.42">
  <defs>
    <style>
      .cls-1 {
        fill: #ff7b94;
      }

      .cls-2 {
        fill: #fff;
      }

      .cls-3 {
        fill: #7191d8;
      }

      .cls-4 {
        fill: #ffc7d6;
      }

      .cls-5 {
        fill: #b7bdce;
      }

      .cls-6 {
        fill: #ffa08d;
      }

      .cls-7 {
        fill: #a0a8ba;
      }

      .cls-8 {
        fill: #606d7c;
      }

      .cls-9 {
        fill: #d3d6e2;
      }

      .cls-10 {
        fill: #ffc5b3;
      }

      .cls-11 {
        fill: #ffa1b5;
      }

      .cls-12 {
        fill: #f9a973;
      }

      .cls-13 {
        fill: #fb8;
      }

      .cls-14 {
        fill: #fcd0da;
      }

      .cls-15 {
        fill: #85a8e5;
      }

      .cls-16 {
        fill: #464d8e;
      }

      .cls-17 {
        fill: #707c8c;
      }

      .cls-18 {
        fill: #622c2a;
      }

      .cls-19 {
        fill: #dd4b67;
      }

      .cls-20 {
        fill: #ef995e;
      }

      .cls-21 {
        fill: #848ea0;
      }

      .cls-22 {
        fill: #c63c5d;
      }

      .cls-23 {
        fill: #f16479;
      }

      .cls-24 {
        fill: #5974bb;
      }

      .cls-25 {
        fill: #773636;
      }
    </style>
  </defs>
  <g id="Layer_1-2" data-name="Layer 1">
    <g>
      <g>
        <path class="cls-10" d="m63.89,27.48c-1.54-.06-5.12-.55-7-.56-1.3,0-.89.26-2.05.94-2.67,1.56,1.6,2.22,1.6,2.22,0,0,1.91.38,4.33.97,2.03.5,4.49,1.34,5.74.21,1.86-1.68,5.14-6.79,5.14-6.79l-3.5-4.28-4.26,7.29Z"/>
        <path class="cls-5" d="m75.84,14.57s-1.41-.96-3.9,0-5.05,6.52-5.05,6.71,2.5,3,4.31,3.19,4.63-9.89,4.63-9.89Z"/>
        <g>
          <path class="cls-6" d="m70.7,56.16s.74,4.66.77,6.75c.03,2.09.07,3.01.52,5.57.43,2.42,1.07,12.13,1.09,15.34.02,3.21-1.95,6.2-2.68,7.35-.73,1.16,1.59,2.97,3.36,1.28,1.77-1.69,1.95-2.02,2.95-2.55,1-.53,1.74-2.81.95-5.34-.79-2.53-.4-7.53.43-11.9.84-4.38-.38-9.93.11-11.24.49-1.31-7.5-5.25-7.5-5.25Z"/>
          <path class="cls-25" d="m70.4,91.17s-2.18,1.81-2.9,2.7c-.73.88,1.53,2.19,3.67,1.44,2.14-.75,3.9-2.77,5.6-4.29,1.67-1.49,2.12-2.02,2.04-3.73-.04-.84-.91-1.73-.91-1.73,0,0-.53,3.47-2.97,4.92-2.33,1.39-3.29,1.6-4.52.69Z"/>
          <path class="cls-10" d="m77.51,59.92s.26,4.68.29,6.77c.03,2.09.36,2.75.98,5.13.62,2.38,1.09,12.55,1.11,15.76.02,3.21-1.95,6.2-2.69,7.35-.73,1.16,1.59,2.97,3.36,1.28,1.77-1.69,1.95-2.02,2.95-2.55,1-.53,1.74-2.81.95-5.34-.79-2.53-.4-7.53.43-11.9.84-4.38-.56-9.96-.25-11.33.75-3.35,2.56-8.51.68-9.64-1.98-1.18-7.81,4.47-7.81,4.47Z"/>
          <path class="cls-25" d="m77.2,94.93s-2.18,1.81-2.9,2.7c-.73.88,1.53,2.19,3.67,1.44,2.14-.75,3.9-2.77,5.6-4.29,1.67-1.49,2.12-2.02,2.04-3.73-.04-.84-.91-1.73-.91-1.73,0,0-.53,3.47-2.97,4.92-2.33,1.39-3.29,1.6-4.52.69Z"/>
          <path class="cls-25" d="m69.43,40.26s-.19,3.32-.28,7.61c-.11,5.27.71,11.56.71,11.56,0,0,7.83,6.06,10.62,5.07,4.5-1.6,6.74-5.13,6.74-5.13,0,0,.1-12.02-2.11-19.87-2.21-7.85-15.5-3.34-15.68.76Z"/>
          <path class="cls-9" d="m87.92,20.75c-.41-1.64-5.44-5.09-5.44-5.09,0,0-2.81,2.24-3.8,3.01-.95.74-2.53,2.65-2.66,2.81,0,0-.02,0-.02,0,.02-.31.21-2.82,1.19-5.5.31-.84-.16-3.31-.16-3.31,0,0-.39-.1-.96-.2-.85.95-2.53,3.46-3.45,4.5-.88,1-3.64,4.53-2.68,7.78.29.96-.02,1.41.49,2.6.57,1.34.54,3.89.46,5.28-.08,1.59-1.56,5.79-1.56,5.79,0,0,3.65,4.23,7.57,4.06,4.57-.2,7.82-3.43,7.82-3.43,0,0-1.09-6.92-.95-9.77,0,0,5.51-3.1,4.15-8.52Z"/>
          <path class="cls-23" d="m70.68,19.6l4.25-6.25,1.36.41s-1.43,2.02-2.61,4.02c-.51.87-1.58,2.83-1.58,2.83l-1.42-1.02Z"/>
          <path class="cls-23" d="m77.9,22.88s2.65-4.41,3.23-5.64c.53-1.13.96-2.53.96-2.53,0,0,.75.02.79,0,.04-.02.62.44.2,1.83-.55,1.84-3.56,6.82-3.56,6.82l-1.61-.47Z"/>
          <g>
            <path class="cls-25" d="m71.19,6.58s-.24,1.56.19,3.84c.21,1.14.95,2.51.95,2.51l5-2.32-6.14-4.04Z"/>
            <path class="cls-6" d="m76.74,13.05s.04,2.83-.46,4.34c-.42.65-.84,2.71-.59,4.5.93-.53,2.38-2.2,3.32-2.96,2.12-1.7,2.98-3.37,2.98-3.37l.36-7.99-5.6,5.47Z"/>
            <path class="cls-10" d="m79.62,2.96c-1.92-1.32-6.32-1.56-7.69,3.04-1.45,4.82,3.13,10.54,5.37,9.42,1.25-.63,3.85-2.76,4.49-5.29.72-2.85-.68-6.15-2.17-7.17Z"/>
            <path class="cls-25" d="m83.5,4.06c-.83-1.37-2.73-3.22-4.08-3.7-2.7-.96-4.48.06-6.86,2.48-1.43,1.45-2.05,3.12-1.92,5.7,0,0,3.99,2.56,6.33,2.93,1.09.17,2.54-.54,3.39-1.01.16,1.18.33,2.52.36,3.16.06,1.28-.26,3.16-.26,3.16,0,0,3.44-.83,4.39-2.38s.15-7.86-1.36-10.35Z"/>
          </g>
          <path class="cls-23" d="m69.14,25.69c.37,1.96.71,3.23,1.02,6.42.16,1.71-.88,5.38-1.16,8.71-.55,6.33-.66,13.07-.68,14.32-.09,5.16,0,11.24,0,11.24,0,0,4.63,5.34,12.19,3.73,7.56-1.61,7.88-4.87,7.88-4.87,0,0,.04-17.96-.75-21.92-.65-3.23-2.46-10.31-2.46-10.31,0,0-1,.45-1.93.3-1.66-.26-2.96-1.07-3.33-4.53-.19-1.76-.37-4-.24-5.67-3.73-1.34-6.54-2.18-8.79-3.81-1.71,2.62-2.11,4.35-1.73,6.38Z"/>
        </g>
        <path class="cls-10" d="m87.94,20.19c-1.05-2.31-3.88.42-4.27,1.5-.89,2.45-.66,6.27-.82,8.22-.11,1.29.15,4.93.15,4.93,0,0-3.93,10.03-5.49,11.61-1.55,1.58-3.1,2.09-3.87,2.75-.77.66-.68,1.48-.07,1.08.66-.43,1.73-.83,1.73-.83,0,0-1.66,1.65-1.83,3.05-.1.85.64,1.72,3.12.41,1.76-.93,3.51-4.74,4.32-5.58s5.01-5.9,5.99-8.6c.33-.92,3.05-14.12,1.04-18.54Z"/>
        <path class="cls-5" d="m85.27,17.77c-1.13-.36-2.58,3.75-2.93,6.41-.35,2.67-.36,4.07-.36,4.07,0,0,1.8,1.57,4.17,1.35s2.49-1.31,3-2.13c0-1.87.93-8.17-3.88-9.71Z"/>
        <path class="cls-10" d="m57.73,26.95c-.76-.24-2.66-2.29-5.36-1.17-1.05.44-.47.86.9.76.32-.02.44.35.19.52-.82.55-1.79-.1-3.11.42-1.67.66-2.26,1.71-1.8,2.6.25.48,1.57.71,2.46.62,1.92-.18,5.44-.62,5.44-.62l1.29-3.13Z"/>
      </g>
      <g>
        <polygon class="cls-13" points="0 51.7 78.74 97.27 111.57 78.27 32.89 32.74 0 51.7"/>
        <polygon class="cls-20" points="78.74 97.27 78.74 136.42 111.57 117.55 111.57 78.27 78.74 97.27"/>
        <polygon class="cls-12" points="78.74 97.26 0 51.7 0 91.65 78.74 136.42 78.74 97.26"/>
      </g>
      <g>
        <g>
          <polygon class="cls-7" points="14.36 45.87 39.63 60.4 57.72 49.99 32.51 35.46 14.36 45.87"/>
          <polygon class="cls-17" points="57.73 49.94 39.63 60.39 39.63 64.49 57.73 54.04 57.73 49.94"/>
          <polygon class="cls-21" points="14.36 45.87 39.64 60.39 39.64 64.49 14.36 49.97 14.36 45.87"/>
        </g>
        <g>
          <polygon class="cls-8" points="52.94 45.67 36.59 35.72 44.76 50.99 52.94 45.67"/>
          <polygon class="cls-21" points="18.56 27.41 18.56 45.93 39.63 58.03 39.63 39.54 18.56 27.41"/>
          <polygon class="cls-2" points="30.77 36.38 30.77 38.47 38.4 42.85 38.4 40.77 30.77 36.38"/>
          <polygon class="cls-7" points="50.2 46.24 51.42 45.62 42.94 40.72 41.47 41.14 50.2 46.24"/>
          <polygon class="cls-17" points="39.63 58.03 52.94 50.34 52.94 45.67 48.22 48.37 43.44 37.39 39.63 39.54 39.63 58.03"/>
          <polygon class="cls-7" points="18.56 27.41 39.63 39.54 43.44 37.39 22.33 25.24 18.56 27.41"/>
        </g>
      </g>
      <g>
        <path class="cls-9" d="m64.39,62.74l-4.43,2.56c-1.81,1.05-5.01.91-7.1-.29h0c-2.09-1.21-2.32-3.05-.51-4.1l4.43-2.56c1.81-1.05,5.01-.91,7.1.29h0c2.09,1.21,2.32,3.05.51,4.1Z"/>
        <rect class="cls-9" x="51.13" y="61.82" width="2.96" height="1.08"/>
        <rect class="cls-9" x="62.65" y="60.04" width="2.96" height="1.08"/>
        <path class="cls-2" d="m64.39,61.88l-4.43,2.56c-1.81,1.05-5.01.91-7.1-.29h0c-2.09-1.21-2.32-3.05-.51-4.1l4.43-2.56c1.81-1.05,5.01-.91,7.1.29h0c2.09,1.21,2.32,3.05.51,4.1Z"/>
        <g>
          <path class="cls-5" d="m52.99,60.88l4.4-2.53c1.52-.87,4.19-.76,5.94.25.84.49,1.31,1.1,1.42,1.69.16-.76-.32-1.6-1.42-2.23-1.75-1.01-4.42-1.12-5.94-.25l-4.4,2.53c-.79.45-1.1,1.09-.99,1.73.1-.45.42-.87.99-1.2Z"/>
          <path class="cls-9" d="m53.41,63.77c1.75,1.01,4.42,1.12,5.94.25l4.4-2.53c.57-.33.89-.75.99-1.2-.1-.6-.58-1.21-1.42-1.69-1.75-1.01-4.42-1.12-5.94-.25l-4.4,2.53c-.57.33-.89.75-.99,1.2.1.6.58,1.21,1.42,1.69Z"/>
        </g>
      </g>
      <g>
        <g>
          <path class="cls-10" d="m20.8,123.75c1.62-.81,3.16-1.8,2.66-2.72-.22-.42-.74-.6-1.24-.68-1.49.49-2.24.83-2.24.83,0,0,.16-16.44.8-20.03.21-1.18-5.45-1.23-5.45-1.23-.2.83-.38,15.89,0,20.32.13,1.49.05,2.46-.06,3.18.39.17,1.18.51,1.77.78.81.37,2.13.37,3.75-.44Z"/>
          <path class="cls-24" d="m15.21,125.77c.54,1.29,1.79,1.17,4.31.26,2.24-.81,4.08-1.72,5.68-2.89,1.59-1.18,1.61-1.33,1.82-2.13.29-1.11-1.33-1.74-4.04-.9-.27.08-.51.16-.74.24.5.08,1.01.27,1.24.68.49.92-1.05,1.91-2.66,2.72-1.62.81-2.94.81-3.75.44-.59-.27-1.39-.62-1.77-.78-.16,1.08-.39,1.58-.07,2.36Z"/>
        </g>
        <g>
          <path class="cls-10" d="m28.67,128.32c1.62-.81,3.16-1.8,2.66-2.72-.22-.42-.74-.6-1.24-.68-1.49.49-2.24.83-2.24.83,0,0,.42-21.37,1.05-24.97.21-1.18-5.47.6-5.47.6-.2.83-.62,19-.24,23.43.13,1.49.05,2.46-.06,3.18.39.17,1.18.51,1.77.78.81.37,2.13.37,3.75-.44Z"/>
          <path class="cls-24" d="m23.08,130.34c.54,1.29,1.79,1.17,4.31.26,2.24-.81,4.08-1.72,5.68-2.89,1.59-1.18,1.61-1.33,1.82-2.13.29-1.11-1.33-1.74-4.04-.9-.27.08-.51.16-.74.24.5.08,1.01.27,1.24.68.49.92-1.05,1.91-2.66,2.72-1.62.81-2.94.81-3.75.44-.59-.27-1.39-.62-1.77-.78-.16,1.08-.39,1.58-.07,2.36Z"/>
        </g>
        <path class="cls-10" d="m22.75,29.71c.67.46,3.17,1.04,3.86,6.54.62,4.87-.45,6.14-1.45,6.55-.55.23-2.49.22-2.49.22l.07,4.12s-2.41.95-4.73,0l-2.31-.95s.9-1.56.75-4.26c-.19-3.35-1.37-8.11-.53-9.88,1.52-3.2,5.01-3.59,6.82-2.33Z"/>
        <path class="cls-24" d="m14.47,43.61s6.59,1.9,8.27,2.47c1.59.54,2.86,1.63,4.52,4.96s.44,8.38.44,8.38l-.5,9.1s-3.44,4.17-6.51,4.47c-4.19.4-4.65-1.9-4.65-1.9,0,0-5.33-11.67-4.46-17.24.79-5.06,2.89-10.24,2.89-10.24Z"/>
        <path class="cls-25" d="m26.79,34.36c-.18,1.89-1.73,2.45-3.11,3.89-1.38,1.44-1.52,3.38-1.94,4.66-.42,1.29.16,7.03-1.94,11.35-2.24,4.61-5.11,5.61-5.11,5.61,0,0-4-6.15-5.42-13.6-1.42-7.45,3.72-17.15,9.26-18.32,5.89-1.24,8.62,2.53,8.25,6.4Z"/>
        <path class="cls-10" d="m25.75,49.15c-1.36-.13-2.78,2.35-2.64,5.44.18,3.96,8.44,10.72,8.44,10.72,2.78,1.64,11.2-1.01,13.22-1.03,2.17-.02,4.86,1.64,6.05,1.57,3.22-.19,4.79-2.03,3.29-3.48-1.42-1.37-6.11-1.42-6.11-1.42,0,0,.69-1.59.7-2.08.05-1.88-.87.22-2.06,1.18-1.33,1.07-2.14,1.09-3.29,1.26-5.14.76-9.98-.36-9.98-.36,0,0-5.02-11.55-7.63-11.8Z"/>
        <path class="cls-24" d="m19.14,27.85s5.35.45,4.94,5.08c-.41,4.64-.4,5.33-.4,5.33,0,0,1-2.76,1.48-4.87s-.17-6.96-6.03-5.54Z"/>
        <path class="cls-10" d="m25.17,37.07s-1.45-2.48-2.07,0c-.58,2.3,1.43,3.07,1.43,3.07l.64-3.07Z"/>
        <path class="cls-24" d="m15.63,66.58s-1.86,5.5-2.42,8.76c-1.41,8.13-.94,26.07-.94,26.07,0,0,7.34,4.19,12.4,3.85,7.39-.5,9.6-3.85,9.6-3.85,0,0-2.99-17.34-3.49-21.04-.99-7.3-4.15-14.28-4.15-14.28l-10.99.49Z"/>
        <path class="cls-16" d="m14.51,70.16s4.95,1.72,8.49.53c3.54-1.19,4.7-1.94,4.7-1.94l-.43-2.04s-2.4,1.11-6.12,1.65c-3.42.5-6.61-.91-6.61-.91l-.03,2.71Z"/>
      </g>
      <g>
        <g>
          <path class="cls-19" d="m65.7,61.59c-.46,1.04-2.55,7.29-2.58,11.05-.04,4.68.63,7.96.63,7.96l3.72,2.17s1.66-3.42,1.75-8.22c.09-4.79-2.58-12.45-2.58-12.45l-.93-.52Z"/>
          <path class="cls-23" d="m66.64,62.12s1.97,8.91,2.12,11.86c.16,2.95-1.3,8.81-1.3,8.81l10.4-6.01s1.35-5.63,1.26-8.33c-.13-3.83-2.14-12.36-2.14-12.36l-10.35,6.02Z"/>
          <polygon class="cls-1" points="65.7 61.59 66.64 62.12 76.99 56.09 76.18 55.55 65.7 61.59"/>
        </g>
        <polygon class="cls-18" points="76.75 76.55 69.35 80.82 69.77 78.68 77.17 74.4 76.75 76.55"/>
        <polygon class="cls-2" points="76.58 75.48 69.91 79.34 70.01 78.79 76.68 74.94 76.58 75.48"/>
        <polygon class="cls-2" points="77.3 61.96 69.3 66.57 68.97 65.4 76.99 60.77 77.3 61.96"/>
        <polygon class="cls-2" points="76.29 58 68.3 62.61 68.13 62.03 76.15 57.4 76.29 58"/>
        <path class="cls-22" d="m65.96,63.97s-1.78,5.99-1.69,9.91c.09,3.93.85,6.13.85,6.13,0,0,.31-1.59.41-3.47.07-1.26-.1-3.21,0-4.16.12-1.13.06-3.13.3-4.87.35-2.51.14-3.55.14-3.55Z"/>
        <path class="cls-22" d="m66.64,65.82c-.04.25-.3,2.08-.22,3.87.08,1.91.5,3.82.4,4.86-.06.67-.41,2.29-.53,3.22-.24,1.86-.27,3.05-.27,3.05,0,0,1.66-.97,1.75-6.27.06-3.28-1.12-8.73-1.12-8.73Z"/>
        <path class="cls-18" d="m74.84,62.89c.2,1.3-.4,2.83-1.34,3.43s-1.85.02-2.04-1.27c-.2-1.3.4-2.83,1.34-3.43.93-.6,1.85-.02,2.04,1.27Z"/>
        <g>
          <path class="cls-2" d="m72.8,65.12c.14.58.36.12.71-.09.36-.2.72-.08.57-.65-.14-.58-.55-.88-.9-.68-.36.2-.53.84-.39,1.42Z"/>
          <path class="cls-2" d="m73.76,62.94c-.05.25-.03.5.13.59.16.09.25-.13.3-.38.05-.25.07-.57-.09-.66s-.29.2-.34.45Z"/>
          <path class="cls-2" d="m72.44,63.7c.15.14.24.35.16.58-.08.23-.24.16-.39.02-.15-.14-.3-.36-.22-.59.08-.23.3-.15.45,0Z"/>
          <path class="cls-2" d="m72.9,62.97c.09.23.12.48-.02.62-.14.14-.27-.04-.36-.27-.09-.23-.17-.53-.03-.67.14-.14.32.09.41.32Z"/>
          <path class="cls-2" d="m73.07,62.87c.03.27.12.48.28.44.17-.03.18-.3.16-.56s-.1-.57-.27-.54c-.17.03-.2.39-.17.66Z"/>
        </g>
        <path class="cls-2" d="m71.24,76.71c0,.34-.2.73-.47.86-.27.13-.49-.04-.5-.39s.2-.73.47-.86.49.04.5.39Z"/>
        <g>
          <path class="cls-22" d="m71.93,67.82c-.34.16-.45.61-.58,1.13-.09.37-.33.71-.13.95.31.38.59.51.85.46.26-.05.12.82.37,1.44.25.61.6,1.91.38,2.53-.07.22-.51.45-.51.64,0,.14.2.36.41.28.5-.19.86-.48,1.06-.73.11-.14.23-.37.23-.37,0,0,.86.25,1.82-.53,1.04-.83,1.45-1.26.93-2.67-.26-.7-.61-.91-.98-1.12-.42-.24-.86-.4-1-.52-.64-.57-1.11-.34-1.11-.34,0,0-.29-.9-.67-1.24-.29-.26-.64-.12-1.06.09Z"/>
          <path class="cls-22" d="m72.23,66.9l.02,1.11.74-.28s-.33-.85-.76-.83Z"/>
          <path class="cls-22" d="m76.09,72.4s.05,1.49-1.65,2.54c-.79.49-.61.67.06.52.94-.22,1.78-1.08,2.06-1.67.4-.82.4-2.03.4-2.03l-.87.65Z"/>
        </g>
      </g>
      <g>
        <g>
          <polygon class="cls-7" points="91.17 76.3 80.61 76.3 80.61 78.53 91.17 79.1 91.17 76.3"/>
          <path class="cls-7" d="m90.45,80.18l-2.18,1.26c-1.06.61-2.92.53-4.14-.17l-2.52-1.45c-1.22-.7-1.35-1.78-.3-2.39l2.18-1.26c1.06-.61,2.92-.53,4.14.17l2.52,1.45c1.22.7,1.35,1.78.3,2.39Z"/>
          <path class="cls-21" d="m81.7,77v1.9c0,.19.12.42.26.51.15.08.26,0,.26-.2v-2.21h-.53Z"/>
          <path class="cls-21" d="m82.77,77.55v2.01c0,.19.12.42.26.51.15.08.26,0,.26-.2v-2.31h-.53Z"/>
          <path class="cls-21" d="m83.95,78.12v2.1c0,.19.12.42.26.51.15.08.26,0,.26-.2v-2.41h-.53Z"/>
          <path class="cls-21" d="m89.76,77.7v1.79c0,.19.12.28.26.2.15-.08.26-.31.26-.51v-1.48h-.53Z"/>
          <path class="cls-21" d="m88.69,78.22v1.93c0,.19.12.28.26.2.15-.08.26-.31.26-.51v-1.62h-.53Z"/>
          <path class="cls-21" d="m87.5,78.7v2.12c0,.19.12.28.26.2.15-.08.26-.31.26-.51v-1.81h-.53Z"/>
          <path class="cls-5" d="m91.21,77.54l-2.45,1.41c-1.19.69-3.28.6-4.65-.19l-2.83-1.63c-1.37-.79-1.52-2-.33-2.68l2.45-1.41c1.19-.69,3.28-.6,4.65.19l2.83,1.63c1.37.79,1.52,2,.33,2.68Z"/>
          <path class="cls-9" d="m91.21,77.3l-2.45,1.41c-1.19.69-3.28.6-4.65-.19l-2.83-1.63c-1.37-.79-1.52-2-.33-2.68l2.45-1.41c1.19-.69,3.28-.6,4.65.19l2.83,1.63c1.37.79,1.52,2,.33,2.68Z"/>
          <path class="cls-7" d="m90.12,74.65l-2.38-1.37c-1.15-.67-2.92-.74-3.92-.16l-1.33.77-.73.42c-1,.58-.87,1.59.28,2.26l2.38,1.37c1.15.67,2.92.74,3.92.16l2.06-1.19s.05-.03.08-.05c.91-.58.76-1.56-.36-2.21Z"/>
        </g>
        <g>
          <path class="cls-24" d="m84.48,74.56c-.68-.31-1.24-.56-1.64-.73l-.35.2-.73.42c-1,.58-.87,1.59.28,2.26l2.38,1.37c1.15.67,2.92.74,3.92.16l2.06-1.19s.05-.03.08-.05c.03-.02.06-.05.1-.07-.65-.43-1.58-1-2.54-1.33-1.29-.46-2.61-.62-3.55-1.05Z"/>
          <g>
            <path class="cls-3" d="m89.8,75.46c.45.27.89.56,1.25.81.11-.5-.21-1.05-.93-1.47l-2.38-1.37c-1.15-.67-2.92-.74-3.92-.16l-.11.06c.35.18.91.44,1.6.68.91.31,3.58.91,4.49,1.46Z"/>
            <path class="cls-3" d="m85.21,74.23c-.87-.28-1.44-.56-1.77-.74l-.59.34c.4.18.96.42,1.64.73.94.43,2.26.59,3.55,1.05.96.34,1.89.9,2.54,1.33.14-.1.25-.22.33-.34-.23-.17-.52-.37-.88-.61-1.17-.77-3.25-1.25-4.82-1.76Z"/>
            <path class="cls-15" d="m89.8,75.46c-.91-.55-3.58-1.15-4.49-1.46-.69-.23-1.25-.49-1.6-.68l-.28.16c.34.19.91.46,1.77.74,1.57.52,3.65.99,4.82,1.76.36.24.64.44.88.61.07-.11.12-.22.15-.34-.35-.24-.79-.53-1.25-.81Z"/>
          </g>
        </g>
        <g>
          <path class="cls-2" d="m86.29,73.33c-.13-.07-.29-.05-.47.05-.18.1-.24.2-.1.28.03.02.06.03.08.04.03,0,.04,0,.06,0l.09-.05.09.06-.2.12c-.09-.01-.18-.05-.25-.09-.2-.12-.18-.26.08-.41.3-.18.57-.14.72-.05.06.03.11.08.14.14l-.2.11-.11-.05.09-.05s.03-.02.02-.03c-.01-.02-.04-.03-.06-.04Z"/>
          <path class="cls-2" d="m86.77,73.61l-.06-.04.09-.05.23.13-.47.51h0s.05.04.05.04l-.1.06-.26-.15.09-.05.04.02s.04.01.06,0l.05-.05-.23-.14-.13.04.06.04-.1.06-.23-.13.09-.05.04.02s.03,0,.06,0l.7-.22Zm-.36.21l.19.11.24-.24h0s-.42.14-.42.14Z"/>
          <path class="cls-2" d="m87.35,73.96l-.08-.05s-.04,0-.06,0l-.06.03-.09-.06.2-.11.52.3-.2.11-.11-.05.05-.03s.03-.02,0-.04l-.07-.04-.56.32.08.05-.1.06-.29-.16.09-.05.06.03s.04.01.06,0l.53-.3Z"/>
          <path class="cls-2" d="m87.35,74.61l.04.02s.04.01.06,0l.54-.31-.05-.04.1-.06.49.28-.19.11-.11-.05.05-.03s.03-.02,0-.04l-.17-.1-.21.12.25.14-.12.07-.25-.14-.23.13.09.05-.1.06-.28-.16.09-.05Z"/>
          <path class="cls-2" d="m88.09,75.16c-.18-.1-.16-.25.11-.4.3-.17.56-.14.71-.06.15.09.18.23-.12.4-.27.15-.52.16-.7.06Zm.12-.06c.13.07.3.01.44-.07.12-.07.26-.18.12-.26-.13-.07-.31-.02-.45.06-.13.08-.26.18-.12.27Z"/>
          <path class="cls-2" d="m88.76,75.55c-.18-.1-.16-.25.11-.4.3-.17.56-.14.7-.06.15.09.18.23-.12.4-.27.15-.52.16-.7.06Zm.12-.06c.13.07.3.01.44-.07.12-.07.26-.18.12-.26-.13-.07-.31-.02-.45.06-.13.08-.26.18-.12.27Z"/>
          <path class="cls-2" d="m89.24,75.7l.04.02s.04.01.06,0l.54-.31-.05-.04.1-.06.28.16c.19.11.2.25-.04.39-.3.18-.56.15-.72.06l-.29-.16.09-.05Zm.2.1l.1.06c.11.06.28.05.46-.06.21-.12.18-.2.07-.27l-.09-.05-.55.32Z"/>
        </g>
        <polygon class="cls-3" points="88.94 77.24 86.86 76.03 87.2 75.83 89.29 77.04 88.94 77.24"/>
        <polygon class="cls-3" points="88.27 77.64 86.18 76.43 86.52 76.23 88.61 77.44 88.27 77.64"/>
        <polygon class="cls-3" points="87.58 78.04 85.49 76.83 85.84 76.63 87.92 77.84 87.58 78.04"/>
        <g>
          <path class="cls-2" d="m84.22,76.78c-.14.11-.32.07-.4-.09-.09.07-.2.11-.33.04-.11-.06-.13-.17-.12-.27-.21.07-.41-.03-.42-.23-.11.04-.23.04-.32-.08-.09-.11-.07-.21-.02-.29-.07-.01-.14-.04-.21-.08-.23.09-.46.17-.55.21-.23.1-.46.2-.46.2,0,0,.17.24.52.44.35.21,2.01,1.17,2.01,1.17,0,0,.32-.45.5-.88-.08-.02-.16-.07-.21-.14Z"/>
          <path class="cls-2" d="m83.49,75.94c.08-.08,1.03.35,1.15.41.06-.13.09-.18.09-.18l-1.59-.67s-.05.02-.13.05c0,.1-.07.3-.07.3.32-.23.49.06.56.09Z"/>
          <path class="cls-3" d="m84.64,76.36c-.13-.06-1.08-.49-1.15-.41-.07-.03-.23-.32-.56-.09,0,0,.08-.2.07-.3-.14.05-.38.14-.6.22.07.04.14.06.21.08-.06.09-.07.19.02.29.09.11.21.12.32.08.01.2.2.29.42.23,0,.11.01.21.12.27.12.07.23.04.33-.04.08.16.26.21.4.09.05.07.12.12.21.14.02-.05.04-.1.06-.15.07-.19.12-.32.16-.42Z"/>
        </g>
        <path class="cls-2" d="m86.09,74.98c-.12-.03-.25-.04-.37-.04-.22-.35-.91-.7-1.47-.8-.03-.09-.09-.18-.15-.26-.06-.08-.16-.23-.28-.24-.2-.02-.27.27-.26.47-.33.03-.67.13-.97.29-.06.03-.07.12-.02.16.08.07.1.1.13.12-.03.03-.2.15-.27.2-.07.05-.08.13.02.16.04.01.15.03.18.05-.04.05-.26.11-.19.2.03.04.17.06.23.09-.04.05-.1.12-.14.17-.04.05,0,.12.06.15.11.05.31.07.31.07,0,0-.01.09-.02.27,0,.07.07.11.18.08.06-.02.19-.1.25-.12,0,.06,0,.18,0,.24,0,.09.05.12.13.1.08-.02.28-.07.37-.11.01.06,0,.33.15.37.12.03.26-.16.32-.21.05.1.17.28.32.3.15.02.22-.12.29-.21.06.01.27.17.36.15.12-.02.15-.17.19-.23.08,0,.2.09.31.04.33-.15.37-.6.25-.94.05-.02.1-.04.15-.06.1-.04.26-.14.25-.26,0-.13-.2-.17-.3-.2Z"/>
        <path class="cls-24" d="m83.76,74.61s0,.02,0,.02c.2.06.25.24.26.32,0,.04.04.04.06,0,.08-.18-.11-.41-.32-.33Z"/>
        <path class="cls-24" d="m84.62,75.23c.14-.02.3.02.39.14.04.05.08.02.09-.03.02-.24-.34-.24-.49-.15-.03.01-.04.05.01.05Z"/>
        <path class="cls-24" d="m84.54,75.71c-.15,0-.5.04-.47-.24,0-.02-.02-.04-.04-.04-.08,0-.19,0-.26-.02-.12-.02-.17-.09-.17-.16,0-.1-.04-.08-.05-.08-.08.02-.12.11-.06.2.1.16.32.19.49.14-.05.24.41.41.59.28.04-.03.03-.09-.02-.09Z"/>
      </g>
      <g>
        <g>
          <polygon class="cls-7" points="86.49 82.73 75.93 82.73 75.93 84.97 86.49 85.53 86.49 82.73"/>
          <path class="cls-7" d="m85.77,86.61l-2.18,1.26c-1.06.61-2.92.53-4.14-.17l-2.52-1.45c-1.22-.7-1.35-1.78-.3-2.39l2.18-1.26c1.06-.61,2.92-.53,4.14.17l2.52,1.45c1.22.7,1.35,1.78.3,2.39Z"/>
          <path class="cls-21" d="m77.02,83.43v1.9c0,.19.12.42.26.51.15.08.26,0,.26-.2v-2.21h-.53Z"/>
          <path class="cls-21" d="m78.09,83.99v2.01c0,.19.12.42.26.51.15.08.26,0,.26-.2v-2.31h-.53Z"/>
          <path class="cls-21" d="m79.27,84.56v2.1c0,.19.12.42.26.51.15.08.26,0,.26-.2v-2.41h-.53Z"/>
          <path class="cls-21" d="m85.08,84.14v1.79c0,.19.12.28.26.2.15-.08.26-.31.26-.51v-1.48h-.53Z"/>
          <path class="cls-21" d="m84.01,84.65v1.93c0,.19.12.28.26.2.15-.08.26-.31.26-.51v-1.62h-.53Z"/>
          <path class="cls-21" d="m82.82,85.13v2.12c0,.19.12.28.26.2.15-.08.26-.31.26-.51v-1.81h-.53Z"/>
          <path class="cls-5" d="m86.53,83.97l-2.45,1.41c-1.19.69-3.28.6-4.65-.19l-2.83-1.63c-1.37-.79-1.52-2-.33-2.68l2.45-1.41c1.19-.69,3.28-.6,4.65.19l2.83,1.63c1.37.79,1.52,2,.33,2.68Z"/>
          <path class="cls-9" d="m86.53,83.74l-2.45,1.41c-1.19.69-3.28.6-4.65-.19l-2.83-1.63c-1.37-.79-1.52-2-.33-2.68l2.45-1.41c1.19-.69,3.28-.6,4.65.19l2.83,1.63c1.37.79,1.52,2,.33,2.68Z"/>
          <path class="cls-7" d="m85.44,81.08l-2.38-1.37c-1.15-.67-2.92-.74-3.92-.16l-1.33.77-.73.42c-1,.58-.87,1.59.28,2.26l2.38,1.37c1.15.67,2.92.74,3.92.16l2.06-1.19s.05-.03.08-.05c.91-.58.76-1.56-.36-2.21Z"/>
        </g>
        <g>
          <path class="cls-23" d="m79.8,80.99c-.68-.31-1.24-.56-1.64-.73l-.35.2-.73.42c-1,.58-.87,1.59.28,2.26l2.38,1.37c1.15.67,2.92.74,3.92.16l2.06-1.19s.05-.03.08-.05c.03-.02.06-.05.1-.07-.65-.43-1.58-1-2.54-1.33-1.29-.46-2.61-.62-3.55-1.05Z"/>
          <g>
            <path class="cls-11" d="m85.12,81.89c.45.27.89.56,1.25.81.11-.5-.21-1.05-.93-1.47l-2.38-1.37c-1.15-.67-2.92-.74-3.92-.16l-.11.06c.35.18.91.44,1.6.68.91.31,3.58.91,4.49,1.46Z"/>
            <path class="cls-11" d="m80.53,80.66c-.86-.28-1.44-.56-1.77-.74l-.59.34c.4.18.96.42,1.64.73.94.43,2.26.59,3.55,1.05.96.34,1.89.9,2.54,1.33.14-.1.25-.22.33-.34-.23-.17-.52-.37-.88-.61-1.17-.77-3.25-1.25-4.82-1.76Z"/>
            <path class="cls-4" d="m85.12,81.89c-.91-.55-3.58-1.15-4.49-1.46-.69-.23-1.25-.49-1.6-.68l-.28.16c.34.19.91.46,1.77.74,1.57.52,3.65.99,4.82,1.76.36.24.64.44.88.61.07-.11.12-.22.15-.34-.35-.24-.79-.53-1.25-.81Z"/>
          </g>
        </g>
        <g>
          <path class="cls-2" d="m81.61,79.77c-.13-.07-.29-.05-.47.05-.18.11-.24.2-.1.28.03.02.06.03.08.04.03,0,.04,0,.06,0l.09-.05.09.06-.2.12c-.09-.01-.18-.05-.25-.09-.2-.12-.18-.26.08-.41.3-.17.57-.14.72-.05.06.03.11.08.14.14l-.2.11-.11-.05.09-.05s.03-.02.02-.03c-.01-.02-.04-.03-.06-.04Z"/>
          <path class="cls-2" d="m82.09,80.05l-.06-.04.09-.05.23.13-.47.51h0s.05.04.05.04l-.1.06-.26-.15.09-.05.04.02s.04.01.06,0l.05-.05-.24-.14-.13.04.06.04-.1.06-.23-.13.09-.05.04.02s.03,0,.06,0l.7-.22Zm-.36.21l.19.11.24-.24h0s-.42.14-.42.14Z"/>
          <path class="cls-2" d="m82.66,80.39l-.08-.04s-.04,0-.06,0l-.05.03-.09-.06.2-.11.53.3-.2.11-.11-.05.05-.03s.03-.02,0-.04l-.07-.04-.56.32.08.05-.1.06-.28-.16.09-.05.06.03s.04.01.06,0l.53-.31Z"/>
          <path class="cls-2" d="m82.67,81.05l.04.02s.04.01.06,0l.54-.31-.05-.04.1-.06.48.28-.19.11-.11-.05.05-.03s.03-.02,0-.04l-.17-.1-.21.12.25.14-.12.07-.25-.14-.23.13.09.05-.1.06-.27-.16.09-.05Z"/>
          <path class="cls-2" d="m83.41,81.6c-.18-.1-.16-.25.11-.4.3-.17.56-.14.71-.06.15.09.18.23-.12.4-.27.15-.52.16-.7.06Zm.12-.06c.13.07.3.01.44-.07.12-.07.26-.18.12-.26-.13-.07-.31-.02-.45.06-.13.08-.26.18-.12.27Z"/>
          <path class="cls-2" d="m84.08,81.99c-.18-.1-.16-.25.11-.4.3-.17.56-.14.71-.06.15.09.18.23-.12.4-.27.15-.52.16-.7.06Zm.12-.06c.13.07.3.01.44-.07.12-.07.26-.18.12-.26-.13-.07-.31-.02-.45.06-.13.08-.26.18-.12.27Z"/>
          <path class="cls-2" d="m84.56,82.14l.04.02s.04.01.06,0l.54-.31-.05-.04.1-.06.28.16c.19.11.2.25-.05.39-.3.18-.56.15-.72.06l-.29-.17.09-.05Zm.2.1l.1.06c.11.06.28.05.46-.06.21-.12.18-.2.07-.27l-.09-.05-.55.32Z"/>
        </g>
        <g>
          <g>
            <path class="cls-2" d="m78.09,82.19s-.05,0-.08.01l1.32.55c-.27-.3-.91-.6-1.25-.56Z"/>
            <path class="cls-2" d="m77.28,82.41c-.31.1-.57.2-.57.2,0,0,.18.22.49.43.21.14,1.72,1,1.72,1,0,0,.14-.19.27-.41-.33-.13-.74-.31-1.11-.52-.46-.26-.69-.53-.81-.71Z"/>
            <path class="cls-11" d="m79.34,82.75l-1.32-.55c-.21.04-.49.12-.74.2.12.18.35.45.81.71.36.21.77.39,1.11.52.12-.2.24-.42.27-.59.02-.09-.03-.19-.12-.3Z"/>
          </g>
          <path class="cls-2" d="m81.84,81.84c.28-.29-.29-.4-.77-.44-.08-.08-.68-.42-1.07-.49-.14-.34-.3-.56-.54-.56-.27,0-.4.46-.41.65-.93.24-1.3.74-1.24,1.13.08.48.62.77,1.13.91.75.26,1.77-.11,2.19-.81.2-.04.49-.15.71-.38Z"/>
          <path class="cls-23" d="m79.5,81.35c-.03-.06-.23-.05-.28-.02-.02.01-.02.07,0,.08.07.05.18.07.26.04.04-.02.06-.08.02-.11Z"/>
          <path class="cls-23" d="m80.31,81.81c-.04-.05-.1-.06-.16-.03-.11.06-.03.17.06.22,0,0,.01,0,.02,0,.02,0,.04.01.05.01.02,0,.05-.01.06-.04.03-.08.01-.11-.04-.17Z"/>
          <path class="cls-23" d="m79.98,82.4c-.11.03-.21.06-.36.01-.15-.05-.31-.17-.19-.45.01-.03,0-.05-.02-.05-.11.01-.23.05-.34.05-.08,0-.48-.04-.29-.27,0,0-.01-.03-.03-.02-.11.07-.19.16-.1.26.15.15.45.17.66.1-.06.1-.06.23.03.34.17.21.43.17.65.09.04-.01.03-.06,0-.05Z"/>
        </g>
        <polygon class="cls-14" points="84.26 83.68 82.17 82.47 82.52 82.27 84.61 83.48 84.26 83.68"/>
        <polygon class="cls-14" points="83.59 84.08 81.5 82.87 81.84 82.67 83.93 83.88 83.59 84.08"/>
        <polygon class="cls-14" points="82.9 84.48 80.81 83.27 81.15 83.07 83.24 84.28 82.9 84.48"/>
      </g>
    </g>
  </g>
</svg>