<?xml version="1.0" encoding="UTF-8"?>
<svg xmlns="http://www.w3.org/2000/svg" viewBox="0 0 319.63 374.16">
  <defs>
    <style>
      .cls-1, .cls-2, .cls-3, .cls-4, .cls-5 {
        mix-blend-mode: multiply;
      }

      .cls-1, .cls-4, .cls-6 {
        fill: #93c9db;
      }

      .cls-1, .cls-5 {
        opacity: .5;
      }

      .cls-7 {
        fill: #ffb294;
      }

      .cls-8 {
        fill: #fff;
      }

      .cls-9 {
        fill: #6f819a;
      }

      .cls-10 {
        fill: #0f2f39;
      }

      .cls-11 {
        fill: #852510;
      }

      .cls-12 {
        fill: #912005;
      }

      .cls-13, .cls-5 {
        fill: #785238;
      }

      .cls-14 {
        fill: #d63c1a;
      }

      .cls-15 {
        fill: #630909;
      }

      .cls-2 {
        fill: #ffc8b3;
      }

      .cls-16 {
        fill: #333;
      }

      .cls-17 {
        fill: #e6e6e6;
      }

      .cls-18 {
        fill: #c49066;
      }

      .cls-3 {
        fill: #d1e1eb;
      }

      .cls-19 {
        fill: #42210b;
      }

      .cls-20 {
        fill: #e8b761;
      }

      .cls-21 {
        fill: #915413;
      }

      .cls-22 {
        fill: none;
        isolation: isolate;
      }

      .cls-23 {
        fill: #f2502c;
      }

      .cls-24 {
        fill: #4d5865;
      }

      .cls-25 {
        fill: #5198b0;
      }

      .cls-26 {
        fill: #999;
      }

      .cls-27 {
        fill: #748597;
      }

      .cls-28 {
        fill: #175279;
      }

      .cls-29 {
        fill: #ccc;
      }

      .cls-30 {
        fill: #21454f;
      }

      .cls-31 {
        fill: #1a1a1a;
      }

      .cls-32 {
        fill: #c9843a;
      }

      .cls-33 {
        fill: #0e0e14;
      }

      .cls-34 {
        fill: #dfecf5;
      }

      .cls-35 {
        fill: #f29b79;
      }

      .cls-36 {
        fill: #333942;
      }
    </style>
  </defs>
  <g class="cls-22">
    <g id="Layer_2" data-name="Layer 2">
      <g>
        <path class="cls-1" d="m298.21,305.76c-1.51-2.38-4.13-3.74-6.66-4.96-2.55-1.23-5.13-2.43-7.87-3.12-6.1-1.53-12.84-.3-18.01,3.29-5.78,4.01-9.49,10.63-15.6,14.11-4.61,2.62-10.09,3.16-15.4,3.27-7.26.15-14.83-.49-21.09-4.15-3.45-2.02-6.43-4.91-10.2-6.22-7.01-2.43-15.01,1.18-22.08-1.09-3.78-1.21-8.17-3.38-13.37-7.53-.72-.57-1.61-.84-2.49-.78l42.4-24.48,13.32.54,59.47-34.33-74.38-42.94-34.37,19.84,37.29,21.53-137.52,79.4-37.29-21.53L0,316.45l74.38,42.94,57.28-33.07-.94-7.69,31.15-17.98c-.79,1.14-.88,2.68-.1,3.93,1.78,2.86,3.94,6.56,4.25,7.75,1.52,5.89-3.48,8.96-3.29,14.35.11,2.74,2.29,5.01,4.74,6.23,2.45,1.22,5.21,1.66,7.83,2.46,5.02,1.52,9.53,4.35,13.97,7.15,11.16,7.04,22.41,14.14,31.97,23.24,3.07,2.92,6.07,6.12,10.02,7.66,3.94,1.54,9.18.8,11.29-2.87.74-1.29,1.04-2.83,1.95-4.02,1.65-2.17,4.73-2.52,7.18-3.73,4.74-2.34,7.02-8.66,4.87-13.49-.55-1.24-1.37-2.61-.82-3.85.36-.83,1.24-1.31,2.09-1.61,5.18-1.81,11.89.58,15.81-3.27,1.31-1.29,2.04-3.09,3.4-4.31,3.3-2.97,9.21-1.71,12.04-5.14,1.86-2.25,1.52-5.51,1.31-8.42s.11-6.36,2.59-7.89c2.04-1.26,4.94-.75,5.96-4.01.52-1.69.25-3.55-.69-5.04Z"/>
        <g>
          <g>
            <g>
              <g>
                <g>
                  <path class="cls-7" d="m148.01,147.41l2.83.73,2.56.55,4.11,1.68c1.13.46,2.41.41,3.5-.15l.48-.25c.82.19,1.68-.04,2.3-.6l1.24-1.12,2.07-1.4,3.54-2.83c.88-.81.18-1.22-.73-1.05l-3.85,1.22-2.02.32-3.2-1.85.52-1.06,2.61-.59,1.47-.12c1.3-.18,1.21-1.12.11-1.38l-2.99-.37-4.71.93-4.2,3.19-3.83.47-1.81,3.68Z"/>
                  <path class="cls-8" d="m125.64,111.22s3.55.76,5.39,9c1.1,4.92,3.58,20.87,3.58,20.87l19.03,2.18s-1.32,2.69-1.02,5.25c-10.82,1.72-27.5,4.38-28.28-.65l-3.15-26.59,4.46-10.06Z"/>
                  <path class="cls-35" d="m114.86,252.12c-4.89-1.38-8.94-3.86-10.24-7.4,2.84-12.18,11.64-21.91,19.53-36.42h-18.4c-8.73,12.71-5.8,29.55-9.85,36.42-2.41,3.02-3.65,6-1.29,8.86l7.1-.03,7.04,4.41,7.63-.13c.9-2.44,1.48-4.75-1.52-5.7Z"/>
                  <path class="cls-28" d="m95.18,245.65c-3.59,2.52-3.78,6.85-2.67,10.24,2.33,3.33,7.37,1.12,10.81,2.05,7.91,2.16,7.92,3.99,11.72,3.9,6.14-.14,10.18-2.75,9.85-4.76-.27-1.65-2.92-3.31-7.24-4.92l-6.97-1.69c1.08.62,2.55,1.15,4.17,1.64,2.2,1.43,1.42,2.94-.62,4.78-2.28.99-5.13.02-8.78-1.89l-7.86-3.74c-2.1-1.32-3.09-3.11-2.4-5.6Z"/>
                  <path class="cls-7" d="m86.84,269.62c-.25-3.1-.32-5.93.79-7.9,6.19-16.89-2.16-24.15,10.02-41.45-4.12-16.73-1.67-23.14-3.82-46.99,4.52-13.68,30.35-8.76,25.56-4.91.47,12.97-3.86,36.12-8.59,51.05-4.03,11.19-13.12,26.58-14.82,41.52,1.76,6.22,1.93,10.23,5.54,13.66l-2.22,5.51s-7.08-1.73-7.18-2.12c-.11-.4-5.28-8.37-5.28-8.37Z"/>
                  <path class="cls-28" d="m87.63,261.72c-2.48,2.02-2.38,6.11-1.85,9.16,1.16,2.46,2.83,3.96,4.75,7.57l1.81,2.37c3.61,3.02,10.08,3.41,12.35,1.81,1.48-2.59-.29-5.14-4.72-9.67,1.69,3.46-.24,5.15-4.63,4.69-2.08-.4-3.48-3.19-5.76-6.97-2.08-3.98-3.48-6.31-1.95-8.96Z"/>
                  <path class="cls-8" d="m127.53,147.19s6.74-2.6,6.05-9.95c-.35-3.77-7.65-9.39-6.65-14.78,1.12-5.99-.64-14.13-4.67-12.97-9.83-.45-19.18,3.83-28.27,10.52-4.73,4.08-4.88,7.96-3.25,13.63.44,1.56,1.02,3.26,1.67,5.13,0,0,1.96,5.85,4.87,13.15,2.11,5.3-2.1,7.52-3.29,12.84.05.1.11.2.16.3-1.71,5.5-1.65,12.1-.82,19.26l2,33.48c4.69,1.85,9.04,3,12.99,3.33,3.14.26,6.03,0,8.64-.85,5.04-1.65,9.02-5.49,11.71-11.99,2.92-18.63,3.28-39.68-.75-49.48l-.39-11.62Z"/>
                  <path class="cls-3" d="m127.53,147.19c-1.5.16-3.07-.53-4.67-1.91,0,0-1.14,7.17-7.33,7.94-11.15,1.37-12.07-12.61-23.11-24.08-.6-.62-1.2,1.76-1.67,4.51.44,1.56,1.02,3.26,1.67,5.13,0,0,1.96,5.85,4.87,13.15,2.11,5.3-2.1,7.52-3.29,12.84.05.1.11.2.16.3-1.71,5.5-1.65,12.1-.82,19.26l2,33.48c4.69,1.85,9.04,3,12.99,3.33,3.1.4,6.02.24,8.64-.85-9.72-8.38-26.21-37.08-2.08-56.04,6.26-4.92,11.84-10.2,12.64-17.06Z"/>
                  <path class="cls-7" d="m84.36,169.57l3.35,3.46,5.41,2.7,6.62,1.14,1.78.92,1.32,1.59c.87,1.17,1.73.28.98-.85l-1.18-1.66-2.06-1.8,2.75.35,1.81.99c1.38.83,2.02-.02.72-1.18l-1.91-1.64-2.6-.61,3.3-.23,2.25,1.21c1.11.83,1.52-.52.45-1.25l-2.41-1.56-3.68-.46,3.55-.46,2.1.72c1.12.46,1.47-.59.13-1.38l-1.84-.99-7.82-.53,3.16-.92,1.91.02c1.07.07,1.34-1.18.03-1.36l-2.5-.19-3.24.26-3.96,1.05-2.95,1.07-3.13-1.97-2.32,3.55Z"/>
                  <path class="cls-8" d="m87.72,173.03c-1.07.45-10.66-9.77-14.75-16.02-1.2-1.84-1.17-4.16-.04-6.05,5.22-8.75,11.19-19.04,17.82-26.98,5.31-5.56,12.07,7.95,6.63,14-7.09,8.15-11.4,12.66-15.93,16.21l8.36,13.79-2.09,5.04Z"/>
                  <path class="cls-28" d="m120.22,114.07h-13.51c2.79,11.62,13.43,22.62,15.55,25.99,1.33-5.84-.06-18.8-1.98-24.51l-.06-1.48Z"/>
                  <path class="cls-34" d="m107.12,111.56l-2.34,3.01c-1.38,2.04-3.24,5.09-2.65,9.12l4.37-.94-3.51,6.13c7.88,1.16,15.83,6.65,21.33,14.48-4.96-15.06-19.08-23.5-17.21-31.8Z"/>
                  <path class="cls-34" d="m123.77,116.54l3.14-1.32c-1.16-2.66-2.72-4.94-5.15-6.34l-3.67,1.56c2.92,4.4,4.33,16.39,3.46,28.07l.69,1.01c2.7-8.56,4.97-16.7,5.24-21.93l-3.71-1.05Z"/>
                  <g>
                    <path class="cls-7" d="m119.83,117.77c-2.18,8.51-13.93,1.32-12.74-4.68l3.15-12.34,13.49,5.01c-1.61,4.48-3.08,8.85-3.9,12.01Z"/>
                    <path class="cls-2" d="m112.46,108.82l10.28.77s-1.07,7.5-4.65,8.2c-2.8.54-5.63-5.81-5.63-8.96Z"/>
                  </g>
                </g>
                <path d="m119.39,95.04c1.14.82,5.08,2.65,7.29,3.46,5.02-7.44-2.76-14.03-10.09-14.29-4.04-.14-3.67,4.42-1.72,5.98.85.68,1.86,1.86,2.58,2.72.59.71,1.13,1.55,1.94,2.13Z"/>
                <path class="cls-7" d="m124.08,115.2c2.1-1.65,4.15-11.56,2.24-18.46-2.64-9.54-11.32-13.19-15.81-10.98-5.38,2.65-10.01,20.1.1,22.45,1.4.33,1.88.27,2.63,1.58,3.6,6.26,8.87,6.95,10.84,5.4Z"/>
                <path d="m120.99,102.01c.62-.2,1.17.14,1.39.78.19-.17.39-.29.59-.36.2-.07.41-.08.62-.03.11-.74.59-1.42,1.21-1.61l2.83-.91c.75-.24,1.42.31,1.49,1.23l.05.69c.12,1.49-.78,3.02-2,3.41l-1.03.33c-1.27.41-2.4-.52-2.53-2.07l-.03-.41c-.19-.07-.38-.08-.56-.02-.18.06-.35.18-.53.37l.03.41c.12,1.55-.81,3.15-2.08,3.55l-1.44.49c-1.22.39-2.31-.5-2.43-1.99l-.05-.69c-.07-.92.48-1.86,1.23-2.1l3.24-1.06Zm-3.91,3.7c.09,1.15.93,1.85,1.88,1.54l1.44-.49c1-.32,1.73-1.57,1.63-2.78l-.05-.58c-.05-.58-.47-.93-.95-.78l-3.24,1.06c-.48.15-.83.75-.78,1.33l.05.69h0Zm7.04-2.4c.1,1.21.98,1.94,1.98,1.62l1.03-.33c.94-.3,1.64-1.49,1.55-2.64l-.05-.69c-.05-.58-.47-.93-.95-.78l-2.83.91c-.48.15-.83.75-.78,1.33l.05.58h0Z"/>
                <path d="m120.8,101.26c-2.17,3.75-9.21,11.15-5.26,17.17-6.28-1.55-11.56-6.59-13.42-12.79-3.26-10.91,4.5-21.73,11.58-21.91,3.68-.09,7.9,1.93,9.33,5.56,1.28,3.26.11,7.9-2.24,11.96Z"/>
              </g>
              <g>
                <g>
                  <path class="cls-29" d="m80.75,192.23l-18.16-10.49c-1.69-.98-3.23-1.07-4.34-.42l-.92.53c-1.09.63-1.78,1.99-1.78,3.92l-.03,12.22c0,.58.41,1.3.92,1.59.34.2.62.14.78-.08-.04.05-.07.11-.13.14l.92-.53c.17-.1.27-.3.27-.59l.03-12.22c0-1.07.31-1.86.81-2.38.71-.2,1.58-.07,2.54.48l18.16,10.49c.34.2.63.14.79-.09-.04.06-.08.12-.13.15l.92-.53c.17-.1.27-.3.27-.6,0-.58-.41-1.3-.92-1.59Z"/>
                  <g>
                    <path class="cls-26" d="m59.14,240.48c-.68-3.78-.84-9.55-.96-13.36,0-.06-.02-.11-.03-.16,0-.05-.01-.1-.03-.14-.61-1.86-5.38-2-6.1-.05-.02.05-.02.1-.03.15-.01.06-.04.13-.04.19-.1,2.82-.3,9.44-1.04,13.36-.11.01-.23.03-.35.05-7.87,1.06-15.79,5.28-16,13.15-.33,10.5,21.58,16.1,34.65,8.77,11.27-6.32,6.54-19.78-10.09-21.94Z"/>
                    <path class="cls-15" d="m34.58,253.85c.11-4.86,2.73-8.06,6.89-10.45.36-.2.9-.18,1.68.2-6.73,3.78-6.89,10.01-.34,13.93,6.55,3.91,17.31,4.02,24.05.24,3.5-1.97,5.22-4.6,5.15-7.22-.24-8.56-18.14-12.97-28.86-6.95-.78-.39-1.32-.41-1.68-.2,3.21-1.67,6.19-2.69,10.87-3.09,19.87-1.71,30.81,14.29,16.89,22.11-12.99,7.29-34.68,1.81-34.65-8.57Z"/>
                    <path class="cls-17" d="m38,250.47c12.12-.72,13.32-4.38,13.96-23.37-.05,1.6,3.29,2.45,5.28,1.34.64-.36.96-.84.94-1.32.54,18.99,1.71,22.66,13.83,23.45.07,2.62-1.65,5.25-5.15,7.22-10.92,6.12-29.15,1.42-28.86-7.31Z"/>
                  </g>
                  <path class="cls-14" d="m53.25,132.02c-.48-1.48-1.55-2.8-2.69-3.46-.44-.25-.89-.41-1.36-.42-.33-.01-.63.06-.87.2l-32.15,18.68c.07-.04.16-.07.25-.1-.96.34-1.33,1.6-.81,3.2,7.12,22.15,8.19,43.78,4.97,62.17-.18,1.02.52,2.46,1.55,3.2,1.66,1.19,3.51,2.47,5.15,3.63.08.06.15.1.23.15.62.36,1.18.33,1.52-.01-.05.05-.09.12-.16.15l32.15-18.68c.24-.14.41-.4.47-.76,3.34-19.91-.38-43.92-8.26-67.95Z"/>
                  <path class="cls-23" d="m91.77,210.95l-27.73-16.01c-.71-.41-1.35-.45-1.81-.18l-32.15,18.68c-.45.26-.74.83-.74,1.63v4.38c-.02,1.62,1.11,3.58,2.52,4.39l27.73,16.01c.8.46,1.51.44,1.98.04-.06.05-.11.1-.17.14l32.15-18.68c.46-.27.74-.83.74-1.63v-4.38c.02-1.62-1.12-3.57-2.53-4.39Z"/>
                  <path class="cls-23" d="m91.77,210.95l-27.73-16.01-32.15,18.68,27.73,16.01c1.41.81,2.54,2.77,2.54,4.39l32.15-18.68c0-1.62-1.13-3.57-2.54-4.39Z"/>
                  <path class="cls-11" d="m18.41,147.24c1.13.65,2.2,1.98,2.69,3.46,7.87,24.03,11.6,48.05,8.26,67.95-.15.89-.95,1.14-1.84.62-.08-.04-.15-.09-.23-.15-1.64-1.17-3.49-2.45-5.15-3.63-1.03-.74-1.73-2.18-1.55-3.2,3.22-18.39,2.15-40.01-4.97-62.17-.62-1.91.02-3.36,1.43-3.3.47.01.92.17,1.36.42Z"/>
                  <g>
                    <path class="cls-16" d="m86.23,190.6l-17.82-10.29c-.64-.37-1.21-.4-1.63-.16l-2.76,1.6c-.41.24-.66.74-.67,1.47,0,1.45,1.02,3.22,2.28,3.95l17.82,10.29c.72.42,1.36.39,1.78.03-.05.04-.1.09-.15.13l2.76-1.6c.41-.24.66-.75.67-1.47,0-1.45-1.02-3.22-2.28-3.95Z"/>
                    <path class="cls-31" d="m83.48,192.2c1.26.73,2.28,2.5,2.28,3.95s-1.03,2.04-2.3,1.31l-17.82-10.29c-1.26-.73-2.28-2.5-2.28-3.95,0-1.45,1.03-2.04,2.3-1.31l17.82,10.29Z"/>
                  </g>
                </g>
                <path class="cls-8" d="m50.84,209.55l-18.16-10.49c-1.7-.98-3.23-1.07-4.34-.43l-.92.53c-1.09.63-1.77,1.98-1.78,3.91l-.03,12.23c0,.58.41,1.3.92,1.59.35.2.64.14.8-.1-.04.06-.08.13-.14.16l.92-.53c.17-.1.27-.3.27-.59l.03-12.23c0-1.07.31-1.86.82-2.38.71-.2,1.58-.07,2.53.48l18.16,10.49c.33.19.62.14.78-.08-.04.05-.07.11-.12.14l.92-.53c.17-.1.27-.3.27-.59,0-.58-.41-1.3-.92-1.59Z"/>
                <path class="cls-29" d="m49.92,210.08c.51.29.92,1.01.92,1.59,0,.58-.42.82-.93.53l-18.16-10.49c-1.17-.68-2.23-.74-3.01-.3s-1.25,1.38-1.26,2.73l-.03,12.23c0,.58-.41.83-.93.53-.51-.29-.92-1.01-.92-1.59l.03-12.23c.01-3.87,2.75-5.43,6.12-3.49l18.16,10.49Z"/>
                <g>
                  <path class="cls-16" d="m56.33,207.91l-17.82-10.29c-.64-.37-1.21-.4-1.63-.16l-2.76,1.6c-.41.24-.66.74-.67,1.47,0,1.45,1.02,3.22,2.28,3.95l17.82,10.29c.72.42,1.36.39,1.78.04-.05.04-.1.09-.15.12l2.76-1.6c.41-.24.67-.75.67-1.47,0-1.45-1.02-3.22-2.28-3.95Z"/>
                  <path class="cls-31" d="m53.58,209.51c1.26.73,2.28,2.5,2.28,3.95s-1.03,2.04-2.3,1.31l-17.82-10.29c-1.26-.73-2.28-2.5-2.28-3.95s1.03-2.04,2.3-1.31l17.82,10.29Z"/>
                </g>
              </g>
              <g>
                <polygon class="cls-10" points="246.27 253.4 178.34 214.18 178.34 176.02 246.27 215.24 246.27 253.4"/>
                <polygon class="cls-6" points="178.34 176.02 215.62 197.54 71.66 280.66 34.37 259.14 6.44 275.26 43.73 296.79 74.38 314.48 102.3 298.36 128.2 283.41 127.26 275.71 207.05 229.65 220.37 230.19 246.27 215.24 274.2 199.11 243.55 181.42 206.26 159.89 178.34 176.02"/>
                <polygon class="cls-30" points="74.38 352.64 6.44 313.42 6.44 275.26 74.38 314.48 74.38 352.64"/>
                <polygon class="cls-25" points="127.26 313.87 207.05 267.81 207.05 229.65 127.26 275.71 127.26 313.87"/>
                <polygon class="cls-25" points="74.38 352.64 128.2 321.57 128.2 283.41 74.38 314.48 74.38 352.64"/>
                <polygon class="cls-25" points="220.37 268.35 274.2 237.28 274.2 199.11 220.37 230.19 220.37 268.35"/>
                <polygon class="cls-30" points="220.37 268.35 207.05 267.81 207.05 229.65 220.37 230.19 220.37 268.35"/>
                <polygon class="cls-30" points="246.28 171.4 246.28 209.56 229.64 199.96 192.54 178.54 178.34 170.34 178.34 132.17 185.5 136.31 246.28 171.4"/>
                <polygon class="cls-30" points="217.55 178.11 73.58 261.23 42.93 243.53 186.9 160.41 217.55 178.11"/>
                <g>
                  <g>
                    <path class="cls-33" d="m109.03,225.52c0-.15-.04-.31-.16-.46l-4.91-6.43c-.1-.13-.23-.24-.39-.33-.53-.31-1.35-.41-2.08-.23l-19.94,5.08c-.7.18-1.12.58-1.11,1,0-.01,0,2.39,0,2.39,0,.15.05.3.16.44l4.91,6.43c.1.13.23.24.39.33.53.31,1.35.41,2.08.23l19.94-5.08c.7-.18,1.11-.57,1.11-.99v-2.4s0,.01,0,.02Z"/>
                    <path class="cls-27" d="m103.57,218.3c.16.09.3.2.39.33l4.91,6.43c.42.55,0,1.19-.95,1.43l-19.94,5.08c-.73.19-1.55.08-2.08-.23-.16-.09-.29-.2-.39-.33l-4.91-6.43c-.42-.55,0-1.19.95-1.43l19.94-5.08c.72-.19,1.54-.08,2.08.23Z"/>
                  </g>
                  <g class="cls-22">
                    <polygon class="cls-36" points="121.56 180.03 121.47 213.61 66.31 227.66 66.4 194.07 121.56 180.03"/>
                    <polygon class="cls-36" points="66.4 194.07 66.31 227.66 65.22 226.23 65.31 192.65 66.4 194.07"/>
                    <g>
                      <polygon class="cls-27" points="120.47 178.6 121.56 180.03 66.4 194.07 65.31 192.65 120.47 178.6"/>
                      <polygon class="cls-27" points="120.47 178.6 121.56 180.03 66.4 194.07 65.31 192.65 120.47 178.6"/>
                    </g>
                  </g>
                  <g class="cls-22">
                    <polygon class="cls-24" points="109.04 193.44 108.99 212.09 78.35 219.89 78.4 201.24 109.04 193.44"/>
                    <polygon class="cls-36" points="78.4 201.24 78.35 219.89 77.75 219.1 77.8 200.45 78.4 201.24"/>
                    <g>
                      <polygon class="cls-27" points="108.43 192.65 109.04 193.44 78.4 201.24 77.8 200.45 108.43 192.65"/>
                      <polygon class="cls-27" points="108.43 192.65 109.04 193.44 78.4 201.24 77.8 200.45 108.43 192.65"/>
                    </g>
                  </g>
                  <g class="cls-22">
                    <g>
                      <polygon class="cls-27" points="98.5 210.45 98.41 224.94 90.97 226.84 91.06 212.35 98.5 210.45"/>
                      <polygon class="cls-24" points="98.5 210.45 98.41 224.94 90.97 226.84 91.06 212.35 98.5 210.45"/>
                    </g>
                    <polygon class="cls-33" points="91.06 212.35 90.97 226.84 89.46 224.86 89.97 210.92 91.06 212.35"/>
                    <polygon class="cls-9" points="97.41 209.03 98.5 210.45 91.06 212.35 89.97 210.92 97.41 209.03"/>
                  </g>
                </g>
                <polygon class="cls-18" points="178.34 132.18 215.62 153.71 71.66 236.83 34.37 215.3 6.44 231.42 43.73 252.95 74.38 270.64 102.3 254.52 128.2 239.57 127.26 231.88 207.05 185.81 220.37 186.35 246.27 171.4 274.2 155.28 243.55 137.58 206.26 116.06 178.34 132.18"/>
                <polygon class="cls-30" points="74.37 270.64 74.37 308.81 6.44 269.59 6.44 231.42 13.62 235.57 74.37 270.64"/>
                <polygon class="cls-25" points="127.26 270.04 207.05 223.97 207.05 185.81 127.26 231.88 127.26 270.04"/>
                <polygon class="cls-25" points="74.38 308.81 128.2 277.73 128.2 239.57 74.38 270.64 74.38 308.81"/>
                <polygon class="cls-25" points="274.19 155.28 274.19 193.44 220.37 224.51 220.37 186.34 268.07 158.82 274.19 155.28"/>
                <polygon class="cls-30" points="220.37 224.51 207.05 223.97 207.05 185.81 220.37 186.35 220.37 224.51"/>
                <polygon class="cls-4" points="274.19 161.9 274.19 174.26 246.28 190.36 229.64 199.96 221.17 204.86 220.36 204.81 207.84 204.31 128.19 250.3 128.19 258.52 74.37 289.6 6.43 250.38 6.43 238.6 13.61 235.57 34.36 226.82 71.66 248.35 192.54 178.54 209.17 168.94 178.34 151.16 178.34 139.34 185.5 136.31 206.25 127.57 268.06 158.81 274.19 161.9"/>
                <g>
                  <polygon class="cls-10" points="0 236.64 0 231.27 34.37 216.79 71.66 238.32 209.18 158.92 171.89 137.39 171.89 132.03 206.26 117.55 280.64 155.13 280.64 160.49 221.18 194.82 207.85 194.28 130.72 238.81 131.66 241.14 131.66 246.51 74.38 279.58 0 236.64"/>
                  <polygon class="cls-6" points="0 231.27 34.37 211.43 71.66 232.96 209.18 153.56 171.89 132.03 206.26 112.19 280.64 155.13 221.18 189.46 207.85 188.92 130.72 233.45 131.66 241.14 74.38 274.22 0 231.27"/>
                </g>
              </g>
              <g>
                <polygon class="cls-8" points="221.18 122.49 194.71 137.79 182.79 130.92 209.26 115.61 221.18 122.49"/>
                <g>
                  <polygon class="cls-17" points="221.18 122.54 194.71 137.79 188.42 101.36 214.89 86.11 221.18 122.54"/>
                  <polygon class="cls-8" points="217.75 120.33 196.81 132.39 191.84 103.58 212.78 91.51 217.75 120.33"/>
                  <g>
                    <polygon class="cls-12" points="210.45 97.54 195.98 105.88 195.59 103.6 210.06 95.26 210.45 97.54"/>
                    <polygon points="211.13 101.46 196.66 109.8 196.46 108.66 210.93 100.32 211.13 101.46"/>
                    <polygon points="208.63 106.03 197.15 112.65 196.95 111.51 208.43 104.89 208.63 106.03"/>
                    <polygon points="212.11 107.15 197.64 115.49 197.44 114.35 211.92 106.01 212.11 107.15"/>
                    <polygon points="207.46 112.96 198.13 118.33 197.94 117.2 207.26 111.82 207.46 112.96"/>
                    <polygon points="211.7 113.65 198.62 121.18 198.43 120.04 211.5 112.51 211.7 113.65"/>
                    <polygon points="213.59 115.69 199.12 124.02 198.92 122.89 213.39 114.55 213.59 115.69"/>
                    <polygon points="211.09 120.25 199.61 126.87 199.41 125.73 210.89 119.11 211.09 120.25"/>
                  </g>
                </g>
              </g>
              <path class="cls-8" d="m182.94,192.7l-9.1,5.25c-.62.36-1.62.36-2.24,0l-15.11-8.72c-.62-.36-.62-.94,0-1.29l9.1-5.25c.62-.36,1.62-.36,2.24,0l15.11,8.72c.62.36.62.94,0,1.29Z"/>
            </g>
            <g>
              <rect x="236.81" y="226.95" width="31.32" height="2.29" transform="translate(-86.82 202.58) rotate(-37.8)"/>
              <path class="cls-7" d="m242.61,233.75c.07.56.21,1.11.21,1.67,0,1.13-.58,2.18-.67,3.3,0,.12-.01.25.06.34.08.1.22.12.34.18.3.14.44.5.41.83-.02.33-.17.63-.32.92-.36.7-.71,1.41-1.07,2.11-.19.37-.4.77-.77.96-.28.15-.63.15-.9.31-.49.29-.68,1.01-1.23,1.12-.23.04-.47-.03-.69.05-.18.07-.31.23-.45.37-.83.78-2.16.46-3.24.09-.68-.23-1.41-.51-1.77-1.12-.26-.43-.28-.96-.34-1.46-.1-.84-.33-1.67-.37-2.51-.06-1.67.66-3.28,1.5-4.72,1.25-2.15,2.83-4.14,3.62-6.5.11-.34.21-.69.42-.98.42-.57,1.18-.78,1.89-.79,1.12-.02,3.23.53,3.76,1.68.26.56-.12,1.06-.26,1.63-.21.82-.25,1.69-.14,2.54Z"/>
              <path d="m272.1,303.34c-6.04,1.26-7.01,5.96-4.71,10.04l6.8,9.62c2.55,4.43,5.98,6.52,10.46,5.77,5.6.15,5.08-7.86,3.96-10.99l-.73-3.13-4.06-12.36-11.71,1.05Z"/>
              <path class="cls-19" d="m289.23,316.37c-1.88,6.4-12.07,6.17-12.88-2.39l-3.52-25.46s-1.88-10.39-1.88-10.39l-6.83-28.13-1.48-6.16,4.83-29.74,24.36-1.12s-4.27,56.79-4.29,58.84c2.26,13.93,2.5,29.92,1.69,44.56Z"/>
              <g>
                <path d="m270.94,327.58c2.09,3.53,1.13,9.42-.1,12.09-3.65,1.37-6.71,1.65-8.83.19-6.9-.41-10.76.51-14.31-.5-3.78-1.07-6.35-2.21-8.28-5.98-.75-1.68.28-4.84,3.35-5.31,5.73-.23,10.88-.7,13.69-2.11l4.9-8.95,8.89,7.01.7,3.55Z"/>
                <path class="cls-13" d="m248.55,276.38l2.96,18.69.98,9.15.09.7s.03.27.05.39l2.57,19.62c.23,1.35.92,2.39,1.91,3.15,3.74,2.9,11.77,1.89,15.58-.96-1.44-15.87.56-36.21-4.95-53.21-.08-1.47,2.46-21.9,2.74-24.39.05-.03,1.58-9.07,1.63-9.09,20.34-4.73,20.04-18.12,19.71-25.19-.16-3.45-15.14-2.19-16.14-5.47-.02-.07-.03-.13-.05-.19-.03-.12-.03-.22-.02-.34l-24.97,2.94c-.02.33-.05.68-.07,1.03-.97,13.63-4.1,47.59-2.03,63.18Z"/>
              </g>
              <path class="cls-5" d="m248.55,276.38l2.96,18.69.98,9.15.09.7s.03.27.05.39l2.57,19.62c.23,1.35.92,2.39,1.91,3.15-.12-7.52-.64-39.3-1.44-57.03-.93-20.36,2.45-46.95,2.45-46.95l-7.54-10.9c-.97,13.63-4.1,47.59-2.03,63.18Z"/>
              <polygon class="cls-7" points="270.57 162.57 271.36 143.74 283.38 138.23 286.42 153.61 270.57 162.57"/>
              <path class="cls-23" d="m249.76,211.27c.09,2.76.26,6.15,2.1,8.31,1.63,1.92,3.6,3.36,5.82,4.37.1.06.2.1.31.15,8.71,3.84,20.9,1.3,29.94-4,4.33-2.54,4.78-7.49,5.19-12.64.64-7.98,5.43-30.63,6.5-35.29,3.37-12.01.86-24.92-7.85-24.21-11.96,3.48-24.42,8.38-36.76,17.26-2.28,2.68,1.4,9.89-.09,14.84-2.66,8.89-5.51,19.96-5.16,31.2Z"/>
              <path class="cls-7" d="m272.64,151.79l-3.14-1.36c-2.2-.95-3.85-2.82-4.52-5.12-1.21-4.13-2.54-10.86-.32-15.75,3.42-7.54,8.08-9.22,15.5-6.54,7.41,2.68,10.2,8.28,7.92,16.48-2.27,8.2-4.35,7.07-4.35,7.07l-11.08,5.22Z"/>
              <path d="m263.86,132.02l3.78,5.24,1.22,4.35,1.25,1.82.57,2.66c.45,2.1,2.34,3.57,4.49,3.49,2.61-.09,6.23-.8,9.78-3.39,0,0,2.96-1.93,4.14-9.42,1.18-7.5-3.1-11.8-5.11-12.92-2.01-1.11-12.68-6.28-18.38-1.35-6.31,5.47-1.75,9.52-1.75,9.52Z"/>
              <path class="cls-7" d="m269.81,138.51c.39.02.75.26.99.58.24.31.38.69.49,1.07.42,1.46.48,3.02.17,4.51-.08.39-.19.78-.42,1.1-.23.32-.59.57-.99.57-.38,0-.73-.24-.96-.55-.23-.31-.35-.68-.45-1.05-.36-1.25-1.6-6.37,1.16-6.22Z"/>
              <path class="cls-11" d="m249.76,211.27c.09,2.76.26,6.15,2.1,8.31,1.63,1.92,3.6,3.36,5.82,4.37.16.04.31.09.45.15,7.23-19.26,2.67-34.09,6.72-46.92l-9.92,2.88c-2.66,8.89-5.51,19.96-5.16,31.2Z"/>
              <g>
                <g>
                  <path class="cls-21" d="m201.27,321.4c-1.64,3.77-2.24,4.79-6.14,4.01-3.29-.66-3.71-3.98-2.93-5,.63-.83,1.79-.98,2.83-1,.68,0,.97-.09,1.28-.83.65-1.58-.23-5.19-.41-6.11-.13-.67-1.34-3.25-1.66-3.86-.83-1.57-1.16-3.24-1.7-4.93,1.37.5,4.33,3.48,5.7,3.98,1.2.43,1.23-5.73,2.27-5,.81.57,2.06,6.96,2.13,7.86.33,3.97.69,6.17-1.36,10.89Z"/>
                  <path class="cls-21" d="m240.63,323.2c.22,7.29,5.26,12.34,7.26,14.44,1,1.05,2.11,2.02,2.89,3.23,1.35,2.1,1.55,4.64,2.17,7.01.48,1.86.82,4.18,1.2,6.06,1.11,5.4-3.93,7.02-7.58,4.32-3.53-2.62-1.31-5.91.9-5.86-1.8-6.47-1.47-6.96-5.39-9.79-4.77-3.43-9.74-7.01-12.68-12.08-4.32-7.43,11.2-8.51,11.24-7.32Z"/>
                  <path class="cls-32" d="m162.08,255.82c.62.99,2.38,3.14,4.31,5.52,2.21,2.7,4.64,5.68,5.87,7.48,1.88,2.74,2.94,6.11,3.66,9.89.03.15.06.32.09.47.11.57.22,1.14.29,1.72.28,1.72.48,3.49.7,5.33.1.93.2,1.84.3,2.79.98,9.16,5.24,3.94,5.39,4.08.25.27.19-2.68.55-2.65,4.17.32,3.53-2.47,7.6-3.41,2.24-.51,4.44-1.45,6.29-2.84.91-.68,2.54,2.1,3.23,1.19,1.01-1.34,1.95-3.17.91-4.27-2.47-2.59-5.07-6.09-6.94-9.62-.63-1.23-1.18-2.45-1.62-3.64-.1-.29-.2-.58-.29-.87-1.57-4.96-2.8-10.21-6-14.3-1.86-2.41-3.44-3.59-5.72-4.31-1.83-.6-3.49-.89-5.58-.94-.39-.01-.8-.01-1.22-.01-1.31.04-2.89,1.46-4.16,1.15-1.39-.37-2.56-1.37-3.89-1.93-1.34-.56-3.55-.2-4.44.95-1.38,1.76-.53,6.33.66,8.23Z"/>
                  <path class="cls-32" d="m176.5,283.06c.03,6.43.15,13,2.4,19.02.37.98.8,1.95,1.51,2.71.55.56,1.19.96,1.9,1.31.47.23.95.42,1.43.6,9.28,3.58,19.16,6.4,26.78,12.78,1.15.98,2.24,2.02,3.32,3.07,1.13,1.1,2.23,2.23,3.37,3.31.47.44.93.88,1.41,1.29,2.8,2.46,6.07,4.58,9.75,5.15.1.01.19.03.29.03,1.36.19,2.75.13,4.06-.32.53-.18,1.03-.42,1.5-.71.47-.29.91-.62,1.33-.98.34-.29.65-.58.95-.89.51-.51.99-1.07,1.45-1.61,1-1.18,1.97-2.43,2.47-3.89.25-.75.39-1.6.43-2.54.06-1.1,0-2.3-.18-3.53-.03-.16-.05-.34-.08-.51-.11-.67-.25-1.34-.41-2.02-.8-3.44-2.16-6.72-3.36-8.39-4.81-6.64-12.24-10.54-17.93-16.43-4.34-4.5-5.69-5.52-12.55-10.46-7.61-5.48-10.61-7.34-12.33-8.46-1.23-.81-1.78-1.24-2.89-2.36-1.1-1.1-2.37-1.17-3.87-1.32-4.51-.44-8.04,1.57-9.68,5.92-1.09,2.92-1.1,6.1-1.09,9.22Z"/>
                  <path class="cls-20" d="m182.32,306.09c.46.23.95.42,1.43.61,9.28,3.57,19.15,6.39,26.77,12.78,2.37,1.97,4.45,4.26,6.7,6.38.58-.11,1.1-.33,1.39-.71.81-1.04-.23-1.91-.96-2.89-1.61-2.14-3.49-4.07-5.54-5.8-4.11-3.46-8.87-6.09-13.81-8.18-1.53-.64-3.1-1.25-4.48-2.17-1.12-.75-2.1-1.71-3.06-2.66-3.31-3.24-6.7-6.65-8.34-10.98-.03,4.54-.06,9.09-.1,13.63Z"/>
                  <path class="cls-32" d="m166.19,330.15c4.44,1.38,6-1.6,8.43-5.54,2.61-4.21,5.19-6.64,9.16-9.62.71-.53,1.46-1.05,1.9-1.83.39-.66.41-1.46.62-2.19,2.13-7.14,3.53-9.27,3.53-13.5-1.66-2.89-4.51-7.84-7.58-9.13-1.15-.48-3.04,3.04-4.41,3.97-.33.24-.62.3-.87.14.43,3.92.85,7.95-.16,11.77-.61,2.3-1.71,4.43-2.8,6.53-1.19,2.31-2.14,4.49-3.14,6.7-.57,1.26-1.17,2.51-1.85,3.82-.48.93-1.58,2.99-2.62,2.93-5.43-.39-4.06,4.77-.18,5.97Z"/>
                  <path class="cls-32" d="m213.17,319.36c.29,1.05.51,2.12.67,3.18,1.13,7.23-.13,14.68,3.09,21.11,2.54,5.03,7.2,8.6,11.69,12.01,3.68,2.8,3.31,3.3,4.58,9.73-2.22-.04-4.7,3.23-1.39,5.83,3.42,2.69,8.6,1.08,7.94-4.3-.23-1.86-.37-4.16-.7-6.01-.25-1.45-.35-2.95-.66-4.4-.19-.9-.47-1.76-.93-2.57-.68-1.2-1.71-2.17-2.62-3.21-1.81-2.08-5.01-7.2-5.11-8.31-.04-.49.35-2.03,1.1-3.93.67-1.69,1.58-3.64,2.73-5.44.61-.99,1.28-1.93,1.99-2.74.48-.53.14-1.17-.48-1.83-.74-.79-1.84-1.61-2.42-2.33-.09-.09-.15-.16-.2-.25-1.83-2.75-4.45-5-7.49-6.31-4.31-1.85-18.58-19.45-11.78-.23Z"/>
                  <path class="cls-19" d="m187.95,254.93l-1.39-13.67-5.85,7.1c-.18,2.74.74,4.91,2.62,6.57,2,.64,3.62.75,4.62,0Z"/>
                  <path class="cls-20" d="m161.74,254.95l.34.88c1.33,2.07,7.87,9.61,10.19,13,1.88,2.73,2.94,6.11,3.66,9.89.03.16.07.32.09.47.11.56.21,1.14.29,1.72l2.13-3.72c-4.61-9.36-5.12-14.98-5.12-14.98-5.37-.87-11.24-6.89-11.58-7.26Z"/>
                  <path class="cls-20" d="m233.57,333.04c.61-.98,1.28-1.91,1.99-2.73.89-.76,1.67-1.62,2.4-2.5,1-1.18,1.97-2.43,2.47-3.89.56-1.62.57-3.79.25-6.06-2.27-.3-4.77.76-4.77.76,0,0,.7,3.92-.84,9.87-.23.89-.51,1.83-.85,2.8-.2.57-.42,1.15-.66,1.75Z"/>
                  <path class="cls-32" d="m235.91,318.63s1.93,1.33,4.95,2.76c8.76,4.11,26.64,8.94,32.89-16.03-.16.19-.34.37-.53.56-5.5,5.44-22.88,12.77-33.02,9.42-1.24-.39-2.37-.96-3.36-1.71l-.25,1.37-.67,3.63Z"/>
                  <path class="cls-19" d="m175.47,252.47l-4.46-.93-.93,9.8c2.49,1.44,4.4,2,6.21,0,1.41-2.17,1.06-6.84-.83-8.87Z"/>
                </g>
                <path class="cls-19" d="m179.98,280.94c.96.41,2.05.25,3.09.16,1.04-.08,2.21-.03,2.98.67,1.33,1.22,2.11,4.71,2.1,6.51-.05,3.37,1.4,8.08,3.71,10.53,2.89,3.08,5.45,2.98,9.14,5.02,3.49,1.93,6.48,4.49,10.37,5.31,5.06,1.07,9.16,3.32,14.22,4.36,3.28.67,8.77-.95,10.99,1.48.51.56.94,1.17,1.29,1.85.89.29,1.01.89,1.93.95,1.24.11,2.88,1.65,4.12,1.61,2.28-.08,5.11.22,7.4.14,2.07-.06,5.26-.52,7.29-.87,6.52-1.08,11.19-7.12,14.6-12.77-5.5,5.44-22.88,12.77-33.02,9.42-.8-3.44-2.16-6.72-3.36-8.39-4.81-6.64-12.24-10.54-17.93-16.43-4.34-4.5-5.69-5.52-12.55-10.46-7.61-5.48-10.3-7.44-12.01-8.56-1.6-4.61-3.87-2.99-5.36-2.16-2.95,1.66-5.81,6.97-8.93,8.28-.44.19-.89.41-1.15.8-.58.86.11,2.12,1.08,2.52Z"/>
                <path class="cls-19" d="m162.08,255.82c.62.99,2.38,3.14,4.31,5.52.1-.11.19-.25.28-.38.72-1.12,1.1-2.46,1.07-3.79-.03-.82-.22-1.64-.18-2.46.08-2.4,2.05-4.5,4.39-5.07.94-.22,3.69-.72,3.18-2.21-.39-.01-.8-.01-1.22-.01-1.31.04-2.89,1.46-4.16,1.15-1.39-.37-2.56-1.37-3.89-1.93-1.34-.56-3.55-.2-4.44.95-1.38,1.76-.53,6.33.66,8.23Z"/>
                <path class="cls-20" d="m170.35,319.41c2.56-2.51,4.06-5.88,5.5-9.17.84-1.9,1.67-3.8,2.51-5.71.66-1.47,1.32-2.99,1.43-4.59.13-1.84-.47-3.58-1.15-5.25-.22-.49-.48-1.45-.81-2.4-.33.24-.62.3-.87.14.43,3.92.85,7.95-.16,11.77-.61,2.3-1.71,4.43-2.8,6.53-1.19,2.31-2.14,4.49-3.14,6.7-.16.66-.33,1.32-.49,1.98Z"/>
                <path class="cls-20" d="m227.59,345.69c1.22,1.74,3.09,2.88,4.78,4.16,2.56,1.95,4.32,4.24,6.02,6.67-.19-.9-.47-1.76-.93-2.57-.68-1.2-1.71-2.17-2.62-3.21-1.81-2.08-5.01-7.2-5.11-8.31-.04-.49.35-2.03,1.1-3.93.67-1.69,1.58-3.64,2.73-5.44.61-.99,1.28-1.93,1.99-2.74.34-.29.65-.58.95-.89.44-3.31.5-7.65-.59-10.81-.48,2.37-1.99,5.47-3.26,7.54-.42.67-.85,1.33-1.28,1.98-.93,1.37-1.86,2.75-2.7,4.18-.77,1.32-1.46,2.7-1.94,4.16-.99,3.04-.98,6.59.86,9.21Z"/>
                <path class="cls-20" d="m184.21,269.66c.14-.24.26-.53.12-.77-.07-.12-.21-.2-.35-.25-.65-.23-1.39,0-1.98.37-.59.37-1.07.88-1.64,1.28-1.39,1-3.26,1.3-4.9.79-.13-.04-.29-.08-.41,0-.09.07-.11.19-.11.31-.1,1.28.07,4.25.87,5.34.95,1.28,1.31.39,2.36-.72,1.99-2.08,4.56-3.84,6.02-6.35Z"/>
                <path class="cls-31" d="m176.02,279.19c.42,2.22.2,4.19.48,6.64,1.09-3.74,3.38-6.57,5.71-9.05,3.06-3.27,7.11-5.2,11.11-5.31.29,0,.64,0,1.03.03-.64-1.22-1.19-2.43-1.62-3.63-4.8.26-9.58,2.59-13.18,6.43-1.35,1.44-2.53,3.09-3.53,4.9Z"/>
              </g>
              <path class="cls-23" d="m264.85,177.19s-4.66,23.69-6.69,27.64-9.75,23.3-15.72,27.38c0,0-4.22,2.47-5.68-1.75-1.46-4.22,9.17-29.55,9.17-29.55l3.93-27.65s1.6-10.19,9.75-8.44c8.15,1.75,5.24,12.37,5.24,12.37Z"/>
              <path class="cls-23" d="m286.42,149.85s8.65-5.39,16.55,1.02c7.9,6.4,17.22,17.32,16.63,24.16s-14.77,14.15-14.77,14.15l-13.48,7.97-2.74-9.04,16.52-13.18-11.58-13.44-7.13-11.64Z"/>
              <rect x="188.48" y="254.86" width="50.17" height="2.29" transform="translate(-104.3 155.47) rotate(-32.61)"/>
            </g>
          </g>
          <path class="cls-10" d="m145.74,8.37c0-1.88-.67-3.2-1.74-3.81,0,0-7.14-4.15-7.14-4.15-1.08-.63-2.57-.54-4.23.41L20.97,65.28c-3.28,1.9-5.93,6.49-5.92,10.25l.08,28.12c0,1.87.66,3.19,1.73,3.8l7.15,4.15c-.07-.04-.13-.09-.19-.13,1.09.76,2.66.73,4.42-.28l111.66-64.47c3.28-1.9,5.93-6.48,5.92-10.25l-.08-28.12Z"/>
          <path class="cls-6" d="m139.78,4.97c3.28-1.9,5.95-.37,5.96,3.4l.08,28.12c.01,3.77-2.64,8.35-5.92,10.25L28.24,111.19c-3.28,1.9-5.95.38-5.96-3.39l-.08-28.12c-.01-3.77,2.64-8.36,5.92-10.25L139.78,4.97Z"/>
          <g>
            <path class="cls-25" d="m54.54,74.2c0,2.62-.79,5.51-2.14,8.31-2.1,4.37-5.58,8.54-9.57,11.17-.34.23-.69.45-1.05.65-7.05,4.07-12.77,1.66-12.77-5.4s5.71-16.06,12.77-20.13c7.05-4.07,12.76-1.65,12.76,5.39Z"/>
            <path class="cls-8" d="m52.73,75.24c0,2.25-.67,4.72-1.83,7.13-1.81,3.75-4.79,7.33-8.22,9.59-.29.2-.6.38-.9.56-6.05,3.49-10.96,1.42-10.96-4.63s4.9-13.78,10.96-17.28c6.05-3.49,10.95-1.42,10.95,4.63Z"/>
            <path class="cls-25" d="m50.9,82.38c-1.81,3.75-4.79,7.33-8.22,9.59-.55-1.98-1.37-5.08-3.01-4-.9.6-3.1,2.18-4.77,2.88-1.03.43-1.69-.33-2.03-.97-.22-.39,0-1.1.49-1.66,1.16-1.31,2.68-3.26,4.19-4.91.69-1.09.65-2.41,1.5-3.37.85-.95,3.4-3.74,3.4-3.74l.07-3.5,1.48,1.6.84-3.07c.89.51,2.69,6.06,3.55,8.34.46,1.22,1.54,2.17,2.51,2.81Z"/>
            <g>
              <path class="cls-8" d="m73.25,71.29c-.72.77-2.33,2.09-4.43,3.3-5.97,3.45-9.05,1.51-9.05-3.41,0-5.89,4.2-11.6,9.43-14.62,2.02-1.17,3.56-1.65,4.25-1.69l-.79,3.56c-.79.13-1.9.45-3.28,1.25-3.1,1.79-5.51,5.05-5.51,8.9,0,3.46,2.05,4.45,5.54,2.44,1.18-.68,2.49-1.69,3.26-2.44l.59,2.71Z"/>
              <path class="cls-8" d="m75.81,53.02l3.92-2.26v13.99l6.87-3.97v3.28l-10.79,6.23v-17.27Z"/>
              <path class="cls-8" d="m92.83,43.19v17.27l-3.92,2.26v-17.27l3.92-2.26Z"/>
              <path class="cls-8" d="m96.21,58.51v-17.27l4.56-2.63,3.59,4.26c1.03,1.23,2.05,2.79,2.82,4.29l.08-.04c-.26-2.13-.33-4.42-.33-7.01v-5.05l3.59-2.07v17.27l-4.1,2.37-3.69-4.53c-1.03-1.25-2.15-2.83-3-4.37l-.08.07c.1,2.22.15,4.63.15,7.45v5.2l-3.59,2.07Z"/>
              <path class="cls-8" d="m117.82,28.76v17.27l-3.92,2.26v-17.27l3.92-2.26Z"/>
              <path class="cls-8" d="m133.89,36.27c-.72.77-2.33,2.09-4.43,3.3-5.97,3.45-9.05,1.51-9.05-3.41,0-5.89,4.2-11.6,9.43-14.62,2.02-1.17,3.56-1.65,4.25-1.69l-.79,3.56c-.79.13-1.9.45-3.28,1.25-3.1,1.79-5.51,5.05-5.51,8.9,0,3.46,2.05,4.45,5.54,2.44,1.18-.68,2.49-1.69,3.26-2.44l.59,2.71Z"/>
            </g>
          </g>
        </g>
      </g>
    </g>
  </g>
</svg>