<?xml version="1.0" encoding="UTF-8"?>
<svg id="Layer_2" data-name="Layer 2" xmlns="http://www.w3.org/2000/svg" viewBox="0 0 124.83 140.11">
  <defs>
    <style>
      .cls-1 {
        fill: #fff;
      }

      .cls-2 {
        fill: #e4e8ef;
      }

      .cls-3 {
        fill: #efc3ac;
      }

      .cls-4 {
        fill: #a0a8ba;
      }

      .cls-5 {
        fill: #6382c6;
      }

      .cls-6 {
        fill: #ffc5b3;
      }

      .cls-7 {
        fill: #ffaf73;
      }

      .cls-8 {
        fill: #ef8c41;
      }

      .cls-9 {
        fill: #ffe0ce;
      }

      .cls-10 {
        fill: #cc9481;
      }

      .cls-11 {
        fill: #ffab95;
      }

      .cls-12 {
        fill: #f23b3b;
      }

      .cls-13 {
        fill: #fca051;
      }

      .cls-14 {
        fill: #ff5252;
      }

      .cls-15 {
        fill: #cad1db;
      }

      .cls-16 {
        fill: #7fa0dd;
      }

      .cls-17 {
        fill: #492e2e;
      }

      .cls-18 {
        fill: #d8a58f;
      }
    </style>
  </defs>
  <g id="Layer_1-2" data-name="Layer 1">
    <g>
      <g>
        <g>
          <g>
            <path class="cls-6" d="m81.17,89.75l-5.06.97s.23,1.49,0,2.65c-.45,2.3-1.44,3.15-1.44,3.15,0,0,2.77,1.82,4.45,1.83,1.68,0,3.03-3.04,2.64-4.36-.39-1.32-.59-4.24-.59-4.24Z"/>
            <path class="cls-3" d="m81.65,94.05s-.31,1.19-2.37,2.35c-1.55.87-3.81-1.08-3.81-1.08,0,0-1.78,2.54-3.28,4.23-1.76,1.97-2.51,2.44-2.92,3.52-.42,1.08,1.56,3.68,4.99,1.7,3.43-1.98,4.04-2.54,5.2-3.61,1.51-1.39,3.07-2.31,3.31-4.3.21-1.72-1.12-2.8-1.12-2.8Z"/>
            <path class="cls-10" d="m81.38,98.16c-.75,1.38-1.89,2.67-3.78,3.96-1.89,1.29-3.78,3.37-5.76,2.48-.29-.13-2.57-1.53-2.57-1.53-.27.9-.19,1.39.32,1.89,2.16,2.16,5.99-.71,6.75-1.17.9-.54,4.05-2.84,5.99-4.02,1.6-.97.47-3.63.47-3.63,0,0-.67.64-1.42,2.02Z"/>
            <path class="cls-4" d="m74.17,97.1l-.58.76s.8.44.99.65c.55.6,1.73,1.78,1.73,1.78l.7-.52s-.43-.62-1.1-1.39c-.85-.97-1.74-1.29-1.74-1.29Z"/>
            <path class="cls-10" d="m72.92,98.69l-.61.72s.87.53,1.06.74c.55.6,1.57,1.68,1.57,1.68l.62-.68s-.19-.36-.86-1.13c-.85-.97-1.78-1.33-1.78-1.33Z"/>
          </g>
          <g>
            <path class="cls-6" d="m100.37,100.95l-5.06.97s.23,1.49,0,2.65c-.45,2.3-1.44,3.15-1.44,3.15,0,0,2.77,1.82,4.45,1.83,1.68,0,3.03-3.04,2.64-4.36-.39-1.32-.59-4.24-.59-4.24Z"/>
            <path class="cls-3" d="m100.96,105.18s-.31,1.19-2.37,2.35c-1.55.87-3.98-.87-3.98-.87,0,0-1.61,2.33-3.11,4.02-1.76,1.97-2.51,2.44-2.92,3.52-.42,1.08,1.56,3.68,4.99,1.7,3.43-1.98,4.04-2.54,5.2-3.61,1.51-1.39,3.07-2.31,3.31-4.3.21-1.72-1.12-2.8-1.12-2.8Z"/>
            <path class="cls-10" d="m100.68,109.29c-.75,1.38-1.89,2.67-3.78,3.96-1.89,1.29-3.78,3.37-5.76,2.48-.29-.13-2.57-1.53-2.57-1.53-.27.9-.18,1.39.32,1.89,2.16,2.16,5.99-.71,6.75-1.17.9-.54,4.05-2.84,5.99-4.02,1.6-.97.47-3.63.47-3.63,0,0-.67.64-1.42,2.02Z"/>
            <path class="cls-10" d="m93.48,108.23l-.58.76s.8.44.99.65c.55.6,1.73,1.78,1.73,1.78l.7-.52s-.43-.62-1.1-1.39c-.85-.97-1.74-1.29-1.74-1.29Z"/>
            <path class="cls-10" d="m92.22,109.83l-.61.72s.87.53,1.06.74c.55.6,1.57,1.68,1.57,1.68l.62-.68s-.18-.36-.86-1.13c-.85-.97-1.78-1.33-1.78-1.33Z"/>
          </g>
          <path class="cls-5" d="m100.22,54.19c.57-8.86-8.61-15.87-8.61-15.87.39-2.99-13.36,6.45-13.36,6.45,0,0-.94,11.48-2.19,19.94-1.42,9.61-1.69,28.81-1.69,28.81,0,0,1.3,2.46,4.88,2.45,2.75-.01,4.77-2.42,4.77-2.42l.28-22.27,3.18-15.8s1.56,16.94,2.44,23.37c.68,4.96,2.94,26.36,2.94,26.36,0,0,3.32,2,6.81,1.34,2.79-.53,3.7-3.66,3.7-3.66,0,0,.39-14.04-3.7-23.25-.34-6.99.28-21.38.54-25.45Z"/>
        </g>
        <g>
          <path class="cls-11" d="m62.07,32.35c1.25,1.7,1.95,4.92,2.07,4.88,4.82-1.83,9.69-7.46,9.69-7.46l-4.66-5.28s-2.34,3.18-7.11,7.86Z"/>
          <path class="cls-5" d="m74.52,15.92s-2.4-.5-4.75,3.55c-1.08,1.87-2.86,4.19-4.19,7.07,1.89,1.96,6.22,4.74,8.62,4.26.04-.05.09-.07.16-.03,0,0,0,0,0,0,3.35-4.95,3.85-13.83.16-14.85Z"/>
          <path class="cls-16" d="m89.75,20.51c-.94-2.4-7.7-4.59-7.7-4.59,0,0-5.33-.82-9.07,1.83,0,0-3.47,2.55-1.97,10.66.34,1.82,1.3,9.33,2.39,12.87.93,3.03,2,5.78,2.16,7.8.36,4.66.38,8.09.38,8.09,0,0,10.58,4.26,17.3,2.01,4-1.34,8.87-6.18,8.87-6.18-3.62-10.27-4.23-6.86-6.64-15.25-2.29-7.95-5.26-16.09-5.71-17.23Z"/>
          <g>
            <path class="cls-11" d="m79.97,10.33l-4.51,5.99-.38,5s-.49,4.1.5,5.23c2.74-1.93,6.96-10.29,6.47-10.63l-2.08-5.58Z"/>
            <path class="cls-5" d="m78.46,21.42c-.67.9-2.83,3.85-2.83,3.85,0,0,0-1.89.06-4.11.04-1.94.47-4.88.47-4.88l-1.84,1.34s-.46,3.46-.42,6.33c.04,2.43,1.21,4.93,1.21,4.93,0,0,3.55-4.57,4.73-6.02,1.67-2.06,4.3-6.1,4.3-6.1l-2.09-.84s-2.11,3.54-3.58,5.51Z"/>
            <path class="cls-6" d="m78.3,3.75c-2.06-1.53-6.89-1.96-8.59,3.05-1.78,5.25,3.03,11.72,5.54,10.58,1.4-.64,4.35-2.88,5.15-5.65.9-3.11-.5-6.8-2.1-7.98Z"/>
            <path class="cls-17" d="m78.06,1.43c-1.83-2.46-4.26-1.18-5.79-.34-1.54.84-3.49,2.39-4.54,3.92.29,1.21.67,2.53,1.49,3.91,1.39.26,5.37.45,7.58-.84-.51.95-.04,2.01.42,2.93,0,0,.56-1.35,1.74-1.13.76.14.73,1.28.73,1.28,0,0,.56,2.09,1.47,2.84.51-.78,1.05-5.86,1-7.29-.06-1.99-.44-4.93-4.11-5.28Z"/>
          </g>
          <path class="cls-6" d="m78.75,41.59c-.7,1.22-5.15,2.9-7.93,3.87-1.8.62-1.78,3.73-.7,4.83,2.73-.95,9.17-2.06,10.56-2.85,3.47-1.97,4.27-4.64,6.27-9.01,1.35-2.94,2.54-7.04,2.54-7.04l-7.8-.91s-1.52,8.61-2.95,11.11Z"/>
          <path class="cls-5" d="m82.66,25.38c-.89,1.95-1.44,4.58-1.79,6.93.41.26.84.51,1.3.71,2.36,1.02,5.51,1.38,8.09.6,1.68-6.33,1.89-10.58-.51-13.12-2.98-3.14-5.59,1.59-7.09,4.87Z"/>
          <polygon class="cls-1" points="70.84 27.36 73.32 27.81 73.54 26.59 70.69 26.08 70.84 27.36"/>
        </g>
      </g>
      <g>
        <g>
          <polygon class="cls-9" points="6.42 88.38 12.28 91.8 34.92 78.67 28.97 75.3 6.42 88.38"/>
          <polygon class="cls-3" points="6.42 90.07 12.28 93.62 12.28 91.8 6.42 88.38 6.42 90.07"/>
          <polygon class="cls-18" points="12.23 93.62 34.92 80.36 34.92 78.67 12.23 91.8 12.23 93.62"/>
        </g>
        <g>
          <polygon class="cls-9" points="20.15 85.72 98.82 131.33 102.6 129.12 24.01 83.55 20.15 85.72"/>
          <polygon class="cls-3" points="21.53 87.93 96.93 131.73 96.93 130.17 21.53 86.5 21.53 87.93"/>
        </g>
        <g>
          <polygon class="cls-9" points="86.63 134.88 92.5 138.3 115.14 125.17 109.19 121.79 86.63 134.88"/>
          <polygon class="cls-3" points="86.63 136.57 92.5 140.11 92.5 138.3 86.63 134.88 86.63 136.57"/>
          <polygon class="cls-18" points="92.45 140.11 115.14 126.85 115.14 125.17 92.45 138.3 92.45 140.11"/>
        </g>
        <g>
          <polygon class="cls-10" points="98.79 132.67 104.76 129.22 104.76 91.03 98.79 94.92 98.79 132.67"/>
          <polygon class="cls-18" points="96.58 131.4 98.79 132.67 98.79 93.3 96.58 93.62 96.58 131.4"/>
        </g>
        <g>
          <polygon class="cls-10" points="18.78 85.78 24.75 82.33 24.75 44.13 18.78 48.03 18.78 85.78"/>
          <polygon class="cls-18" points="16.58 84.5 18.78 85.78 18.78 48.03 16.58 48.03 16.58 84.5"/>
        </g>
        <g>
          <polygon class="cls-3" points="0 56.53 88.1 107.51 88.1 105.96 0 54.99 0 56.53"/>
          <polygon class="cls-18" points="88.1 107.51 124.83 86.25 124.83 84.71 88.1 105.96 88.1 107.51"/>
        </g>
        <path class="cls-9" d="m0,54.99l88.1,50.98,36.73-21.26L36.8,33.77,0,54.99Zm114.85,29.32c1.33,0,2.47.41,2.95,1-.48.59-1.62,1-2.95,1s-2.47-.41-2.95-1c.48-.59,1.62-1,2.95-1Zm-8.55,4.88c1.33,0,2.47.41,2.95,1-.48.59-1.62,1-2.95,1s-2.47-.41-2.95-1c.48-.59,1.62-1,2.95-1Zm-9.05,5.35c1.33,0,2.47.41,2.95,1-.48.59-1.62,1-2.95,1s-2.47-.41-2.95-1c.48-.59,1.62-1,2.95-1Zm-8.55,4.88c1.33,0,2.47.41,2.95,1-.48.59-1.62,1-2.95,1s-2.47-.41-2.95-1c.48-.59,1.62-1,2.95-1Z"/>
        <path class="cls-3" d="m114.85,83.07c-1.77,0-3.2.73-3.2,1.62,0,.22.09.43.24.62.48-.59,1.62-1,2.95-1s2.47.41,2.95,1c.16-.19.24-.4.24-.62,0-.89-1.43-1.62-3.2-1.62Z"/>
        <path class="cls-3" d="m88.69,98.18c-1.77,0-3.2.73-3.2,1.62,0,.22.09.43.24.62.48-.59,1.62-1,2.95-1s2.47.41,2.95,1c.16-.19.24-.4.24-.62,0-.89-1.43-1.62-3.2-1.62Z"/>
        <path class="cls-3" d="m97.25,93.3c-1.77,0-3.2.73-3.2,1.62,0,.22.09.43.24.62.48-.59,1.62-1,2.95-1s2.47.41,2.95,1c.16-.19.24-.4.24-.62,0-.89-1.43-1.62-3.2-1.62Z"/>
        <path class="cls-3" d="m106.3,87.95c-1.77,0-3.2.73-3.2,1.62,0,.22.09.43.24.62.48-.59,1.62-1,2.95-1s2.47.41,2.95,1c.16-.19.24-.4.24-.62,0-.89-1.43-1.62-3.2-1.62Z"/>
        <polygon class="cls-3" points="11.68 56.23 79.37 95.32 81.03 94.36 13.33 55.28 11.68 56.23"/>
        <polygon class="cls-3" points="37.12 41.67 104.81 80.75 106.46 79.79 38.77 40.71 37.12 41.67"/>
      </g>
      <g>
        <g>
          <path class="cls-13" d="m34.39,54.49c.18.75.5,1.27.86,1.57.51-.12,1.39-.49,1.39-1.66,0-1.65-1.13-4.22,1.09-7.67,2.22-3.45,4.15-4.75,5.91-5.21,1.76-.46,2.39-.53,2.39-.53,0,0,0,.17-.03.47.64-.17,1.05-.24,1.05-.24l3.78-3.49s-6.38.82-11.38,3.92c-3.3,2.04-6.28,7.73-5.07,12.83Z"/>
          <path class="cls-8" d="m37.52,46.55c-2,3.58-1.09,6.19-1.09,7.85,0,1.17-.66,1.54-1.18,1.66.91.76,2.08.07,1.88-2.09-.28-3.06.15-5.87,2.16-8.53,1.84-2.43,5.06-3.54,6.71-3.98.02-.3.03-.47.03-.47,0,0-.63.07-2.39.53-1.76.46-4.15,1.51-6.12,5.03Z"/>
        </g>
        <path class="cls-13" d="m70.28,60.2c-1.99-1.17-1.5-3.09-1.5-3.09l1.47-4.74-6.73-.68s1.13,3.82,1.13,5.57c0,1.75,2.65,4.1,5.11,5.49,1.84,1.04,3.27,1.04,3.39-.5.06-.69-1.67-1.32-2.88-2.04Z"/>
        <path class="cls-13" d="m64.86,62.91c-1.99-1.17-1.5-3.09-1.5-3.09l1.47-4.74-6.73-.68s1.13,3.82,1.13,5.57c0,1.75,2.65,4.1,5.11,5.49,1.84,1.04,3.27,1.04,3.39-.5.06-.69-1.67-1.32-2.88-2.04Z"/>
        <path class="cls-13" d="m65.58,47.69c-3.45-2.74-6.14-11.78-14.37-10.2-6,1.15-5.7,4.65-6.45,7.46-.27,1.01.33,2.44.47,3.87.22,2.29-.54,3.89.36,5.04.5.64,2.36,2.29,4.54,3.76,1.96,1.33,2.1-1.54,1.06-2.1-2.11-1.13-3.28-3.28-3.28-3.28,0,0,1.49-.1,2.96-.72,1.14.65,2.35,1.6,4.57,3.46,1.51,1.26,3.32,3.88,6.99,4.84,3.66.96,7.84-3,6.91-7.23-.93-4.23-2.53-3.95-3.74-4.9Z"/>
        <path class="cls-8" d="m63.7,57.58c-.49.69-.38,2.48-.38,2.48,0,0,1.3.1,2.81-.88,1.51-.98,2.21-1.94,2.21-1.94l-1.65-.88s-2.5.52-2.99,1.21Z"/>
        <path class="cls-8" d="m63.52,54.19c-.21,2.46.77,4.02.77,4.02l3.13-1.18-1.2-6.24s-2.48.84-2.7,3.39Z"/>
        <path class="cls-6" d="m68.13,45.97c-2.87.34-4.64.51-5.22.45-.5-.05-.34.52.16.73.18.08,1.44.28,1.44.28,0,0-2.43.77-3.37,2.28-.6.96-.44,2.84.99,3.12,1.5.3,4.07-2.08,5.33-2.36,1.25-.28,4.09-1.27,4.09-1.27l-.74-3.74s-2.04.44-2.68.51Z"/>
        <path class="cls-13" d="m68.75,49.34c-2.79,1.02-5.09,3.02-3.93,5.74,1.41,3.3,4.45,3.25,6.25,3.47.78.09,1.13-.11,1.58-.76,1,.27.71-1.22.91-1.88.55-1.79.12-2.66-.16-3.34-.81-1.96-2.71-3.94-4.65-3.23Z"/>
        <path class="cls-13" d="m70.69,47.71c-.57.77-1.24,2.25-1.24,2.25,0,0,2.51,1.62,2.66.83.15-.78,0-3.75,0-3.75,0,0-.85-.11-1.42.66Z"/>
        <path class="cls-13" d="m65.04,49.31c-.48,1.2.13,3.05.13,3.05l2.11-1.34-1.27-2.81s-.7.43-.97,1.11Z"/>
        <path class="cls-8" d="m65.63,50.53c.18.7.44,1.26.44,1.26l1-.77s-.95-1.93-1-2.38c-.36.35-.62,1.19-.44,1.89Z"/>
        <path class="cls-8" d="m71.16,48.21c-.28.6-.53,1.69-.53,1.69.49.07,1.16.32,1.16.32l.11-2.78s-.46.18-.74.77Z"/>
        <path class="cls-8" d="m64.52,50.28c-.04,1.7,0,2.08,0,2.08l.54-.44s-.23-1.67-.13-2.24c.11-.56,1.09-1.48,1.09-1.48,0,0-1.47.38-1.5,2.08Z"/>
        <path class="cls-8" d="m53.21,51.41c-1.06-.32-2.35.12-2.35.12,0,0,1.48.95,2.22,1.54.74.59,3.62,3.29,4.56,4.06.94.76,1.42,1.28,1.42,1.28l-.05-2.29s-4.75-4.4-5.81-4.71Z"/>
        <g>
          <path class="cls-8" d="m69.7,54c-.82.09-1.19,1.09-1.19,1.09,0,0,.16.44.76.82.13.08.58.17.81.1.47-.15.79-.52.79-.52,0,0-.12-1.61-1.18-1.49Z"/>
          <path class="cls-8" d="m72.65,53.42c-.35.64-.31,1.24-.27,1.62.84.21.95-.54.95-.54l.02-.78s.02-.59-.11-.69c-.2-.16-.43.08-.6.38Z"/>
          <path class="cls-7" d="m69.64,54.3c-.79.09-.87.84-.87.84,0,0,.34.54.84.64.68.14,1.05-.36,1.05-.36,0,0-.09-1.22-1.01-1.12Z"/>
          <path class="cls-7" d="m72.75,53.72c-.16.47-.22,1.08-.22,1.08,0,0,.45.25.73-.22.34-.57-.05-1.39-.05-1.39,0,0-.36.2-.47.53Z"/>
          <path class="cls-13" d="m69.43,55.2c-.21-.19-.04-.62-.04-.62,0,0-.47.39-.19.79.49.67,1.04.08,1.04.08,0,0-.41.13-.81-.24Z"/>
          <path class="cls-17" d="m69.91,55.57c.29-.25.28-.73-.03-.96-.28.24-.11.77.03.96Z"/>
          <path class="cls-1" d="m70.16,54.61c-.11-.02-.22.05-.24.16-.02.11.05.22.16.24.11.02.22-.05.24-.16.02-.11-.05-.22-.16-.24Z"/>
          <path class="cls-13" d="m72.88,53.85s-.28.44-.11.73c.17.29.4,0,.4,0,0,0-.15-.02-.21-.14-.08-.17-.08-.59-.08-.59Z"/>
          <path class="cls-17" d="m73.04,54.58c.27-.27.24-.74-.08-.95-.26.25-.07.77.08.95Z"/>
          <path class="cls-1" d="m73.22,53.59c-.09-.02-.18.04-.2.13s.04.18.13.2c.09.02.18-.04.2-.13.02-.09-.04-.18-.13-.2Z"/>
          <path class="cls-8" d="m72.35,56.81s.11.76-.5,1.29c-.43.37-2.09.3-2.09.3,0,0,1.56.41,2.14.16.51-.22.76-.68.76-.68,0,0,.4.07.56-.17.16-.22.21-.67.21-.67,0,0-.34-.35-1.08-.23Z"/>
        </g>
        <path class="cls-17" d="m72.83,56.18c-.23.03-.8.26-.94.4-.14.14.08.28.29.4.2.12.35.23.35.23,0,0,.31-.22.4-.52.1-.33.03-.54-.1-.52Z"/>
        <path class="cls-8" d="m70.51,52.99c-.4-.18-.75.2-.75.2,0,0,.45.11.73.25.28.14.39.32.39.32,0,0,.03-.59-.37-.77Z"/>
        <path class="cls-8" d="m72.18,52.45c-.15.25,0,.74,0,.74,0,0,.16-.38.35-.57.19-.19.3-.26.3-.26,0,0-.42-.28-.65.09Z"/>
        <path class="cls-8" d="m46.23,42.53s-.35,1.5-.2,2.25c.15.75.57,1.5.57,1.5,0,0,.23-1.08,0-1.88-.23-.8-.38-1.88-.38-1.88Z"/>
        <path class="cls-8" d="m46.35,41.37s.09,1.16.36,2.14c.27.99.97,1.88.97,1.88,0,0-.05-.84-.38-1.88-.33-1.03-.96-2.14-.96-2.14Z"/>
        <path class="cls-8" d="m59.78,58.72s-.18,1.4.2,1.87c.38.47,1.03,1.03,1.03,1.03,0,0-.38-.79-.64-1.33-.25-.54-.6-1.57-.6-1.57Z"/>
        <path class="cls-8" d="m45.53,52.36s0,.95.47,1.4c.47.45,1.03.52,1.03.52,0,0-.22-.48-.67-.93-.45-.45-.82-.99-.82-.99Z"/>
      </g>
      <g>
        <path class="cls-11" d="m54.97,31.39c-1.08-.53-3.17-.62-3.8-.79-.63-.18-.77.2-.7.53.07.33-.46.54-.6.89-.14.35.07.79.07.79,0,0-.34.36-.32.71.03.49.57.66.83.77.85.37,2.28,1.21,3.48,1.28s2.37.11,2.37.11c0,0,5.48,2.24,7.83,1.55,2.35-.69-1.19-4.89-1.19-4.89,0,0-6.9-.41-7.98-.95Z"/>
        <g>
          <rect class="cls-4" x="52.43" y="35.25" width=".18" height="4.21"/>
          <rect class="cls-15" x="51.82" y="30.77" width="1.41" height="4.78"/>
          <path class="cls-12" d="m51.82,35.58h0c.02.19.32.34.7.34s.68-.15.7-.34h0v-2.41h-1.41v2.41Z"/>
          <path class="cls-14" d="m52.52,32.81c-.39,0-.7.16-.7.36s.31.36.7.36.7-.16.7-.36-.31-.36-.7-.36Z"/>
          <path class="cls-2" d="m52.52,30.42c-.39,0-.7.16-.7.36s.31.36.7.36.7-.16.7-.36-.31-.36-.7-.36Z"/>
          <path class="cls-15" d="m52.52,30.59c-.19,0-.35.08-.35.18s.16.18.35.18.35-.08.35-.18-.16-.18-.35-.18Z"/>
          <rect class="cls-15" x="52.17" y="29.33" width=".7" height="1.44"/>
          <rect class="cls-4" x="51.82" y="29.16" width="1.41" height=".17"/>
          <ellipse class="cls-4" cx="52.52" cy="29.33" rx=".7" ry=".36"/>
          <path class="cls-2" d="m52.52,28.81c-.39,0-.7.16-.7.36s.31.36.7.36.7-.16.7-.36-.31-.36-.7-.36Z"/>
        </g>
        <path class="cls-11" d="m51.99,32.38s.5.06.53-.33c.03-.39-.89-1.28-.89-1.28l-.53,3.36s.84.76,1.2.29c.31-.41-.48-1.02-.48-1.02,0,0,.61.1.79-.24.18-.34-.62-.78-.62-.78Z"/>
        <path class="cls-11" d="m52.87,29.63s-.33.41-.24.79c.1.38.49.53.59.97.05.21,1.11,1.29,1.11,1.29l.46-1.36s-1.03-.82-1.37-1.05c-.32-.21-.55-.63-.55-.63Z"/>
      </g>
    </g>
  </g>
</svg>