<?xml version="1.0" encoding="UTF-8"?>
<svg id="Layer_2" data-name="Layer 2" xmlns="http://www.w3.org/2000/svg" viewBox="0 0 124.73 134">
  <defs>
    <style>
      .cls-1 {
        fill: #d57857;
      }

      .cls-2 {
        fill: #fff;
      }

      .cls-3 {
        fill: #3a2323;
      }

      .cls-4 {
        fill: #b7bdce;
      }

      .cls-5 {
        fill: #6382c6;
      }

      .cls-6 {
        fill: #512e30;
      }

      .cls-7 {
        fill: #fb8;
      }

      .cls-8 {
        fill: #ffe0ce;
      }

      .cls-9 {
        fill: #6e4243;
      }

      .cls-10 {
        fill: #c16246;
      }

      .cls-11 {
        fill: #63393b;
      }

      .cls-12 {
        fill: #5275b2;
      }

      .cls-13 {
        fill: #7fa0dd;
      }

      .cls-14 {
        fill: #d8a58f;
      }
    </style>
  </defs>
  <g id="Layer_1-2" data-name="Layer 1">
    <g>
      <g>
        <path class="cls-14" d="m121.2,98.87l-62.5-36.08c-2.06-1.19-5.7-1.04-8.09.34L3.89,90.1l-3.86.99v2.48c-.13.86.32,1.7,1.37,2.31l64.64,37.32c2.06,1.19,5.7,1.04,8.09-.34l48.64-28.08c1.31-.76,1.97-1.73,1.97-2.65h0s0-.06,0-.09v-2.94l-3.53-.5v.27Z"/>
        <path class="cls-8" d="m123.34,97.26L58.7,59.94c-2.06-1.19-5.7-1.04-8.09.34L1.97,88.36c-2.38,1.38-2.64,3.48-.58,4.67l64.64,37.32c2.06,1.19,5.7,1.04,8.09-.34l48.64-28.08c2.38-1.38,2.64-3.48.58-4.67Z"/>
      </g>
      <path class="cls-4" d="m54.82.31c-.82-.47-1.85-.41-2.89.19l-12.76,7.37s0,0,0,0L5.91,27.1c-2.17,1.25-3.94,4.61-3.94,7.48v56.86c0,.15.21.27.47.27s.47-.12.47-.27v-56.86c0-2.53,1.59-5.58,3.46-6.66l6.68-3.85h0S43.2,6.63,43.2,6.63l9.2-5.31c.44-.25.85-.38,1.22-.38.26,0,.5.06.72.19.67.38,1.05,1.32,1.05,2.58v56.88c0,.15.21.27.47.27s.47-.12.47-.27V3.71c0-1.6-.55-2.84-1.52-3.4Z"/>
      <g>
        <path class="cls-4" d="m115.71,35.49c-.82-.47-1.85-.41-2.89.19l-1.2.69c.28.19.53.41.75.66l.92-.53c.44-.25.85-.38,1.22-.38.26,0,.5.06.72.19.67.38,1.05,1.32,1.05,2.58v56.88c0,.15.21.27.47.27s.47-.12.47-.27v-56.88c0-1.6-.55-2.84-1.52-3.4Z"/>
        <path class="cls-4" d="m110.17,32.26c-.82-.47-1.85-.41-2.89.19l-1,.58c.27.2.5.43.7.68l.77-.44c.44-.25.85-.38,1.22-.38.26,0,.5.06.72.19.67.38,1.05,1.32,1.05,2.58v56.88c0,.15.21.27.47.27s.47-.12.47-.27v-56.88c0-1.6-.55-2.84-1.52-3.4Z"/>
        <path class="cls-4" d="m77.01,13.14c-.82-.47-1.85-.41-2.89.19l-1.34.77c.32.16.61.35.9.57l.92-.53c.44-.25.85-.38,1.22-.38.26,0,.5.06.72.19.67.38,1.05,1.32,1.05,2.58v56.88c0,.15.21.27.47.27s.47-.12.47-.27V16.54c0-1.6-.55-2.84-1.52-3.4Z"/>
        <path class="cls-4" d="m82.54,16.41c-.82-.47-1.85-.41-2.89.19l-1.07.61c.32.16.61.36.87.59l.67-.38c.44-.25.85-.38,1.22-.38.26,0,.5.06.72.19.67.38,1.05,1.32,1.05,2.58v56.88c0,.15.21.27.47.27s.47-.12.47-.27V19.81c0-1.6-.55-2.84-1.52-3.4Z"/>
        <path class="cls-4" d="m60.34,3.58c-.82-.47-1.85-.41-2.89.19l-1.06.61c.29.18.57.38.83.61l.7-.41c.44-.25.85-.38,1.22-.38.26,0,.5.06.72.19.67.38,1.05,1.32,1.05,2.58v56.88c0,.15.21.27.47.27s.47-.12.47-.27V6.97c0-1.6-.55-2.84-1.52-3.4Z"/>
        <path class="cls-4" d="m104.65,29.15c-.82-.47-1.85-.41-2.89.19l-1.17.67c.36.14.69.31.98.52l.66-.38c.44-.25.85-.38,1.22-.38.26,0,.5.06.72.19.67.38,1.05,1.32,1.05,2.58v56.88c0,.15.21.27.47.27s.47-.12.47-.27v-56.88c0-1.6-.55-2.84-1.52-3.4Z"/>
        <path class="cls-4" d="m71.39,10.01c-.82-.47-1.85-.41-2.89.19l-1.05.61c.15.06.3.13.44.2.18.1.34.23.5.35l.59-.34c.44-.25.85-.38,1.22-.38.26,0,.5.06.72.19.67.38,1.05,1.32,1.05,2.58v56.88c0,.15.21.27.47.27s.47-.12.47-.27V13.41c0-1.6-.55-2.84-1.52-3.4Z"/>
        <path class="cls-4" d="m65.86,6.71c-.82-.47-1.85-.41-2.89.19l-.96.55c.3.18.56.39.8.63l.63-.36c.44-.25.85-.38,1.22-.38.26,0,.5.06.72.19.67.38,1.05,1.32,1.05,2.58v56.88c0,.15.21.27.47.27s.47-.12.47-.27V10.1c0-1.6-.55-2.84-1.52-3.4Z"/>
        <path class="cls-4" d="m88.06,19.55c-.82-.47-1.85-.41-2.89.19l-1.03.59c.29.18.55.4.77.64l.72-.42c.44-.25.85-.38,1.22-.38.26,0,.5.06.72.19.67.38,1.05,1.32,1.05,2.58v56.88c0,.15.21.27.47.27s.47-.12.47-.27V22.95c0-1.6-.55-2.84-1.52-3.4Z"/>
        <path class="cls-4" d="m93.58,22.74c-.82-.47-1.85-.41-2.89.19l-1.07.62c.31.18.59.39.83.61l.71-.41c.44-.25.85-.38,1.22-.38.26,0,.5.06.72.19.67.38,1.05,1.32,1.05,2.58v56.88c0,.15.21.27.47.27s.47-.12.47-.27V26.14c0-1.6-.55-2.84-1.52-3.4Z"/>
        <path class="cls-4" d="m99.12,25.97c-.82-.47-1.85-.41-2.89.19l-.88.51c.26.2.5.43.7.69l.65-.37c.44-.25.85-.38,1.22-.38.26,0,.5.06.72.19.67.38,1.05,1.32,1.05,2.58v56.88c0,.15.21.27.47.27s.47-.12.47-.27V29.36c0-1.6-.55-2.84-1.52-3.4Z"/>
      </g>
      <g>
        <g>
          <g>
            <path class="cls-11" d="m86.8,86.38c.64-2.88,1.1-7.78,1.1-7.78l-9.63-2.37s.12,7.63.94,10.61c.82,2.98.87,3.2,2.68,4.99,1.36,1.36,3.97,2.3,3.97,2.3,0,0-.05.12-.13.32.22.03.4.12.5.31.21.41.51,2.07-.26,3.23-.76,1.15-.36,1.87.04,2.38.32-.62.67-1.28,1.06-2,1.03-1.88,3.13-4.41,2.91-5.62-.32-1.75-3.81-3.51-3.17-6.39Z"/>
            <path class="cls-10" d="m86.22,94.77c-.09-.19-.28-.28-.5-.31-.42,1.06-1.84,4.51-3.07,6.17-.69.93-2.95,2.46-2.35,3.77.61,1.31,2.41,1.04,3.59-.05.33-.3.98-1.77,2.1-3.96-.39-.51-.79-1.23-.04-2.38.77-1.17.47-2.82.26-3.23Z"/>
          </g>
          <g>
            <path class="cls-11" d="m59.26,91.11l-2.75.4c-.55.5,1.31,6.96,1.74,9.11.22,1.08.38,3.46.49,5.88.19-.12.4-.29.57-.51.5-.66.76-1.74,1.21-1.99.19-.1.33-.09.46-.02-.15-1.54-.36-3.15-.55-3.95-.24-1-.89-6.49-1.17-8.92Z"/>
            <path class="cls-6" d="m62.26,90.67l-3,.44c.28,2.43.93,7.92,1.17,8.92.19.8.4,2.42.55,3.95.46.27.6,1.48,1.01,2.14.16.25.33.65.51,1.12.2-2.53.43-6.27.39-9.52-.04-3.94-.63-7.05-.63-7.05Z"/>
            <path class="cls-1" d="m60.52,104c-.45.24-.72,1.33-1.21,1.99-.17.23-.38.39-.57.51.1,2.37.14,4.78.11,6.02-.06,2.49-1.27,3.14-1.68,3.94-.49.95.04,1.97.98,2.25,1.3-.55,2.28-1.48,2.59-2.67.49-1.91.42-7.45.45-8.8.01-.63-.07-1.91-.21-3.25-.13-.07-.27-.08-.46.02Z"/>
            <path class="cls-10" d="m60.98,103.99c.13,1.34.22,2.62.21,3.25-.03,1.35.04,6.89-.45,8.8-.31,1.19-1.29,2.12-2.59,2.67.46.14,1.03.1,1.63-.23,1.82-.99,1.72-1.74,1.89-2.55.33-1.59.26-3.39.59-6.13.06-.48.15-1.39.24-2.56-.17-.47-.35-.87-.51-1.12-.41-.66-.55-1.87-1.01-2.14Z"/>
          </g>
          <path class="cls-9" d="m90.21,71.84c-1.39-.58-2.91-.5-4.54-.34-2.89.28-6.76.75-9.05.92-1.47.11-5.25-.42-7.29-.46-2.24-.05-3.15-.77-4.58-1.67-1.4-.87-2.05-2.65-2.75-4.74-.66-1.99-9.66,4.19-9.66,4.19,0,0,1.04,4.43,1.13,7.79.09,3.39-.13,8.47,1.69,13.44,1.89,5.17,8.71,6.61,14.26,3.51,4.96-2.77,13.14-6.83,16.31-7.39,3.17-.55,11.08-4.22,11.91-4.41-1.61-3.31-1.71-4.55-4.76-7.86-.84-.91-1.47-2.51-2.66-3Z"/>
        </g>
        <g>
          <path class="cls-9" d="m96.51,84.27c-.33-.92-.61-3.67-.76-5.34-3.4-3.74-16.36,1.52-16.36,1.52,0,0,3.13,6,7.57,8.13,2.95,1.41,7.02.51,9.35,2.4,0,0,1.67.46,2.21,1.66.31.69.99,1.56,1.71,2.22-.17-2.24-.22-5.75-.65-6.28-.49-.62-2.59-2.95-3.08-4.31Z"/>
          <path class="cls-6" d="m101,88.77c-.35-1.25-1.49-2.01-2.31-3.42-.84-1.43-.65-2.44-2.55-5.88-.11-.2-.25-.37-.39-.54.14,1.67.42,4.42.76,5.34.49,1.35,2.59,3.69,3.08,4.31.43.53.48,4.04.65,6.28.27.25.55.46.81.62-.02-.3-.04-.6-.05-.9-.08-1.95.33-4.65,0-5.82Z"/>
          <path class="cls-1" d="m100.24,94.86c-.72-.65-1.4-1.52-1.71-2.22-.54-1.2-2.21-1.66-2.21-1.66,1.5,1.22,1.7,4.72,1.75,7.39.03,1.46-2.01,2.64-.76,3.66.07.06.16.09.25.14.08-.02.16-.05.26-.07,3.93-.91,2.71-4.66,2.51-6.31-.03-.27-.06-.58-.09-.92Z"/>
          <path class="cls-10" d="m100.24,94.86c.03.34.05.66.09.92.2,1.65,1.42,5.4-2.51,6.31-.1.02-.18.05-.26.07,1.07.55,2.82-.24,3.54-1.67.4-.81.11-2.88-.04-5.01-.27-.16-.54-.37-.81-.62Z"/>
        </g>
        <g>
          <path class="cls-9" d="m65.82,98.37c-.83.28-.46-.46,0-1.48.2-.45.43-1.56.63-2.8l-4.36.64c-.55.5,1.31,6.96,1.74,9.11.23,1.14.4,3.73.5,6.28.55.45,1.45.99,2.59.99h0c.09-1.9.15-3.57.18-4.34.09-2.22,0-7.76,0-7.76,0,0-.46-.92-1.29-.65Z"/>
          <path class="cls-6" d="m67.84,93.89l-1.39.2c-.21,1.23-.43,2.35-.63,2.8-.46,1.02-.83,1.75,0,1.48s1.29.65,1.29.65c0,0,.09,5.54,0,7.76-.03.76-.1,2.44-.18,4.34.39,0,.74.13,1.07.32.22-2.45.51-6.79.47-10.49-.04-3.94-.63-7.06-.63-7.06Z"/>
          <path class="cls-1" d="m64.33,110.12c.09,2.24.12,4.45.09,5.62-.06,2.49-1.27,3.14-1.68,3.94-.49.95.04,1.97.98,2.25,1.42-.8,2.2-1.54,2.51-2.2.27-.58.52-5.01.69-8.62h0c-1.14,0-2.04-.54-2.59-.99Z"/>
          <path class="cls-10" d="m66.24,119.73c-.31.66-1.09,1.39-2.51,2.2.46.14,1.03.1,1.63-.23,1.82-.99,1.72-1.74,1.89-2.55.33-1.59.26-3.39.59-6.13.04-.33.1-.89.16-1.59-.33-.2-.68-.32-1.07-.32-.17,3.61-.42,8.04-.69,8.62Z"/>
        </g>
        <path class="cls-6" d="m84.12,85.81c-.72-.75-3.53.38-4.92,1.03-1.39.66-5.91,2.67-8.31,3.83-2.4,1.16-1.66-.52-2.42-1.35s-1.45,1.11-1.64,1.79-.73,4.68-.73,4.68c0,0,2.61-.75,6.64-2.93.83-.45,2.9-1.63,5.11-2.68,2.03-.96,3.66-1.85,4.89-1.97,1.43-.14,4.22.37,4.22.37,0,0-2.12-2.03-2.84-2.78Z"/>
        <path class="cls-6" d="m59.13,88.21c-2.29-.12-2.02-2.83-2.71-3.82-.69-.98-.17-3.57-.91-5.29-.74-1.72-.66-5.16-.66-5.16l-1.68.25s.56,10.09.95,12.91c.39,2.82.58,5.76,3.07,7.2,2.49,1.43,4.9,1.81,4.9,1.81,0,0-.28-1.36-.09-2.78.13-1,.72-2,.85-2.66.32-1.6-1.42-2.34-3.71-2.46Z"/>
        <path class="cls-6" d="m68.65,80.33c-.53.52-.29,1.78-.55,3.38-.25,1.6-.59,4.5.62,3.39,1.21-1.11,1.43-2.09,1.32-4.19-.11-2.09-.37-3.57-1.39-2.59Z"/>
        <path class="cls-6" d="m59.16,71.8s-1.56.38-3.16.96c-.55.2-2.87.31-2.87.31l.3,5s2.97-.19,4.23-1.96c1.26-1.77.81-2.1,1.5-3.02.69-.92.77-1.93,0-1.29Z"/>
        <path class="cls-6" d="m85.35,81.33c-.55.98-2.54,3.47-2.54,3.47,0,0,1.1-.22,2.86-2,1.75-1.78,1.59-3.03,1.62-3.72.04-.79-1.39,1.28-1.94,2.25Z"/>
        <path class="cls-6" d="m94.28,87.86c-2.18-.59-4.47-.05-4.47-.05,0,0,1.94.62,3.97.99,2.03.36,3.4,1.85,3.4,1.85,0,0-.72-2.19-2.9-2.78Z"/>
        <g>
          <path class="cls-9" d="m55.32,55.45c-.66-2.84-1.84-4.44-1.92-3.58-.01.14,0,.29,0,.44.23.15.53.44.64.94.18.83.77,3.35,1.09,4.06.25.55.9,1.86,1.17,2.4l1.34-.21s-1.65-1.21-2.31-4.05Z"/>
          <path class="cls-6" d="m54.03,53.25c-.11-.5-.41-.79-.64-.94,0,.81.19,1.82.09,3.07-.11,1.48-.1,4.8-.1,4.8l2.91-.47c-.27-.54-.92-1.85-1.17-2.4-.32-.71-.91-3.23-1.09-4.06Z"/>
        </g>
        <path class="cls-9" d="m61.48,57.31c-.41-.94-.81-1.86-1.29-2.18-.63-.41-.62,1.16-.74,2.73-.16,2.11-.32,4.47-.32,4.47l3.5,4.69s.58-.89.63-2.51c.02-.76-.3-1.67-.44-2.73-.24-1.9-.8-3.23-1.35-4.47Z"/>
        <g>
          <path class="cls-1" d="m58.28,70.61c-.74-.33-2.68-.49-4.65,0-1.97.49-4.31.12-6.53,1.11-.54.24-.81.47-1.05.62.03.36.2,1.02,1.11,1.26,1.27.34,3.3-.49,5.65-1.51,2.35-1.02,4.16-.8,4.81-.18.17.16.28.34.34.51.24-.13.48-.29.73-.49.56-.42.33-.97-.42-1.31Z"/>
          <path class="cls-10" d="m52.82,72.09c-2.35,1.02-4.38,1.85-5.65,1.51-.91-.24-1.08-.9-1.11-1.26-.29.18-.5.23-1.02-.02.31,1.64,1.74,2.3,3.25,2.05,1.67-.28,3.71-.42,5.84-1.06,1.19-.36,2.52-.17,3.85-.9-.07-.17-.17-.34-.34-.51-.65-.62-2.46-.83-4.81.18Z"/>
        </g>
        <g>
          <path class="cls-9" d="m58.5,59.91c-.88-.57-2.59-1.03-4.21-.38-1.18.47-2.16,1.64-2.93,2.44-.44.46-.94.88-1.24,1.35.22.32.43.71.34.94-.18.43-.86,1.29-.86,1.29-1.29,1.74-2.86,3.51-4.47,5.05-.61.59.18.5,1.71,2,1.73,1.7,4.62-1.2,6.59-1.69,1.97-.49,3.85-.95,4.59-.62.75.34,2.1.31,1.67,1.64.63-.53,1.2-1.19,1.66-2.06,1.62-3.05,3.25-6.01-2.86-9.96Z"/>
          <path class="cls-11" d="m49.84,64.21c.01.42,0,1.03-.25,1.35,0,0,.68-.86.86-1.29.1-.23-.11-.62-.34-.94-.18.27-.29.56-.28.88Z"/>
        </g>
        <g>
          <path class="cls-11" d="m54.82,64.9c-1.44.62-1.25,2.36-1.25,2.36,0,0,.75.92,2.13.44,1.38-.47.89-2.19.89-2.19,0,0-.86-1-1.77-.62Z"/>
          <path class="cls-3" d="m54.75,65.65c-.82.49-.71,1.36-.71,1.36,0,0,.43.44,1.26.15.91-.32.67-1.37.67-1.37,0,0-.59-.51-1.22-.14Z"/>
          <path class="cls-11" d="m54.52,66.51s.18.62.78.37c.56-.23.41-.76.41-.76,0,0-.25.68-1.18.39Z"/>
          <path class="cls-7" d="m54.82,65.86c-.13,0-.23.12-.23.26s.1.26.23.26.23-.12.23-.26-.1-.26-.23-.26Z"/>
        </g>
        <path class="cls-3" d="m45.51,70.21s-1.3.89-1.24,1.27.25.58.4.69.38.85.71.83c.24-.01.37-.34.74-.46.37-.12.77-.46.98-.82.43-.72-1.59-1.51-1.59-1.51Z"/>
        <path class="cls-6" d="m47.94,70.55c-.21.21-.93.96-.61.95.14,0,.96-.41,1.13-.57.4-.38,1.13-1.29.78-1.2-.59.15-.94.45-1.31.82Z"/>
        <path class="cls-1" d="m53.57,64.44c.28.13,1.25-.43,1.25-.43,0,0-.56-.42-.79-.43-.59,0-.75.72-.47.85Z"/>
        <path class="cls-1" d="m50.9,62.81s.12.66.39.78c.28.12.52-.64.39-.78-.35-.41-.79,0-.79,0Z"/>
        <path class="cls-6" d="m61.23,58.36c-.43-1.11-1.1-2.45-1.1-2.45-.28.6-.32,2.32-.28,3.31.04.99.07,1.79,0,2.28-.08.49-.01,1.13.6,1.62.14.11.75.69,1.14,1.33.48.8.74,1.68.74,1.68,0,0,.61-1.27.29-2.8-.36-1.67-.94-3.86-1.37-4.97Z"/>
      </g>
      <g>
        <path class="cls-5" d="m38.38,86.1c-.02-.1-.05-.19-.08-.29l-1.2-4.14-2.56.94c-2.92-1.25-6.79-1.27-9.09.06l-8.2,4.73-2.93-1.51c-.02.16-.83,3.64-1.09,4.75-.03.1-.05.2-.07.3,0,.02,0,.04,0,.04h0c-.18,1.24.65,2.59,2.43,3.62l.46.27c2.97,1.72,7.51,1.9,10.08.42l10.59-6.11c1.39-.8,1.93-1.94,1.67-3.08h0Z"/>
        <path class="cls-13" d="m34.88,79l-.41-.24c-2.68-1.54-6.76-1.71-9.08-.38l-9.53,5.5c-2.32,1.34-2.02,3.7.65,5.24l.41.24c2.68,1.54,6.76,1.71,9.08.38l9.53-5.5c2.32-1.34,2.02-3.7-.65-5.24Z"/>
        <g>
          <path class="cls-12" d="m20.94,83.53c-2.94,0-5.32,1.34-5.32,2.99,0,.78.54,1.49,1.41,2.03.97-.59,2.36-.97,3.91-.97s2.94.37,3.91.97c.87-.53,1.41-1.24,1.41-2.03,0-1.65-2.38-2.99-5.32-2.99Z"/>
          <path class="cls-5" d="m17.03,88.55c.97.59,2.36.97,3.91.97s2.94-.37,3.91-.97c-.97-.59-2.36-.97-3.91-.97s-2.94.37-3.91.97Z"/>
        </g>
        <g>
          <path class="cls-12" d="m29.69,78.54c-2.94,0-5.32,1.34-5.32,2.99,0,.78.54,1.49,1.41,2.03.97-.59,2.36-.97,3.91-.97s2.94.37,3.91.97c.87-.53,1.41-1.24,1.41-2.03,0-1.65-2.38-2.99-5.32-2.99Z"/>
          <path class="cls-5" d="m25.78,83.56c.97.59,2.36.97,3.91.97s2.94-.37,3.91-.97c-.97-.59-2.36-.97-3.91-.97s-2.94.37-3.91.97Z"/>
        </g>
        <polygon class="cls-2" points="28.51 91.39 28.78 92.43 34.6 89.07 34.34 88.02 28.51 91.39"/>
      </g>
      <path class="cls-4" d="m121.24,38.67c-.82-.47-1.85-.41-2.89.19l-12.76,7.37s0,0,0,0l-33.26,19.23c-2.17,1.25-3.94,4.61-3.94,7.48v56.86c0,.15.21.27.47.27s.47-.12.47-.27v-56.86c0-2.53,1.59-5.58,3.46-6.66l6.68-3.85h0s30.14-17.43,30.14-17.43h0s9.2-5.31,9.2-5.31c.44-.25.85-.38,1.22-.38.26,0,.5.06.72.19.67.38,1.05,1.32,1.05,2.58v56.88c0,.15.21.27.47.27s.47-.12.47-.27v-56.88c0-1.6-.55-2.84-1.52-3.4Z"/>
      <g>
        <path class="cls-4" d="m70.06,62.8l-24.24-14.01s0,0-.01,0L9.16,27.72c-1.04-.6-2.06-.67-2.89-.19-.97.56-1.52,1.8-1.52,3.4v56.88c0,.15.21.27.47.27s.47-.12.47-.27V30.93c0-1.25.38-2.19,1.05-2.58.22-.13.46-.19.72-.19.37,0,.78.13,1.22.38l9.2,5.31,31.46,18.08,13.55,7.84h0s6.68,3.85,6.68,3.85c1.88,1.08,3.46,4.13,3.46,6.66v56.86c0,.15.21.27.47.27s.47-.12.47-.27v-56.86c0-2.87-1.77-6.22-3.94-7.48Z"/>
        <path class="cls-4" d="m86.65,53.28l-24.24-14.01s0,0-.01,0L25.75,18.2c-1.04-.6-2.06-.67-2.89-.19-.97.56-1.52,1.8-1.52,3.4v56.88c0,.15.21.27.47.27s.47-.12.47-.27V21.41c0-1.25.38-2.19,1.05-2.58.22-.13.46-.19.72-.19.37,0,.78.13,1.22.38l9.2,5.31h0s31.46,18.08,31.46,18.08l13.55,7.84h0s6.68,3.85,6.68,3.85c1.88,1.08,3.46,4.13,3.46,6.66v56.86c0,.15.21.27.47.27s.47-.12.47-.27v-56.86c0-2.87-1.77-6.22-3.94-7.48Z"/>
        <path class="cls-4" d="m97.71,46.87l-24.24-14.01s0,0-.01,0L36.82,11.79c-1.04-.6-2.06-.67-2.89-.19-.97.56-1.52,1.8-1.52,3.4v56.88c0,.15.21.27.47.27s.47-.12.47-.27V15c0-1.25.38-2.19,1.05-2.58.22-.13.46-.19.72-.19.37,0,.78.13,1.22.38l9.2,5.31h0s31.46,18.08,31.46,18.08l13.55,7.84h0s6.68,3.85,6.68,3.85c1.88,1.08,3.46,4.13,3.46,6.66v56.86c0,.15.21.27.47.27s.47-.12.47-.27v-56.86c0-2.87-1.77-6.22-3.94-7.48Z"/>
        <path class="cls-4" d="m92.19,50.06l-24.24-14.01s0,0-.01,0L31.29,14.98c-1.04-.6-2.06-.67-2.89-.19-.97.56-1.52,1.8-1.52,3.4v56.88c0,.15.21.27.47.27s.47-.12.47-.27V18.18c0-1.25.38-2.19,1.05-2.58.22-.13.46-.19.72-.19.37,0,.78.13,1.22.38l9.2,5.31h0s31.46,18.08,31.46,18.08l13.55,7.84h0s6.68,3.85,6.68,3.85c1.88,1.08,3.46,4.13,3.46,6.66v56.86c0,.15.21.27.47.27s.47-.12.47-.27v-56.86c0-2.87-1.77-6.22-3.94-7.48Z"/>
        <path class="cls-4" d="m114.38,37.33l-24.24-14.01s0,0-.01,0L53.49,2.25c-1.04-.6-2.06-.67-2.89-.19-.97.56-1.52,1.8-1.52,3.4v56.88c0,.15.21.27.47.27s.47-.12.47-.27V5.45c0-1.25.38-2.19,1.05-2.58.22-.13.46-.19.72-.19.37,0,.78.13,1.22.38l9.2,5.31h0s31.46,18.08,31.46,18.08l13.55,7.84h0s6.68,3.85,6.68,3.85c1.88,1.08,3.46,4.13,3.46,6.66v56.86c0,.15.21.27.47.27s.47-.12.47-.27v-56.86c0-2.87-1.77-6.22-3.94-7.48Z"/>
        <path class="cls-4" d="m81.12,56.47l-24.24-14.01s0,0-.01,0L20.23,21.39c-1.04-.6-2.06-.67-2.89-.19-.97.56-1.52,1.8-1.52,3.4v56.88c0,.15.21.27.47.27s.47-.12.47-.27V24.6c0-1.25.38-2.19,1.05-2.58.22-.13.46-.19.72-.19.37,0,.78.13,1.22.38l9.2,5.31h0s31.46,18.08,31.46,18.08l13.55,7.84h0s6.68,3.85,6.68,3.85c1.88,1.08,3.46,4.13,3.46,6.66v56.86c0,.15.21.27.47.27s.47-.12.47-.27v-56.86c0-2.87-1.77-6.22-3.94-7.48Z"/>
        <path class="cls-4" d="m103.24,43.73l-24.24-14.01s0,0-.01,0L42.34,8.65c-1.04-.6-2.06-.67-2.89-.19-.97.56-1.52,1.8-1.52,3.4v56.88c0,.15.21.27.47.27s.47-.12.47-.27V11.85c0-1.25.38-2.19,1.05-2.58.22-.13.46-.19.72-.19.37,0,.78.13,1.22.38l9.2,5.31h0s31.46,18.08,31.46,18.08l13.55,7.84h0s6.68,3.85,6.68,3.85c1.88,1.08,3.46,4.13,3.46,6.66v56.86c0,.15.21.27.47.27s.47-.12.47-.27v-56.86c0-2.87-1.77-6.22-3.94-7.48Z"/>
        <path class="cls-4" d="m75.6,59.58l-24.24-14.01s0,0-.01,0L14.7,24.5c-1.04-.6-2.06-.67-2.89-.19-.97.56-1.52,1.8-1.52,3.4v56.88c0,.15.21.27.47.27s.47-.12.47-.27V27.7c0-1.25.38-2.19,1.05-2.58.22-.13.46-.19.72-.19.37,0,.78.13,1.22.38l9.2,5.31h0l31.46,18.08,13.55,7.84h0s6.68,3.85,6.68,3.85c1.88,1.08,3.46,4.13,3.46,6.66v56.86c0,.15.21.27.47.27s.47-.12.47-.27v-56.86c0-2.87-1.77-6.22-3.94-7.48Z"/>
        <path class="cls-4" d="m114.38,37.33l-24.24-14.01s0,0-.01,0L53.49,2.25c-1.04-.6-2.06-.67-2.89-.19-.97.56-1.52,1.8-1.52,3.4v56.88c0,.15.21.27.47.27s.47-.12.47-.27V5.45c0-1.25.38-2.19,1.05-2.58.22-.13.46-.19.72-.19.37,0,.78.13,1.22.38l9.2,5.31h0s31.46,18.08,31.46,18.08l13.55,7.84h0s6.68,3.85,6.68,3.85c1.88,1.08,3.46,4.13,3.46,6.66v56.86c0,.15.21.27.47.27s.47-.12.47-.27v-56.86c0-2.87-1.77-6.22-3.94-7.48Z"/>
        <path class="cls-4" d="m108.76,40.46l-24.24-14.01s0,0-.01,0L47.86,5.38c-1.04-.6-2.06-.67-2.89-.19-.97.56-1.52,1.8-1.52,3.4v56.88c0,.15.21.27.47.27s.47-.12.47-.27V8.58c0-1.25.38-2.19,1.05-2.58.22-.13.46-.19.72-.19.37,0,.78.13,1.22.38l9.2,5.31h0l31.46,18.08,13.55,7.84h0s6.68,3.85,6.68,3.85c1.88,1.08,3.46,4.13,3.46,6.66v56.86c0,.15.21.27.47.27s.47-.12.47-.27v-56.86c0-2.87-1.77-6.22-3.94-7.48Z"/>
      </g>
      <g>
        <path class="cls-4" d="m66.81,62.28c-2.17,1.25-3.94,4.61-3.94,7.48v56.86c0,.15.21.27.47.27s.47-.12.47-.27v-56.86c0-2.53,1.59-5.58,3.46-6.66l1.16-.67c-.26-.2-.49-.44-.7-.69l-.94.54Z"/>
        <path class="cls-4" d="m61.27,59.05c-2.17,1.25-3.94,4.61-3.94,7.48v56.86c0,.15.21.27.47.27s.47-.12.47-.27v-56.86c0-2.53,1.59-5.58,3.46-6.66l1.08-.62c-.26-.2-.49-.44-.69-.69l-.86.5Z"/>
        <path class="cls-4" d="m29.06,39.38l-.95.55c-2.17,1.25-3.94,4.61-3.94,7.48v56.86c0,.15.21.27.47.27s.47-.12.47-.27v-56.86c0-2.53,1.59-5.58,3.46-6.66l1.16-.67c-.14-.11-.27-.22-.38-.34-.11-.11-.2-.24-.29-.36Z"/>
        <path class="cls-4" d="m33.63,43.2c-2.17,1.25-3.94,4.61-3.94,7.48v56.86c0,.15.21.27.47.27s.47-.12.47-.27v-56.86c0-2.53,1.59-5.58,3.46-6.66l1.21-.7c-.25-.21-.47-.45-.66-.71l-1.02.59Z"/>
        <path class="cls-4" d="m39.15,46.34c-2.17,1.25-3.94,4.61-3.94,7.48v56.86c0,.15.21.27.47.27s.47-.12.47-.27v-56.86c0-2.53,1.59-5.58,3.46-6.66l1.11-.64c-.26-.2-.49-.44-.7-.69l-.89.51Z"/>
        <path class="cls-4" d="m44.68,49.53c-2.17,1.25-3.94,4.61-3.94,7.48v56.86c0,.15.21.27.47.27s.47-.12.47-.27v-56.86c0-2.53,1.59-5.58,3.46-6.66l1.21-.7c-.25-.21-.47-.45-.67-.71l-1.02.59Z"/>
        <path class="cls-4" d="m51.14,52.22l-.93.54c-2.17,1.25-3.94,4.61-3.94,7.48v56.86c0,.15.21.27.47.27s.47-.12.47-.27v-56.86c0-2.53,1.59-5.58,3.46-6.66l1.21-.7c-.2-.14-.41-.29-.59-.46-.06-.06-.1-.13-.16-.19Z"/>
        <path class="cls-4" d="m11.43,30.37c-2.17,1.25-3.94,4.61-3.94,7.48v56.86c0,.15.21.27.47.27s.47-.12.47-.27v-56.86c0-2.53,1.59-5.58,3.46-6.66l1.18-.68c-.31-.17-.6-.37-.86-.59l-.79.46Z"/>
        <path class="cls-4" d="m17.87,32.97l-.91.53c-2.17,1.25-3.94,4.61-3.94,7.48v56.86c0,.15.21.27.47.27s.47-.12.47-.27v-56.86c0-2.53,1.59-5.58,3.46-6.66l1.11-.64c-.11-.09-.22-.18-.32-.28-.14-.13-.24-.28-.36-.42Z"/>
        <path class="cls-4" d="m22.48,36.8c-2.17,1.25-3.94,4.61-3.94,7.48v56.86c0,.15.21.27.47.27s.47-.12.47-.27v-56.86c0-2.53,1.59-5.58,3.46-6.66l1.05-.6c-.25-.2-.49-.43-.71-.68l-.81.47Z"/>
        <path class="cls-4" d="m56.69,55.4l-.94.55c-2.17,1.25-3.94,4.61-3.94,7.48v56.86c0,.15.21.27.47.27s.47-.12.47-.27v-56.86c0-2.53,1.59-5.58,3.46-6.66l1.19-.69c-.15-.12-.31-.22-.45-.35-.1-.1-.18-.21-.27-.32Z"/>
      </g>
    </g>
  </g>
</svg>