<?xml version="1.0" encoding="UTF-8"?>
<svg id="Layer_2" data-name="Layer 2" xmlns="http://www.w3.org/2000/svg" viewBox="0 0 124.73 134">
  <defs>
    <style>
      .cls-1 {
        fill: #d57857;
      }

      .cls-2 {
        fill: #fff;
      }

      .cls-3 {
        fill: #3a2323;
      }

      .cls-4 {
        fill: #b7bdce;
      }

      .cls-5 {
        fill: #63453b;
      }

      .cls-6 {
        fill: #fb8;
      }

      .cls-7 {
        fill: #49afb7;
      }

      .cls-8 {
        fill: #ffe0ce;
      }

      .cls-9 {
        fill: #239699;
      }

      .cls-10 {
        fill: #c16246;
      }

      .cls-11 {
        fill: #b25039;
      }

      .cls-12 {
        fill: #ed8f72;
      }

      .cls-13 {
        fill: #1e8787;
      }

      .cls-14 {
        fill: #492e2e;
      }

      .cls-15 {
        fill: #d8a58f;
      }
    </style>
  </defs>
  <g id="Layer_1-2" data-name="Layer 1">
    <g>
      <g>
        <path class="cls-15" d="m121.2,98.87l-62.5-36.08c-2.06-1.19-5.7-1.04-8.09.34L3.89,90.1l-3.86.99v2.48c-.13.86.32,1.7,1.37,2.31l64.64,37.32c2.06,1.19,5.7,1.04,8.09-.34l48.64-28.08c1.31-.76,1.97-1.73,1.97-2.65h0s0-.06,0-.09v-2.94l-3.53-.5v.27Z"/>
        <path class="cls-8" d="m123.34,97.26L58.7,59.94c-2.06-1.19-5.7-1.04-8.09.34L1.97,88.36c-2.38,1.38-2.64,3.48-.58,4.67l64.64,37.32c2.06,1.19,5.7,1.04,8.09-.34l48.64-28.08c2.38-1.38,2.64-3.48.58-4.67Z"/>
      </g>
      <path class="cls-4" d="m54.82.31c-.82-.47-1.85-.41-2.89.19l-12.76,7.37s0,0,0,0L5.91,27.1c-2.17,1.25-3.94,4.61-3.94,7.48v56.86c0,.15.21.27.47.27s.47-.12.47-.27v-56.86c0-2.53,1.59-5.58,3.46-6.66l6.68-3.85h0S43.2,6.63,43.2,6.63h0l9.2-5.31c.44-.25.85-.38,1.22-.38.26,0,.5.06.72.19.67.38,1.05,1.32,1.05,2.58v56.88c0,.15.21.27.47.27s.47-.12.47-.27V3.71c0-1.6-.55-2.84-1.52-3.4Z"/>
      <g>
        <path class="cls-4" d="m115.71,35.49c-.82-.47-1.85-.41-2.89.19l-1.2.7c.28.19.53.41.75.66l.92-.53c.44-.25.85-.38,1.22-.38.26,0,.5.06.72.19.67.38,1.05,1.32,1.05,2.58v56.88c0,.15.21.27.47.27s.47-.12.47-.27v-56.88c0-1.6-.55-2.84-1.52-3.4Z"/>
        <path class="cls-4" d="m110.17,32.26c-.82-.47-1.85-.41-2.89.19l-1,.58c.27.2.5.43.7.68l.77-.44c.44-.25.85-.38,1.22-.38.26,0,.5.06.72.19.67.38,1.05,1.32,1.05,2.58v56.88c0,.15.21.27.47.27s.47-.12.47-.27v-56.88c0-1.6-.55-2.84-1.52-3.4Z"/>
        <path class="cls-4" d="m77.01,13.14c-.82-.47-1.85-.41-2.89.19l-1.34.77c.32.16.61.35.9.57l.92-.53c.44-.25.85-.38,1.22-.38.26,0,.5.06.72.19.67.38,1.05,1.32,1.05,2.58v56.88c0,.15.21.27.47.27s.47-.12.47-.27V16.54c0-1.6-.55-2.84-1.52-3.4Z"/>
        <path class="cls-4" d="m82.54,16.41c-.82-.47-1.85-.41-2.89.19l-1.07.61c.32.16.61.36.87.59l.67-.38c.44-.25.85-.38,1.22-.38.26,0,.5.06.72.19.67.38,1.05,1.32,1.05,2.58v56.88c0,.15.21.27.47.27s.47-.12.47-.27V19.81c0-1.6-.55-2.84-1.52-3.4Z"/>
        <path class="cls-4" d="m60.34,3.58c-.82-.47-1.85-.41-2.89.19l-1.06.61c.29.18.57.38.83.61l.7-.41c.44-.25.85-.38,1.22-.38.26,0,.5.06.72.19.67.38,1.05,1.32,1.05,2.58v56.88c0,.15.21.27.47.27s.47-.12.47-.27V6.97c0-1.6-.55-2.84-1.52-3.4Z"/>
        <path class="cls-4" d="m104.65,29.15c-.82-.47-1.85-.41-2.89.19l-1.17.68c.36.14.69.31.98.52l.66-.38c.44-.25.85-.38,1.22-.38.26,0,.5.06.72.19.67.38,1.05,1.32,1.05,2.58v56.88c0,.15.21.27.47.27s.47-.12.47-.27v-56.88c0-1.6-.55-2.84-1.52-3.4Z"/>
        <path class="cls-4" d="m71.39,10.01c-.82-.47-1.85-.41-2.89.19l-1.05.61c.15.06.3.13.44.2.18.1.34.23.5.35l.59-.34c.44-.25.85-.38,1.22-.38.26,0,.5.06.72.19.67.38,1.05,1.32,1.05,2.58v56.88c0,.15.21.27.47.27s.47-.12.47-.27V13.41c0-1.6-.55-2.84-1.52-3.4Z"/>
        <path class="cls-4" d="m65.86,6.71c-.82-.47-1.85-.41-2.89.19l-.96.55c.3.18.56.39.8.63l.63-.36c.44-.25.85-.38,1.22-.38.26,0,.5.06.72.19.67.38,1.05,1.32,1.05,2.58v56.88c0,.15.21.27.47.27s.47-.12.47-.27V10.1c0-1.6-.55-2.84-1.52-3.4Z"/>
        <path class="cls-4" d="m88.06,19.55c-.82-.47-1.85-.41-2.89.19l-1.03.59c.29.18.55.4.77.64l.72-.42c.44-.25.85-.38,1.22-.38.26,0,.5.06.72.19.67.38,1.05,1.32,1.05,2.58v56.88c0,.15.21.27.47.27s.47-.12.47-.27V22.95c0-1.6-.55-2.84-1.52-3.4Z"/>
        <path class="cls-4" d="m93.58,22.74c-.82-.47-1.85-.41-2.89.19l-1.07.62c.31.18.59.39.83.61l.71-.41c.44-.25.85-.38,1.22-.38.26,0,.5.06.72.19.67.38,1.05,1.32,1.05,2.58v56.88c0,.15.21.27.47.27s.47-.12.47-.27V26.14c0-1.6-.55-2.84-1.52-3.4Z"/>
        <path class="cls-4" d="m99.12,25.97c-.82-.47-1.85-.41-2.89.19l-.88.51c.26.2.5.43.7.69l.65-.37c.44-.25.85-.38,1.22-.38.26,0,.5.06.72.19.67.38,1.05,1.32,1.05,2.58v56.88c0,.15.21.27.47.27s.47-.12.47-.27V29.36c0-1.6-.55-2.84-1.52-3.4Z"/>
      </g>
      <g>
        <g>
          <path class="cls-1" d="m53.02,95.88c-.64-.37-2.61-1.66-2.97-2.59-.31.47-.51.86-.41,1.39-.65-.11-2.68-1.39-3.34-1.39-.08.41-.04.86.2,1.27-1.57.15-3.02.61-4.08,1.37-2.54,1.82-3.73,4.61-3.81,6.53,0,.01,0,.03,0,.04.44.87.97,1.74.97,1.74,0,0,.41-1.05.95-1.58.53-.52,1.45-.95,1.45-.95,0,0-.7,1.06-.98,1.77-.25.64-.33,1.69-.33,1.69,0,0,.46-.27,1.2-.71.74-.44,1.7-1.69,1.7-1.69,0,0,0,.74-.33,1.46-.33.72-.95,1.15-.95,1.15,0,0,1.09-.18,1.77-.57.68-.38,1.32-1.62,1.39-2.04.1-.61-.07-1.42-.07-1.42,0,0,.48.33.64.69.15.35-.05,1.2-.05,1.2,0,0,.26-.48.58-.8s1.27-1.18,1.48-1.43c.21-.25,1.06-1.35,1.06-1.35,0,0,.15.53-.21,1.18-.35.65-.86,1.19-.86,1.19,0,0,.95-.42,1.3-.62.35-.19.83-.6,1.77-.87s1.36.32,1.36.32c0,0-.33-.15-.86,0s-.86.74-.86.74c0,0,.35-.24.86-.27s1.54.44,2.51.86c.98.41,2.54-.17,2.54-.17,0,0,.51.48.57,1.1,1.26-.04,2.42-.2,3.21-.49,2.08-.74,1.62-4.95,1.62-4.95,0,0-5.79.07-9.07-1.83Z"/>
          <path class="cls-10" d="m54.13,102.23c-.98-.41-2.01-.89-2.51-.86s-.86.27-.86.27c0,0,.33-.59.86-.74s.86,0,.86,0c0,0-.41-.58-1.36-.32s-1.42.67-1.77.87c-.35.19-1.3.62-1.3.62,0,0,.5-.54.86-1.19.35-.65.21-1.18.21-1.18,0,0-.86,1.1-1.06,1.35-.21.25-1.15,1.12-1.48,1.43s-.58.8-.58.8c0,0,.2-.85.05-1.2-.15-.36-.64-.69-.64-.69,0,0,.18.81.07,1.42-.07.42-.71,1.66-1.39,2.04-.68.38-1.77.57-1.77.57,0,0,.62-.42.95-1.15.33-.72.33-1.46.33-1.46,0,0-.96,1.24-1.7,1.69-.74.44-1.2.71-1.2.71,0,0,.07-1.05.33-1.69.28-.71.98-1.77.98-1.77,0,0-.92.43-1.45.95-.53.53-.95,1.58-.95,1.58,0,0-.53-.87-.97-1.74-.08,2.06.53,5.02.53,5.02,0,0,3.01.46,5.62-1.32.23.55.47.72,1.11.63-.12-.41.16-1.49.8-2.17.95-1.01,1.89-1.82,3.02-2.16.04.57.19.89.67,1.17,0-.78.72-1.66,1.96-1.2,1.44.53,3.27.72,4.93.68-.06-.62-.57-1.1-.57-1.1,0,0-1.57.58-2.54.17Z"/>
        </g>
        <path class="cls-10" d="m91.75,54.79c.47-.68-.16-1.68-1.92-.87-1.76.81-2.96,2.86-2.96,2.86,0,0,3.78,4.37,5.03,2.95,1.26-1.42-.63-4.26-.15-4.94Z"/>
        <path class="cls-11" d="m90.66,55.59c-.06-.55-.21-.91-1.05-.28-.84.63-1.64,2.01-1.64,2.01l3,1.99s.44-.47.3-1.24c-.14-.77-.53-1.93-.6-2.48Z"/>
        <path class="cls-10" d="m92.26,106.49c-.35-3.54,1.45-12.26-.59-17.33s-7.51,6.03-7.51,6.03c-.03.95,3.89,12.5,5.09,14.49.56.93,3.03,1.42,4.44,1.38,1.55-.04,1.66-1.13.77-2.03-.95-.95-2.11-1.78-2.19-2.54Z"/>
        <path class="cls-12" d="m74.47,98.59s-.48.95-.71,2.03c-.23,1.08,0,1.97,0,1.97,0,0-1.18-.18-1.89-1.13-.71-.95-1.1-2.02-1.1-2.02,0,0-.6,1.9-.48,3.29.09,1.02.89,2.16.89,2.16,0,0-1.11.08-2.13-.52-.77-.45-1.82-1.78-1.82-1.78,0,0,0,1.59.32,3.05.15.71,2.44,3.62,3.67,4.28,0,0,4.61-1.72,5.8-3.33,0,0-.91-1.74-1.36-3.32-.45-1.58-1.16-4.68-1.16-4.68Z"/>
        <path class="cls-1" d="m91.13,71.82c.72-4.55-7.98-7.11-13.07-4.14-.73.43-4.37,1.94-9.17,9.81-1.21,1.99-2.37,3.68-6.21,6.52-2.6,1.92-4.95,5.51-6.51,8.52-1.56,3.01-2.38,7.16-.18,11.35,2.19,4.19,6.82,6.58,10.55,8.69,3.33,1.88,6.17,3.27,7.64,2.71,1.46-.57.31-3.2-.53-3.87-.97-.77-2.45-1.48-2.45-1.48-1.23-.66-3.51-3.57-3.67-4.28-.32-1.46-.32-3.05-.32-3.05,0,0,1.05,1.32,1.82,1.78,1.02.6,2.13.52,2.13.52,0,0-.8-1.14-.89-2.16-.12-1.39.48-3.29.48-3.29,0,0,.39,1.07,1.1,2.02.71.95,1.89,1.13,1.89,1.13,0,0-.23-.89,0-1.97.23-1.08.71-2.03.71-2.03,0,0,.65,2.85,1.1,4.47.25-1.55.86-2.76.86-2.76,0,0,.24,1.47.8,3.33.56,1.86,1.73,4.68,2.6,6.81s1.1,3.16,2.54,4.02c.75.45,1.41.99,1.87,1.4,1.45.17,2.42.14,2.43-.61.02-2.34-2.18-2.35-2.21-4.25-.03-1.91.37-10.39.37-10.39.12-2.65-1.13-10.12-1.13-10.12,0,0-.17-4.34-.29-5.28-.21-1.66-1.04-3.76-1.04-3.76,0,0,.64-.11,1.21.56.56.65,1.24,1.89,1.24,1.89,0,0,.03-1.31-.09-2.43-.16-1.46-.86-3.28-.86-3.28.56.21,1.01.38,1.52,1.68.41,1.03,1.05,2.05,1.05,2.05,0,0,.44-1.31.38-2.66-.06-1.54-.33-3.35-.33-3.35,0,0,1.44.36,2.22,1.49.53-.71-.15-2.85-.15-2.85,0,0,1.98.72,3.33,2.29-.61-1.75-1.01-3.68-.8-5.03Z"/>
        <path class="cls-10" d="m79.84,110.45c-.87-2.13-2.04-4.95-2.6-6.81-.56-1.86-.8-3.33-.8-3.33,0,0-.61,1.21-.86,2.76.02.07.04.14.06.21.45,1.58,1.36,3.32,1.36,3.32,0,0,2.05,5.02,3.24,7.04.69,1.17,1.04,1.82,3.02,2.11.35.05.68.1.99.13-.46-.41-1.11-.95-1.87-1.4-1.44-.87-1.68-1.89-2.54-4.02Z"/>
        <path class="cls-12" d="m91.92,76.85c-1.35-1.57-3.33-2.29-3.33-2.29,0,0,.68,2.14.15,2.85-.78-1.12-2.22-1.49-2.22-1.49,0,0,.27,1.81.33,3.35.05,1.35-.38,2.66-.38,2.66,0,0-.64-1.01-1.05-2.05-.51-1.3-.96-1.47-1.52-1.68,0,0,.7,1.82.86,3.28.12,1.12.09,2.43.09,2.43,0,0-.68-1.24-1.24-1.89-.58-.67-1.21-.56-1.21-.56,0,0,.83,2.1,1.04,3.76.12.94.29,5.28.29,5.28,0,0,1.25,7.47,1.13,10.12,0,0,3.31-2.46,3.62-4.26.32,1.25.63,1.55,1.13,1.73.15-.42.41-3.92.54-5.32.32.8.71,1.17,1.36,1.09-.14-1.23.35-3.57.43-5.89.41.16.86.21,1.25,0-.49-1.1-.74-4.89-1.04-6.19.89-.02,1.48-.2,2.13-.79-.66-.35-1.65-2.12-2.35-4.13Z"/>
        <path class="cls-1" d="m94.27,64.05c-.34-2.23-1.89-4.8-3.79-5.86-1.89-1.06-3.94-1.62-5.68-1.74-1.74-.12-4.77-.02-6,1.18-.94.92-3.82,4.36-3.67,6.82.08,1.28-.47,2.37-1.38,2.52-.04.39.87.6,1.5.28-.21.93-.9,1.49-1.46,1.89.38.63,2.32.58,2.86.85,0,0,4.36,3.13,6.61,3.52,2.12.37,5.69.77,8.02-1.28,1.57.01,4.08-.72,5-1.63,1.5-1.5,2.17-4.21.95-5.01-1.13-.73-2.22-.84-2.96-1.55Z"/>
        <path class="cls-10" d="m78.03,55.27c-.8-.27-1.49-.39-2.04-.44-.98-.09-1.14.38-.77,1.2.21.47.33,1.04.59,1.78.44,1.22.59,3.25.85,4.4.26,1.15,1.08,1.61,1.08,1.61,0,0,1.89-4.21,4.02-5.88,0,0-1.52-1.94-3.73-2.68Z"/>
        <g>
          <path class="cls-12" d="m69.92,82.2s-.78.92-.66,1.54c.12.62.27,1.3.27,1.3,0,0,.57-.74.39-1.3-.18-.56,0-1.54,0-1.54Z"/>
          <path class="cls-12" d="m69.71,79.76c.01.61,0,1.2,0,1.2,0,0,.53-.55.49-1.2-.04-.65-.16-1.28-.16-1.28,0,0-.34.67-.33,1.28Z"/>
          <path class="cls-12" d="m74.19,73.87c.01.61,0,1.2,0,1.2,0,0,.53-.55.49-1.2-.04-.65-.16-1.28-.16-1.28,0,0-.34.67-.33,1.28Z"/>
          <path class="cls-12" d="m67.22,83.2s-.04,1.14.37,1.58c.42.43.65,1.1.65,1.1,0,0,.44-.79,0-1.34-.44-.55-1.03-1.34-1.03-1.34Z"/>
          <path class="cls-12" d="m50.61,95.48s-.04.63.43.98c.47.35,2.05.39,2.05.39,0,0-.79-.48-1.38-.72-.59-.24-1.1-.65-1.1-.65Z"/>
          <path class="cls-12" d="m50.06,98.59s.59-.24,1.06-.64c.47-.4.73-.74.73-.74,0,0-.61.02-1.08.44-.47.42-.71.94-.71.94Z"/>
          <path class="cls-12" d="m49.11,96.85c-.67.27-1.38.61-1.38.61,0,0,.71.19,1.26,0,.55-.19,1.62-.74,1.62-.74,0,0-.83-.14-1.5.13Z"/>
          <path class="cls-12" d="m49.39,96.17c-.57-.32-1.46-.51-1.46-.51,0,0,.31.5.91.8s1.22.39,1.22.39c0,0-.1-.36-.67-.68Z"/>
          <path class="cls-12" d="m44.03,95.84s.51.34,1.14.18c.63-.16,1.58-.79,1.58-.79,0,0-.91,0-1.58.26-.67.26-1.14.35-1.14.35Z"/>
          <path class="cls-12" d="m45.39,97.95s.65-.29,1.03-.74c.37-.45.53-.96.53-.96,0,0-.67.13-1.06.6s-.49,1.1-.49,1.1Z"/>
          <path class="cls-12" d="m51.48,98.95s.67.11,1.14-.17c.47-.29,1.14-.83,1.14-.83,0,0-.87.03-1.34.31-.47.28-.95.69-.95.69Z"/>
          <path class="cls-12" d="m44.46,97.22c-.75.3-1.06.74-1.06.74,0,0,.87-.13,1.3-.3.43-.17,1.47-.57,1.47-.57,0,0-.96-.17-1.71.13Z"/>
          <path class="cls-12" d="m42.53,97.65c-.16.61-.16,1.3-.16,1.3,0,0,.59-.73.75-1.3.16-.57.28-1.19.28-1.19,0,0-.71.58-.87,1.19Z"/>
          <path class="cls-12" d="m40.91,99.09c-.08.59-.32,1.48-.32,1.48,0,0,.71-.56.75-1.34s0-1.34,0-1.34c0,0-.35.6-.43,1.19Z"/>
          <path class="cls-12" d="m41.54,100.25c-.28.54-.18,1.02-.18,1.02,0,0,.89-.61,1.01-.96.12-.34.51-.96.51-.96,0,0-1.06.36-1.34.9Z"/>
          <path class="cls-12" d="m44.78,99.68c-.44.51-.6.94-.6.94,0,0,.56-.19.99-.74.43-.55.99-1.1.99-1.1,0,0-.95.39-1.39.91Z"/>
          <path class="cls-12" d="m43.55,100.25c-.08.38-.16,1.02-.16,1.02,0,0,.47-.87.63-1.24.16-.37,0-1.24,0-1.24,0,0-.39,1.08-.47,1.47Z"/>
          <path class="cls-1" d="m71.54,104.63s.18.93.5,1.34c.32.41.89.91.89.91,0,0,0-.65-.35-1.12-.35-.47-1.04-1.12-1.04-1.12Z"/>
          <path class="cls-10" d="m71.25,92.29s-.11.83.29,2.25c.4,1.42,1.19,2.19,1.19,2.19,0,0,.77-.92-.17-2.34s-1.31-2.1-1.31-2.1Z"/>
          <path class="cls-10" d="m70.85,96.19c-.62-.12-1.75-.35-1.75-.35,0,0,.47.74,1.04.89.56.15,1.41.35,1.41.35,0,0-.07-.77-.7-.89Z"/>
          <path class="cls-10" d="m66.88,97.08s-.18.86.15,1.3c.33.44.71,1.06.71,1.06,0,0,.35-.56-.03-1.09-.38-.53-.83-1.27-.83-1.27Z"/>
          <path class="cls-10" d="m65.52,96.46s-.53,1.01-.27,1.63c.27.62.71,1.36.71,1.36,0,0,.38-.53.06-1.18-.33-.65-.5-1.8-.5-1.8Z"/>
          <path class="cls-10" d="m67.62,97.08c.15.53.12,2.36.12,2.36,0,0,.47-1.09.5-1.77.03-.68-.35-2.19-.35-2.19,0,0-.42,1.06-.27,1.6Z"/>
          <path class="cls-10" d="m63.92,101.11s-.38,1.04,0,1.83c.38.8.8,1.32.8,1.32,0,0,.03-.96-.18-1.41-.21-.44-.62-1.75-.62-1.75Z"/>
          <path class="cls-10" d="m61.74,103.09c-.09.71-.09,1.39-.09,1.39,0,0,.65-.59.74-1.39.09-.8,0-1.98,0-1.98,0,0-.56,1.27-.65,1.98Z"/>
          <path class="cls-10" d="m61.23,100.78c0,.83.06,1.28.06,1.28,0,0,.45-.54.48-1.44.03-.91-.12-1.53-.12-1.53,0,0-.41.86-.41,1.69Z"/>
          <path class="cls-10" d="m58.33,98.26s-.59.47-.65,1.18c-.06.71.09,1.66.09,1.66,0,0,.65-.62.56-1.21-.09-.59,0-1.63,0-1.63Z"/>
          <path class="cls-10" d="m59.04,100.25s.86-.74.98-1.15c.12-.41.24-1.44.24-1.44,0,0-.8,1-.98,1.44-.18.44-.24,1.15-.24,1.15Z"/>
          <path class="cls-12" d="m60.93,89.51s.72-.53,1.05-1.18c.33-.64.39-1.67.39-1.67,0,0-.53.79-.92,1.34-.4.55-.51,1.51-.51,1.51Z"/>
          <path class="cls-12" d="m58.57,89.92c-.39.66-.31,1.18-.31,1.18,0,0,.55-.59.98-1.21.43-.62.6-1.21.6-1.21,0,0-.88.58-1.27,1.24Z"/>
          <path class="cls-12" d="m65.18,85.25s-.26.86,0,1.32c.26.46.97,1.26.97,1.26,0,0-.14-.58-.49-1.26-.34-.69-.49-1.32-.49-1.32Z"/>
          <path class="cls-12" d="m71.68,74.8s-.26.86,0,1.32c.26.46.97,1.26.97,1.26,0,0-.14-.58-.49-1.26-.34-.69-.49-1.32-.49-1.32Z"/>
          <path class="cls-12" d="m63.9,86.57s-.38.61-.15,1.26c.23.66.49,1.37.49,1.37,0,0,.18-.58,0-1.32-.18-.74-.33-1.32-.33-1.32Z"/>
          <path class="cls-12" d="m63.36,84.5c-.33.61-.69,1.28-.69,1.28,0,0,.55-.25.98-.88s.75-1.13.75-1.13c0,0-.71.12-1.04.73Z"/>
          <path class="cls-12" d="m73.4,72.8c-.33.61-.69,1.28-.69,1.28,0,0,.55-.25.98-.88.43-.63.75-1.13.75-1.13,0,0-.7.12-1.04.73Z"/>
          <path class="cls-12" d="m68,80.7c-.06.69-.13,1.45-.13,1.45,0,0,.4-.45.55-1.2.15-.75.24-1.34.24-1.34,0,0-.6.39-.66,1.08Z"/>
          <path class="cls-12" d="m66,87.35c0,.74,0,1.14,0,1.14,0,0,.66-.65.59-1.43-.08-.78-.24-1.72-.24-1.72,0,0-.34,1.26-.35,2.01Z"/>
          <path class="cls-12" d="m72.41,77.34c0,.74,0,1.14,0,1.14,0,0,.66-.65.59-1.43-.08-.78-.24-1.72-.24-1.72,0,0-.34,1.26-.35,2.01Z"/>
          <path class="cls-12" d="m70.55,78.16s.03,1.31.23,2.02c.2.72.32,1.09.32,1.09,0,0,.46-.81.16-1.54-.29-.73-.71-1.58-.71-1.58Z"/>
          <path class="cls-12" d="m62.43,88.77s-.78.92-.66,1.54c.12.62.27,1.3.27,1.3,0,0,.57-.74.39-1.3-.18-.56,0-1.54,0-1.54Z"/>
          <path class="cls-12" d="m71.27,75.22s-.78.92-.66,1.54c.12.62.27,1.3.27,1.3,0,0,.57-.74.39-1.3-.18-.56,0-1.54,0-1.54Z"/>
          <path class="cls-12" d="m60.44,90.56s-.44,1.03-.44,1.49v1.25s.6-.17.44-1.25c-.16-1.08,0-1.49,0-1.49Z"/>
          <path class="cls-12" d="m56.89,94.11s-.44,1.03-.44,1.49v1.25s.6-.17.44-1.25c-.16-1.08,0-1.49,0-1.49Z"/>
          <path class="cls-12" d="m58.34,92.7c-.16.59-.34,1.42-.34,1.42,0,0,.93-.47.89-1.06-.04-.59,0-1.45,0-1.45,0,0-.4.5-.55,1.09Z"/>
          <path class="cls-12" d="m56.64,93.11c-.35.5-.8,1.22-.8,1.22,0,0,1.04-.13,1.2-.69.17-.57.5-1.36.5-1.36,0,0-.55.34-.9.84Z"/>
          <path class="cls-12" d="m62.96,89.66s-.16.84,0,1.63c.16.79.28,1.22.28,1.22,0,0,.47-.54.24-1.41-.24-.87-.51-1.43-.51-1.43Z"/>
          <path class="cls-12" d="m65.67,83.77c.01.61,0,1.2,0,1.2,0,0,.53-.55.49-1.2s-.16-1.28-.16-1.28c0,0-.34.67-.33,1.28Z"/>
          <path class="cls-10" d="m76.51,71.05c-.35.28-.87.55-.87.55,0,0,.77.1,1.3-.3s.2-.97.2-.97c0,0-.28.44-.63.71Z"/>
          <path class="cls-10" d="m77.81,71.82c.06.45.18.85.18.85,0,0,.22-.37.22-.79s-.22-.97-.22-.97c0,0-.24.46-.18.92Z"/>
          <path class="cls-10" d="m89.3,72.31s.08.49.28.85c.2.35.95.67.95.67,0,0-.17-.29-.44-.77-.27-.48-.78-.74-.78-.74Z"/>
          <path class="cls-10" d="m88.18,73.2c-.11.49-.22.77-.22.77,0,0,.61-.35.75-.83.14-.47-.24-1.08-.24-1.08,0,0-.18.65-.3,1.14Z"/>
          <path class="cls-10" d="m86.35,72.06s-.12.43.12,1.01c.24.58.47.9.47.9,0,0,.18-.53.02-.96-.16-.42-.61-.96-.61-.96Z"/>
          <path class="cls-10" d="m85.36,72.85c-.14.34-.18.98-.18.98,0,0,.55-.33.65-.82.1-.48-.1-.96-.1-.96,0,0-.24.45-.37.79Z"/>
          <path class="cls-1" d="m89.75,78.06s-.05.47.17,1.24c.22.77.48,1.6.48,1.6,0,0,.27-.77,0-1.54-.27-.77-.65-1.3-.65-1.3Z"/>
          <path class="cls-1" d="m88.74,79.72c-.09.77,0,1.6,0,1.6,0,0,.53-1.06.56-1.83.03-.77-.18-1.42-.18-1.42,0,0-.29.89-.38,1.66Z"/>
          <path class="cls-1" d="m88.54,82.76s.47.8.92,1.39c.44.59.8,1.18.8,1.18,0,0,.28-.92-.34-1.63-.61-.71-1.38-.95-1.38-.95Z"/>
          <path class="cls-1" d="m89.3,85.34c-.09.74-.15,1.54-.15,1.54,0,0,.52-.68.59-1.63.06-.95-.44-1.63-.44-1.63,0,0,.09.98,0,1.72Z"/>
          <path class="cls-1" d="m86.67,85.04s-.27,1.01,0,1.6.65,1.45.65,1.45c0,0,.27-.92-.03-1.57-.3-.65-.62-1.48-.62-1.48Z"/>
          <path class="cls-1" d="m87.02,86.67c-.1.52.3,1.42.37,2.1-.01-.15.35-1.69.38-1.89.03-.21-.12-1.54-.12-1.54,0,0-.52.81-.62,1.33Z"/>
          <path class="cls-1" d="m88.54,88.09s.23.74.47,1.09c.24.35.45,1.12.45,1.12,0,0,.18-.62-.15-1.27-.33-.65-.77-.95-.77-.95Z"/>
          <path class="cls-1" d="m90.31,86.88s-.33,1.01-.18,1.42c.15.41.39,1.36.39,1.36,0,0,.24-.59.08-1.39-.16-.8-.28-1.39-.28-1.39Z"/>
          <path class="cls-1" d="m86.79,89.89s.25,1.18.64,1.48c.39.3.92.92.92.92,0,0,.13-.71-.39-1.27-.52-.56-1.17-1.12-1.17-1.12Z"/>
          <path class="cls-1" d="m87.77,89.5s-.29.64-.19,1.12c.1.48.54.98.54.98,0,0,.15-.4-.03-.98-.18-.58-.32-1.12-.32-1.12Z"/>
          <path class="cls-1" d="m91.4,83.77s-.15.56-.15,1.27.44,1.12.44,1.12c0,0,.09-.8-.06-1.42-.15-.62-.24-.98-.24-.98Z"/>
          <path class="cls-1" d="m88.18,94.98c-.15.56-.41,1.04-.41,1.04,0,0,.62-.3.77-1.04.15-.74-.24-1.33-.24-1.33,0,0,.03.77-.12,1.33Z"/>
          <path class="cls-1" d="m86.79,92.08s.09,1.09.35,1.77c.27.68.43,1.3.43,1.3,0,0,.42-1.12,0-1.86-.42-.74-.79-1.21-.79-1.21Z"/>
          <path class="cls-1" d="m85.61,95.84s-.33,1.15-.21,1.54c.12.38.41,1.21.41,1.21,0,0,.33-.83.12-1.36-.21-.53-.33-1.39-.33-1.39Z"/>
          <path class="cls-1" d="m84.93,91.19s.52.84.76,1.1c.24.27.66.62.66.62,0,0,.05-.68-.35-1.09-.39-.41-1.07-.63-1.07-.63Z"/>
          <path class="cls-1" d="m85.16,88.77s.04,1.12.21,1.54c.17.41.63.98.63.98,0,0,.07-.58-.16-1.26s-.68-1.26-.68-1.26Z"/>
          <path class="cls-1" d="m73.12,104.26s.06.72.56,1.29c.5.56.83,1.01.83,1.01,0,0,.27-.62-.24-1.12-.5-.5-1.15-1.17-1.15-1.17Z"/>
          <path class="cls-1" d="m74.31,103.09s-.37,1.23-.27,1.72c.1.49.27,1.36.27,1.36,0,0,.53-.77.41-1.24-.12-.47-.41-1.83-.41-1.83Z"/>
          <path class="cls-1" d="m71.73,107.44c-.53-.28-1.42-.64-1.42-.64,0,0,.12.71.68.92.56.21,1.24.35,1.24.35,0,0,.03-.35-.5-.64Z"/>
          <path class="cls-12" d="m74.43,85.34s-.56,1.22-.41,2.25c.15,1.03.41,1.91.41,1.91,0,0,.41-.46.3-1.67-.11-1.22-.3-2.49-.3-2.49Z"/>
          <path class="cls-12" d="m72.93,89.2s.32-.22.72-.81c.4-.59.72-1.82.72-1.82,0,0-.63.7-.93,1.32-.3.62-.52,1.32-.52,1.32Z"/>
          <path class="cls-12" d="m75.58,89.66s.03,1.05.38,1.42c.35.38.83.84.83.84,0,0,.06-.77-.3-1.13-.35-.36-.92-1.13-.92-1.13Z"/>
          <path class="cls-12" d="m74.93,91.1s-.15,1.07,0,1.81c.15.74.33,1.21.33,1.21,0,0,.33-.47.15-1.26-.18-.78-.47-1.76-.47-1.76Z"/>
          <path class="cls-12" d="m76.35,93.65c-.15.68-.16,1.18-.16,1.18,0,0,.55-.38.61-.86.06-.47,0-1.24,0-1.24,0,0-.3.24-.45.92Z"/>
          <path class="cls-12" d="m77.26,93.62s.12.77.44,1.21c.33.44.71.65.71.65,0,0-.03-.59-.35-.93-.33-.34-.8-.93-.8-.93Z"/>
          <path class="cls-12" d="m76.19,96.02s-.01,1.2,0,1.63c.01.44.32,1.09.32,1.09,0,0,.23-.65.14-1.27-.09-.62-.46-1.45-.46-1.45Z"/>
          <path class="cls-12" d="m75.16,96.61c0,.5,0,1.24,0,1.24,0,0,.33-.56.42-1.27.09-.71,0-1.27,0-1.27,0,0-.43.8-.42,1.3Z"/>
          <path class="cls-12" d="m77.68,97.95s-.21,1.23-.24,1.73c-.03.5.24,1.27.24,1.27,0,0,.38-.62.33-1.15-.06-.53-.33-1.85-.33-1.85Z"/>
          <path class="cls-12" d="m73.76,83.03c-.19.59-.47,1.24-.47,1.24,0,0,.67-.23.9-1.07s.19-1.68.19-1.68c0,0-.42.92-.62,1.51Z"/>
          <path class="cls-12" d="m63.54,105.4s.37.94.7,1.4c.34.46.94,1.29.94,1.29,0,0,.17-.71-.46-1.54-.62-.83-1.19-1.15-1.19-1.15Z"/>
          <path class="cls-12" d="m65.91,107.14s-.07.29.09.95c.15.67.59,1.38.59,1.38,0,0,.4-.39,0-1.1-.4-.71-.68-1.22-.68-1.22Z"/>
          <path class="cls-12" d="m63.54,106.52c-.82-.09-1.77-.35-1.77-.35,0,0,.34.56.9.71.56.15,2.05.27,2.05.27,0,0-.37-.53-1.19-.62Z"/>
          <path class="cls-12" d="m69.6,109.47c-.57-.28-1.36-.55-1.36-.55,0,0,.37.63.86,1.01.48.37,1.45.57,1.45.57,0,0-.38-.75-.95-1.03Z"/>
        </g>
        <path class="cls-10" d="m97.03,68.41s-.15.59-.96,1.07-2.06.91-3.4.87c-1.34-.04-2.77-.39-3.93-.74-1.16-.35-1.81-.07-2.24.47-.43.55-.64,1.06-.64,1.06,0,0,3.95,1.21,5.21,1.29,1.27.09,3.95-.4,5.17-1.52,1.22-1.12,1.61-2.94,1.62-3.91,0-.97-.83,1.41-.83,1.41Z"/>
        <path class="cls-14" d="m96.33,65.13s-2.14.39-2.14,1.28c0,.68.9.92,1.3,1.13.59.29,1.54.87,1.54.87,0,0,1.27-1.46.84-2.38-.25-.53-1.54-.9-1.54-.9Z"/>
        <g>
          <path class="cls-10" d="m86.68,61.73c-1.66.47-1.9,1.95-1.9,1.95,0,0,.84,1.3,2.24.95,1.4-.35,1.67-1.6,1.67-1.6,0,0-.35-1.77-2.01-1.3Z"/>
          <path class="cls-3" d="m86.8,62.38c-.73.27-.94,1.11-.94,1.11,0,0,.56.47,1.16.4.71-.07.94-.81.94-.81,0,0-.34-1-1.16-.7Z"/>
          <path class="cls-5" d="m86.5,63.17s.23.43.53.41c.31-.02.35-.36.35-.36,0,0-.35.12-.88-.06Z"/>
          <path class="cls-6" d="m87.12,62.65c-.11,0-.2.09-.2.2s.09.2.2.2.2-.09.2-.2-.09-.2-.2-.2Z"/>
        </g>
        <g>
          <path class="cls-10" d="m91.26,61.95c.1.7,1.24,1.68,2.08,1.12.84-.56.24-1.59-.18-2.05-.48-.22-2.05-.06-1.9.93Z"/>
          <path class="cls-3" d="m92.41,61.39c-.47.23-.49.89-.49.89,0,0,.54.39.89.33.35-.06.6-.68.6-.68,0,0-.34-.87-1-.55Z"/>
          <path class="cls-5" d="m92.19,62.1s.23.43.53.41c.31-.02.35-.36.35-.36,0,0-.35.12-.88-.06Z"/>
          <path class="cls-6" d="m92.81,61.57c-.11,0-.2.09-.2.2s.09.2.2.2.2-.09.2-.2-.09-.2-.2-.2Z"/>
        </g>
        <path class="cls-10" d="m87.68,60.25c-.7,0-1.82.89-1.82.89,0,0,.93-.27,1.7-.21s1.13.1,1.13.1c0,0,0-.78-1.01-.78Z"/>
        <path class="cls-10" d="m90.72,60.25c-.21.51.15.68.15.68,0,0,.33-.72.83-1,0,0-.77-.18-.98.32Z"/>
        <path class="cls-11" d="m79.21,56.81c-.91-.55-1.49-.91-1.97-.59-.28.18-.08.59.23,1.3.32.71.31,2.32.53,3.17.22.85.68,1.28.68,1.28,0,0,.97-1.65,1.42-2.22.44-.57.88-1.08.88-1.08,0,0-.87-1.3-1.78-1.85Z"/>
      </g>
      <g>
        <path class="cls-9" d="m38.38,86.1c-.02-.1-.05-.19-.08-.29l-1.2-4.14-2.56.94c-2.92-1.25-6.79-1.27-9.09.06l-8.2,4.73-2.93-1.51c-.02.16-.83,3.64-1.09,4.75-.03.1-.05.2-.07.3,0,.02,0,.04,0,.04h0c-.18,1.24.65,2.59,2.43,3.62l.46.27c2.97,1.72,7.51,1.9,10.08.42l10.59-6.11c1.39-.8,1.93-1.94,1.67-3.08h0Z"/>
        <path class="cls-7" d="m34.88,79l-.41-.24c-2.68-1.54-6.76-1.71-9.08-.38l-9.53,5.5c-2.32,1.34-2.02,3.7.65,5.24l.41.24c2.68,1.54,6.76,1.71,9.08.38l9.53-5.5c2.32-1.34,2.02-3.7-.65-5.24Z"/>
        <g>
          <path class="cls-13" d="m20.94,83.53c-2.94,0-5.32,1.34-5.32,2.99,0,.78.54,1.49,1.41,2.03.97-.59,2.36-.97,3.91-.97s2.94.37,3.91.97c.87-.53,1.41-1.24,1.41-2.03,0-1.65-2.38-2.99-5.32-2.99Z"/>
          <path class="cls-9" d="m17.03,88.55c.97.59,2.36.97,3.91.97s2.94-.37,3.91-.97c-.97-.59-2.36-.97-3.91-.97s-2.94.37-3.91.97Z"/>
        </g>
        <g>
          <path class="cls-13" d="m29.69,78.54c-2.94,0-5.32,1.34-5.32,2.99,0,.78.54,1.49,1.41,2.03.97-.59,2.36-.97,3.91-.97s2.94.37,3.91.97c.87-.53,1.41-1.24,1.41-2.03,0-1.65-2.38-2.99-5.32-2.99Z"/>
          <path class="cls-9" d="m25.78,83.56c.97.59,2.36.97,3.91.97s2.94-.37,3.91-.97c-.97-.59-2.36-.97-3.91-.97s-2.94.37-3.91.97Z"/>
        </g>
        <polygon class="cls-2" points="28.51 91.39 28.78 92.43 34.6 89.07 34.34 88.02 28.51 91.39"/>
      </g>
      <path class="cls-4" d="m121.24,38.67c-.82-.47-1.85-.41-2.89.19l-12.76,7.37s0,0,0,0l-33.26,19.23c-2.17,1.25-3.94,4.61-3.94,7.48v56.86c0,.15.21.27.47.27s.47-.12.47-.27v-56.86c0-2.53,1.59-5.58,3.46-6.66l6.68-3.85h0s30.14-17.43,30.14-17.43h0s9.2-5.31,9.2-5.31c.44-.25.85-.38,1.22-.38.26,0,.5.06.72.19.67.38,1.05,1.32,1.05,2.58v56.88c0,.15.21.27.47.27s.47-.12.47-.27v-56.88c0-1.6-.55-2.84-1.52-3.4Z"/>
      <g>
        <path class="cls-4" d="m70.06,62.8l-24.24-14.01s0,0-.01,0L9.16,27.72c-1.04-.6-2.06-.67-2.89-.19-.97.56-1.52,1.8-1.52,3.4v56.88c0,.15.21.27.47.27s.47-.12.47-.27V30.93c0-1.25.38-2.19,1.05-2.58.22-.13.46-.19.72-.19.37,0,.78.13,1.22.38l9.2,5.31h0s31.46,18.08,31.46,18.08l13.55,7.84h0s6.68,3.85,6.68,3.85c1.88,1.08,3.46,4.13,3.46,6.66v56.86c0,.15.21.27.47.27s.47-.12.47-.27v-56.86c0-2.87-1.77-6.22-3.94-7.48Z"/>
        <path class="cls-4" d="m86.65,53.28l-24.24-14.01s0,0-.01,0L25.75,18.2c-1.04-.6-2.06-.67-2.89-.19-.97.56-1.52,1.8-1.52,3.4v56.88c0,.15.21.27.47.27s.47-.12.47-.27V21.41c0-1.25.38-2.19,1.05-2.58.22-.13.46-.19.72-.19.37,0,.78.13,1.22.38l9.2,5.31h0s31.46,18.08,31.46,18.08l13.55,7.84h0s6.68,3.85,6.68,3.85c1.88,1.08,3.46,4.13,3.46,6.66v56.86c0,.15.21.27.47.27s.47-.12.47-.27v-56.86c0-2.87-1.77-6.22-3.94-7.48Z"/>
        <path class="cls-4" d="m97.71,46.87l-24.24-14.01s0,0-.01,0L36.82,11.79c-1.04-.6-2.06-.67-2.89-.19-.97.56-1.52,1.8-1.52,3.4v56.88c0,.15.21.27.47.27s.47-.12.47-.27V15c0-1.25.38-2.19,1.05-2.58.22-.13.46-.19.72-.19.37,0,.78.13,1.22.38l9.2,5.31h0s31.46,18.08,31.46,18.08l13.55,7.84h0s6.68,3.85,6.68,3.85c1.88,1.08,3.46,4.13,3.46,6.66v56.86c0,.15.21.27.47.27s.47-.12.47-.27v-56.86c0-2.87-1.77-6.22-3.94-7.48Z"/>
        <path class="cls-4" d="m92.19,50.06l-24.24-14.01s0,0-.01,0L31.29,14.98c-1.04-.6-2.06-.67-2.89-.19-.97.56-1.52,1.8-1.52,3.4v56.88c0,.15.21.27.47.27s.47-.12.47-.27V18.18c0-1.25.38-2.19,1.05-2.58.22-.13.46-.19.72-.19.37,0,.78.13,1.22.38l9.2,5.31h0l31.46,18.08,13.55,7.84h0s6.68,3.85,6.68,3.85c1.88,1.08,3.46,4.13,3.46,6.66v56.86c0,.15.21.27.47.27s.47-.12.47-.27v-56.86c0-2.87-1.77-6.22-3.94-7.48Z"/>
        <path class="cls-4" d="m114.38,37.33l-24.24-14.01s0,0-.01,0L53.49,2.25c-1.04-.6-2.06-.67-2.89-.19-.97.56-1.52,1.8-1.52,3.4v56.88c0,.15.21.27.47.27s.47-.12.47-.27V5.45c0-1.25.38-2.19,1.05-2.58.22-.13.46-.19.72-.19.37,0,.78.13,1.22.38l9.2,5.31h0s31.46,18.08,31.46,18.08l13.55,7.84h0s6.68,3.85,6.68,3.85c1.88,1.08,3.46,4.13,3.46,6.66v56.86c0,.15.21.27.47.27s.47-.12.47-.27v-56.86c0-2.87-1.77-6.22-3.94-7.48Z"/>
        <path class="cls-4" d="m81.12,56.47l-24.24-14.01s0,0-.01,0L20.23,21.39c-1.04-.6-2.06-.67-2.89-.19-.97.56-1.52,1.8-1.52,3.4v56.88c0,.15.21.27.47.27s.47-.12.47-.27V24.6c0-1.25.38-2.19,1.05-2.58.22-.13.46-.19.72-.19.37,0,.78.13,1.22.38l9.2,5.31h0l31.46,18.08,13.55,7.84h0s6.68,3.85,6.68,3.85c1.88,1.08,3.46,4.13,3.46,6.66v56.86c0,.15.21.27.47.27s.47-.12.47-.27v-56.86c0-2.87-1.77-6.22-3.94-7.48Z"/>
        <path class="cls-4" d="m103.24,43.73l-24.24-14.01s0,0-.01,0L42.34,8.65c-1.04-.6-2.06-.67-2.89-.19-.97.56-1.52,1.8-1.52,3.4v56.88c0,.15.21.27.47.27s.47-.12.47-.27V11.85c0-1.25.38-2.19,1.05-2.58.22-.13.46-.19.72-.19.37,0,.78.13,1.22.38l9.2,5.31h0l31.46,18.08,13.55,7.84h0s6.68,3.85,6.68,3.85c1.88,1.08,3.46,4.13,3.46,6.66v56.86c0,.15.21.27.47.27s.47-.12.47-.27v-56.86c0-2.87-1.77-6.22-3.94-7.48Z"/>
        <path class="cls-4" d="m75.6,59.58l-24.24-14.01s0,0-.01,0L14.7,24.5c-1.04-.6-2.06-.67-2.89-.19-.97.56-1.52,1.8-1.52,3.4v56.88c0,.15.21.27.47.27s.47-.12.47-.27V27.7c0-1.25.38-2.19,1.05-2.58.22-.13.46-.19.72-.19.37,0,.78.13,1.22.38l9.2,5.31h0s31.46,18.08,31.46,18.08l13.55,7.84h0s6.68,3.85,6.68,3.85c1.88,1.08,3.46,4.13,3.46,6.66v56.86c0,.15.21.27.47.27s.47-.12.47-.27v-56.86c0-2.87-1.77-6.22-3.94-7.48Z"/>
        <path class="cls-4" d="m114.38,37.33l-24.24-14.01s0,0-.01,0L53.49,2.25c-1.04-.6-2.06-.67-2.89-.19-.97.56-1.52,1.8-1.52,3.4v56.88c0,.15.21.27.47.27s.47-.12.47-.27V5.45c0-1.25.38-2.19,1.05-2.58.22-.13.46-.19.72-.19.37,0,.78.13,1.22.38l9.2,5.31h0s31.46,18.08,31.46,18.08l13.55,7.84h0s6.68,3.85,6.68,3.85c1.88,1.08,3.46,4.13,3.46,6.66v56.86c0,.15.21.27.47.27s.47-.12.47-.27v-56.86c0-2.87-1.77-6.22-3.94-7.48Z"/>
        <path class="cls-4" d="m108.76,40.46l-24.24-14.01s0,0-.01,0L47.86,5.38c-1.04-.6-2.06-.67-2.89-.19-.97.56-1.52,1.8-1.52,3.4v56.88c0,.15.21.27.47.27s.47-.12.47-.27V8.58c0-1.25.38-2.19,1.05-2.58.22-.13.46-.19.72-.19.37,0,.78.13,1.22.38l9.2,5.31h0s31.46,18.08,31.46,18.08l13.55,7.84h0s6.68,3.85,6.68,3.85c1.88,1.08,3.46,4.13,3.46,6.66v56.86c0,.15.21.27.47.27s.47-.12.47-.27v-56.86c0-2.87-1.77-6.22-3.94-7.48Z"/>
      </g>
      <g>
        <path class="cls-4" d="m66.81,62.28c-2.17,1.25-3.94,4.61-3.94,7.48v56.86c0,.15.21.27.47.27s.47-.12.47-.27v-56.86c0-2.53,1.59-5.58,3.46-6.66l1.16-.67c-.26-.2-.49-.44-.7-.69l-.94.54Z"/>
        <path class="cls-4" d="m61.27,59.05c-2.17,1.25-3.94,4.61-3.94,7.48v56.86c0,.15.21.27.47.27s.47-.12.47-.27v-56.86c0-2.53,1.59-5.58,3.46-6.66l1.08-.62c-.26-.2-.49-.44-.69-.69l-.86.5Z"/>
        <path class="cls-4" d="m29.06,39.38l-.95.55c-2.17,1.25-3.94,4.61-3.94,7.48v56.86c0,.15.21.27.47.27s.47-.12.47-.27v-56.86c0-2.53,1.59-5.58,3.46-6.66l1.16-.67c-.14-.11-.27-.22-.38-.34-.11-.11-.2-.24-.29-.36Z"/>
        <path class="cls-4" d="m33.63,43.2c-2.17,1.25-3.94,4.61-3.94,7.48v56.86c0,.15.21.27.47.27s.47-.12.47-.27v-56.86c0-2.53,1.59-5.58,3.46-6.66l1.21-.7c-.25-.21-.47-.45-.66-.71l-1.02.59Z"/>
        <path class="cls-4" d="m39.15,46.34c-2.17,1.25-3.94,4.61-3.94,7.48v56.86c0,.15.21.27.47.27s.47-.12.47-.27v-56.86c0-2.53,1.59-5.58,3.46-6.66l1.11-.64c-.26-.2-.49-.44-.7-.69l-.89.51Z"/>
        <path class="cls-4" d="m44.68,49.53c-2.17,1.25-3.94,4.61-3.94,7.48v56.86c0,.15.21.27.47.27s.47-.12.47-.27v-56.86c0-2.53,1.59-5.58,3.46-6.66l1.21-.7c-.25-.21-.47-.45-.67-.71l-1.02.59Z"/>
        <path class="cls-4" d="m51.14,52.22l-.93.54c-2.17,1.25-3.94,4.61-3.94,7.48v56.86c0,.15.21.27.47.27s.47-.12.47-.27v-56.86c0-2.53,1.59-5.58,3.46-6.66l1.21-.7c-.2-.14-.41-.29-.59-.46-.06-.06-.1-.13-.16-.19Z"/>
        <path class="cls-4" d="m11.43,30.37c-2.17,1.25-3.94,4.61-3.94,7.48v56.86c0,.15.21.27.47.27s.47-.12.47-.27v-56.86c0-2.53,1.59-5.58,3.46-6.66l1.18-.68c-.31-.17-.6-.37-.86-.59l-.79.46Z"/>
        <path class="cls-4" d="m17.87,32.97l-.91.53c-2.17,1.25-3.94,4.61-3.94,7.48v56.86c0,.15.21.27.47.27s.47-.12.47-.27v-56.86c0-2.53,1.59-5.58,3.46-6.66l1.11-.64c-.11-.09-.22-.18-.32-.28-.14-.13-.24-.28-.36-.42Z"/>
        <path class="cls-4" d="m22.48,36.8c-2.17,1.25-3.94,4.61-3.94,7.48v56.86c0,.15.21.27.47.27s.47-.12.47-.27v-56.86c0-2.53,1.59-5.58,3.46-6.66l1.05-.6c-.25-.2-.49-.43-.71-.68l-.81.47Z"/>
        <path class="cls-4" d="m56.69,55.4l-.94.55c-2.17,1.25-3.94,4.61-3.94,7.48v56.86c0,.15.21.27.47.27s.47-.12.47-.27v-56.86c0-2.53,1.59-5.58,3.46-6.66l1.19-.69c-.15-.12-.31-.22-.45-.35-.1-.1-.18-.21-.27-.32Z"/>
      </g>
    </g>
  </g>
</svg>