<?xml version="1.0" encoding="UTF-8"?>
<svg id="Layer_2" data-name="Layer 2" xmlns="http://www.w3.org/2000/svg" viewBox="0 0 124.73 134">
  <defs>
    <style>
      .cls-1 {
        fill: #fff;
      }

      .cls-2 {
        fill: #3a2323;
      }

      .cls-3 {
        fill: #efc3ac;
      }

      .cls-4 {
        fill: #b7bdce;
      }

      .cls-5 {
        fill: #6382c6;
      }

      .cls-6 {
        fill: #63453b;
      }

      .cls-7 {
        fill: #725348;
      }

      .cls-8 {
        fill: #fb8;
      }

      .cls-9 {
        fill: #d32424;
      }

      .cls-10 {
        fill: #ffe0ce;
      }

      .cls-11 {
        fill: #f23b3b;
      }

      .cls-12 {
        fill: #ff5252;
      }

      .cls-13 {
        fill: #7fa0dd;
      }

      .cls-14 {
        fill: #d8a58f;
      }
    </style>
  </defs>
  <g id="Layer_1-2" data-name="Layer 1">
    <g>
      <g>
        <path class="cls-5" d="m121.2,98.87l-62.5-36.08c-2.06-1.19-5.7-1.04-8.09.34L3.89,90.1l-3.86.99v2.48c-.13.86.32,1.7,1.37,2.31l64.64,37.32c2.06,1.19,5.7,1.04,8.09-.34l48.64-28.08c1.31-.76,1.97-1.73,1.97-2.65h0s0-.06,0-.09v-2.94l-3.53-.5v.27Z"/>
        <path class="cls-13" d="m123.34,97.26L58.7,59.94c-2.06-1.19-5.7-1.04-8.09.34L1.97,88.36c-2.38,1.38-2.64,3.48-.58,4.67l64.64,37.32c2.06,1.19,5.7,1.04,8.09-.34l48.64-28.08c2.38-1.38,2.64-3.48.58-4.67Z"/>
      </g>
      <path class="cls-4" d="m54.82.31c-.82-.47-1.85-.41-2.89.19l-12.76,7.37s0,0,0,0L5.91,27.1c-2.17,1.25-3.94,4.61-3.94,7.48v56.86c0,.15.21.27.47.27s.47-.12.47-.27v-56.86c0-2.53,1.59-5.58,3.46-6.66l6.68-3.85h0S43.2,6.63,43.2,6.63h0s9.2-5.31,9.2-5.31c.44-.25.85-.38,1.22-.38.26,0,.5.06.72.19.67.38,1.05,1.32,1.05,2.58v56.88c0,.15.21.27.47.27s.47-.12.47-.27V3.71c0-1.6-.55-2.84-1.52-3.4Z"/>
      <g>
        <path class="cls-4" d="m115.71,35.49c-.82-.47-1.85-.41-2.89.19l-1.2.7c.28.19.53.41.75.66l.92-.53c.44-.25.85-.38,1.22-.38.26,0,.5.06.72.19.67.38,1.05,1.32,1.05,2.58v56.88c0,.15.21.27.47.27s.47-.12.47-.27v-56.88c0-1.6-.55-2.84-1.52-3.4Z"/>
        <path class="cls-4" d="m110.17,32.26c-.82-.47-1.85-.41-2.89.19l-1,.58c.27.2.5.43.7.68l.77-.44c.44-.25.85-.38,1.22-.38.26,0,.5.06.72.19.67.38,1.05,1.32,1.05,2.58v56.88c0,.15.21.27.47.27s.47-.12.47-.27v-56.88c0-1.6-.55-2.84-1.52-3.4Z"/>
        <path class="cls-4" d="m77.01,13.14c-.82-.47-1.85-.41-2.89.19l-1.34.77c.32.16.61.35.9.57l.92-.53c.44-.25.85-.38,1.22-.38.26,0,.5.06.72.19.67.38,1.05,1.32,1.05,2.58v56.88c0,.15.21.27.47.27s.47-.12.47-.27V16.54c0-1.6-.55-2.84-1.52-3.4Z"/>
        <path class="cls-4" d="m82.54,16.41c-.82-.47-1.85-.41-2.89.19l-1.07.61c.32.16.61.36.87.59l.67-.38c.44-.25.85-.38,1.22-.38.26,0,.5.06.72.19.67.38,1.05,1.32,1.05,2.58v56.88c0,.15.21.27.47.27s.47-.12.47-.27V19.81c0-1.6-.55-2.84-1.52-3.4Z"/>
        <path class="cls-4" d="m60.34,3.58c-.82-.47-1.85-.41-2.89.19l-1.06.61c.29.18.57.38.83.61l.7-.41c.44-.25.85-.38,1.22-.38.26,0,.5.06.72.19.67.38,1.05,1.32,1.05,2.58v56.88c0,.15.21.27.47.27s.47-.12.47-.27V6.97c0-1.6-.55-2.84-1.52-3.4Z"/>
        <path class="cls-4" d="m104.65,29.15c-.82-.47-1.85-.41-2.89.19l-1.17.68c.36.14.69.31.98.52l.66-.38c.44-.25.85-.38,1.22-.38.26,0,.5.06.72.19.67.38,1.05,1.32,1.05,2.58v56.88c0,.15.21.27.47.27s.47-.12.47-.27v-56.88c0-1.6-.55-2.84-1.52-3.4Z"/>
        <path class="cls-4" d="m71.39,10.01c-.82-.47-1.85-.41-2.89.19l-1.05.61c.15.06.3.13.44.2.18.1.34.23.5.35l.59-.34c.44-.25.85-.38,1.22-.38.26,0,.5.06.72.19.67.38,1.05,1.32,1.05,2.58v56.88c0,.15.21.27.47.27s.47-.12.47-.27V13.41c0-1.6-.55-2.84-1.52-3.4Z"/>
        <path class="cls-4" d="m65.86,6.71c-.82-.47-1.85-.41-2.89.19l-.96.55c.3.18.56.39.8.63l.63-.36c.44-.25.85-.38,1.22-.38.26,0,.5.06.72.19.67.38,1.05,1.32,1.05,2.58v56.88c0,.15.21.27.47.27s.47-.12.47-.27V10.1c0-1.6-.55-2.84-1.52-3.4Z"/>
        <path class="cls-4" d="m88.06,19.55c-.82-.47-1.85-.41-2.89.19l-1.03.59c.29.18.55.4.77.64l.72-.42c.44-.25.85-.38,1.22-.38.26,0,.5.06.72.19.67.38,1.05,1.32,1.05,2.58v56.88c0,.15.21.27.47.27s.47-.12.47-.27V22.95c0-1.6-.55-2.84-1.52-3.4Z"/>
        <path class="cls-4" d="m93.58,22.74c-.82-.47-1.85-.41-2.89.19l-1.07.62c.31.18.59.39.83.61l.71-.41c.44-.25.85-.38,1.22-.38.26,0,.5.06.72.19.67.38,1.05,1.32,1.05,2.58v56.88c0,.15.21.27.47.27s.47-.12.47-.27V26.14c0-1.6-.55-2.84-1.52-3.4Z"/>
        <path class="cls-4" d="m99.12,25.97c-.82-.47-1.85-.41-2.89.19l-.88.51c.26.2.5.43.7.69l.65-.37c.44-.25.85-.38,1.22-.38.26,0,.5.06.72.19.67.38,1.05,1.32,1.05,2.58v56.88c0,.15.21.27.47.27s.47-.12.47-.27V29.36c0-1.6-.55-2.84-1.52-3.4Z"/>
      </g>
      <g>
        <path class="cls-14" d="m33.96,74.23c-4.73,2.75-6.87,4.68-9.32,4.34-1.13-.15-2.22-.32-2.18.47.03.48.41.94,2.52,1.03,3.92.16,7.01-2.74,8.97-3.65,3.34-1.55,7.31-.67,7.31-.67l1.66-2.53c-.32,0-4.24-1.74-8.97,1Z"/>
        <path class="cls-6" d="m75.23,88.92l3.6,8s.56-1.67,2.4-2.85c1.84-1.17,1.57-2.71,0-4.14-3.82-3.47-6-1.01-6-1.01Z"/>
        <path class="cls-14" d="m38.03,88.58c-.96,1.18.63,2.37.86,6.04.21,3.25-.21,6.83.02,7.52.49,1.47,4.2,3.37,4.56,1.34.31-1.72-1.61-3.65-1.65-5.92-.03-1.93.76-3.45.76-3.45,0,0,8.42.51,9.96-4.19,1.05-3.21-.02-12.13-.02-12.13,0,0-11.8,7.47-14.5,10.78Z"/>
        <path class="cls-14" d="m71.07,112.7c-.98-3.29,1.52-15.05-.48-19.5-1.05-2.33-4.67,2.37-4.67,2.37,0,0-.82,3.18-.34,5.62.32,1.59,1.84,7.88,2.22,10.43.2,1.36,1.15,3.53,1.48,4.13.95,1.71,2.26,2.18,3.25,2.18s2.64-1.1,2.44-1.96c-.39-1.63-1.99-2-3.9-3.27Z"/>
        <path class="cls-10" d="m80.28,95.48c-.24-1.03,1.04-1.78.66-2.92-.34-1.01-1.61-2.46-2.85-3.56-1.42-1.25-2.45-.41-3.48-2.04-1.62-1.83-2.04-2.62-3.23-6.2-.69-2.07-4.48-2.98-6.42-3.5-2.59-.69-9.3-3.24-12.48-5.84-3.18-2.59-5.75.5-9.05.55-3.31.04-6.85,4.35-6.85,5.62s2.94,7.25,4.16,7.69c1.22.44,6.79-1.2,9.02.6,2.23,1.8,7.05,12.68,10.89,14.89,3.83,2.2,4.55-.37,7,.12,1.15.23,2.66-.62,3.96-1.59,1,.65,2.13,1.23,2.98,2,1.34,1.21,2.59,2.94,4.29,3.67,1.17.5,2.87-.22,3.64-1.14,1.1-1.3.96-2.9.96-2.9-1.17-1.66-3.06-4.89-3.19-5.43Z"/>
        <path class="cls-10" d="m57.37,94.07c-.06.43-.46,3.66-1.67,4.86-2.07,2.06-2.75,3.23-1.72,4.5,1.49,1.82,6.09,8.82,6.09,8.82,0,0-1.61,1.81-1.85,2.57-.22.71.04,2,2.57,1.47,2.53-.53,3.26-2.15,2.28-4.84-.98-2.69-4.85-8.01-4.85-8.01,0,0,2.41,0,4.85-1.17,3.21-1.54,3.57-8.19,3.57-8.19l-7.49-3.9s-1.42,1.19-1.78,3.9Z"/>
        <path class="cls-10" d="m46.56,103.44c-1.65-2.18-2.65-5.99-2-6.52.65-.53,4-1.92,4-5.56s-2.31-11.04-2.31-11.04c0,0-8.15-7.08-9.68-2.74-2.2,6.24,4.4,12.74,4.4,12.74,0,0,.3,3.51-.73,7.24-.62,2.24,3.43,7.22,4.13,8.71s1.88,4.04,3.94,3.53c.89-.22,1.84-1.51,1.22-2.81-.51-1.09-1.31-1.34-2.98-3.55Z"/>
        <path class="cls-7" d="m73.56,89c-1.91-.04-5.01.95-5.7,3.4-.67,2.38.2,6.79,3.33,6.92.55.02.93.29,1.37.57.19-.11,1.48-1.06,2.02-2.68.5-1.51,1.26-1.07,1.11-2.57-.22-2.24,2.23-2.07,1.71-3.01-.67-1.2-1.68-2.58-3.85-2.62Z"/>
        <path class="cls-6" d="m70.59,92.51c-2.21-1.4-5.21.92-5,4.41.21,3.49,2.92,3.95,3.74,3.99s0,3.96,0,3.96c0,0,2.06.57,2.01-1.44-.05-2.01-.02-6.72,1.21-7.95,1.24-1.22-.45-2.02-1.96-2.98Z"/>
        <path class="cls-7" d="m82.92,100.09c-.88.28-3.12,1.67-2.3,2.5.38.39,1.9.85,1.9.85,0,0,.51-.42.96-1.58.46-1.16-.56-1.76-.56-1.76Z"/>
        <path class="cls-6" d="m79.62,94.27l.66,1.21s1.41-1.76.71-2.25c-.5-.35-1.37,1.04-1.37,1.04Z"/>
        <path class="cls-3" d="m53.5,87.75c-1.51-2.53-3.78-4.94-5.31-5.5l-1.53-.56.94,3.57s.74,0,2.13,1.2,5.11,8.91,7.11,10.19c0,0,.33-1.58.53-2.58s.52-1.97.52-1.97c0,0-2.88-1.82-4.39-4.35Z"/>
        <path class="cls-7" d="m61.14,84.32s.02,0,.03,0c-.01.01-.02.01-.03,0Z"/>
        <path class="cls-7" d="m64.87,82.67c-.83-.69-2.07-2.22-4.26-1.76-.62.13-1-.78-1.66-.82-.47-.03-.87.29-.92.71,0,.01-.02.02-.02.03-.39,1.38.91,2.38-.35,3.69-.37.39-.97.44-1.06,1.11-.06.51.15.62.46.94,1.12,1.16,3.01.48,3.21,2.72-.14.5.06,1.03.63,1.14.99.2,1.02-.95,1.69-1.32.87-.49,1.97-.05,2.67-.91.32-.4.83-.99.62-1.44-.29-.59-1-.86-.29-1.49.34-.11,1.44-.1,1.41-.52-.05-.92-1.55-1.59-2.13-2.08Z"/>
        <path class="cls-7" d="m65.43,78.36c1.09.12.99,1.1,2.22,1.59,1.23.49,2.56-.66,2.56-.66,0,0-3.56-2.05-7.82-2.87-.12.75,1.96,1.82,3.04,1.94Z"/>
        <path class="cls-7" d="m39.14,74.01c-.07,0-.12.04-.15.09,0,0-.01,0-.02,0-3.87,3.2-3.03,8.02-2.4,9.04.45-.06.55.1.89-.18.72-.6.88-1.63,1.68-2.22.84-.61,1.56-.86,1.48-1.97-.03-.4-1.15-.98-.66-1.72.33-.51,1.12-.74,1.31-1.31.1-.3.28-.52.15-.88-.3-.85-1.57-.9-2.28-.86Z"/>
        <g>
          <path class="cls-6" d="m76.3,94.51c-.91-.39-1.77.62-1.77.62,0,0-.49,1.72.89,2.19,1.38.47,2.13-.44,2.13-.44,0,0,.2-1.75-1.25-2.36Z"/>
          <path class="cls-2" d="m76.37,95.27c-.63-.37-1.22.14-1.22.14,0,0-.24,1.06.67,1.37.83.29,1.26-.15,1.26-.15,0,0,.11-.88-.71-1.36Z"/>
          <path class="cls-6" d="m75.42,95.74s-.15.53.41.76c.59.25.78-.37.78-.37-.93.29-1.18-.39-1.18-.39Z"/>
          <path class="cls-8" d="m76.3,95.48c-.13,0-.23.12-.23.26s.1.26.23.26.23-.12.23-.26-.1-.26-.23-.26Z"/>
        </g>
        <path class="cls-2" d="m79.84,94.67l.33.61s.45-.27.66-.62c.21-.35,0-.86,0-.86-.64-.1-.99.87-.99.87Z"/>
        <path class="cls-8" d="m80.61,94.01c-.13,0-.23.12-.23.26s.1.26.23.26.23-.12.23-.26-.1-.26-.23-.26Z"/>
      </g>
      <g>
        <path class="cls-11" d="m110.59,99.3c-.02-.1-.05-.19-.08-.29l-1.2-4.14-2.56.94c-2.92-1.25-6.79-1.27-9.09.06l-8.2,4.73-2.93-1.51c-.02.16-.83,3.64-1.09,4.75-.03.1-.05.2-.07.3,0,.02,0,.04,0,.04h0c-.17,1.24.65,2.59,2.43,3.62l.46.27c2.97,1.72,7.51,1.9,10.08.42l10.59-6.11c1.39-.8,1.93-1.94,1.67-3.08h0Z"/>
        <path class="cls-12" d="m107.1,92.2l-.41-.24c-2.68-1.54-6.76-1.71-9.08-.38l-9.53,5.5c-2.32,1.34-2.02,3.7.65,5.24l.41.24c2.68,1.54,6.76,1.71,9.08.38l9.53-5.5c2.32-1.34,2.02-3.7-.65-5.24Z"/>
        <g>
          <path class="cls-9" d="m93.15,96.73c-2.94,0-5.32,1.34-5.32,2.99,0,.78.54,1.49,1.41,2.03.97-.59,2.36-.97,3.91-.97s2.94.37,3.91.97c.87-.53,1.41-1.24,1.41-2.03,0-1.65-2.38-2.99-5.32-2.99Z"/>
          <path class="cls-11" d="m89.25,101.75c.97.59,2.36.97,3.91.97s2.94-.37,3.91-.97c-.97-.59-2.36-.97-3.91-.97s-2.94.37-3.91.97Z"/>
        </g>
        <g>
          <path class="cls-9" d="m101.9,91.74c-2.94,0-5.32,1.34-5.32,2.99,0,.78.54,1.49,1.41,2.03.97-.59,2.36-.97,3.91-.97s2.94.37,3.91.97c.87-.53,1.41-1.24,1.41-2.03,0-1.65-2.38-2.99-5.32-2.99Z"/>
          <path class="cls-11" d="m97.99,96.76c.97.59,2.36.97,3.91.97s2.94-.37,3.91-.97c-.97-.59-2.36-.97-3.91-.97s-2.94.37-3.91.97Z"/>
        </g>
        <polygon class="cls-1" points="100.73 104.59 100.99 105.63 106.82 102.27 106.55 101.22 100.73 104.59"/>
      </g>
      <path class="cls-4" d="m121.24,38.67c-.82-.47-1.85-.41-2.89.19l-12.76,7.37s0,0,0,0l-33.26,19.23c-2.17,1.25-3.94,4.61-3.94,7.48v56.86c0,.15.21.27.47.27s.47-.12.47-.27v-56.86c0-2.53,1.59-5.58,3.46-6.66l6.68-3.85h0s30.14-17.43,30.14-17.43h0l9.2-5.31c.44-.25.85-.38,1.22-.38.26,0,.5.06.72.19.67.38,1.05,1.32,1.05,2.58v56.88c0,.15.21.27.47.27s.47-.12.47-.27v-56.88c0-1.6-.55-2.84-1.52-3.4Z"/>
      <g>
        <path class="cls-4" d="m70.06,62.8l-24.24-14.01s0,0-.01,0L9.16,27.72c-1.04-.6-2.06-.67-2.89-.19-.97.56-1.52,1.8-1.52,3.4v56.88c0,.15.21.27.47.27s.47-.12.47-.27V30.93c0-1.25.38-2.19,1.05-2.58.22-.13.46-.19.72-.19.37,0,.78.13,1.22.38l9.2,5.31h0s31.46,18.08,31.46,18.08l13.55,7.84h0s6.68,3.85,6.68,3.85c1.88,1.08,3.46,4.13,3.46,6.66v56.86c0,.15.21.27.47.27s.47-.12.47-.27v-56.86c0-2.87-1.77-6.22-3.94-7.48Z"/>
        <path class="cls-4" d="m86.65,53.28l-24.24-14.01s0,0-.01,0L25.75,18.2c-1.04-.6-2.06-.67-2.89-.19-.97.56-1.52,1.8-1.52,3.4v56.88c0,.15.21.27.47.27s.47-.12.47-.27V21.41c0-1.25.38-2.19,1.05-2.58.22-.13.46-.19.72-.19.37,0,.78.13,1.22.38l9.2,5.31h0l31.46,18.08,13.55,7.84h0s6.68,3.85,6.68,3.85c1.88,1.08,3.46,4.13,3.46,6.66v56.86c0,.15.21.27.47.27s.47-.12.47-.27v-56.86c0-2.87-1.77-6.22-3.94-7.48Z"/>
        <path class="cls-4" d="m97.71,46.87l-24.24-14.01s0,0-.01,0L36.82,11.79c-1.04-.6-2.06-.67-2.89-.19-.97.56-1.52,1.8-1.52,3.4v56.88c0,.15.21.27.47.27s.47-.12.47-.27V15c0-1.25.38-2.19,1.05-2.58.22-.13.46-.19.72-.19.37,0,.78.13,1.22.38l9.2,5.31h0l31.46,18.08,13.55,7.84h0s6.68,3.85,6.68,3.85c1.88,1.08,3.46,4.13,3.46,6.66v56.86c0,.15.21.27.47.27s.47-.12.47-.27v-56.86c0-2.87-1.77-6.22-3.94-7.48Z"/>
        <path class="cls-4" d="m92.19,50.06l-24.24-14.01s0,0-.01,0L31.29,14.98c-1.04-.6-2.06-.67-2.89-.19-.97.56-1.52,1.8-1.52,3.4v56.88c0,.15.21.27.47.27s.47-.12.47-.27V18.18c0-1.25.38-2.19,1.05-2.58.22-.13.46-.19.72-.19.37,0,.78.13,1.22.38l9.2,5.31h0s31.46,18.08,31.46,18.08l13.55,7.84h0s6.68,3.85,6.68,3.85c1.88,1.08,3.46,4.13,3.46,6.66v56.86c0,.15.21.27.47.27s.47-.12.47-.27v-56.86c0-2.87-1.77-6.22-3.94-7.48Z"/>
        <path class="cls-4" d="m114.38,37.33l-24.24-14.01s0,0-.01,0L53.49,2.25c-1.04-.6-2.06-.67-2.89-.19-.97.56-1.52,1.8-1.52,3.4v56.88c0,.15.21.27.47.27s.47-.12.47-.27V5.45c0-1.25.38-2.19,1.05-2.58.22-.13.46-.19.72-.19.37,0,.78.13,1.22.38l9.2,5.31h0s31.46,18.08,31.46,18.08l13.55,7.84h0s6.68,3.85,6.68,3.85c1.88,1.08,3.46,4.13,3.46,6.66v56.86c0,.15.21.27.47.27s.47-.12.47-.27v-56.86c0-2.87-1.77-6.22-3.94-7.48Z"/>
        <path class="cls-4" d="m81.12,56.47l-24.24-14.01s0,0-.01,0L20.23,21.39c-1.04-.6-2.06-.67-2.89-.19-.97.56-1.52,1.8-1.52,3.4v56.88c0,.15.21.27.47.27s.47-.12.47-.27V24.6c0-1.25.38-2.19,1.05-2.58.22-.13.46-.19.72-.19.37,0,.78.13,1.22.38l9.2,5.31h0s31.46,18.08,31.46,18.08l13.55,7.84h0s6.68,3.85,6.68,3.85c1.88,1.08,3.46,4.13,3.46,6.66v56.86c0,.15.21.27.47.27s.47-.12.47-.27v-56.86c0-2.87-1.77-6.22-3.94-7.48Z"/>
        <path class="cls-4" d="m103.24,43.73l-24.24-14.01s0,0-.01,0L42.34,8.65c-1.04-.6-2.06-.67-2.89-.19-.97.56-1.52,1.8-1.52,3.4v56.88c0,.15.21.27.47.27s.47-.12.47-.27V11.85c0-1.25.38-2.19,1.05-2.58.22-.13.46-.19.72-.19.37,0,.78.13,1.22.38l9.2,5.31h0s31.46,18.08,31.46,18.08l13.55,7.84h0s6.68,3.85,6.68,3.85c1.88,1.08,3.46,4.13,3.46,6.66v56.86c0,.15.21.27.47.27s.47-.12.47-.27v-56.86c0-2.87-1.77-6.22-3.94-7.48Z"/>
        <path class="cls-4" d="m75.6,59.58l-24.24-14.01s0,0-.01,0L14.7,24.5c-1.04-.6-2.06-.67-2.89-.19-.97.56-1.52,1.8-1.52,3.4v56.88c0,.15.21.27.47.27s.47-.12.47-.27V27.7c0-1.25.38-2.19,1.05-2.58.22-.13.46-.19.72-.19.37,0,.78.13,1.22.38l9.2,5.31h0l31.46,18.08,13.55,7.84h0s6.68,3.85,6.68,3.85c1.88,1.08,3.46,4.13,3.46,6.66v56.86c0,.15.21.27.47.27s.47-.12.47-.27v-56.86c0-2.87-1.77-6.22-3.94-7.48Z"/>
        <path class="cls-4" d="m114.38,37.33l-24.24-14.01s0,0-.01,0L53.49,2.25c-1.04-.6-2.06-.67-2.89-.19-.97.56-1.52,1.8-1.52,3.4v56.88c0,.15.21.27.47.27s.47-.12.47-.27V5.45c0-1.25.38-2.19,1.05-2.58.22-.13.46-.19.72-.19.37,0,.78.13,1.22.38l9.2,5.31h0s31.46,18.08,31.46,18.08l13.55,7.84h0s6.68,3.85,6.68,3.85c1.88,1.08,3.46,4.13,3.46,6.66v56.86c0,.15.21.27.47.27s.47-.12.47-.27v-56.86c0-2.87-1.77-6.22-3.94-7.48Z"/>
        <path class="cls-4" d="m108.76,40.46l-24.24-14.01s0,0-.01,0L47.86,5.38c-1.04-.6-2.06-.67-2.89-.19-.97.56-1.52,1.8-1.52,3.4v56.88c0,.15.21.27.47.27s.47-.12.47-.27V8.58c0-1.25.38-2.19,1.05-2.58.22-.13.46-.19.72-.19.37,0,.78.13,1.22.38l9.2,5.31h0l31.46,18.08,13.55,7.84h0s6.68,3.85,6.68,3.85c1.88,1.08,3.46,4.13,3.46,6.66v56.86c0,.15.21.27.47.27s.47-.12.47-.27v-56.86c0-2.87-1.77-6.22-3.94-7.48Z"/>
      </g>
      <g>
        <path class="cls-4" d="m66.81,62.28c-2.17,1.25-3.94,4.61-3.94,7.48v56.86c0,.15.21.27.47.27s.47-.12.47-.27v-56.86c0-2.53,1.59-5.58,3.46-6.66l1.16-.67c-.26-.2-.49-.44-.7-.69l-.94.54Z"/>
        <path class="cls-4" d="m61.27,59.05c-2.17,1.25-3.94,4.61-3.94,7.48v56.86c0,.15.21.27.47.27s.47-.12.47-.27v-56.86c0-2.53,1.59-5.58,3.46-6.66l1.08-.62c-.26-.2-.49-.44-.69-.69l-.86.5Z"/>
        <path class="cls-4" d="m29.06,39.38l-.95.55c-2.17,1.25-3.94,4.61-3.94,7.48v56.86c0,.15.21.27.47.27s.47-.12.47-.27v-56.86c0-2.53,1.59-5.58,3.46-6.66l1.16-.67c-.14-.11-.27-.22-.38-.34-.11-.11-.2-.24-.29-.36Z"/>
        <path class="cls-4" d="m33.63,43.2c-2.17,1.25-3.94,4.61-3.94,7.48v56.86c0,.15.21.27.47.27s.47-.12.47-.27v-56.86c0-2.53,1.59-5.58,3.46-6.66l1.21-.7c-.25-.21-.47-.45-.66-.71l-1.02.59Z"/>
        <path class="cls-4" d="m39.15,46.34c-2.17,1.25-3.94,4.61-3.94,7.48v56.86c0,.15.21.27.47.27s.47-.12.47-.27v-56.86c0-2.53,1.59-5.58,3.46-6.66l1.11-.64c-.26-.2-.49-.44-.7-.69l-.89.51Z"/>
        <path class="cls-4" d="m44.68,49.53c-2.17,1.25-3.94,4.61-3.94,7.48v56.86c0,.15.21.27.47.27s.47-.12.47-.27v-56.86c0-2.53,1.59-5.58,3.46-6.66l1.21-.7c-.25-.21-.47-.45-.67-.71l-1.02.59Z"/>
        <path class="cls-4" d="m51.14,52.22l-.93.54c-2.17,1.25-3.94,4.61-3.94,7.48v56.86c0,.15.21.27.47.27s.47-.12.47-.27v-56.86c0-2.53,1.59-5.58,3.46-6.66l1.21-.7c-.2-.14-.41-.29-.59-.46-.06-.06-.1-.13-.16-.19Z"/>
        <path class="cls-4" d="m11.43,30.37c-2.17,1.25-3.94,4.61-3.94,7.48v56.86c0,.15.21.27.47.27s.47-.12.47-.27v-56.86c0-2.53,1.59-5.58,3.46-6.66l1.18-.68c-.31-.17-.6-.37-.86-.59l-.79.46Z"/>
        <path class="cls-4" d="m17.87,32.97l-.91.53c-2.17,1.25-3.94,4.61-3.94,7.48v56.86c0,.15.21.27.47.27s.47-.12.47-.27v-56.86c0-2.53,1.59-5.58,3.46-6.66l1.11-.64c-.11-.09-.22-.18-.32-.28-.14-.13-.24-.28-.36-.42Z"/>
        <path class="cls-4" d="m22.48,36.8c-2.17,1.25-3.94,4.61-3.94,7.48v56.86c0,.15.21.27.47.27s.47-.12.47-.27v-56.86c0-2.53,1.59-5.58,3.46-6.66l1.05-.6c-.25-.2-.49-.43-.71-.68l-.81.47Z"/>
        <path class="cls-4" d="m56.69,55.4l-.94.55c-2.17,1.25-3.94,4.61-3.94,7.48v56.86c0,.15.21.27.47.27s.47-.12.47-.27v-56.86c0-2.53,1.59-5.58,3.46-6.66l1.19-.69c-.15-.12-.31-.22-.45-.35-.1-.1-.18-.21-.27-.32Z"/>
      </g>
    </g>
  </g>
</svg>