<?xml version="1.0" encoding="UTF-8"?>
<svg id="Layer_2" data-name="Layer 2" xmlns="http://www.w3.org/2000/svg" viewBox="0 0 43.25 113.24">
  <defs>
    <style>
      .cls-1 {
        fill: #fff;
      }

      .cls-2 {
        fill: #ffa08d;
      }

      .cls-3 {
        fill: #6382c6;
      }

      .cls-4 {
        fill: #ffc5b3;
      }

      .cls-5 {
        fill: #f9bbb7;
      }

      .cls-6 {
        fill: #d32424;
      }

      .cls-7 {
        fill: #ffe0ce;
      }

      .cls-8 {
        fill: #f23b3b;
      }

      .cls-9 {
        fill: #f7c9b2;
      }

      .cls-10 {
        fill: #7fa0dd;
      }

      .cls-11 {
        fill: #492e2e;
      }
    </style>
  </defs>
  <g id="Layer_1-2" data-name="Layer 1">
    <g>
      <path class="cls-2" d="m21.74,16.39c-2.18,2.53-2.62,4.98-3.77,7.6-1.15,2.62-2.92,6.91-3.4,7.74-.47.83-1.06,3.19,0,4.14,1.06.94,3.59-1.32,5.2-4.14,1.61-2.81,2.94-5.45,2.94-5.45,0,0,5.81-9.21,3.55-11.2,0,0-2.34-1.22-4.52,1.31Z"/>
      <g>
        <g>
          <path class="cls-5" d="m21.09,55.64s-.02,6.87-.27,9.76c-.38,4.36-.29,6.45.97,12.31.56,2.6,1.26,12.44,1.07,15.91-.27,5.08-2.62,7.48-3.41,8.73-.79,1.25,2.23,2.44,4.14.61,1.91-1.83,2.11-2.19,3.19-2.76,1.08-.57.72-1.94.64-4.81-.06-2.22.9-9.6,1.27-14.33.52-6.72-.95-6.87-.85-10.26.19-6.39,1.58-11.74,1.93-12.66.53-1.41-8.68-2.49-8.68-2.49Z"/>
          <path class="cls-8" d="m28.29,96.82c-.03-.12-.06-.18-.06-.18h0c-.25-.67-.81-1.25-.81-1.25,0,0-.45,4.06-2.84,5.74-2.67,1.87-3.86,2.15-5.13,1.22,0,0-.64.95-2.11,2.58-.79.87-.13,1.75,2.2,1.58,1.23-.09,2.99-.72,3.96-1.96,1.02-1.3,1.81-2.71,2.76-3.56.15-.13.28-.25.41-.37h0c.07,1.08.04,1.77.09,2.55.22.36.57.27.84,0,.16-.86-.05-1.65.43-3.23.51-1.68.38-2.68.27-3.09,0-.01,0-.02,0-.04Z"/>
        </g>
        <path class="cls-4" d="m39.12,81.1c-.47-2.86-1.45-4.59-1.75-6.17-.25-1.35.87-7.14.87-7.14l-8.36,2.88s1.31,9.61,1.97,13.09c.67,3.48,2.46,14.7,2.24,17.58-.15,1.96-.93,4.61-1.41,6.25-.48,1.63.17,2.83,1.27,3.17,1.99.61,4.55-6.18,4.41-9.32-.22-4.69,1.23-17.47.77-20.34Z"/>
        <path class="cls-6" d="m38.53,107.86s.12-.84.17-1.81.23-2.91.23-2.91c0,0-1.26,1.68-1.4,4.48.2.87.99.24.99.24Z"/>
        <path class="cls-8" d="m38.34,100.97s-.07,2.78-.99,4.93c-1.23,2.88-2.19,3.49-3.45,3.53-1.38.04-1.21-2-1.21-2,0,0-.38,1.1-.88,3.37-.22.98-.05,2.25.97,2.4,2.59.38,3.37-1.34,3.89-2.4.65-1.34,1.33-4.91,1.95-6.72,1.05-2.14-.27-3.11-.27-3.11Z"/>
        <path class="cls-8" d="m38.36,45.15s-4.48-1.97-6.24-2c-3.24-.05-6.87.82-9.94-.44-.18-.07-.31.03-.36.17-.05,0-.11.02-.13.09-1.47,5.51-4.4,21.52-3.6,30.22,1.15.78,2.86-.35,4.2,3.47,1.06,3.03,7.33,3.68,9,1.4,1.95-2.66,9.9-1.53,11.37-2.4.91-4.29.63-13.85-.16-18.69-.97-5.91-2.72-9.93-4.15-11.83Z"/>
        <path class="cls-1" d="m40.07,21.97c-.45-1.81-4.75-3.76-4.75-3.76l-6-3.29s-.43-.11-1.06-.22c-.94,1.04-2.79,3.81-3.79,4.96-.97,1.11-3.82,4.94-2.95,8.56.74,3.09,1.13,7.15,1.05,8.68-.06,1.13-.47,4.48-.87,6.09,2.05,4.92,12.74,3.48,15.92,2.17-.41-2.44-1.47-9.05-1.35-11.35,0,0,5.29-5.85,3.79-11.83Z"/>
        <path class="cls-10" d="m39.94,21.63c-1-1.73-5.57-5.02-5.57-5.02h-1.41l-4.08-2.28s-.43-.11-1.06-.22c-.94,1.04-2.91,3.72-3.79,4.96-1.51,2.11-3.82,4.94-2.95,8.57.74,3.09,1.23,5.22,1.29,6.74.16,3.73-.83,9-1.45,11.88,5.08,4.76,12.63,3.51,18.1-.3-.66-3.06-1.44-7.78-.92-11.22,1.04-6.93,2-12.86,1.85-13.12Z"/>
        <path class="cls-2" d="m34.14,10.22c-1.97-.88-5.62,4.53-5.62,4.53,0,0,0,2.31-.55,3.97-.13.2-.32,2.32-.32,3.46.79-.53,2.71-1.1,3.86-1.85,1.08-.71,2.26-2.28,2.87-3.72-.16-1.31-.92-3.47-.23-6.4Z"/>
        <path class="cls-11" d="m21.89,12.15c.16,1.24,1.87,3.96,2.16,5.06.6,2.3-2.13,2.71-2.13,2.71,0,0,1.69,1.26,3.8-.07,2.42-1.53,2.57-6.56,3.36-7.3,1.59-1.5-3.66-10.43-3.66-10.43,0,0-4.55,2.3-3.54,10.04Z"/>
        <path class="cls-4" d="m24.75,5.61c-2.35,5.02,1.72,11.98,4.34,11.13,1.47-.48,4.64-2.38,5.74-5.04,1.24-2.99.25-6.81-1.2-8.16-1.88-1.74-6.63-2.71-8.87,2.08Z"/>
        <path class="cls-11" d="m31.37,1.25s-4.02-3.82-7.32,1.91c-1.49,2.58-.62,4.19,0,5.16,2.97,0,5.34-.84,5.34-.84,0,0,2.22.93,3.33,5.33.47,1.88-1.17,6.32-2.3,8.68-.84,1.74.32,6.33,3.4,5.07-2.5-.73.85-4.95,2.55-7.82.77-1.31,1.28-3.57,1.51-4.6,1.08-5-.31-8.47-1.84-11.16-1.35-2.38-4.65-1.71-4.65-1.71Z"/>
        <path class="cls-11" d="m38.2,11.82l-2.09,6.12,2.55,2.19s1.86-1.5.85-2.85c-1.26-1.69-1.3-5.46-1.3-5.46Z"/>
        <path class="cls-3" d="m26.51,48.55c.05.17.09.22.09.22,0,0-.04-.08-.09-.22Z"/>
        <path class="cls-3" d="m26.65,25.99c.36-1.95.24-2.95.24-2.95,0,0-1.87,2.88-1.32,5.23.55,2.34.85,6.07.61,9.54-.13,1.93-.32,5.03-.28,7.55.02,1.54.43,2.73.62,3.2-.1-.37-.22-1.29.09-3.47.57-3.92.55-10.39.28-13.35-.24-2.65-.59-3.79-.24-5.75Z"/>
        <path class="cls-6" d="m36.86,51.31s.62,7.02,1.39,13.62c.64,5.5,0,11.2,0,11.2l1.56-.07s.55-11.41,0-15.01c-.55-3.6-2.95-9.75-2.95-9.75Z"/>
        <path class="cls-6" d="m31.53,55.64s-.51,7.47-.52,12.23c0,4.76.3,10.19.3,10.19l1.69-1.15s.54-7.08,0-11.21c-.54-4.13-1.47-10.06-1.47-10.06Z"/>
        <path class="cls-6" d="m21.36,64.92c-.22,4.51-.47,9.33-.47,9.33l.85,1.11s.41-7.93.97-12.19c.56-4.26.52-8.66.52-8.66,0,0-1.65,5.91-1.87,10.42Z"/>
        <path class="cls-1" d="m28,24.18c-.61-.11-1.11,1.29-.36,1.42.76.13,1.02-1.29.36-1.42Z"/>
        <path class="cls-1" d="m28.05,31.17c-.61-.11-.77,1.29-.02,1.42.76.13.69-1.3.02-1.42Z"/>
        <path class="cls-1" d="m28,38.79c-.61-.11-.77,1.29-.02,1.42.76.13.69-1.3.02-1.42Z"/>
        <path class="cls-1" d="m27.52,45.69c-.61-.11-.77,1.29-.02,1.42.76.13.69-1.3.02-1.42Z"/>
      </g>
      <g>
        <path class="cls-9" d="m14.19,52.49s-6.59,4.81-7.34,5.17c-.75.36,1.78,2.69.5,6.2-1.28,3.51-1.06,3.03-1.19,3.93-.13.9,2.31,4.21,3.38,5.96,1.07,1.75,1.74,3.03,2.38,2.18.64-.85,1.1-1.57-.48-4.53s-2.68-3.51-1.9-4.78c.77-1.27,3.87-5.24,4.65-7.83,1.59-5.23,0-6.28,0-6.28Z"/>
        <path class="cls-9" d="m18.65,30.73c-1.28.63-3.3,2.46-3.3,2.46,0,0,.29,3.22,1.71,2.53,1.42-.69,1.98-1.89,2.27-2.45.3-.56,1.45-1.09,1.56-1.95.11-.86-.85-1.27-2.24-.59Z"/>
        <path class="cls-7" d="m16.15,29.49c-1.05-1.04-2.39-1.08-3.85-1.09-2.52-.03-4.28,2.72-4.74,4.52-.46,1.8.68,4.79,4.11,5.01,3.43.22,5.69-.29,6.29-1.88.27-.73.63-1.69,0-3.78-.31-1.04-.72-1.68-1.82-2.78Z"/>
        <path class="cls-7" d="m18.28,50.99c-.43-.12-.96-.65-.99-1.29-.08-1.8-.66-3.46-.66-5.88,0-4.03.7-5.61-.82-7.24-1.52-1.63-5.94-3.55-5.94-3.55,0,0-3.38,2.57-4.07,3.36-.6.69-.67,1.09-.69,1.85-.01.53-.54.92-.93.86.02.19.5.4,1.01.4.2,1.34.2,2.58.46,3.82.03.16-.31,1.27-.55,1.47.29.24.59.18.89.09-.17.52-.39,1.03-.71,1.21.02.26.55.37.83.37.08,1.3.13,2.71.04,4.44-.02.35-.32,1.59-.84,1.59.09.33.52.36.74.37-.06,1-.62,1.5-.95,1.53.12.26.27.44.66.44-.32,1.87-.28,5.11.49,6.23.71,1.03,2.76,2.52,7.11,4.34.87.36,2.78-2,2.94-3.34.15-1.34,1.18-7.89,1.18-8.91,0-.23,0-.45-.01-.66.29,0,.5,0,.79-.14-.29-.21-.86-.59-.86-1.05.57,0,.74,0,.88-.31Z"/>
        <path class="cls-4" d="m38.66,20.13c-2.26-.6-3.38,2.69-4.12,4.55-.73,1.86-2.82,11.01-2.82,11.01,0,0-6.78,1.2-9.33,3.04s-3.48.98-5.37.94-.64-.41-2.37.8c-1.73,1.21-2.49,4.05-2.02,5.21.47,1.16,3.95,1.08,5.89-.59,1.94-1.68,3.84-1.7,8.95-2.4,3.53-.49,8.33,0,10.45-5.68,2.11-5.69,5.55-15.61.74-16.88Z"/>
        <path class="cls-7" d="m24.98,32.27c-1.78.15-2.58,1.24-3.55,2.06-.97.83-3.75,3.57-5.32,3.42-1.57-.15-3.15.18-4.2,1.11s0,3.57,0,3.57c0,0,2.5.21,4.9-.37.48.22.88.14,1.27.62.19-.22.03-.87-.11-1.18.31,0,.85.53,1.62.25-.3-.41-.08-.87.13-1.05,1.71-1.51,3.81-4.96,5.26-5.93,1.63-1.1,1.78-2.65,0-2.5Z"/>
        <path class="cls-2" d="m5.2,39.51c-.48.73-.98,1.89-.25,3.02,1.18,1.82,2.13.83,2.14-.66,0-.52-.1-.98-.24-1.38-.6-.22-1.16-.56-1.65-.98Z"/>
        <path class="cls-7" d="m16.05,69.85c.42-1.43,2.7-6.98,2.79-9.69.2-5.46-1.81-7.66-1.81-7.66,0,0-5.28,8.66-5.91,9.21-.63.54,2.41,2.14,2.07,5.86-.34,3.72-.52,3.32-.41,4.22.1.9,3.42,3.69,4.9,5.1,1.48,1.41,2.62,2.15,3.02,1.17.4-.98.57-1.19-1.71-3.65-2.28-2.46-3.35-3.13-2.93-4.56Z"/>
        <path class="cls-7" d="m5.67,55.95c-.18,1.52-1.32,5.34-1.94,6.81-.11.26-1.07,1.18-1.54,1.1.12.48.3.62.71.62-.19.38-1.23,1.02-1.65,1.48.24.03.65.06.91.06-.11.26-1.13,1.03-1.46,1.03.05.3.37.38.78.5-.35.97-.68,2.2-.75,2.93-.02.27-.35,1-.73,1.06.14.33.44.47.77.44.03.24-.18,1.03-.53,1.24.27.32.33.25.74.27-.04.72-.32,1.12-.44,1.42.32.3.62.24.83.2.1.34-.27,1.16-.42,1.42.32.3.65.27.91.18-.17.59-.02,1.12.12,1.31q.42-.25.71-.55c.44.55,1.5.16,1.5-.27-.45,0-.79-.23-.93-.69.48.01,1.01-.28.93-.73-1.03-.3-.98-2.99-.89-3.95.29.21.68.08.89-.18-.45-.3-.67-1.44-.59-1.77.14.09.59.18.97-.24-.38-.24-.49-1.66-.38-1.97.25-.76,1.07-1.81,1.56-2.74.53-.99.99-2.06,1.24-2.75.12-.33.88-.25.95-.51.23-.91-.47-1.88-.46-2.74.04-3-1.56-5.13-1.82-2.97Z"/>
        <path class="cls-9" d="m13.97,53.29s-.16,1.34.89,1.95c1.04.61,1.87.06,1.87.06,0,0-.83-.17-1.61-.79s-1.14-1.22-1.14-1.22Z"/>
        <path class="cls-9" d="m12.98,54.62s-.06,1.15.65,1.78c.71.63,1.71,0,1.71,0,0,0-1.92-.85-2.36-1.78Z"/>
        <path class="cls-9" d="m6.88,55.85c-.41.42-.73.58-.73.58,0,0,.93.35,1.31-.24s.02-1.3.02-1.3c0,0-.19.53-.6.95Z"/>
        <path class="cls-9" d="m11.9,57.69s-.16.79.31,1.46c.47.67.77,1.1.77,1.1,0,0,.41-.79.06-1.42-.35-.63-1.14-1.14-1.14-1.14Z"/>
        <path class="cls-9" d="m11.03,58.97s0,.77,0,1.4c0,.63-.23,1.18-.23,1.18,0,0,.79-.39.9-1.18.12-.79-.67-1.4-.67-1.4Z"/>
        <path class="cls-9" d="m14.9,51.64s-.39.79,0,1.38c.39.59,1.09.59,1.09.59,0,0-.4-.45-.63-1.11-.23-.66-.46-.86-.46-.86Z"/>
        <path class="cls-9" d="m8.01,51.05s-.14.63-.36.94c-.23.31-.74.63-.74.63,0,0,.99.28,1.35-.43.35-.71-.24-1.14-.24-1.14Z"/>
        <path class="cls-9" d="m11.45,49.83s-.29.79,0,1.48c.29.68.68,1.19.68,1.19,0,0,.47-.78.08-1.45-.39-.67-.76-1.22-.76-1.22Z"/>
        <path class="cls-9" d="m13.18,48.77s-.13.97,0,1.25.98.63.98.63c0,0-.31-.71-.52-1.14-.21-.43-.46-.74-.46-.74Z"/>
        <path class="cls-9" d="m15.68,65.44c0,.24.31.83.31.83,0,0,.36-.76.32-1.34-.04-.59-.16-.98-.16-.98,0,0-.47,1.24-.47,1.49Z"/>
        <path class="cls-9" d="m16.31,62.06s.51.59.63,1.06c.12.47.2.98.2.98,0,0,.47-.63.28-1.3-.2-.67-1.1-.75-1.1-.75Z"/>
        <path class="cls-9" d="m2.89,68.36c.16.51.67.63.67.63,0,0-.43-1.06-.47-1.89,0,0-.35.75-.2,1.26Z"/>
        <path class="cls-9" d="m3.21,65.68c-.31.35-.55.59-.55.59,0,0,.51.24.9-.31.39-.55.18-1.03.18-1.03,0,0-.22.4-.54.75Z"/>
        <path class="cls-9" d="m2.37,68.58c.29.43,1.07.41,1.07.41,0,0-.82-.86-1.04-1.57,0,0-.32.74-.04,1.17Z"/>
        <path class="cls-9" d="m1.99,71.03s-.39.75-.28,1.18c.12.43.54.87.54.87,0,0,.18-.51,0-.98-.18-.47-.26-1.06-.26-1.06Z"/>
        <path class="cls-9" d="m1.44,70.2c-.2.43-.35.83-.35.83,0,0,.87-.39.93-.83.05-.43,0-.83,0-.83,0,0-.38.39-.57.83Z"/>
        <path class="cls-9" d="m2.01,74.14s0,.51.32.79c.32.28.87.24.87.24,0,0-.97-.59-1.19-1.02Z"/>
        <path class="cls-9" d="m5.13,62.06s-.24.79-.2,1.22c.04.43.2.83.2.83,0,0,.43-.47.31-1.02-.12-.55-.31-1.02-.31-1.02Z"/>
        <path class="cls-9" d="m4.6,62.05c-.16.41-.41.79-.41.79,0,0,.86-.03,1.03-.51.17-.48,0-1.24,0-1.24,0,0-.46.54-.62.95Z"/>
        <path class="cls-9" d="m12.13,63.87s.6,0,.93-.33c.25-.25.31-.52.31-.52,0,0-.51.32-1.18.36-.3.02-1.52-.53-1.93-.67-.94-.32-1.92-1.09-2.27-1.16-.8-.15-1,.63-1,.63,0,0,1.27,1.04,2.74,1.63,1.22.49,2.38,1.29,2.66,1.62.28.33.14.89.14.89,0,0,.6-.08.65-.7.05-.61-.2-.93-.2-.93,0,0,.41.04.79-.18.26-.15.39-.57.39-.57,0,0-.52.16-.98.24-.46.08-1.06-.32-1.06-.32Z"/>
        <path class="cls-9" d="m15.48,73.69c-2.11-2.24-2.7-1.9-2.7-1.9.27,1.22,3.18,3.52,4.9,5.1,1.72,1.58,2.13,1.76,2.52,1.62.4-.14.26-.26-.41-.96s-2.2-1.61-4.31-3.86Z"/>
        <path class="cls-9" d="m15.34,40.22s.63.5,1.28.36.94-.28.94-.28c0,0-.41-.31-.94-.28-.53.04-1.28.19-1.28.19Z"/>
        <path class="cls-9" d="m14.16,40.22s.43.17.99.1c.56-.07.99-.82.99-.82,0,0-.67.04-1.2.26s-.79.46-.79.46Z"/>
        <path class="cls-9" d="m18.37,38.97s.69.29,1.16.24.75-.42.75-.42c0,0-.37-.03-.85-.09-.47-.06-1.06.28-1.06.28Z"/>
        <path class="cls-9" d="m19.79,36.55c-.39.14-.65.71-.65.71,0,0,.65-.08.96-.29.31-.22.28-.69.28-.69,0,0-.2.14-.59.28Z"/>
        <path class="cls-9" d="m21.6,36.76c-.41.06-.71.28-.71.28,0,0,.36.26.75.22.39-.04.7-.49.7-.49,0,0-.33-.06-.74,0Z"/>
        <path class="cls-9" d="m5.72,38.44c-.28.31-.47.51-.47.51,0,0,.69.03.85-.26.16-.3.14-1.04.14-1.04,0,0-.24.47-.51.79Z"/>
        <path class="cls-9" d="m7.3,37.12s.39,0,.67-.26.49-.78.49-.78c0,0-.55.31-.79.53-.24.22-.37.51-.37.51Z"/>
        <path class="cls-9" d="m7.22,35.81c-.39.09-.55.27-.55.27,0,0,.43.39.78.19.34-.2.78-.46.78-.46,0,0-.61-.09-1,0Z"/>
        <path class="cls-9" d="m13.45,37.48s.26.49.53.67.77.04.77.04c0,0-.35-.31-.65-.43-.3-.12-.65-.27-.65-.27Z"/>
        <path class="cls-9" d="m12.79,37.12s-.22.39-.1.85c.12.46.44.62.44.62,0,0,.14-.44,0-.74-.14-.3-.34-.74-.34-.74Z"/>
        <path class="cls-9" d="m14.73,29.29c-.44.31-1.08,1.46-1.08,1.46,0,0,.52.24,1.08.69.55.45,1.07,1.16,1.07,1.16,0,0,.36-.24.35-.72-.01-.59-.4-1.48-.51-1.86-.2-.69-.47-1.04-.91-.73Z"/>
        <path class="cls-9" d="m8.9,28.35c.17.78.12,1.83.12,1.83,0,0,.46-.52.63-.69.17-.17.95,0,.95,0,0,0-.25-1.08-.63-1.39-.63-.5-1.19-.27-1.08.24Z"/>
      </g>
    </g>
  </g>
</svg>