<svg xmlns="http://www.w3.org/2000/svg" xmlns:xlink="http://www.w3.org/1999/xlink" width="77" zoomAndPan="magnify" viewBox="0 0 57.75 74.999997" height="100" preserveAspectRatio="xMidYMid meet" version="1.0"><defs><clipPath id="5814eaac4b"><path d="M 0 0.160156 L 57.5 0.160156 L 57.5 74.835938 L 0 74.835938 Z M 0 0.160156 " clip-rule="nonzero"/></clipPath></defs><g clip-path="url(#5814eaac4b)"><path fill="#d16a47" d="M 9.234375 0.160156 C 9.234375 0.160156 9.535156 3.472656 9.234375 4.980469 C 8.933594 6.484375 2.585938 20.339844 1.53125 24.554688 C 0.472656 28.773438 0.0195312 66.121094 1.53125 67.777344 C 3.039062 69.433594 5.457031 69.886719 12.105469 70.488281 C 18.75 71.089844 37.332031 75.15625 42.769531 74.554688 C 48.210938 73.953125 55.613281 70.1875 56.667969 68.679688 C 57.726562 67.175781 56.820312 29.074219 56.667969 24.554688 C 56.519531 20.039062 50.324219 5.582031 50.324219 4.828125 C 50.324219 4.074219 50.777344 0.160156 50.777344 0.160156 L 9.234375 0.160156 " fill-opacity="1" fill-rule="nonzero"/></g><path fill="#3f434c" d="M 42.621094 73.355469 C 42.367188 73.355469 42.164062 73.15625 42.160156 72.902344 C 42.15625 72.773438 41.96875 59.839844 41.875 46.941406 C 41.6875 20.703125 42.050781 20.195312 42.246094 19.921875 C 42.847656 19.082031 47.980469 8.597656 49.910156 4.628906 C 50.019531 4.398438 50.296875 4.304688 50.523438 4.414062 C 50.753906 4.523438 50.851562 4.800781 50.738281 5.027344 C 50.457031 5.605469 43.925781 19.050781 43.027344 20.410156 C 42.527344 22.199219 42.785156 52.714844 43.082031 72.890625 C 43.085938 73.144531 42.882812 73.351562 42.625 73.355469 L 42.621094 73.355469 " fill-opacity="1" fill-rule="nonzero"/><path fill="#f19d72" d="M 35.878906 37.386719 L 33.765625 39.730469 L 34.949219 42.65625 L 32.15625 44.132812 L 32.265625 47.285156 L 29.132812 47.726562 L 28.15625 50.722656 L 25.0625 50.070312 L 23.113281 52.550781 L 20.433594 50.882812 L 17.75 52.550781 L 15.800781 50.070312 L 12.707031 50.722656 L 11.730469 47.726562 L 8.601562 47.285156 L 8.707031 44.132812 L 5.914062 42.65625 L 7.101562 39.730469 L 4.988281 37.386719 L 7.101562 35.042969 L 5.914062 32.121094 L 8.707031 30.640625 L 8.601562 27.488281 L 11.730469 27.050781 L 12.707031 24.050781 L 15.800781 24.703125 L 17.75 22.222656 L 20.433594 23.894531 L 23.113281 22.222656 L 25.0625 24.703125 L 28.15625 24.050781 L 29.132812 27.050781 L 32.265625 27.488281 L 32.160156 30.640625 L 34.949219 32.121094 L 33.765625 35.042969 L 35.878906 37.386719 " fill-opacity="1" fill-rule="nonzero"/><path fill="#ffd5b8" d="M 45 64.5 L 45.566406 71.050781 L 54.855469 67.777344 L 54.855469 61.453125 L 45 64.5 " fill-opacity="1" fill-rule="nonzero"/><path fill="#fcf8eb" d="M 14.949219 35.550781 L 25.914062 35.292969 C 25.914062 35.292969 25.304688 32.246094 28.628906 32.847656 C 31.957031 33.453125 28.84375 37.347656 28.84375 37.347656 C 28.84375 37.347656 31.839844 38.28125 30.851562 41.015625 C 29.863281 43.746094 26.144531 39.734375 26.144531 39.734375 L 14.847656 39.664062 C 14.847656 39.664062 13.441406 42.824219 11.09375 41.285156 C 8.742188 39.746094 12.117188 37.542969 12.117188 37.542969 C 12.117188 37.542969 8.046875 34.816406 10.792969 33.582031 C 13.535156 32.347656 14.949219 35.550781 14.949219 35.550781 " fill-opacity="1" fill-rule="nonzero"/><path fill="#3f434c" d="M 12.652344 5.101562 L 10.441406 5.101562 C 10.289062 5.101562 10.167969 4.980469 10.167969 4.828125 C 10.167969 4.675781 10.289062 4.550781 10.441406 4.550781 L 12.652344 4.550781 C 12.808594 4.550781 12.929688 4.675781 12.929688 4.828125 C 12.929688 4.980469 12.808594 5.101562 12.652344 5.101562 Z M 17.078125 5.101562 L 14.867188 5.101562 C 14.714844 5.101562 14.589844 4.980469 14.589844 4.828125 C 14.589844 4.675781 14.714844 4.550781 14.867188 4.550781 L 17.078125 4.550781 C 17.230469 4.550781 17.355469 4.675781 17.355469 4.828125 C 17.355469 4.980469 17.230469 5.101562 17.078125 5.101562 Z M 21.5 5.101562 L 19.289062 5.101562 C 19.136719 5.101562 19.011719 4.980469 19.011719 4.828125 C 19.011719 4.675781 19.136719 4.550781 19.289062 4.550781 L 21.5 4.550781 C 21.652344 4.550781 21.777344 4.675781 21.777344 4.828125 C 21.777344 4.980469 21.652344 5.101562 21.5 5.101562 Z M 25.921875 5.101562 L 23.710938 5.101562 C 23.558594 5.101562 23.4375 4.980469 23.4375 4.828125 C 23.4375 4.675781 23.558594 4.550781 23.710938 4.550781 L 25.921875 4.550781 C 26.078125 4.550781 26.199219 4.675781 26.199219 4.828125 C 26.199219 4.980469 26.078125 5.101562 25.921875 5.101562 Z M 30.347656 5.101562 L 28.136719 5.101562 C 27.980469 5.101562 27.859375 4.980469 27.859375 4.828125 C 27.859375 4.675781 27.980469 4.550781 28.136719 4.550781 L 30.347656 4.550781 C 30.5 4.550781 30.621094 4.675781 30.621094 4.828125 C 30.621094 4.980469 30.5 5.101562 30.347656 5.101562 Z M 34.769531 5.101562 L 32.558594 5.101562 C 32.40625 5.101562 32.28125 4.980469 32.28125 4.828125 C 32.28125 4.675781 32.40625 4.550781 32.558594 4.550781 L 34.769531 4.550781 C 34.921875 4.550781 35.046875 4.675781 35.046875 4.828125 C 35.046875 4.980469 34.921875 5.101562 34.769531 5.101562 Z M 39.191406 5.101562 L 36.980469 5.101562 C 36.828125 5.101562 36.703125 4.980469 36.703125 4.828125 C 36.703125 4.675781 36.828125 4.550781 36.980469 4.550781 L 39.191406 4.550781 C 39.34375 4.550781 39.46875 4.675781 39.46875 4.828125 C 39.46875 4.980469 39.34375 5.101562 39.191406 5.101562 Z M 43.617188 5.101562 L 41.40625 5.101562 C 41.25 5.101562 41.128906 4.980469 41.128906 4.828125 C 41.128906 4.675781 41.25 4.550781 41.40625 4.550781 L 43.617188 4.550781 C 43.769531 4.550781 43.890625 4.675781 43.890625 4.828125 C 43.890625 4.980469 43.769531 5.101562 43.617188 5.101562 Z M 48.039062 5.101562 L 45.828125 5.101562 C 45.675781 5.101562 45.550781 4.980469 45.550781 4.828125 C 45.550781 4.675781 45.675781 4.550781 45.828125 4.550781 L 48.039062 4.550781 C 48.191406 4.550781 48.316406 4.675781 48.316406 4.828125 C 48.316406 4.980469 48.191406 5.101562 48.039062 5.101562 " fill-opacity="1" fill-rule="nonzero"/></svg>