<svg xmlns="http://www.w3.org/2000/svg" xmlns:xlink="http://www.w3.org/1999/xlink" width="85" zoomAndPan="magnify" viewBox="0 0 63.75 72.749998" height="97" preserveAspectRatio="xMidYMid meet" version="1.0"><defs><clipPath id="6687d09eba"><path d="M 0.015625 48.839844 L 63.5 48.839844 L 63.5 72.484375 L 0.015625 72.484375 Z M 0.015625 48.839844 " clip-rule="nonzero"/></clipPath><clipPath id="df7437462d"><path d="M 0.015625 30.410156 L 63.5 30.410156 L 63.5 67.433594 L 0.015625 67.433594 Z M 0.015625 30.410156 " clip-rule="nonzero"/></clipPath><clipPath id="4ccc0f24cc"><path d="M 0.015625 18.449219 L 63.5 18.449219 L 63.5 42.375 L 0.015625 42.375 Z M 0.015625 18.449219 " clip-rule="nonzero"/></clipPath><clipPath id="fc9023dde2"><path d="M 0.015625 0.015625 L 63.5 0.015625 L 63.5 37 L 0.015625 37 Z M 0.015625 0.015625 " clip-rule="nonzero"/></clipPath></defs><g clip-path="url(#6687d09eba)"><path fill="#f0a517" d="M 63.730469 48.863281 L 63.730469 54.328125 C 63.730469 59.046875 60.625 63.769531 54.414062 67.367188 C 41.972656 74.566406 21.792969 74.566406 9.351562 67.367188 C 3.121094 63.769531 0.015625 59.046875 0.015625 54.328125 L 0.015625 48.863281 L 63.730469 48.863281 " fill-opacity="1" fill-rule="nonzero"/></g><g clip-path="url(#df7437462d)"><path fill="#f0ce2f" d="M 54.40625 61.90625 C 41.964844 69.109375 21.792969 69.109375 9.351562 61.90625 C -3.089844 54.703125 -3.089844 43.023438 9.351562 35.820312 C 21.792969 28.617188 41.964844 28.617188 54.40625 35.820312 C 66.847656 43.023438 66.847656 54.703125 54.40625 61.90625 " fill-opacity="1" fill-rule="nonzero"/></g><path fill="#ed1d24" d="M 61.945312 36.855469 L 61.945312 47.375 C 61.945312 51.835938 59.007812 56.292969 53.148438 59.6875 C 41.414062 66.476562 22.351562 66.476562 10.613281 59.6875 C 4.738281 56.292969 1.800781 51.835938 1.800781 47.375 L 1.800781 36.855469 C 1.800781 41.296875 4.738281 45.753906 10.613281 49.148438 C 22.351562 55.957031 41.414062 55.957031 53.148438 49.148438 C 59.007812 45.753906 61.945312 41.296875 61.945312 36.855469 " fill-opacity="1" fill-rule="nonzero"/><path fill="#f0a517" d="M 61.945312 23.929688 L 61.945312 36.855469 C 61.945312 41.296875 59.007812 45.753906 53.148438 49.148438 C 41.414062 55.957031 22.351562 55.957031 10.613281 49.148438 C 4.738281 45.753906 1.800781 41.296875 1.800781 36.855469 L 1.800781 23.929688 L 61.945312 23.929688 " fill-opacity="1" fill-rule="nonzero"/><path fill="#f37b17" d="M 61.945312 23.929688 L 61.945312 32.082031 C 60.421875 34.617188 57.910156 36.988281 54.414062 39.019531 C 41.972656 46.21875 21.792969 46.21875 9.351562 39.019531 C 5.855469 36.988281 3.324219 34.617188 1.800781 32.082031 L 1.800781 23.929688 L 61.945312 23.929688 " fill-opacity="1" fill-rule="nonzero"/><g clip-path="url(#4ccc0f24cc)"><path fill="#f0a517" d="M 63.730469 18.464844 L 63.730469 23.929688 C 63.730469 28.648438 60.625 33.367188 54.414062 36.96875 C 41.972656 44.167969 21.792969 44.167969 9.351562 36.96875 C 3.121094 33.367188 0.015625 28.648438 0.015625 23.929688 L 0.015625 18.464844 L 63.730469 18.464844 " fill-opacity="1" fill-rule="nonzero"/></g><g clip-path="url(#fc9023dde2)"><path fill="#f0ce2f" d="M 54.40625 31.507812 C 41.964844 38.710938 21.792969 38.710938 9.351562 31.507812 C -3.089844 24.304688 -3.089844 12.625 9.351562 5.421875 C 21.792969 -1.785156 41.964844 -1.785156 54.40625 5.421875 C 66.847656 12.625 66.847656 24.304688 54.40625 31.507812 " fill-opacity="1" fill-rule="nonzero"/></g><path fill="#f0a517" d="M 52.375 30.332031 C 41.054688 36.886719 22.703125 36.886719 11.382812 30.332031 C 0.0664062 23.777344 0.0625 13.152344 11.382812 6.597656 C 22.703125 0.0429688 41.054688 0.0429688 52.375 6.597656 C 63.691406 13.152344 63.691406 23.777344 52.375 30.332031 " fill-opacity="1" fill-rule="nonzero"/><path fill="#f0ce2f" d="M 50.066406 28.996094 C 40.023438 34.808594 23.738281 34.808594 13.691406 28.996094 C 3.648438 23.179688 3.648438 13.75 13.691406 7.933594 C 23.734375 2.117188 40.019531 2.117188 50.066406 7.933594 C 60.109375 13.75 60.109375 23.179688 50.066406 28.996094 " fill-opacity="1" fill-rule="nonzero"/><path fill="#f0a517" d="M 35.386719 20.496094 C 33.449219 21.617188 30.308594 21.617188 28.371094 20.496094 C 26.433594 19.375 26.433594 17.554688 28.371094 16.433594 C 30.308594 15.3125 33.449219 15.3125 35.386719 16.433594 C 37.324219 17.554688 37.324219 19.375 35.386719 20.496094 " fill-opacity="1" fill-rule="nonzero"/><path fill="#f37b17" d="M 24.957031 22.199219 L 24.953125 23.71875 C 24.957031 23.042969 24.507812 22.363281 23.613281 21.84375 C 21.832031 20.8125 18.957031 20.804688 17.1875 21.835938 C 16.304688 22.351562 15.867188 23.023438 15.863281 23.695312 L 15.867188 22.175781 C 15.871094 21.5 16.3125 20.828125 17.191406 20.316406 C 18.960938 19.285156 21.835938 19.292969 23.617188 20.324219 C 24.511719 20.84375 24.960938 21.523438 24.957031 22.199219 " fill-opacity="1" fill-rule="nonzero"/><path fill="#f37b17" d="M 16.53125 25.585938 L 16.527344 27.105469 C 16.527344 26.816406 16.335938 26.527344 15.957031 26.308594 C 15.207031 25.875 13.988281 25.867188 13.246094 26.300781 C 12.867188 26.519531 12.679688 26.808594 12.679688 27.09375 L 12.683594 25.574219 C 12.6875 25.285156 12.875 25 13.25 24.777344 C 13.992188 24.347656 15.210938 24.351562 15.960938 24.785156 C 16.339844 25.003906 16.53125 25.296875 16.53125 25.585938 " fill-opacity="1" fill-rule="nonzero"/><path fill="#f0a517" d="M 13.246094 26.367188 C 13.996094 26.800781 15.226562 26.800781 15.980469 26.359375 C 16.726562 25.929688 16.707031 25.21875 15.960938 24.785156 C 15.210938 24.351562 13.992188 24.347656 13.25 24.777344 C 12.496094 25.21875 12.5 25.933594 13.246094 26.367188 Z M 17.210938 24.058594 C 18.992188 25.089844 21.867188 25.082031 23.636719 24.050781 C 25.40625 23.019531 25.398438 21.355469 23.617188 20.324219 C 21.835938 19.292969 18.960938 19.285156 17.191406 20.316406 C 15.421875 21.347656 15.429688 23.027344 17.210938 24.058594 Z M 25.105469 19.457031 C 28.035156 21.15625 28.050781 23.921875 25.136719 25.617188 C 22.210938 27.324219 14.304688 29.160156 11.371094 27.460938 C 8.425781 25.757812 11.574219 21.164062 14.5 19.457031 C 17.414062 17.757812 22.160156 17.753906 25.105469 19.457031 " fill-opacity="1" fill-rule="nonzero"/><path fill="#f37b17" d="M 27.3125 22.558594 L 27.308594 24.078125 C 27.304688 25.1875 26.582031 26.292969 25.132812 27.140625 C 22.207031 28.84375 14.300781 30.679688 11.367188 28.980469 C 10.53125 28.496094 10.183594 27.777344 10.1875 26.960938 L 10.191406 25.441406 C 10.1875 26.257812 10.535156 26.976562 11.371094 27.460938 C 14.304688 29.160156 22.210938 27.324219 25.136719 25.617188 C 26.585938 24.773438 27.308594 23.667969 27.3125 22.558594 " fill-opacity="1" fill-rule="nonzero"/><path fill="#314049" d="M 47.644531 43.585938 L 47.644531 48.230469 C 38.011719 51.679688 25.753906 51.679688 16.101562 48.230469 L 16.101562 43.585938 C 25.753906 47.035156 38.011719 47.035156 47.644531 43.585938 " fill-opacity="1" fill-rule="nonzero"/><path fill="#314049" d="M 40.949219 52.414062 L 40.949219 57.058594 C 35.054688 58.140625 28.691406 58.140625 22.796875 57.058594 L 22.796875 52.394531 C 28.691406 53.496094 35.054688 53.496094 40.949219 52.414062 " fill-opacity="1" fill-rule="nonzero"/><path fill="#314049" d="M 40.949219 58.664062 L 40.949219 60.117188 C 35.054688 61.199219 28.691406 61.199219 22.796875 60.097656 L 22.796875 58.644531 C 28.691406 59.742188 35.054688 59.742188 40.949219 58.664062 " fill-opacity="1" fill-rule="nonzero"/><path fill="#314049" d="M 40.949219 61.257812 L 40.949219 62.710938 C 35.054688 63.792969 28.691406 63.792969 22.796875 62.691406 L 22.796875 61.238281 C 28.691406 62.339844 35.054688 62.339844 40.949219 61.257812 " fill-opacity="1" fill-rule="nonzero"/><path fill="#d0cfec" d="M 55.097656 49.375 C 53.371094 50.375 51.980469 49.558594 51.980469 47.570312 C 51.980469 45.570312 53.371094 43.15625 55.097656 42.15625 C 56.816406 41.160156 58.214844 41.960938 58.214844 43.960938 C 58.214844 45.949219 56.816406 48.378906 55.097656 49.375 Z M 55.097656 41.480469 C 53.050781 42.667969 51.398438 45.535156 51.398438 47.90625 C 51.398438 50.265625 53.050781 51.234375 55.097656 50.046875 C 57.136719 48.867188 58.796875 45.980469 58.796875 43.625 C 58.796875 41.253906 57.136719 40.300781 55.097656 41.480469 " fill-opacity="1" fill-rule="nonzero"/><path fill="#d0cfec" d="M 56.703125 44.832031 C 56.703125 45.859375 55.984375 47.109375 55.097656 47.625 C 54.210938 48.136719 53.488281 47.722656 53.488281 46.695312 C 53.488281 45.667969 54.210938 44.417969 55.097656 43.902344 C 55.984375 43.390625 56.703125 43.804688 56.703125 44.832031 " fill-opacity="1" fill-rule="nonzero"/><path fill="#d0cfec" d="M 11.785156 43.914062 L 11.785156 45.554688 C 11.359375 45.351562 10.949219 45.128906 10.539062 44.882812 C 6.691406 42.664062 4.105469 39.980469 2.785156 37.144531 L 2.785156 35.503906 C 4.105469 38.335938 6.691406 41.023438 10.539062 43.242188 C 10.949219 43.484375 11.359375 43.710938 11.785156 43.914062 " fill-opacity="1" fill-rule="nonzero"/><path fill="#d0cfec" d="M 11.785156 47.40625 L 11.785156 49.046875 C 11.359375 48.839844 10.949219 48.617188 10.539062 48.375 C 6.691406 46.15625 4.105469 43.46875 2.785156 40.632812 L 2.785156 38.992188 C 4.105469 41.828125 6.691406 44.515625 10.539062 46.734375 C 10.949219 46.976562 11.359375 47.199219 11.785156 47.40625 " fill-opacity="1" fill-rule="nonzero"/><path fill="#d0cfec" d="M 11.785156 50.894531 L 11.785156 52.539062 C 11.359375 52.332031 10.949219 52.109375 10.539062 51.867188 C 6.691406 49.644531 4.105469 46.960938 2.785156 44.125 L 2.785156 42.484375 C 4.105469 45.316406 6.691406 48.003906 10.539062 50.222656 C 10.949219 50.464844 11.359375 50.691406 11.785156 50.894531 " fill-opacity="1" fill-rule="nonzero"/><path fill="#d0cfec" d="M 11.785156 54.386719 L 11.785156 56.027344 C 11.359375 55.820312 10.949219 55.597656 10.539062 55.355469 C 6.691406 53.136719 4.105469 50.449219 2.785156 47.613281 L 2.785156 45.972656 C 4.105469 48.808594 6.691406 51.496094 10.539062 53.714844 C 10.949219 53.957031 11.359375 54.179688 11.785156 54.386719 " fill-opacity="1" fill-rule="nonzero"/></svg>